<svg width="32" height="32" viewBox="0 0 32 32" fill="none" xmlns="http://www.w3.org/2000/svg">
<circle cx="16" cy="16" r="16" fill="#25DA83" style="fill:#25DA83;fill:color(display-p3 0.1459 0.8542 0.5142);fill-opacity:1;"/>
<path fill-rule="evenodd" clip-rule="evenodd" d="M12.5391 15.964C12.3628 15.9877 12.1828 16 12 16C9.79086 16 8 14.2091 8 12C8 9.79086 9.79086 8 12 8C14.2091 8 16 9.79086 16 12C16 12.084 15.9974 12.1673 15.9923 12.25H12.5391V15.964ZM12.5391 16.036C12.3628 16.0123 12.1828 16 12 16C9.79086 16 8 17.7909 8 20C8 22.2091 9.79086 24 12 24C14.2091 24 16 22.2091 16 20C16 22.2091 17.7909 24 20 24C22.2091 24 24 22.2091 24 20C24 17.7909 22.2091 16 20 16C22.2091 16 24 14.2091 24 12C24 9.79086 22.2091 8 20 8C17.7909 8 16 9.79086 16 12C16 12.084 16.0026 12.1673 16.0077 12.25H15.9923C15.8744 14.1627 14.4123 15.7116 12.5391 15.964V16.036ZM15.9641 19.4615C15.7248 17.6834 14.3172 16.2755 12.5391 16.036V19.4615H15.9641ZM16.0359 19.4615C16.0122 19.6377 16 19.8174 16 20C16 19.8174 15.9878 19.6377 15.9641 19.4615H16.0359ZM19.7506 16.0076C17.8375 16.1253 16.288 17.5878 16.0359 19.4615H19.7506V16.0076ZM19.7506 16.0076C19.8331 16.0026 19.9162 16 20 16C19.9162 16 19.8331 15.9974 19.7506 15.9924V12.25H16.0077C16.1316 14.2602 17.7403 15.8687 19.7506 15.9924V16.0076Z" fill="black" style="fill:black;fill-opacity:1;"/>
</svg>
