<svg width="48" height="48" viewBox="0 0 48 48" fill="none" xmlns="http://www.w3.org/2000/svg">
<path fill-rule="evenodd" clip-rule="evenodd" d="M12.3098 23.9961C12.2069 23.9987 12.1036 24 12 24C5.37258 24 0 18.6274 0 12C0 5.37258 5.37258 0 12 0C18.5844 0 23.9302 5.30311 23.9993 11.8712H12.3098V23.9961ZM24 12C24 18.5238 18.794 23.8318 12.3098 23.9961V24.0039C12.2069 24.0013 12.1036 24 12 24C5.37258 24 0 29.3726 0 36C0 42.6274 5.37258 48 12 48C18.5872 48 23.9348 42.6924 23.9994 36.1204H24.0006C24.0652 42.6924 29.4128 48 36 48C42.6274 48 48 42.6274 48 36C48 29.56 42.9269 24.3048 36.559 24.0128V23.9872C42.9269 23.6952 48 18.44 48 12C48 5.37258 42.6274 0 36 0C29.4156 0 24.0698 5.30311 24.0007 11.8712H23.9993C23.9998 11.9141 24 11.957 24 12ZM36 24C29.3726 24 24 18.6274 24 12C24 11.957 24.0002 11.9141 24.0007 11.8712H36.559V23.9872C36.3737 23.9957 36.1874 24 36 24ZM24 36C24 29.4762 18.794 24.1682 12.3098 24.0039V36.1204H23.9994C23.9998 36.0803 24 36.0402 24 36ZM24 36C24 29.3726 29.3726 24 36 24C36.1874 24 36.3737 24.0043 36.559 24.0128V36.1204H24.0006C24.0002 36.0803 24 36.0402 24 36Z" fill="#25DA83" style="fill:#25DA83;fill:color(display-p3 0.1459 0.8542 0.5142);fill-opacity:1;"/>
</svg>
