<svg width="162" height="162" viewBox="0 0 162 162" fill="none" xmlns="http://www.w3.org/2000/svg">
<rect width="162" height="162" fill="#292929" style="fill:#292929;fill:color(display-p3 0.1608 0.1608 0.1608);fill-opacity:1;"/>
<path d="M136.289 91.4563C138.077 90.8014 138.878 88.973 139.187 88.0689C139.372 87.5269 139.618 87.7302 139.803 88.4754C140.235 90.7111 141.837 91.1176 142.454 91.5241C143.255 91.9306 142.639 91.9644 142.331 92.1338C142.084 92.2693 141.611 92.5019 141.406 92.6521C140.431 93.3442 139.944 94.6364 139.865 95.1148C139.741 95.86 139.466 95.9955 139.248 95.2503C138.693 93.3533 137.522 92.3371 136.597 92.1338C135.611 91.9306 135.734 91.6596 136.289 91.4563Z" fill="#4C4C4C" style="fill:#4C4C4C;fill:color(display-p3 0.2988 0.2982 0.2982);fill-opacity:1;"/>
<path d="M133.114 84.6193C134.136 84.2918 134.594 83.3776 134.77 82.9256C134.876 82.6546 135.017 82.7562 135.122 83.1288C135.369 84.2467 136.285 84.4499 136.637 84.6532C137.095 84.8564 136.743 84.8733 136.567 84.958C136.426 85.0258 136.156 85.1421 136.038 85.2171C135.481 85.5632 135.203 86.2093 135.158 86.4485C135.087 86.8211 134.93 86.8889 134.805 86.5162C134.488 85.5678 133.819 85.0596 133.291 84.958C132.727 84.8564 132.797 84.7209 133.114 84.6193Z" fill="#4C4C4C" style="fill:#4C4C4C;fill:color(display-p3 0.2988 0.2982 0.2982);fill-opacity:1;"/>
<path d="M76.6576 119.248C79.4669 118.266 80.7263 115.523 81.2108 114.167C81.5012 113.354 81.8887 113.659 82.1795 114.777C82.8575 118.13 85.3763 118.74 86.3451 119.35C87.6043 119.96 86.6355 120.01 86.1512 120.264C85.7637 120.468 85.021 120.817 84.6981 121.042C83.1668 122.08 82.4006 124.018 82.2762 124.736C82.0825 125.854 81.6501 126.057 81.3075 124.939C80.4355 122.094 78.595 120.569 77.142 120.264C75.592 119.96 75.7857 119.553 76.6576 119.248Z" fill="#4C4C4C" style="fill:#4C4C4C;fill:color(display-p3 0.2988 0.2982 0.2982);fill-opacity:1;"/>
<path d="M71.3651 109.493C72.8974 109.001 73.5844 107.63 73.8486 106.952C74.0071 106.546 74.2184 106.698 74.377 107.257C74.7468 108.934 76.1208 109.239 76.6492 109.543C77.336 109.848 76.8076 109.874 76.5434 110.001C76.332 110.102 75.9269 110.277 75.7508 110.389C74.9156 110.909 74.4976 111.878 74.4298 112.236C74.3241 112.795 74.0883 112.897 73.9014 112.338C73.4257 110.915 72.4219 110.153 71.6293 110.001C70.7838 109.848 70.8895 109.645 71.3651 109.493Z" fill="#4C4C4C" style="fill:#4C4C4C;fill:color(display-p3 0.2988 0.2982 0.2982);fill-opacity:1;"/>
<path d="M119.331 121.186C114.927 130.607 123.197 138.088 127.883 140.651L132.031 133.233C125.936 135.143 119.249 124.929 119.331 121.186Z" fill="#3B3B3B" style="fill:#3B3B3B;fill:color(display-p3 0.2300 0.2300 0.2300);fill-opacity:1;"/>
<path fill-rule="evenodd" clip-rule="evenodd" d="M112.552 133.918C116.721 131.988 119.052 127.657 118.78 123.17C122.005 125.935 126.551 126.773 130.517 124.937C136.018 122.389 138.32 115.661 135.659 109.909C133.79 105.869 129.969 103.385 125.953 103.147C128.024 99.9805 128.435 95.7502 126.675 91.9466C124.013 86.1944 117.396 83.5964 111.895 86.1437C108.042 87.9276 105.758 91.7619 105.65 95.8756C102.425 93.1246 97.8908 92.2947 93.9337 94.127C88.4324 96.6743 86.1302 103.402 88.7916 109.155C90.7723 113.435 94.9439 115.969 99.216 115.936C96.5357 119.169 95.8235 123.904 97.772 128.115C100.433 133.868 107.051 136.466 112.552 133.918Z" fill="#3B3B3B" style="fill:#3B3B3B;fill:color(display-p3 0.2300 0.2300 0.2300);fill-opacity:1;"/>
</svg>
