<svg width="143" height="211" viewBox="0 0 143 211" fill="none" xmlns="http://www.w3.org/2000/svg">
<path fill-rule="evenodd" clip-rule="evenodd" d="M8.45543 0H133.545C138.214 0 142 3.78562 142 8.45543V202.545C142 207.214 138.214 211 133.545 211H8.45543C3.78563 211 0 207.214 0 202.545V8.45542C0 3.78562 3.78562 0 8.45543 0ZM72.1734 143.014C71.2556 142.104 69.7444 142.104 68.8266 143.014C63.2243 148.569 55.5129 152 47 152C29.8792 152 16 138.121 16 121C16 112.253 19.6224 104.353 25.4488 98.7166C26.4085 97.7883 26.4085 96.2117 25.4488 95.2834C19.6224 89.6472 16 81.7466 16 73C16 55.8792 29.8792 42 47 42C55.5129 42 63.2243 45.4314 68.8266 50.9864C69.7444 51.8964 71.2556 51.8964 72.1734 50.9864C77.7757 45.4314 85.4871 42 94 42C111.121 42 125 55.8792 125 73C125 81.7466 121.378 89.6472 115.551 95.2834C114.591 96.2117 114.591 97.7883 115.551 98.7166C121.378 104.353 125 112.253 125 121C125 138.121 111.121 152 94 152C85.4871 152 77.7757 148.569 72.1734 143.014Z" fill="#FE77AC" style="fill:#FE77AC;fill:color(display-p3 0.9973 0.4678 0.6755);fill-opacity:1;"/>
<mask id="mask0_2536_8772" style="mask-type:alpha" maskUnits="userSpaceOnUse" x="0" y="0" width="142" height="211">
<path fill-rule="evenodd" clip-rule="evenodd" d="M8.45543 0H133.545C138.214 0 142 3.78562 142 8.45543V202.545C142 207.214 138.214 211 133.545 211H8.45543C3.78563 211 0 207.214 0 202.545V8.45542C0 3.78562 3.78562 0 8.45543 0ZM72.1734 143.014C71.2556 142.104 69.7444 142.104 68.8266 143.014C63.2243 148.569 55.5129 152 47 152C29.8792 152 16 138.121 16 121C16 112.253 19.6224 104.353 25.4488 98.7166C26.4085 97.7883 26.4085 96.2117 25.4488 95.2834C19.6224 89.6472 16 81.7466 16 73C16 55.8792 29.8792 42 47 42C55.5129 42 63.2243 45.4314 68.8266 50.9864C69.7444 51.8964 71.2556 51.8964 72.1734 50.9864C77.7757 45.4314 85.4871 42 94 42C111.121 42 125 55.8792 125 73C125 81.7466 121.378 89.6472 115.551 95.2834C114.591 96.2117 114.591 97.7883 115.551 98.7166C121.378 104.353 125 112.253 125 121C125 138.121 111.121 152 94 152C85.4871 152 77.7757 148.569 72.1734 143.014Z" fill="#25DA83" style="fill:#25DA83;fill:color(display-p3 0.1459 0.8542 0.5142);fill-opacity:1;"/>
</mask>
<g mask="url(#mask0_2536_8772)">
<g opacity="0.3">
<path fill-rule="evenodd" clip-rule="evenodd" d="M10.4962 142.934C9.862 142.124 9.01139 141.465 7.98691 141.058C4.9078 139.833 1.42413 141.339 0.205903 144.42C-0.546564 146.324 -0.258707 148.383 0.797004 149.969C-0.786083 150.523 -2.12836 151.736 -2.7941 153.42C-4.01232 156.502 -2.50378 159.993 0.575332 161.217C2.16864 161.851 3.87027 161.754 5.31028 161.085C5.9274 162.465 7.06169 163.615 8.57571 164.218C11.6548 165.442 15.1385 163.937 16.3567 160.855C16.941 159.377 16.898 157.805 16.3555 156.434C18.1148 155.956 19.6342 154.683 20.3567 152.855C21.5749 149.774 20.0664 146.283 16.9873 145.058C15.5493 144.486 14.023 144.51 12.6805 145.011C12.6939 144.983 12.7074 144.956 12.7212 144.928C13.5317 143.305 14.6907 142.269 16.3481 142.301C17.1399 142.316 17.768 141.694 17.7509 140.91C17.7339 140.127 17.0782 139.479 16.2864 139.464C13.4172 139.408 11.5875 141.101 10.4962 142.934Z" fill="white" style="fill:white;fill-opacity:1;"/>
<path d="M10.4962 142.934L10.723 143.07L10.526 143.401L10.2884 143.097L10.4962 142.934ZM0.797004 149.969L1.01661 149.822L1.20553 150.106L0.884488 150.218L0.797004 149.969ZM5.31028 161.085L5.19894 160.846L5.44174 160.733L5.55124 160.978L5.31028 161.085ZM16.3555 156.434L16.1101 156.531L16.0013 156.256L16.286 156.179L16.3555 156.434ZM12.6805 145.011L12.7731 145.259L12.1542 145.49L12.443 144.895L12.6805 145.011ZM12.7212 144.928L12.4849 144.81L12.4849 144.81L12.7212 144.928ZM16.3481 142.301L16.3529 142.037L16.3529 142.037L16.3481 142.301ZM16.2864 139.464L16.2816 139.728L16.2816 139.728L16.2864 139.464ZM8.08405 140.812C9.15324 141.237 10.0416 141.925 10.7039 142.771L10.2884 143.097C9.68235 142.322 8.86954 141.693 7.88977 141.304L8.08405 140.812ZM-0.0396229 144.323C1.23225 141.105 4.86934 139.534 8.08405 140.812L7.88977 141.304C4.94626 140.133 1.616 141.572 0.451428 144.518L-0.0396229 144.323ZM0.5774 150.115C-0.524365 148.461 -0.825312 146.31 -0.0396229 144.323L0.451428 144.518C-0.267816 146.337 0.00695062 148.306 1.01661 149.822L0.5774 150.115ZM-3.03962 153.323C-2.34455 151.564 -0.942712 150.297 0.709521 149.719L0.884488 150.218C-0.629453 150.748 -1.91218 151.908 -2.54857 153.518L-3.03962 153.323ZM0.478192 161.463C-2.73652 160.185 -4.3115 156.54 -3.03962 153.323L-2.54857 153.518C-3.71315 156.464 -2.27104 159.801 0.672472 160.972L0.478192 161.463ZM5.42163 161.325C3.91864 162.023 2.14164 162.125 0.478192 161.463L0.672472 160.972C2.19563 161.578 3.8219 161.485 5.19894 160.846L5.42163 161.325ZM8.47857 164.463C6.89797 163.835 5.71348 162.634 5.06933 161.193L5.55124 160.978C6.14133 162.297 7.22542 163.396 8.67285 163.972L8.47857 164.463ZM16.6022 160.953C15.3304 164.17 11.6933 165.742 8.47857 164.463L8.67285 163.972C11.6164 165.143 14.9466 163.704 16.1112 160.758L16.6022 160.953ZM16.601 156.337C17.1673 157.768 17.2122 159.41 16.6022 160.953L16.1112 160.758C16.6697 159.345 16.6288 157.842 16.1101 156.531L16.601 156.337ZM20.6022 152.953C19.8478 154.861 18.2611 156.191 16.425 156.689L16.286 156.179C17.9685 155.722 19.4206 154.505 20.1112 152.758L20.6022 152.953ZM17.0844 144.812C20.2991 146.091 21.8741 149.736 20.6022 152.953L20.1112 152.758C21.2758 149.812 19.8337 146.474 16.8901 145.304L17.0844 144.812ZM12.5879 144.763C13.9893 144.24 15.5832 144.215 17.0844 144.812L16.8901 145.304C15.5153 144.757 14.0567 144.779 12.7731 145.259L12.5879 144.763ZM12.443 144.895C12.4568 144.867 12.4708 144.838 12.4849 144.81L12.9574 145.047C12.9441 145.074 12.931 145.1 12.918 145.127L12.443 144.895ZM12.4849 144.81C13.319 143.139 14.5524 142.002 16.3529 142.037L16.3434 142.565C14.829 142.536 13.7444 143.471 12.9574 145.047L12.4849 144.81ZM16.3529 142.037C16.9979 142.049 17.5007 141.546 17.487 140.916L18.0149 140.905C18.0353 141.842 17.2819 142.584 16.3434 142.565L16.3529 142.037ZM17.487 140.916C17.473 140.277 16.9345 139.741 16.2816 139.728L16.2911 139.199C17.2218 139.217 17.9947 139.977 18.0149 140.905L17.487 140.916ZM16.2816 139.728C13.5403 139.675 11.7856 141.285 10.723 143.07L10.2693 142.799C11.3894 140.917 13.2942 139.141 16.2911 139.199L16.2816 139.728Z" fill="black" fill-opacity="0.2" style="fill:black;fill-opacity:0.2;"/>
<path fill-rule="evenodd" clip-rule="evenodd" d="M22.4963 -1.06553C21.8621 -1.87628 21.0115 -2.53469 19.9869 -2.94217C16.9078 -4.16682 13.4241 -2.66141 12.2059 0.420244C11.4534 2.3237 11.7413 4.38331 12.797 5.96856C11.2139 6.52286 9.87164 7.73619 9.2059 9.42024C7.98768 12.5019 9.49622 15.9928 12.5753 17.2175C14.1686 17.8512 15.8703 17.7539 17.3103 17.0854C17.9274 18.4654 19.0617 19.6155 20.5757 20.2177C23.6548 21.4423 27.1385 19.9369 28.3567 16.8552C28.941 15.3773 28.898 13.8053 28.3555 12.4343C30.1148 11.9562 31.6342 10.6829 32.3567 8.85524C33.5749 5.77359 32.0664 2.28264 28.9873 1.058C27.5494 0.486102 26.0232 0.509576 24.6808 1.01092C24.6941 0.983368 24.7077 0.955885 24.7214 0.928468C25.5319 -0.695025 26.6909 -1.73117 28.3484 -1.69887C29.1403 -1.68344 29.7684 -2.30607 29.7513 -3.08956C29.7342 -3.87305 29.0785 -4.5207 28.2867 -4.53613C25.4175 -4.59205 23.5876 -2.89911 22.4963 -1.06553Z" fill="white" style="fill:white;fill-opacity:1;"/>
<path d="M22.4963 -1.06553L22.7232 -0.929894L22.5261 -0.59889L22.2885 -0.90267L22.4963 -1.06553ZM12.797 5.96856L13.0166 5.82208L13.2055 6.10577L12.8845 6.21818L12.797 5.96856ZM17.3103 17.0854L17.1989 16.8455L17.4417 16.7328L17.5512 16.9777L17.3103 17.0854ZM28.3555 12.4343L28.1101 12.5314L28.0013 12.2564L28.286 12.1791L28.3555 12.4343ZM24.6808 1.01092L24.7734 1.25869L24.1544 1.48983L24.4433 0.894993L24.6808 1.01092ZM24.7214 0.928468L24.4852 0.809934L24.4852 0.809933L24.7214 0.928468ZM28.3484 -1.69887L28.3532 -1.96324L28.3532 -1.96324L28.3484 -1.69887ZM29.7513 -3.08956L29.4873 -3.0842L29.4873 -3.0842L29.7513 -3.08956ZM28.2867 -4.53613L28.282 -4.27176L28.282 -4.27176L28.2867 -4.53613ZM20.0841 -3.1879C21.1533 -2.76263 22.0418 -2.07509 22.7041 -1.22839L22.2885 -0.90267C21.6825 -1.67748 20.8696 -2.30674 19.8898 -2.69644L20.0841 -3.1879ZM11.9604 0.322592C13.2323 -2.89477 16.8693 -4.46648 20.0841 -3.1879L19.8898 -2.69644C16.9463 -3.86716 13.616 -2.42805 12.4514 0.517895L11.9604 0.322592ZM12.5774 6.11504C11.4756 4.46064 11.1747 2.31009 11.9604 0.322592L12.4514 0.517895C11.7322 2.33732 12.007 4.30599 13.0166 5.82208L12.5774 6.11504ZM8.96038 9.32259C9.65545 7.56432 11.0573 6.29745 12.7095 5.71894L12.8845 6.21818C11.3705 6.74827 10.0878 7.90805 9.45143 9.5179L8.96038 9.32259ZM12.4782 17.4632C9.26348 16.1846 7.6885 12.54 8.96038 9.32259L9.45143 9.5179C8.28685 12.4638 9.72896 15.801 12.6725 16.9718L12.4782 17.4632ZM17.4216 17.3254C15.9186 18.023 14.1416 18.1248 12.4782 17.4632L12.6725 16.9718C14.1956 17.5776 15.8219 17.4847 17.1989 16.8455L17.4216 17.3254ZM20.4786 20.4634C18.898 19.8347 17.7135 18.6336 17.0693 17.1932L17.5512 16.9777C18.1413 18.2972 19.2254 19.3962 20.6728 19.9719L20.4786 20.4634ZM28.6022 16.9529C27.3304 20.1703 23.6933 21.742 20.4786 20.4634L20.6728 19.9719C23.6164 21.1426 26.9466 19.7035 28.1112 16.7576L28.6022 16.9529ZM28.601 12.3372C29.1673 13.7683 29.2122 15.41 28.6022 16.9529L28.1112 16.7576C28.6697 15.3447 28.6288 13.8423 28.1101 12.5314L28.601 12.3372ZM32.6022 8.95289C31.8478 10.8612 30.2611 12.1905 28.425 12.6895L28.286 12.1791C29.9685 11.7219 31.4206 10.5046 32.1112 8.75759L32.6022 8.95289ZM29.0844 0.812272C32.2991 2.09085 33.8741 5.73553 32.6022 8.95289L32.1112 8.75759C33.2758 5.81165 31.8337 2.47444 28.8901 1.30373L29.0844 0.812272ZM24.5882 0.763147C25.9895 0.239814 27.5833 0.215247 29.0844 0.812272L28.8901 1.30373C27.5154 0.756956 26.0569 0.779338 24.7734 1.25869L24.5882 0.763147ZM24.4433 0.894993C24.4571 0.866583 24.471 0.838231 24.4852 0.809934L24.9576 1.047C24.9443 1.07354 24.9312 1.10015 24.9183 1.12684L24.4433 0.894993ZM24.4852 0.809933C25.3192 -0.860686 26.5526 -1.99833 28.3532 -1.96324L28.3437 -1.4345C26.8292 -1.46401 25.7446 -0.529363 24.9576 1.047L24.4852 0.809933ZM28.3532 -1.96324C28.9983 -1.95067 29.501 -2.45399 29.4873 -3.0842L30.0153 -3.09492C30.0357 -2.15815 29.2823 -1.41621 28.3437 -1.4345L28.3532 -1.96324ZM29.4873 -3.0842C29.4734 -3.72297 28.9349 -4.25904 28.282 -4.27176L28.2914 -4.8005C29.2222 -4.78237 29.9951 -4.02313 30.0153 -3.09492L29.4873 -3.0842ZM28.282 -4.27176C25.5405 -4.32519 23.7857 -2.71512 22.7232 -0.929894L22.2694 -1.20117C23.3895 -3.08309 25.2944 -4.85891 28.2914 -4.8005L28.282 -4.27176Z" fill="black" fill-opacity="0.2" style="fill:black;fill-opacity:0.2;"/>
<path fill-rule="evenodd" clip-rule="evenodd" d="M14.7267 96.5657C13.5702 95.061 13.1425 93.0341 13.7567 91.0888C14.7544 87.9288 18.1234 86.1804 21.2816 87.1836C23.1494 87.7769 24.5251 89.1997 25.1312 90.917C26.5934 89.9373 28.4721 89.6088 30.2816 90.1836C33.4398 91.1868 35.1913 94.5617 34.1936 97.7217C33.6024 99.5942 32.1784 100.971 30.4591 101.573C31.4356 103.037 31.7641 104.915 31.1936 106.722C30.1959 109.882 26.8269 111.63 23.6687 110.627C22.9309 110.392 22.2699 110.029 21.7027 109.568C20.7271 111.402 19.0417 113.104 16.2734 113.246C15.4826 113.287 14.7827 112.687 14.7103 111.907C14.6378 111.126 15.2202 110.461 16.0111 110.42C17.6524 110.336 18.7307 109.238 19.425 107.585C18.2515 107.989 16.9427 108.032 15.6682 107.627C12.51 106.624 10.7585 103.249 11.7562 100.089C12.2573 98.5019 13.3565 97.2709 14.7267 96.5657Z" fill="white" style="fill:white;fill-opacity:1;"/>
<path d="M14.7267 96.5657L14.9359 96.4047L15.1291 96.6561L14.8477 96.8009L14.7267 96.5657ZM25.1312 90.917L25.2783 91.1368L24.9956 91.3262L24.8822 91.0048L25.1312 90.917ZM30.2816 90.1836L30.202 90.4356L30.2816 90.1836ZM30.4591 101.573L30.2396 101.72L30.0504 101.436L30.3716 101.324L30.4591 101.573ZM21.7027 109.568L21.4696 109.444L21.62 109.161L21.8689 109.363L21.7027 109.568ZM16.2734 113.246L16.2873 113.51L16.2873 113.51L16.2734 113.246ZM16.0111 110.42L16.025 110.684L16.025 110.684L16.0111 110.42ZM19.425 107.585L19.3389 107.335L19.8972 107.143L19.6684 107.688L19.425 107.585ZM14.0085 91.1687C13.4215 93.0282 13.8299 94.9656 14.9359 96.4047L14.5174 96.7267C13.3105 95.1563 12.8636 93.04 13.5049 91.0088L14.0085 91.1687ZM21.202 87.4356C18.1829 86.4766 14.9623 88.148 14.0085 91.1687L13.5049 91.0088C14.5465 87.7096 18.0639 85.8843 21.3612 86.9317L21.202 87.4356ZM24.8822 91.0048C24.3026 89.3624 22.9874 88.0027 21.202 87.4356L21.3612 86.9317C23.3113 87.5511 24.7477 89.0371 25.3802 90.8293L24.8822 91.0048ZM30.202 90.4356C28.4724 89.8862 26.6767 90.1998 25.2783 91.1368L24.9841 90.6973C26.5101 89.6748 28.4719 89.3315 30.3612 89.9317L30.202 90.4356ZM33.9417 97.6417C34.8955 94.6209 33.2212 91.3946 30.202 90.4356L30.3612 89.9317C33.6584 90.979 35.487 94.5026 34.4454 97.8017L33.9417 97.6417ZM30.3716 101.324C32.0159 100.748 33.3766 99.4316 33.9417 97.6417L34.4454 97.8017C33.8281 99.7569 32.341 101.194 30.5467 101.823L30.3716 101.324ZM30.9417 106.642C31.4871 104.914 31.1734 103.12 30.2396 101.72L30.6787 101.427C31.6978 102.955 32.0411 104.915 31.4454 106.802L30.9417 106.642ZM23.7482 110.375C26.7674 111.334 29.988 109.662 30.9417 106.642L31.4454 106.802C30.4038 110.101 26.8864 111.926 23.5891 110.879L23.7482 110.375ZM21.8689 109.363C22.4107 109.803 23.0425 110.151 23.7482 110.375L23.5891 110.879C22.8193 110.634 22.129 110.254 21.5366 109.774L21.8689 109.363ZM16.2595 112.982C18.9051 112.846 20.5211 111.227 21.4696 109.444L21.9359 109.693C20.9331 111.578 19.1783 113.362 16.2873 113.51L16.2595 112.982ZM14.9732 111.883C15.0323 112.519 15.6075 113.016 16.2595 112.982L16.2873 113.51C15.3576 113.558 14.5331 112.855 14.4473 111.931L14.9732 111.883ZM16.025 110.684C15.3809 110.717 14.9149 111.255 14.9732 111.883L14.4473 111.931C14.3607 110.998 15.0596 110.204 15.9971 110.156L16.025 110.684ZM19.6684 107.688C18.9535 109.39 17.8079 110.593 16.025 110.684L15.9971 110.156C17.497 110.079 18.5079 109.086 19.1815 107.483L19.6684 107.688ZM15.7477 107.375C16.9664 107.762 18.2171 107.721 19.3389 107.335L19.511 107.835C18.2858 108.256 16.9189 108.302 15.5886 107.879L15.7477 107.375ZM12.008 100.169C11.0543 103.19 12.7286 106.416 15.7477 107.375L15.5886 107.879C12.2913 106.832 10.4627 103.308 11.5044 100.009L12.008 100.169ZM14.8477 96.8009C13.5374 97.4752 12.487 98.6517 12.008 100.169L11.5044 100.009C12.0275 98.3521 13.1755 97.0666 14.6057 96.3306L14.8477 96.8009Z" fill="black" fill-opacity="0.2" style="fill:black;fill-opacity:0.2;"/>
<path fill-rule="evenodd" clip-rule="evenodd" d="M85.2406 187.607C84.5928 189.253 84.6725 191.167 85.6225 192.817C87.2763 195.688 90.9413 196.67 93.8084 195.008C95.5265 194.013 96.5682 192.294 96.7715 190.459C98.3755 191.039 100.215 190.931 101.808 190.008C104.676 188.347 105.659 184.672 104.005 181.801C103.011 180.075 101.291 179.032 99.4533 178.835C100.028 177.23 99.9218 175.392 99.0054 173.801C97.3516 170.929 93.6866 169.948 90.8195 171.609C90.0004 172.084 89.335 172.723 88.8409 173.461C87.5619 172.378 85.8728 171.665 83.747 172.021C82.9679 172.151 82.4155 172.889 82.5132 173.668C82.6109 174.448 83.3217 174.974 84.1008 174.844C85.2648 174.649 86.2578 175.031 87.108 175.808C85.9957 175.753 84.8551 176.009 83.8186 176.609C80.9515 178.271 79.9679 181.945 81.6217 184.817C82.445 186.246 83.7669 187.207 85.2406 187.607Z" fill="white" style="fill:white;fill-opacity:1;"/>
<path d="M85.2406 187.607L85.4861 187.704L85.5943 187.429L85.3098 187.352L85.2406 187.607ZM96.7715 190.459L96.8613 190.21L96.5461 190.096L96.5091 190.43L96.7715 190.459ZM99.4533 178.835L99.2049 178.746L99.0916 179.062L99.425 179.098L99.4533 178.835ZM88.8409 173.461L88.6705 173.663L88.8956 173.853L89.06 173.608L88.8409 173.461ZM83.747 172.021L83.7901 172.282L83.7901 172.282L83.747 172.021ZM82.5132 173.668L82.775 173.635L82.775 173.635L82.5132 173.668ZM84.1008 174.844L84.0576 174.583L84.0576 174.583L84.1008 174.844ZM87.108 175.808L87.0948 176.072L87.8283 176.108L87.286 175.612L87.108 175.808ZM85.8512 192.685C84.943 191.108 84.8666 189.278 85.4861 187.704L84.9951 187.51C84.319 189.228 84.4019 191.227 85.3939 192.949L85.8512 192.685ZM93.6766 194.779C90.9357 196.367 87.4321 195.43 85.8512 192.685L85.3939 192.949C87.1205 195.947 90.9469 196.972 93.9403 195.237L93.6766 194.779ZM96.5091 190.43C96.3148 192.185 95.3188 193.828 93.6766 194.779L93.9403 195.237C95.7342 194.198 96.8217 192.403 97.0338 190.488L96.5091 190.43ZM101.677 189.779C100.153 190.662 98.3952 190.764 96.8613 190.21L96.6816 190.708C98.3557 191.313 100.277 191.201 101.94 190.237L101.677 189.779ZM103.777 181.933C105.358 184.678 104.417 188.191 101.677 189.779L101.94 190.237C104.934 188.503 105.961 184.666 104.234 181.668L103.777 181.933ZM99.425 179.098C101.182 179.286 102.827 180.283 103.777 181.933L104.234 181.668C103.196 179.866 101.399 178.777 99.4817 178.572L99.425 179.098ZM98.7768 173.933C99.6528 175.454 99.7549 177.211 99.2049 178.746L99.7017 178.924C100.302 177.249 100.191 175.33 99.234 173.668L98.7768 173.933ZM90.9513 171.838C93.6922 170.25 97.1958 171.188 98.7768 173.933L99.234 173.668C97.5074 170.67 93.681 169.646 90.6876 171.381L90.9513 171.838ZM89.06 173.608C89.5321 172.903 90.1679 172.292 90.9513 171.838L90.6876 171.381C89.8329 171.876 89.1379 172.543 88.6219 173.313L89.06 173.608ZM83.7901 172.282C85.8252 171.941 87.4386 172.62 88.6705 173.663L89.0114 173.258C87.6853 172.136 85.9203 171.389 83.7038 171.76L83.7901 172.282ZM82.775 173.635C82.6952 172.998 83.1492 172.389 83.7901 172.282L83.7038 171.76C82.7866 171.913 82.1357 172.78 82.2513 173.702L82.775 173.635ZM84.0576 174.583C83.4245 174.689 82.8538 174.264 82.775 173.635L82.2513 173.702C82.3679 174.632 83.2189 175.26 84.1439 175.105L84.0576 174.583ZM87.286 175.612C86.3871 174.791 85.3153 174.372 84.0576 174.583L84.1439 175.105C85.2143 174.925 86.1284 175.271 86.93 176.003L87.286 175.612ZM83.9505 176.838C84.9416 176.264 86.0317 176.02 87.0948 176.072L87.1212 175.544C85.9598 175.487 84.7685 175.753 83.6868 176.38L83.9505 176.838ZM81.8503 184.684C80.2693 181.939 81.2096 178.426 83.9505 176.838L83.6868 176.38C80.6933 178.115 79.6664 181.951 81.3931 184.949L81.8503 184.684ZM85.3098 187.352C83.9006 186.97 82.6374 186.051 81.8503 184.684L81.3931 184.949C82.2526 186.442 83.6331 187.445 85.1713 187.862L85.3098 187.352Z" fill="black" fill-opacity="0.2" style="fill:black;fill-opacity:0.2;"/>
<path fill-rule="evenodd" clip-rule="evenodd" d="M52.2406 211.607C51.5928 213.253 51.6725 215.167 52.6225 216.817C54.2763 219.688 57.9413 220.67 60.8084 219.008C62.5265 218.013 63.5682 216.294 63.7715 214.459C65.3755 215.039 67.2151 214.931 68.8084 214.008C71.6756 212.347 72.6592 208.672 71.0054 205.801C70.0113 204.075 68.2906 203.032 66.4533 202.835C67.0284 201.23 66.9218 199.392 66.0054 197.801C64.3516 194.929 60.6866 193.948 57.8195 195.609C57.0003 196.084 56.3349 196.723 55.8408 197.461C54.5617 196.378 52.8725 195.665 50.7466 196.021C49.9674 196.151 49.415 196.889 49.5127 197.669C49.6104 198.448 50.3212 198.975 51.1004 198.844C52.2643 198.649 53.2573 199.031 54.1075 199.808C52.9954 199.754 51.8549 200.009 50.8186 200.609C47.9515 202.271 46.9679 205.945 48.6217 208.817C49.445 210.246 50.7669 211.207 52.2406 211.607Z" fill="white" style="fill:white;fill-opacity:1;"/>
<path d="M52.2406 211.607L52.4861 211.704L52.5943 211.429L52.3098 211.352L52.2406 211.607ZM63.7715 214.459L63.8613 214.21L63.5461 214.096L63.5091 214.43L63.7715 214.459ZM66.4533 202.835L66.2049 202.746L66.0916 203.062L66.425 203.098L66.4533 202.835ZM55.8408 197.461L55.6703 197.663L55.8954 197.854L56.0598 197.608L55.8408 197.461ZM50.7466 196.021L50.7897 196.282L50.7897 196.282L50.7466 196.021ZM49.5127 197.669L49.7746 197.635L49.7746 197.635L49.5127 197.669ZM51.1004 198.844L51.0572 198.583L51.0572 198.583L51.1004 198.844ZM54.1075 199.808L54.0943 200.072L54.8278 200.108L54.2854 199.612L54.1075 199.808ZM52.8512 216.685C51.943 215.108 51.8666 213.278 52.4861 211.704L51.9951 211.51C51.319 213.228 51.4019 215.227 52.3939 216.949L52.8512 216.685ZM60.6766 218.779C57.9357 220.367 54.4321 219.43 52.8512 216.685L52.3939 216.949C54.1205 219.947 57.9469 220.972 60.9403 219.237L60.6766 218.779ZM63.5091 214.43C63.3148 216.185 62.3188 217.828 60.6766 218.779L60.9403 219.237C62.7342 218.198 63.8217 216.403 64.0338 214.488L63.5091 214.43ZM68.6766 213.779C67.1535 214.662 65.3952 214.764 63.8613 214.21L63.6816 214.708C65.3557 215.313 67.2768 215.201 68.9403 214.237L68.6766 213.779ZM70.7768 205.933C72.3577 208.678 71.4175 212.191 68.6766 213.779L68.9403 214.237C71.9337 212.503 72.9606 208.666 71.234 205.668L70.7768 205.933ZM66.425 203.098C68.1821 203.286 69.8266 204.283 70.7768 205.933L71.234 205.668C70.1961 203.866 68.3991 202.777 66.4817 202.572L66.425 203.098ZM65.7768 197.933C66.6528 199.454 66.7549 201.211 66.2049 202.746L66.7017 202.924C67.3019 201.249 67.1909 199.33 66.234 197.668L65.7768 197.933ZM57.9513 195.838C60.6922 194.25 64.1958 195.188 65.7768 197.933L66.234 197.668C64.5074 194.67 60.681 193.646 57.6876 195.381L57.9513 195.838ZM56.0598 197.608C56.5319 196.903 57.1678 196.292 57.9513 195.838L57.6876 195.381C56.8327 195.876 56.1378 196.543 55.6217 197.314L56.0598 197.608ZM50.7897 196.282C52.825 195.941 54.4384 196.62 55.6703 197.663L56.0112 197.259C54.6851 196.136 52.92 195.389 50.7034 195.76L50.7897 196.282ZM49.7746 197.635C49.6948 196.999 50.1487 196.389 50.7897 196.282L50.7034 195.76C49.7862 195.914 49.1353 196.78 49.2508 197.702L49.7746 197.635ZM51.0572 198.583C50.424 198.689 49.8534 198.264 49.7746 197.635L49.2508 197.702C49.3675 198.633 50.2185 199.26 51.1435 199.105L51.0572 198.583ZM54.2854 199.612C53.3866 198.791 52.3148 198.373 51.0572 198.583L51.1435 199.105C52.2139 198.926 53.1279 199.271 53.9295 200.003L54.2854 199.612ZM50.9505 200.838C51.9415 200.264 53.0314 200.02 54.0943 200.072L54.1207 199.544C52.9594 199.487 51.7683 199.754 50.6868 200.38L50.9505 200.838ZM48.8503 208.684C47.2693 205.939 48.2096 202.426 50.9505 200.838L50.6868 200.38C47.6933 202.115 46.6664 205.951 48.3931 208.949L48.8503 208.684ZM52.3098 211.352C50.9006 210.97 49.6374 210.051 48.8503 208.684L48.3931 208.949C49.2526 210.442 50.6331 211.445 52.1713 211.862L52.3098 211.352Z" fill="black" fill-opacity="0.2" style="fill:black;fill-opacity:0.2;"/>
<path fill-rule="evenodd" clip-rule="evenodd" d="M114.241 199.393C113.593 197.747 113.672 195.833 114.623 194.183C116.276 191.312 119.941 190.33 122.808 191.992C124.526 192.987 125.568 194.706 125.771 196.541C127.375 195.961 129.215 196.069 130.808 196.992C133.676 198.653 134.659 202.328 133.005 205.199C132.011 206.925 130.291 207.968 128.453 208.165C129.028 209.77 128.922 211.608 128.005 213.199C126.352 216.071 122.687 217.052 119.819 215.391C119 214.916 118.334 214.276 117.84 213.538C116.561 214.621 114.871 215.334 112.745 214.978C111.966 214.847 111.413 214.11 111.511 213.33C111.609 212.551 112.32 212.025 113.099 212.155C114.263 212.35 115.256 211.969 116.106 211.192C114.994 211.246 113.854 210.991 112.819 210.391C109.951 208.729 108.968 205.055 110.622 202.183C111.445 200.754 112.767 199.793 114.241 199.393Z" fill="white" style="fill:white;fill-opacity:1;"/>
<path d="M114.241 199.393L114.486 199.296L114.594 199.571L114.31 199.648L114.241 199.393ZM125.771 196.541L125.861 196.79L125.546 196.904L125.509 196.57L125.771 196.541ZM128.453 208.165L128.205 208.254L128.092 207.938L128.425 207.902L128.453 208.165ZM117.84 213.538L117.67 213.336L117.895 213.145L118.059 213.391L117.84 213.538ZM112.745 214.978L112.788 214.717L112.788 214.717L112.745 214.978ZM111.511 213.33L111.773 213.363L111.773 213.363L111.511 213.33ZM113.099 212.155L113.056 212.416L113.056 212.416L113.099 212.155ZM116.106 211.192L116.093 210.928L116.826 210.892L116.284 211.388L116.106 211.192ZM114.851 194.315C113.943 195.892 113.867 197.722 114.486 199.296L113.995 199.49C113.319 197.772 113.402 195.773 114.394 194.051L114.851 194.315ZM122.677 192.221C119.936 190.633 116.432 191.57 114.851 194.315L114.394 194.051C116.121 191.053 119.947 190.028 122.94 191.763L122.677 192.221ZM125.509 196.57C125.315 194.815 124.319 193.172 122.677 192.221L122.94 191.763C124.734 192.802 125.822 194.597 126.034 196.512L125.509 196.57ZM130.677 197.221C129.153 196.338 127.395 196.236 125.861 196.79L125.682 196.292C127.356 195.687 129.277 195.799 130.94 196.763L130.677 197.221ZM132.777 205.067C134.358 202.322 133.417 198.809 130.677 197.221L130.94 196.763C133.934 198.497 134.961 202.334 133.234 205.332L132.777 205.067ZM128.425 207.902C130.182 207.714 131.827 206.717 132.777 205.067L133.234 205.332C132.196 207.134 130.399 208.223 128.482 208.428L128.425 207.902ZM127.777 213.067C128.653 211.546 128.755 209.789 128.205 208.254L128.702 208.076C129.302 209.751 129.191 211.67 128.234 213.332L127.777 213.067ZM119.951 215.162C122.692 216.75 126.196 215.812 127.777 213.067L128.234 213.332C126.507 216.33 122.681 217.354 119.688 215.619L119.951 215.162ZM118.059 213.391C118.531 214.096 119.167 214.707 119.951 215.162L119.688 215.619C118.832 215.124 118.137 214.456 117.621 213.685L118.059 213.391ZM112.788 214.717C114.824 215.058 116.438 214.379 117.67 213.336L118.011 213.74C116.684 214.863 114.919 215.61 112.702 215.239L112.788 214.717ZM111.773 213.363C111.693 214 112.147 214.609 112.788 214.717L112.702 215.239C111.785 215.085 111.134 214.219 111.249 213.297L111.773 213.363ZM113.056 212.416C112.422 212.31 111.852 212.735 111.773 213.363L111.249 213.297C111.366 212.366 112.217 211.739 113.142 211.894L113.056 212.416ZM116.284 211.388C115.385 212.209 114.313 212.626 113.056 212.416L113.142 211.894C114.212 212.073 115.126 211.728 115.928 210.997L116.284 211.388ZM112.95 210.162C113.941 210.736 115.03 210.98 116.093 210.928L116.119 211.456C114.958 211.513 113.768 211.246 112.687 210.62L112.95 210.162ZM110.85 202.316C109.269 205.061 110.21 208.574 112.95 210.162L112.687 210.62C109.693 208.885 108.666 205.049 110.393 202.051L110.85 202.316ZM114.31 199.648C112.901 200.03 111.637 200.949 110.85 202.316L110.393 202.051C111.253 200.558 112.633 199.555 114.171 199.138L114.31 199.648Z" fill="black" fill-opacity="0.2" style="fill:black;fill-opacity:0.2;"/>
<path fill-rule="evenodd" clip-rule="evenodd" d="M18.5036 180.935C19.1378 180.124 19.9885 179.465 21.0131 179.058C24.0922 177.833 27.5759 179.339 28.7941 182.42C29.5466 184.324 29.2587 186.383 28.203 187.969C29.7861 188.523 31.1284 189.736 31.7941 191.42C33.0123 194.502 31.5038 197.993 28.4247 199.217C26.8314 199.851 25.1297 199.754 23.6897 199.085C23.0726 200.465 21.9383 201.615 20.4243 202.218C17.3452 203.442 13.8615 201.937 12.6433 198.855C12.059 197.377 12.102 195.805 12.6445 194.434C10.8852 193.956 9.3658 192.683 8.64328 190.855C7.42506 187.774 8.9336 184.283 12.0127 183.058C13.4505 182.486 14.9766 182.51 16.3189 183.011C16.3056 182.983 16.2921 182.956 16.2784 182.929C15.4678 181.305 14.3088 180.269 12.6512 180.301C11.8594 180.317 11.2313 179.694 11.2483 178.911C11.2654 178.127 11.9211 177.48 12.713 177.464C15.5823 177.408 17.4122 179.101 18.5036 180.935Z" fill="white" style="fill:white;fill-opacity:1;"/>
<path d="M18.5036 180.935L18.2767 181.07L18.4738 181.401L18.7114 181.097L18.5036 180.935ZM28.203 187.969L27.9834 187.822L27.7945 188.106L28.1155 188.218L28.203 187.969ZM23.6897 199.085L23.8011 198.846L23.5583 198.733L23.4488 198.978L23.6897 199.085ZM12.6445 194.434L12.8899 194.531L12.9987 194.256L12.714 194.179L12.6445 194.434ZM16.3189 183.011L16.2264 183.259L16.8453 183.49L16.5564 182.895L16.3189 183.011ZM16.2784 182.929L16.0422 183.047L16.0422 183.047L16.2784 182.929ZM12.6512 180.301L12.6465 180.037L12.6465 180.037L12.6512 180.301ZM11.2483 178.911L11.5123 178.916L11.5123 178.916L11.2483 178.911ZM12.713 177.464L12.7177 177.728L12.7177 177.728L12.713 177.464ZM20.9159 178.812C19.8466 179.237 18.9581 179.925 18.2958 180.772L18.7114 181.097C19.3174 180.323 20.1303 179.693 21.1102 179.304L20.9159 178.812ZM29.0396 182.323C27.7677 179.105 24.1307 177.534 20.9159 178.812L21.1102 179.304C24.0537 178.133 27.384 179.572 28.5486 182.518L29.0396 182.323ZM28.4226 188.115C29.5244 186.461 29.8253 184.31 29.0396 182.323L28.5486 182.518C29.2678 184.337 28.993 186.306 27.9834 187.822L28.4226 188.115ZM32.0396 191.323C31.3446 189.564 29.9427 188.297 28.2905 187.719L28.1155 188.218C29.6295 188.748 30.9122 189.908 31.5486 191.518L32.0396 191.323ZM28.5218 199.463C31.7365 198.185 33.3115 194.54 32.0396 191.323L31.5486 191.518C32.7131 194.464 31.271 197.801 28.3275 198.972L28.5218 199.463ZM23.5784 199.325C25.0814 200.023 26.8584 200.125 28.5218 199.463L28.3275 198.972C26.8044 199.578 25.1781 199.485 23.8011 198.846L23.5784 199.325ZM20.5214 202.463C22.102 201.835 23.2865 200.634 23.9307 199.193L23.4488 198.978C22.8587 200.297 21.7746 201.396 20.3272 201.972L20.5214 202.463ZM12.3978 198.953C13.6696 202.17 17.3067 203.742 20.5214 202.463L20.3272 201.972C17.3836 203.143 14.0534 201.704 12.8888 198.758L12.3978 198.953ZM12.399 194.337C11.8327 195.768 11.7878 197.41 12.3978 198.953L12.8888 198.758C12.3303 197.345 12.3712 195.842 12.8899 194.531L12.399 194.337ZM8.39776 190.953C9.15216 192.861 10.7389 194.191 12.575 194.689L12.714 194.179C11.0315 193.722 9.57944 192.505 8.88881 190.758L8.39776 190.953ZM11.9156 182.812C8.70086 184.091 7.12588 187.736 8.39776 190.953L8.88881 190.758C7.72423 187.812 9.16634 184.474 12.1099 183.304L11.9156 182.812ZM16.4115 182.763C15.0103 182.24 13.4166 182.215 11.9156 182.812L12.1099 183.304C13.4845 182.757 14.9429 182.779 16.2264 183.259L16.4115 182.763ZM16.5564 182.895C16.5427 182.867 16.5287 182.838 16.5146 182.81L16.0422 183.047C16.0554 183.074 16.0685 183.1 16.0815 183.127L16.5564 182.895ZM16.5146 182.81C15.6805 181.139 14.4471 180.002 12.6465 180.037L12.656 180.566C14.1705 180.536 15.2552 181.471 16.0422 183.047L16.5146 182.81ZM12.6465 180.037C12.0014 180.049 11.4986 179.546 11.5123 178.916L10.9844 178.905C10.964 179.842 11.7174 180.584 12.656 180.566L12.6465 180.037ZM11.5123 178.916C11.5262 178.277 12.0648 177.741 12.7177 177.728L12.7082 177.2C11.7775 177.218 11.0046 177.977 10.9844 178.905L11.5123 178.916ZM12.7177 177.728C15.4593 177.675 17.2141 179.285 18.2767 181.07L18.7304 180.799C17.6103 178.917 15.7054 177.141 12.7082 177.2L12.7177 177.728Z" fill="black" fill-opacity="0.2" style="fill:black;fill-opacity:0.2;"/>
<path fill-rule="evenodd" clip-rule="evenodd" d="M52.5036 9.93466C53.1378 9.12382 53.9885 8.46535 55.0131 8.05783C58.0922 6.83318 61.5759 8.33859 62.7941 11.4202C63.5466 13.3237 63.2587 15.3833 62.203 16.9686C63.7861 17.5229 65.1284 18.7362 65.7941 20.4202C67.0123 23.5019 65.5038 26.9928 62.4247 28.2175C60.8314 28.8512 59.1297 28.7539 57.6897 28.0854C57.0726 29.4654 55.9383 30.6155 54.4243 31.2177C51.3452 32.4423 47.8615 30.9369 46.6433 27.8552C46.059 26.3773 46.102 24.8053 46.6445 23.4343C44.8852 22.9562 43.3658 21.6829 42.6433 19.8552C41.4251 16.7736 42.9336 13.2826 46.0127 12.058C47.4505 11.4862 48.9765 11.5096 50.3189 12.0108C50.3055 11.9833 50.292 11.9559 50.2784 11.9286C49.4678 10.3051 48.3088 9.26901 46.6512 9.30132C45.8593 9.31675 45.2312 8.69414 45.2483 7.91068C45.2653 7.12721 45.9211 6.47959 46.7129 6.46416C49.5823 6.40824 51.4122 8.10114 52.5036 9.93466Z" fill="white" style="fill:white;fill-opacity:1;"/>
<path d="M52.5036 9.93466L52.2767 10.0703L52.4737 10.4013L52.7113 10.0975L52.5036 9.93466ZM62.203 16.9686L61.9834 16.8221L61.7945 17.1058L62.1155 17.2182L62.203 16.9686ZM57.6897 28.0854L57.8011 27.8455L57.5583 27.7328L57.4488 27.9777L57.6897 28.0854ZM46.6445 23.4343L46.8899 23.5314L46.9987 23.2564L46.714 23.1791L46.6445 23.4343ZM50.3189 12.0108L50.2263 12.2586L50.8452 12.4897L50.5564 11.8948L50.3189 12.0108ZM50.2784 11.9286L50.0422 12.0471L50.0422 12.0471L50.2784 11.9286ZM46.6512 9.30132L46.6559 9.56569L46.6559 9.56569L46.6512 9.30132ZM45.2483 7.91068L45.5122 7.91604L45.5122 7.91604L45.2483 7.91068ZM46.7129 6.46416L46.7082 6.19979L46.7082 6.19979L46.7129 6.46416ZM54.9159 7.8121C53.8466 8.2374 52.9581 8.92502 52.2958 9.77181L52.7113 10.0975C53.3174 9.32262 54.1303 8.69329 55.1102 8.30356L54.9159 7.8121ZM63.0396 11.3226C61.7677 8.10523 58.1307 6.53352 54.9159 7.8121L55.1102 8.30356C58.0537 7.13284 61.384 8.57195 62.5486 11.5179L63.0396 11.3226ZM62.4226 17.115C63.5244 15.4606 63.8253 13.3101 63.0396 11.3226L62.5486 11.5179C63.2678 13.3373 62.993 15.306 61.9834 16.8221L62.4226 17.115ZM66.0396 20.3226C65.3446 18.5643 63.9427 17.2975 62.2905 16.7189L62.1155 17.2182C63.6295 17.7483 64.9122 18.9081 65.5486 20.5179L66.0396 20.3226ZM62.5218 28.4632C65.7365 27.1846 67.3115 23.54 66.0396 20.3226L65.5486 20.5179C66.7131 23.4638 65.271 26.801 62.3275 27.9718L62.5218 28.4632ZM57.5784 28.3254C59.0814 29.023 60.8584 29.1248 62.5218 28.4632L62.3275 27.9718C60.8044 28.5776 59.1781 28.4847 57.8011 27.8455L57.5784 28.3254ZM54.5214 31.4634C56.102 30.8347 57.2865 29.6336 57.9307 28.1932L57.4488 27.9777C56.8587 29.2972 55.7746 30.3962 54.3272 30.9719L54.5214 31.4634ZM46.3978 27.9529C47.6696 31.1703 51.3067 32.742 54.5214 31.4634L54.3272 30.9719C51.3836 32.1426 48.0534 30.7035 46.8888 27.7576L46.3978 27.9529ZM46.399 23.3372C45.8327 24.7683 45.7878 26.41 46.3978 27.9529L46.8888 27.7576C46.3303 26.3447 46.3712 24.8423 46.8899 23.5314L46.399 23.3372ZM42.3978 19.9529C43.1522 21.8612 44.7389 23.1905 46.575 23.6895L46.714 23.1791C45.0315 22.7219 43.5794 21.5046 42.8888 19.7576L42.3978 19.9529ZM45.9156 11.8123C42.7009 13.0908 41.1259 16.7355 42.3978 19.9529L42.8888 19.7576C41.7242 16.8116 43.1663 13.4744 46.1099 12.3037L45.9156 11.8123ZM50.4115 11.763C49.0102 11.2398 47.4165 11.2153 45.9156 11.8123L46.1099 12.3037C47.4845 11.757 48.9428 11.7793 50.2263 12.2586L50.4115 11.763ZM50.5564 11.8948C50.5426 11.8665 50.5287 11.8382 50.5146 11.81L50.0422 12.0471C50.0554 12.0736 50.0685 12.1001 50.0814 12.1267L50.5564 11.8948ZM50.5146 11.81C49.6805 10.1394 48.447 9.00186 46.6464 9.03695L46.6559 9.56569C48.1705 9.53617 49.2551 10.4708 50.0422 12.0471L50.5146 11.81ZM46.6464 9.03695C46.0013 9.04952 45.4985 8.54619 45.5122 7.91604L44.9843 7.90532C44.9639 8.84208 45.7173 9.58398 46.6559 9.56569L46.6464 9.03695ZM45.5122 7.91604C45.5261 7.27732 46.0647 6.74125 46.7177 6.72853L46.7082 6.19979C45.7774 6.21792 45.0045 6.97711 44.9843 7.90532L45.5122 7.91604ZM46.7177 6.72853C49.4592 6.6751 51.2141 8.28514 52.2767 10.0703L52.7304 9.79902C51.6103 7.91715 49.7053 6.14138 46.7082 6.19979L46.7177 6.72853Z" fill="black" fill-opacity="0.2" style="fill:black;fill-opacity:0.2;"/>
<path fill-rule="evenodd" clip-rule="evenodd" d="M136.496 155.934C135.862 155.124 135.011 154.465 133.987 154.058C130.908 152.833 127.424 154.339 126.206 157.42C125.453 159.324 125.741 161.383 126.797 162.969C125.214 163.523 123.872 164.736 123.206 166.42C121.988 169.502 123.496 172.993 126.575 174.217C128.169 174.851 129.87 174.754 131.31 174.085C131.927 175.465 133.062 176.615 134.576 177.218C137.655 178.442 141.138 176.937 142.357 173.855C142.941 172.377 142.898 170.805 142.356 169.434C144.115 168.956 145.634 167.683 146.357 165.855C147.575 162.774 146.066 159.283 142.987 158.058C141.549 157.486 140.023 157.51 138.681 158.011C138.694 157.983 138.708 157.956 138.721 157.928C139.532 156.305 140.691 155.269 142.348 155.301C143.14 155.317 143.768 154.694 143.751 153.91C143.734 153.127 143.078 152.479 142.287 152.464C139.417 152.408 137.588 154.101 136.496 155.934Z" fill="white" style="fill:white;fill-opacity:1;"/>
<path d="M136.496 155.934L136.723 156.07L136.526 156.401L136.289 156.097L136.496 155.934ZM126.797 162.969L127.017 162.822L127.206 163.106L126.884 163.218L126.797 162.969ZM131.31 174.085L131.199 173.846L131.442 173.733L131.551 173.978L131.31 174.085ZM142.356 169.434L142.11 169.531L142.001 169.256L142.286 169.179L142.356 169.434ZM138.681 158.011L138.773 158.259L138.154 158.49L138.443 157.895L138.681 158.011ZM138.721 157.928L138.958 158.047L138.958 158.047L138.721 157.928ZM142.348 155.301L142.353 155.037L142.353 155.037L142.348 155.301ZM143.751 153.91L143.487 153.916L143.487 153.916L143.751 153.91ZM142.287 152.464L142.282 152.728L142.282 152.728L142.287 152.464ZM134.084 153.812C135.153 154.237 136.042 154.925 136.704 155.772L136.289 156.097C135.682 155.323 134.87 154.693 133.89 154.304L134.084 153.812ZM125.96 157.323C127.232 154.105 130.869 152.534 134.084 153.812L133.89 154.304C130.946 153.133 127.616 154.572 126.451 157.518L125.96 157.323ZM126.577 163.115C125.476 161.461 125.175 159.31 125.96 157.323L126.451 157.518C125.732 159.337 126.007 161.306 127.017 162.822L126.577 163.115ZM122.96 166.323C123.655 164.564 125.057 163.297 126.71 162.719L126.884 163.218C125.371 163.748 124.088 164.908 123.451 166.518L122.96 166.323ZM126.478 174.463C123.263 173.185 121.689 169.54 122.96 166.323L123.451 166.518C122.287 169.464 123.729 172.801 126.672 173.972L126.478 174.463ZM131.422 174.325C129.919 175.023 128.142 175.125 126.478 174.463L126.672 173.972C128.196 174.578 129.822 174.485 131.199 173.846L131.422 174.325ZM134.479 177.463C132.898 176.835 131.713 175.634 131.069 174.193L131.551 173.978C132.141 175.297 133.225 176.396 134.673 176.972L134.479 177.463ZM142.602 173.953C141.33 177.17 137.693 178.742 134.479 177.463L134.673 176.972C137.616 178.143 140.947 176.704 142.111 173.758L142.602 173.953ZM142.601 169.337C143.167 170.768 143.212 172.41 142.602 173.953L142.111 173.758C142.67 172.345 142.629 170.842 142.11 169.531L142.601 169.337ZM146.602 165.953C145.848 167.861 144.261 169.191 142.425 169.689L142.286 169.179C143.969 168.722 145.421 167.505 146.111 165.758L146.602 165.953ZM143.084 157.812C146.299 159.091 147.874 162.736 146.602 165.953L146.111 165.758C147.276 162.812 145.834 159.474 142.89 158.304L143.084 157.812ZM138.588 157.763C139.989 157.24 141.583 157.215 143.084 157.812L142.89 158.304C141.515 157.757 140.057 157.779 138.773 158.259L138.588 157.763ZM138.443 157.895C138.457 157.867 138.471 157.838 138.485 157.81L138.958 158.047C138.944 158.074 138.931 158.1 138.918 158.127L138.443 157.895ZM138.485 157.81C139.319 156.139 140.553 155.002 142.353 155.037L142.344 155.565C140.829 155.536 139.745 156.471 138.958 158.047L138.485 157.81ZM142.353 155.037C142.998 155.049 143.501 154.546 143.487 153.916L144.015 153.905C144.036 154.842 143.282 155.584 142.344 155.565L142.353 155.037ZM143.487 153.916C143.473 153.277 142.935 152.741 142.282 152.728L142.291 152.199C143.222 152.218 143.995 152.977 144.015 153.905L143.487 153.916ZM142.282 152.728C139.54 152.675 137.786 154.285 136.723 156.07L136.269 155.799C137.39 153.917 139.294 152.141 142.291 152.199L142.282 152.728Z" fill="black" fill-opacity="0.2" style="fill:black;fill-opacity:0.2;"/>
<path fill-rule="evenodd" clip-rule="evenodd" d="M54.486 174.079C53.8529 174.884 53.0059 175.537 51.9869 175.942C48.9078 177.167 45.4241 175.662 44.2059 172.58C43.4534 170.676 43.7413 168.617 44.797 167.032C43.2139 166.477 41.8716 165.264 41.2059 163.58C39.9877 160.498 41.4962 157.007 44.5753 155.783C46.1686 155.149 47.8703 155.246 49.3103 155.915C49.9274 154.535 51.0617 153.385 52.5757 152.782C55.6548 151.558 59.1385 153.063 60.3567 156.145C60.941 157.623 60.898 159.195 60.3555 160.566C62.1148 161.044 63.6342 162.317 64.3567 164.145C65.5749 167.227 64.0664 170.717 60.9873 171.942C59.5407 172.517 58.0048 172.49 56.6565 171.98C56.6721 172.013 56.6879 172.045 56.704 172.077C57.5124 173.705 58.6684 174.744 60.3216 174.712C61.1114 174.696 61.7379 175.32 61.7208 176.106C61.7038 176.891 61.0497 177.541 60.26 177.556C57.3993 177.612 55.5746 175.916 54.486 174.079Z" fill="white" style="fill:white;fill-opacity:1;"/>
<path d="M54.486 174.079L54.7131 173.944L54.5169 173.612L54.2787 173.915L54.486 174.079ZM44.797 167.032L45.0166 167.178L45.2055 166.894L44.8845 166.782L44.797 167.032ZM49.3103 155.915L49.1989 156.155L49.4417 156.267L49.5512 156.022L49.3103 155.915ZM60.3555 160.566L60.1101 160.469L60.0013 160.744L60.286 160.821L60.3555 160.566ZM56.6565 171.98L56.7502 171.733L56.1319 171.499L56.4186 172.095L56.6565 171.98ZM56.704 172.077L56.4675 172.195L56.4675 172.195L56.704 172.077ZM60.3216 174.712L60.3264 174.976L60.3264 174.976L60.3216 174.712ZM61.7208 176.106L61.4569 176.101L61.4569 176.101L61.7208 176.106ZM60.26 177.556L60.2647 177.821L60.2647 177.821L60.26 177.556ZM52.0841 176.188C53.1475 175.765 54.0322 175.083 54.6933 174.242L54.2787 173.915C53.6737 174.684 52.8643 175.309 51.8898 175.697L52.0841 176.188ZM43.9604 172.678C45.2323 175.895 48.8693 177.467 52.0841 176.188L51.8898 175.697C48.9463 176.867 45.616 175.428 44.4514 172.482L43.9604 172.678ZM44.5774 166.885C43.4756 168.539 43.1747 170.69 43.9604 172.678L44.4514 172.482C43.7322 170.663 44.007 168.694 45.0166 167.178L44.5774 166.885ZM40.9604 163.678C41.6554 165.436 43.0573 166.703 44.7095 167.281L44.8845 166.782C43.3705 166.252 42.0878 165.092 41.4514 163.482L40.9604 163.678ZM44.4782 155.537C41.2635 156.815 39.6885 160.46 40.9604 163.678L41.4514 163.482C40.2869 160.536 41.729 157.199 44.6725 156.028L44.4782 155.537ZM49.4216 155.675C47.9186 154.977 46.1416 154.875 44.4782 155.537L44.6725 156.028C46.1956 155.423 47.8219 155.515 49.1989 156.155L49.4216 155.675ZM52.4786 152.537C50.898 153.165 49.7135 154.367 49.0693 155.807L49.5512 156.022C50.1413 154.703 51.2254 153.604 52.6728 153.028L52.4786 152.537ZM60.6022 156.047C59.3304 152.83 55.6933 151.258 52.4786 152.537L52.6728 153.028C55.6164 151.857 58.9466 153.297 60.1112 156.243L60.6022 156.047ZM60.601 160.663C61.1673 159.232 61.2122 157.59 60.6022 156.047L60.1112 156.243C60.6697 157.655 60.6288 159.158 60.1101 160.469L60.601 160.663ZM64.6022 164.047C63.8478 162.139 62.2611 160.81 60.425 160.311L60.286 160.821C61.9685 161.278 63.4206 162.495 64.1112 164.243L64.6022 164.047ZM61.0844 172.188C64.2991 170.909 65.8741 167.265 64.6022 164.047L64.1112 164.243C65.2758 167.188 63.8337 170.526 60.8901 171.696L61.0844 172.188ZM56.5629 172.227C57.9703 172.76 59.5743 172.788 61.0844 172.188L60.8901 171.696C59.5071 172.246 58.0393 172.22 56.7502 171.733L56.5629 172.227ZM56.4186 172.095C56.4347 172.129 56.451 172.162 56.4675 172.195L56.9404 171.959C56.9249 171.928 56.9096 171.897 56.8945 171.865L56.4186 172.095ZM56.4675 172.195C57.2991 173.87 58.5293 175.011 60.3264 174.976L60.3169 174.447C58.8074 174.477 57.7257 173.54 56.9404 171.959L56.4675 172.195ZM60.3264 174.976C60.9681 174.963 61.4706 175.467 61.4569 176.101L61.9848 176.111C62.0051 175.174 61.2548 174.429 60.3169 174.447L60.3264 174.976ZM61.4569 176.101C61.4429 176.743 60.9049 177.279 60.2552 177.292L60.2647 177.821C61.1946 177.802 61.9647 177.04 61.9848 176.111L61.4569 176.101ZM60.2552 177.292C57.523 177.345 55.7733 175.733 54.7131 173.944L54.2588 174.214C55.376 176.1 57.2756 177.879 60.2647 177.821L60.2552 177.292Z" fill="black" fill-opacity="0.2" style="fill:black;fill-opacity:0.2;"/>
<path fill-rule="evenodd" clip-rule="evenodd" d="M17.4861 53.0786C16.853 53.8834 16.006 54.537 14.9869 54.9423C11.9078 56.1669 8.42413 54.6615 7.2059 51.5799C6.45344 49.6764 6.74129 47.6168 7.797 46.0316C6.21392 45.4773 4.87164 44.2639 4.2059 42.5799C2.98768 39.4982 4.49622 36.0073 7.57533 34.7826C9.16864 34.1489 10.8703 34.2462 12.3103 34.9147C12.9274 33.5347 14.0617 32.3846 15.5757 31.7825C18.6548 30.5578 22.1385 32.0632 23.3567 35.1449C23.941 36.6228 23.898 38.1948 23.3555 39.5659C25.1148 40.0439 26.6342 41.3172 27.3567 43.1449C28.5749 46.2265 27.0664 49.7175 23.9873 50.9421C22.5408 51.5174 21.0051 51.4902 19.6568 50.9802C19.6724 51.0126 19.6882 51.0449 19.7042 51.0772C20.5126 52.7049 21.6687 53.7437 23.322 53.7114C24.1118 53.6959 24.7382 54.3202 24.7212 55.1057C24.7042 55.8912 24.0501 56.5406 23.2603 56.556C20.3996 56.612 18.5748 54.9161 17.4861 53.0786Z" fill="white" style="fill:white;fill-opacity:1;"/>
<path d="M17.4861 53.0786L17.7132 52.9434L17.517 52.6123L17.2788 52.9152L17.4861 53.0786ZM7.797 46.0316L8.01661 46.178L8.20553 45.8944L7.88449 45.7819L7.797 46.0316ZM12.3103 34.9147L12.1989 35.1546L12.4417 35.2673L12.5512 35.0224L12.3103 34.9147ZM23.3555 39.5659L23.1101 39.4688L23.0013 39.7437L23.286 39.8211L23.3555 39.5659ZM19.6568 50.9802L19.7505 50.7328L19.1322 50.4989L19.4189 51.0952L19.6568 50.9802ZM19.7042 51.0772L19.9406 50.9591L19.9406 50.9591L19.7042 51.0772ZM23.322 53.7114L23.3172 53.447L23.3172 53.447L23.322 53.7114ZM24.7212 55.1057L24.4572 55.1004L24.4572 55.1004L24.7212 55.1057ZM23.2603 56.556L23.2651 56.8204L23.2651 56.8204L23.2603 56.556ZM15.0841 55.188C16.1476 54.765 17.0323 54.0825 17.6934 53.2421L17.2788 52.9152C16.6738 53.6843 15.8644 54.3089 14.8898 54.6966L15.0841 55.188ZM6.96038 51.6775C8.23225 54.8949 11.8693 56.4666 15.0841 55.188L14.8898 54.6966C11.9463 55.8673 8.616 54.4282 7.45143 51.4822L6.96038 51.6775ZM7.5774 45.8851C6.47564 47.5395 6.17469 49.69 6.96038 51.6775L7.45143 51.4822C6.73218 49.6628 7.00695 47.6941 8.01661 46.178L7.5774 45.8851ZM3.96038 42.6775C4.65545 44.4358 6.05729 45.7027 7.70952 46.2812L7.88449 45.7819C6.37055 45.2519 5.08782 44.0921 4.45143 42.4822L3.96038 42.6775ZM7.47819 34.5369C4.26348 35.8155 2.6885 39.4602 3.96038 42.6775L4.45143 42.4822C3.28685 39.5363 4.72896 36.1991 7.67247 35.0284L7.47819 34.5369ZM12.4216 34.6747C10.9186 33.9771 9.14164 33.8753 7.47819 34.5369L7.67247 35.0284C9.19563 34.4226 10.8219 34.5154 12.1989 35.1546L12.4216 34.6747ZM15.4786 31.5367C13.898 32.1654 12.7135 33.3665 12.0693 34.8069L12.5512 35.0224C13.1413 33.7029 14.2254 32.6039 15.6728 32.0282L15.4786 31.5367ZM23.6022 35.0472C22.3304 31.8299 18.6933 30.2582 15.4786 31.5367L15.6728 32.0282C18.6164 30.8575 21.9466 32.2966 23.1112 35.2425L23.6022 35.0472ZM23.601 39.6629C24.1673 38.2318 24.2122 36.5901 23.6022 35.0472L23.1112 35.2425C23.6697 36.6555 23.6288 38.1578 23.1101 39.4688L23.601 39.6629ZM27.6022 43.0472C26.8478 41.1389 25.2611 39.8096 23.425 39.3107L23.286 39.8211C24.9685 40.2783 26.4206 41.4955 27.1112 43.2425L27.6022 43.0472ZM24.0844 51.1878C27.2991 49.9093 28.8741 46.2646 27.6022 43.0472L27.1112 43.2425C28.2758 46.1885 26.8337 49.5257 23.8901 50.6964L24.0844 51.1878ZM19.5632 51.2276C20.9705 51.76 22.5744 51.7884 24.0844 51.1878L23.8901 50.6964C22.5072 51.2464 21.0396 51.2205 19.7505 50.7328L19.5632 51.2276ZM19.4189 51.0952C19.4349 51.1286 19.4512 51.162 19.4677 51.1952L19.9406 50.9591C19.9252 50.9279 19.9099 50.8966 19.8948 50.8652L19.4189 51.0952ZM19.4677 51.1952C20.2994 52.8696 21.5296 54.0109 23.3267 53.9758L23.3172 53.447C21.8077 53.4766 20.7259 52.5402 19.9406 50.9591L19.4677 51.1952ZM23.3267 53.9758C23.9684 53.9632 24.471 54.4668 24.4572 55.1004L24.9852 55.1111C25.0055 54.1736 24.2551 53.4287 23.3172 53.447L23.3267 53.9758ZM24.4572 55.1004C24.4433 55.7424 23.9052 56.2789 23.2555 56.2916L23.2651 56.8204C24.195 56.8022 24.9651 56.0401 24.9852 55.1111L24.4572 55.1004ZM23.2555 56.2916C20.5232 56.3451 18.7734 54.7328 17.7132 52.9434L17.259 53.2138C18.3761 55.0993 20.2759 56.8789 23.2651 56.8204L23.2555 56.2916Z" fill="black" fill-opacity="0.2" style="fill:black;fill-opacity:0.2;"/>
<path fill-rule="evenodd" clip-rule="evenodd" d="M125.052 20.1498C124.763 20.8897 124.323 21.5839 123.73 22.1844C121.402 24.543 117.609 24.5622 115.258 22.2273C114.055 21.0329 113.462 19.4539 113.482 17.8805C111.643 18.1943 109.685 17.6443 108.258 16.2273C105.906 13.8925 105.887 10.0878 108.215 7.72928C109.388 6.53988 110.935 5.94541 112.481 5.94775C112.484 4.42303 113.061 2.89846 114.215 1.72928C116.542 -0.629243 120.335 -0.648446 122.687 1.68638C123.89 2.88079 124.482 4.45986 124.463 6.0332C126.302 5.71947 128.26 6.26944 129.687 7.68639C132.038 10.0212 132.058 13.8259 129.73 16.1844C128.896 17.0291 127.875 17.5737 126.799 17.8176C127.944 18.5271 129.134 18.7339 130.341 18.1766C131.058 17.8456 131.883 18.1663 132.182 18.893C132.482 19.6196 132.144 20.477 131.427 20.808C128.981 21.9374 126.752 21.2732 125.052 20.1498Z" fill="white" style="fill:white;fill-opacity:1;"/>
<path d="M125.052 20.1498L125.197 19.9288L124.925 19.749L124.806 20.0533L125.052 20.1498ZM113.482 17.8805L113.746 17.8839L113.75 17.5664L113.438 17.6196L113.482 17.8805ZM112.481 5.94775L112.481 6.21239L112.745 6.21279L112.745 5.94815L112.481 5.94775ZM124.463 6.0332L124.199 6.02987L124.195 6.34731L124.507 6.29409L124.463 6.0332ZM126.799 17.8176L126.741 17.5595L126.111 17.7023L126.66 18.0427L126.799 17.8176ZM130.341 18.1766L130.452 18.417L130.452 18.417L130.341 18.1766ZM132.182 18.893L131.939 18.9941L131.939 18.9941L132.182 18.893ZM131.427 20.808L131.317 20.5676L131.427 20.808ZM123.917 22.3706C124.536 21.744 124.996 21.0191 125.297 20.2462L124.806 20.0533C124.53 20.7603 124.109 21.4239 123.542 21.9983L123.917 22.3706ZM115.072 22.4154C117.527 24.8531 121.487 24.833 123.917 22.3706L123.542 21.9983C121.317 24.2529 117.691 24.2713 115.443 22.0393L115.072 22.4154ZM113.218 17.8772C113.197 19.5194 113.816 21.1684 115.072 22.4154L115.443 22.0393C114.293 20.8974 113.727 19.3884 113.746 17.8839L113.218 17.8772ZM108.072 16.4154C109.562 17.8949 111.607 18.4688 113.526 18.1414L113.438 17.6196C111.679 17.9197 109.807 17.3937 108.443 16.0393L108.072 16.4154ZM108.027 7.5431C105.597 10.0055 105.617 13.9778 108.072 16.4154L108.443 16.0393C106.195 13.8073 106.177 10.1701 108.402 7.91546L108.027 7.5431ZM112.482 5.68312C110.868 5.68067 109.253 6.30136 108.027 7.5431L108.402 7.91546C109.524 6.77839 111.002 6.21014 112.481 6.21239L112.482 5.68312ZM114.027 1.5431C112.822 2.76371 112.22 4.35588 112.218 5.94736L112.745 5.94815C112.747 4.49018 113.299 3.03321 114.402 1.91546L114.027 1.5431ZM122.872 1.49832C120.418 -0.939335 116.457 -0.919286 114.027 1.5431L114.402 1.91546C116.627 -0.339199 120.253 -0.357557 122.501 1.87445L122.872 1.49832ZM124.726 6.03653C124.747 4.39436 124.128 2.74529 122.872 1.49832L122.501 1.87445C123.651 3.01629 124.218 4.52535 124.199 6.02987L124.726 6.03653ZM129.872 7.49832C128.382 6.01883 126.338 5.4449 124.418 5.77231L124.507 6.29409C126.266 5.99405 128.137 6.52005 129.501 7.87445L129.872 7.49832ZM129.917 16.3706C132.348 13.9082 132.327 9.93597 129.872 7.49832L129.501 7.87445C131.749 10.1065 131.768 13.7436 129.542 15.9983L129.917 16.3706ZM126.857 18.0757C127.981 17.821 129.047 17.2522 129.917 16.3706L129.542 15.9983C128.745 16.806 127.769 17.3263 126.741 17.5595L126.857 18.0757ZM126.66 18.0427C127.86 18.7861 129.145 19.0204 130.452 18.417L130.231 17.9362C129.124 18.4473 128.028 18.2681 126.938 17.5925L126.66 18.0427ZM130.452 18.417C131.034 18.1481 131.697 18.4079 131.939 18.9941L132.426 18.7918C132.068 17.9247 131.082 17.5431 130.231 17.9362L130.452 18.417ZM131.939 18.9941C132.184 19.588 131.906 20.2953 131.317 20.5676L131.537 21.0483C132.382 20.6586 132.781 19.6512 132.426 18.7918L131.939 18.9941ZM131.317 20.5676C128.979 21.6468 126.848 21.0201 125.197 19.9288L124.907 20.3708C126.655 21.5264 128.982 22.2281 131.537 21.0483L131.317 20.5676Z" fill="black" fill-opacity="0.2" style="fill:black;fill-opacity:0.2;"/>
<path fill-rule="evenodd" clip-rule="evenodd" d="M89.5036 8.06547C90.1378 8.87631 90.9885 9.53478 92.0131 9.94229C95.0922 11.1669 98.5759 9.66153 99.7941 6.57988C100.547 4.67642 100.259 2.61681 99.203 1.03156C100.786 0.477261 102.128 -0.736067 102.794 -2.42012C104.012 -5.50178 102.504 -8.99272 99.4247 -10.2174C97.8314 -10.8511 96.1297 -10.7538 94.6897 -10.0853C94.0726 -11.4653 92.9383 -12.6154 91.4243 -13.2175C88.3452 -14.4422 84.8615 -12.9368 83.6433 -9.85512C83.059 -8.37722 83.102 -6.80519 83.6445 -5.43415C81.8852 -4.95607 80.3658 -3.68283 79.6433 -1.85512C78.4251 1.22653 79.9336 4.71748 83.0127 5.94212C84.4505 6.51397 85.9765 6.49055 87.3189 5.98933C87.3056 6.01681 87.2921 6.04423 87.2784 6.07158C86.4678 7.69501 85.3088 8.73112 83.6512 8.69882C82.8593 8.68339 82.2312 9.306 82.2483 10.0895C82.2653 10.8729 82.9211 11.5206 83.7129 11.536C86.5823 11.5919 88.4122 9.899 89.5036 8.06547Z" fill="white" style="fill:white;fill-opacity:1;"/>
<path d="M89.5036 8.06547L89.2767 7.92983L89.4737 7.59883L89.7113 7.90262L89.5036 8.06547ZM99.203 1.03156L98.9834 1.17804L98.7945 0.894355L99.1155 0.781944L99.203 1.03156ZM94.6897 -10.0853L94.8011 -9.84539L94.5583 -9.73269L94.4488 -9.97755L94.6897 -10.0853ZM83.6445 -5.43415L83.8899 -5.53124L83.9987 -5.25632L83.714 -5.17895L83.6445 -5.43415ZM87.3189 5.98933L87.2263 5.74155L87.8453 5.51045L87.5564 6.10526L87.3189 5.98933ZM87.2784 6.07158L87.5146 6.19012L87.5146 6.19012L87.2784 6.07158ZM83.6512 8.69882L83.6559 8.43445L83.6559 8.43445L83.6512 8.69882ZM82.2483 10.0895L82.5123 10.0841L82.5123 10.0841L82.2483 10.0895ZM83.7129 11.536L83.7177 11.2716L83.7177 11.2716L83.7129 11.536ZM91.9159 10.188C90.8466 9.76272 89.9581 9.07511 89.2958 8.22833L89.7113 7.90262C90.3174 8.67751 91.1303 9.30683 92.1102 9.69657L91.9159 10.188ZM100.04 6.67753C98.7677 9.8949 95.1307 11.4666 91.9159 10.188L92.1102 9.69657C95.0537 10.8673 98.384 9.42817 99.5486 6.48223L100.04 6.67753ZM99.4226 0.885082C100.524 2.53948 100.825 4.69003 100.04 6.67753L99.5486 6.48223C100.268 4.66281 99.993 2.69413 98.9834 1.17804L99.4226 0.885082ZM103.04 -2.32247C102.345 -0.564202 100.943 0.702669 99.2905 1.28118L99.1155 0.781944C100.629 0.251854 101.912 -0.907931 102.549 -2.51777L103.04 -2.32247ZM99.5218 -10.4631C102.737 -9.18452 104.311 -5.53984 103.04 -2.32247L102.549 -2.51777C103.713 -5.46372 102.271 -8.80092 99.3275 -9.97163L99.5218 -10.4631ZM94.5784 -10.3253C96.0814 -11.0229 97.8584 -11.1247 99.5218 -10.4631L99.3275 -9.97163C97.8044 -10.5774 96.1781 -10.4846 94.8011 -9.84539L94.5784 -10.3253ZM91.5214 -13.4633C93.102 -12.8346 94.2865 -11.6335 94.9307 -10.1931L94.4488 -9.97755C93.8587 -11.2971 92.7746 -12.3961 91.3272 -12.9718L91.5214 -13.4633ZM83.3978 -9.95277C84.6696 -13.1701 88.3067 -14.7418 91.5214 -13.4633L91.3272 -12.9718C88.3836 -14.1425 85.0534 -12.7034 83.8888 -9.75747L83.3978 -9.95277ZM83.399 -5.33706C82.8327 -6.76819 82.7878 -8.40991 83.3978 -9.95277L83.8888 -9.75747C83.3303 -8.34454 83.3712 -6.84219 83.8899 -5.53124L83.399 -5.33706ZM79.3978 -1.95277C80.1522 -3.86113 81.7389 -5.19041 83.575 -5.68935L83.714 -5.17895C82.0315 -4.72173 80.5794 -3.50452 79.8888 -1.75747L79.3978 -1.95277ZM82.9156 6.18785C79.7009 4.90927 78.1259 1.26459 79.3978 -1.95277L79.8888 -1.75747C78.7242 1.18847 80.1663 4.52568 83.1099 5.69639L82.9156 6.18785ZM87.4115 6.2371C86.0102 6.76031 84.4165 6.78483 82.9156 6.18785L83.1099 5.69639C84.4845 6.24312 85.9428 6.22079 87.2263 5.74155L87.4115 6.2371ZM87.5564 6.10526C87.5426 6.13361 87.5287 6.16189 87.5146 6.19012L87.0422 5.95304C87.0554 5.92656 87.0685 5.90002 87.0814 5.87339L87.5564 6.10526ZM87.5146 6.19012C86.6805 7.86069 85.4471 8.99828 83.6464 8.96319L83.6559 8.43445C85.1705 8.46396 86.2551 7.52934 87.0422 5.95303L87.5146 6.19012ZM83.6464 8.96319C83.0013 8.95062 82.4985 9.45394 82.5123 10.0841L81.9843 10.0948C81.9639 9.15806 82.7173 8.41616 83.6559 8.43445L83.6464 8.96319ZM82.5123 10.0841C82.5262 10.7228 83.0647 11.2589 83.7177 11.2716L83.7082 11.8004C82.7775 11.7822 82.0045 11.023 81.9843 10.0948L82.5123 10.0841ZM83.7177 11.2716C86.4592 11.325 88.2141 9.715 89.2767 7.92983L89.7304 8.20112C88.6103 10.083 86.7054 11.8588 83.7082 11.8004L83.7177 11.2716Z" fill="black" fill-opacity="0.2" style="fill:black;fill-opacity:0.2;"/>
<path fill-rule="evenodd" clip-rule="evenodd" d="M70.5039 59.0659C71.138 59.8765 71.9886 60.5348 73.0131 60.9423C76.0922 62.1669 79.5759 60.6615 80.7941 57.5799C81.5466 55.6764 81.2587 53.6168 80.203 52.0316C81.7861 51.4773 83.1284 50.2639 83.7941 48.5799C85.0123 45.4982 83.5038 42.0073 80.4247 40.7826C78.8314 40.1489 77.1297 40.2462 75.6897 40.9147C75.0726 39.5347 73.9383 38.3846 72.4243 37.7825C69.3452 36.5578 65.8615 38.0632 64.6433 41.1449C64.059 42.6228 64.102 44.1948 64.6445 45.5659C62.8852 46.0439 61.3658 47.3172 60.6433 49.1449C59.4251 52.2265 60.9336 55.7175 64.0127 56.9421C65.4508 57.5141 66.9771 57.4905 68.3196 56.9891C68.3062 57.0167 68.2926 57.0442 68.2789 57.0717C67.4684 58.6953 66.3094 59.7315 64.652 59.6992C63.8602 59.6838 63.2321 60.3064 63.2492 61.0899C63.2662 61.8735 63.9219 62.5211 64.7137 62.5366C67.5828 62.5925 69.4126 60.8995 70.5039 59.0659Z" fill="white" style="fill:white;fill-opacity:1;"/>
<path d="M70.5039 59.0659L70.277 58.9302L70.474 58.5992L70.7116 58.903L70.5039 59.0659ZM80.203 52.0316L79.9834 52.178L79.7945 51.8944L80.1155 51.7819L80.203 52.0316ZM75.6897 40.9147L75.8011 41.1546L75.5583 41.2673L75.4488 41.0224L75.6897 40.9147ZM64.6445 45.5659L64.8899 45.4688L64.9987 45.7437L64.714 45.8211L64.6445 45.5659ZM68.3196 56.9891L68.227 56.7413L68.8459 56.5101L68.5571 57.105L68.3196 56.9891ZM68.2789 57.0717L68.0427 56.9532L68.0427 56.9532L68.2789 57.0717ZM64.652 59.6992L64.6567 59.4348L64.6567 59.4348L64.652 59.6992ZM63.2492 61.0899L63.5131 61.0846L63.5131 61.0846L63.2492 61.0899ZM64.7137 62.5366L64.709 62.8009L64.709 62.8009L64.7137 62.5366ZM72.9159 61.188C71.8468 60.7628 70.9584 60.0753 70.2961 59.2287L70.7116 58.903C71.3177 59.6777 72.1305 60.3069 73.1102 60.6966L72.9159 61.188ZM81.0396 57.6775C79.7677 60.8949 76.1307 62.4666 72.9159 61.188L73.1102 60.6966C76.0537 61.8673 79.384 60.4282 80.5486 57.4822L81.0396 57.6775ZM80.4226 51.8851C81.5244 53.5395 81.8253 55.69 81.0396 57.6775L80.5486 57.4822C81.2678 55.6628 80.993 53.6941 79.9834 52.178L80.4226 51.8851ZM84.0396 48.6775C83.3446 50.4358 81.9427 51.7027 80.2905 52.2812L80.1155 51.7819C81.6295 51.2519 82.9122 50.0921 83.5486 48.4822L84.0396 48.6775ZM80.5218 40.5369C83.7365 41.8155 85.3115 45.4602 84.0396 48.6775L83.5486 48.4822C84.7131 45.5363 83.271 42.1991 80.3275 41.0284L80.5218 40.5369ZM75.5784 40.6747C77.0814 39.9771 78.8584 39.8753 80.5218 40.5369L80.3275 41.0284C78.8044 40.4226 77.1781 40.5154 75.8011 41.1546L75.5784 40.6747ZM72.5214 37.5367C74.102 38.1654 75.2865 39.3665 75.9307 40.8069L75.4488 41.0224C74.8587 39.7029 73.7746 38.6039 72.3272 38.0282L72.5214 37.5367ZM64.3978 41.0472C65.6696 37.8299 69.3067 36.2582 72.5214 37.5367L72.3272 38.0282C69.3836 36.8575 66.0534 38.2966 64.8888 41.2425L64.3978 41.0472ZM64.399 45.6629C63.8327 44.2318 63.7878 42.5901 64.3978 41.0472L64.8888 41.2425C64.3303 42.6555 64.3712 44.1578 64.8899 45.4688L64.399 45.6629ZM60.3978 49.0472C61.1522 47.1389 62.7389 45.8096 64.575 45.3107L64.714 45.8211C63.0315 46.2783 61.5794 47.4955 60.8888 49.2425L60.3978 49.0472ZM63.9156 57.1878C60.7009 55.9093 59.1259 52.2646 60.3978 49.0472L60.8888 49.2425C59.7242 52.1885 61.1663 55.5257 64.1099 56.6964L63.9156 57.1878ZM68.4122 57.2368C67.0108 57.7603 65.4168 57.7849 63.9156 57.1878L64.1099 56.6964C65.4847 57.2432 66.9433 57.2208 68.227 56.7413L68.4122 57.2368ZM68.5571 57.105C68.5433 57.1335 68.5293 57.1619 68.5151 57.1903L68.0427 56.9532C68.056 56.9266 68.0691 56.8999 68.0821 56.8732L68.5571 57.105ZM68.5151 57.1903C67.6811 58.8609 66.4477 59.9986 64.6472 59.9636L64.6567 59.4348C66.1711 59.4643 67.2557 58.5297 68.0427 56.9532L68.5151 57.1903ZM64.6472 59.9636C64.0022 59.951 63.4994 60.4543 63.5131 61.0846L62.9852 61.0953C62.9648 60.1585 63.7181 59.4165 64.6567 59.4348L64.6472 59.9636ZM63.5131 61.0846C63.527 61.7234 64.0656 62.2595 64.7184 62.2722L64.709 62.8009C63.7783 62.7828 63.0054 62.0235 62.9852 61.0953L63.5131 61.0846ZM64.7184 62.2722C67.4597 62.3256 69.2145 60.7155 70.277 58.9302L70.7307 59.2015C69.6107 61.0835 67.7059 62.8593 64.709 62.8009L64.7184 62.2722Z" fill="black" fill-opacity="0.2" style="fill:black;fill-opacity:0.2;"/>
<path fill-rule="evenodd" clip-rule="evenodd" d="M113.515 54.08C114.148 54.8842 114.995 55.5372 116.013 55.9423C119.092 57.1669 122.576 55.6615 123.794 52.5799C124.547 50.6764 124.259 48.6168 123.203 47.0316C124.786 46.4773 126.128 45.2639 126.794 43.5799C128.012 40.4982 126.504 37.0073 123.425 35.7826C121.831 35.1489 120.13 35.2462 118.69 35.9147C118.073 34.5347 116.938 33.3846 115.424 32.7825C112.345 31.5578 108.862 33.0632 107.643 36.1449C107.059 37.6228 107.102 39.1948 107.644 40.5659C105.885 41.0439 104.366 42.3172 103.643 44.1449C102.425 47.2265 103.934 50.7175 107.013 51.9421C108.46 52.5178 109.997 52.4902 111.346 51.9793C111.33 52.0122 111.314 52.045 111.298 52.0777C110.489 53.7059 109.334 54.745 107.681 54.7127C106.891 54.6972 106.265 55.3217 106.282 56.1074C106.299 56.8931 106.953 57.5426 107.742 57.5581C110.602 57.614 112.427 55.9178 113.515 54.08Z" fill="white" style="fill:white;fill-opacity:1;"/>
<path d="M113.515 54.08L113.288 53.9448L113.484 53.6137L113.722 53.9165L113.515 54.08ZM123.203 47.0316L122.983 47.178L122.794 46.8944L123.116 46.7819L123.203 47.0316ZM118.69 35.9147L118.801 36.1546L118.558 36.2673L118.449 36.0224L118.69 35.9147ZM107.644 40.5659L107.89 40.4688L107.999 40.7437L107.714 40.8211L107.644 40.5659ZM111.346 51.9793L111.252 51.7319L111.87 51.4978L111.584 52.0942L111.346 51.9793ZM111.298 52.0777L111.534 52.1957L111.534 52.1957L111.298 52.0777ZM107.681 54.7127L107.676 54.977L107.676 54.977L107.681 54.7127ZM107.742 57.5581L107.738 57.8224L107.738 57.8224L107.742 57.5581ZM115.916 56.188C114.853 55.7653 113.969 55.0833 113.308 54.2435L113.722 53.9165C114.327 54.685 115.136 55.3092 116.11 55.6966L115.916 56.188ZM124.04 52.6775C122.768 55.8949 119.131 57.4666 115.916 56.188L116.11 55.6966C119.054 56.8673 122.384 55.4282 123.549 52.4822L124.04 52.6775ZM123.423 46.8851C124.524 48.5395 124.825 50.69 124.04 52.6775L123.549 52.4822C124.268 50.6628 123.993 48.6941 122.983 47.178L123.423 46.8851ZM127.04 43.6775C126.345 45.4358 124.943 46.7027 123.29 47.2812L123.116 46.7819C124.629 46.2519 125.912 45.0921 126.549 43.4822L127.04 43.6775ZM123.522 35.5369C126.737 36.8155 128.311 40.4602 127.04 43.6775L126.549 43.4822C127.713 40.5363 126.271 37.1991 123.328 36.0284L123.522 35.5369ZM118.578 35.6747C120.081 34.9771 121.858 34.8753 123.522 35.5369L123.328 36.0284C121.804 35.4226 120.178 35.5154 118.801 36.1546L118.578 35.6747ZM115.521 32.5367C117.102 33.1654 118.287 34.3665 118.931 35.8069L118.449 36.0224C117.859 34.7029 116.775 33.6039 115.327 33.0282L115.521 32.5367ZM107.398 36.0472C108.67 32.8299 112.307 31.2582 115.521 32.5367L115.327 33.0282C112.384 31.8575 109.053 33.2966 107.889 36.2425L107.398 36.0472ZM107.399 40.6629C106.833 39.2318 106.788 37.5901 107.398 36.0472L107.889 36.2425C107.33 37.6555 107.371 39.1578 107.89 40.4688L107.399 40.6629ZM103.398 44.0472C104.152 42.1389 105.739 40.8096 107.575 40.3107L107.714 40.8211C106.031 41.2783 104.579 42.4955 103.889 44.2425L103.398 44.0472ZM106.916 52.1878C103.701 50.9093 102.126 47.2646 103.398 44.0472L103.889 44.2425C102.724 47.1885 104.166 50.5257 107.11 51.6964L106.916 52.1878ZM111.439 52.2266C110.031 52.76 108.427 52.7888 106.916 52.1878L107.11 51.6964C108.494 52.2468 109.962 52.2205 111.252 51.7319L111.439 52.2266ZM111.584 52.0942C111.567 52.1281 111.551 52.162 111.534 52.1957L111.061 51.9597C111.077 51.9281 111.092 51.8963 111.108 51.8644L111.584 52.0942ZM111.534 52.1957C110.703 53.8705 109.473 55.0122 107.676 54.977L107.686 54.4483C109.195 54.4778 110.276 53.5413 111.061 51.9597L111.534 52.1957ZM107.676 54.977C107.035 54.9645 106.532 55.4681 106.546 56.102L106.018 56.1127C105.998 55.1752 106.748 54.4299 107.686 54.4483L107.676 54.977ZM106.546 56.102C106.56 56.7444 107.098 57.281 107.747 57.2937L107.738 57.8224C106.808 57.8042 106.038 57.0418 106.018 56.1127L106.546 56.102ZM107.747 57.2937C110.479 57.3472 112.228 55.7346 113.288 53.9448L113.742 54.2151C112.625 56.101 110.726 57.8809 107.738 57.8224L107.747 57.2937Z" fill="black" fill-opacity="0.2" style="fill:black;fill-opacity:0.2;"/>
<path fill-rule="evenodd" clip-rule="evenodd" d="M138.514 81.079C139.147 81.8836 139.994 82.537 141.013 82.9423C144.092 84.1669 147.576 82.6615 148.794 79.5799C149.547 77.6764 149.259 75.6168 148.203 74.0316C149.786 73.4773 151.128 72.2639 151.794 70.5799C153.012 67.4982 151.504 64.0073 148.425 62.7826C146.831 62.1489 145.13 62.2462 143.69 62.9147C143.073 61.5347 141.938 60.3846 140.424 59.7825C137.345 58.5578 133.862 60.0632 132.643 63.1449C132.059 64.6228 132.102 66.1948 132.644 67.5659C130.885 68.0439 129.366 69.3172 128.643 71.1449C127.425 74.2265 128.934 77.7175 132.013 78.9421C133.459 79.5175 134.995 79.4902 136.344 78.9799C136.328 79.0125 136.312 79.045 136.296 79.0773C135.488 80.7052 134.332 81.7441 132.679 81.7117C131.889 81.6963 131.263 82.3206 131.28 83.1062C131.297 83.8917 131.951 84.5411 132.74 84.5566C135.601 84.6125 137.426 82.9165 138.514 81.079Z" fill="white" style="fill:white;fill-opacity:1;"/>
<path d="M138.514 81.079L138.287 80.9438L138.483 80.6127L138.721 80.9155L138.514 81.079ZM148.203 74.0316L147.983 74.178L147.794 73.8944L148.116 73.7819L148.203 74.0316ZM143.69 62.9147L143.801 63.1546L143.558 63.2673L143.449 63.0224L143.69 62.9147ZM132.644 67.5659L132.89 67.4688L132.999 67.7437L132.714 67.8211L132.644 67.5659ZM136.344 78.9799L136.25 78.7326L136.868 78.4986L136.582 79.0949L136.344 78.9799ZM136.296 79.0773L136.06 78.9593L136.06 78.9593L136.296 79.0773ZM132.679 81.7117L132.674 81.9761L132.674 81.9761L132.679 81.7117ZM131.28 83.1062L131.544 83.1008L131.544 83.1008L131.28 83.1062ZM132.74 84.5566L132.745 84.2922L132.745 84.2922L132.74 84.5566ZM140.916 83.188C139.853 82.7651 138.968 82.0828 138.307 81.2424L138.721 80.9155C139.326 81.6845 140.136 82.309 141.11 82.6966L140.916 83.188ZM149.04 79.6775C147.768 82.8949 144.131 84.4666 140.916 83.188L141.11 82.6966C144.054 83.8673 147.384 82.4282 148.549 79.4822L149.04 79.6775ZM148.423 73.8851C149.524 75.5395 149.825 77.69 149.04 79.6775L148.549 79.4822C149.268 77.6628 148.993 75.6941 147.983 74.178L148.423 73.8851ZM152.04 70.6775C151.345 72.4358 149.943 73.7027 148.29 74.2812L148.116 73.7819C149.629 73.2519 150.912 72.0921 151.549 70.4822L152.04 70.6775ZM148.522 62.5369C151.737 63.8155 153.311 67.4602 152.04 70.6775L151.549 70.4822C152.713 67.5363 151.271 64.1991 148.328 63.0284L148.522 62.5369ZM143.578 62.6747C145.081 61.9771 146.858 61.8753 148.522 62.5369L148.328 63.0284C146.804 62.4226 145.178 62.5154 143.801 63.1546L143.578 62.6747ZM140.521 59.5367C142.102 60.1654 143.287 61.3665 143.931 62.8069L143.449 63.0224C142.859 61.7029 141.775 60.6039 140.327 60.0282L140.521 59.5367ZM132.398 63.0472C133.67 59.8299 137.307 58.2582 140.521 59.5367L140.327 60.0282C137.384 58.8575 134.053 60.2966 132.889 63.2425L132.398 63.0472ZM132.399 67.6629C131.833 66.2318 131.788 64.5901 132.398 63.0472L132.889 63.2425C132.33 64.6555 132.371 66.1578 132.89 67.4688L132.399 67.6629ZM128.398 71.0472C129.152 69.1389 130.739 67.8096 132.575 67.3107L132.714 67.8211C131.031 68.2783 129.579 69.4955 128.889 71.2425L128.398 71.0472ZM131.916 79.1878C128.701 77.9093 127.126 74.2646 128.398 71.0472L128.889 71.2425C127.724 74.1885 129.166 77.5257 132.11 78.6964L131.916 79.1878ZM136.438 79.2273C135.03 79.76 133.426 79.7885 131.916 79.1878L132.11 78.6964C133.493 79.2465 134.961 79.2205 136.25 78.7326L136.438 79.2273ZM136.582 79.0949C136.566 79.1285 136.549 79.162 136.533 79.1954L136.06 78.9593C136.075 78.928 136.091 78.8965 136.106 78.865L136.582 79.0949ZM136.533 79.1954C135.701 80.8699 134.471 82.0113 132.674 81.9761L132.684 81.4474C134.193 81.4769 135.275 80.5405 136.06 78.9593L136.533 79.1954ZM132.674 81.9761C132.032 81.9636 131.53 82.4671 131.544 83.1008L131.016 83.1115C130.995 82.174 131.746 81.429 132.684 81.4474L132.674 81.9761ZM131.544 83.1008C131.558 83.7429 132.096 84.2795 132.745 84.2922L132.736 84.8209C131.806 84.8027 131.036 84.0406 131.016 83.1115L131.544 83.1008ZM132.745 84.2922C135.477 84.3457 137.227 82.7333 138.287 80.9438L138.741 81.2142C137.624 83.0998 135.725 84.8794 132.736 84.8209L132.745 84.2922Z" fill="black" fill-opacity="0.2" style="fill:black;fill-opacity:0.2;"/>
<path fill-rule="evenodd" clip-rule="evenodd" d="M117.654 116.167C117.829 114.576 118.633 113.058 120.008 112.019C122.653 110.022 126.409 110.551 128.398 113.202C129.441 114.591 129.792 116.288 129.507 117.876C131.004 118.102 132.416 118.893 133.398 120.202C135.388 122.852 134.857 126.619 132.212 128.616C130.841 129.652 129.17 130.008 127.602 129.741C127.622 131.587 126.797 133.419 125.212 134.616C122.568 136.613 118.812 136.084 116.822 133.433C116.009 132.35 115.617 131.08 115.618 129.82C113.67 131.024 110.972 131.808 108.309 130.111C107.643 129.686 107.423 128.791 107.818 128.112C108.213 127.432 109.073 127.225 109.739 127.649C111.002 128.455 112.376 128.296 113.768 127.537C112.632 127.171 111.594 126.462 110.823 125.433C108.833 122.783 109.364 119.016 112.009 117.019C113.688 115.751 115.816 115.501 117.654 116.167Z" fill="white" style="fill:white;fill-opacity:1;"/>
<path d="M117.654 116.167L117.917 116.196L117.88 116.53L117.565 116.416L117.654 116.167ZM129.507 117.876L129.468 118.138L129.2 118.097L129.248 117.829L129.507 117.876ZM127.602 129.741L127.338 129.744L127.334 129.427L127.646 129.48L127.602 129.741ZM115.618 129.82L115.48 129.595L115.883 129.346L115.882 129.82L115.618 129.82ZM108.309 130.111L108.45 129.888L108.45 129.888L108.309 130.111ZM107.818 128.112L108.046 128.245L108.046 128.245L107.818 128.112ZM109.739 127.649L109.597 127.873L109.597 127.873L109.739 127.649ZM113.768 127.537L113.849 127.285L114.435 127.474L113.894 127.769L113.768 127.537ZM120.167 112.23C118.852 113.223 118.083 114.674 117.917 116.196L117.392 116.138C117.574 114.478 118.413 112.892 119.85 111.808L120.167 112.23ZM128.187 113.361C126.286 110.827 122.695 110.321 120.167 112.23L119.85 111.808C122.611 109.723 126.532 110.275 128.609 113.042L128.187 113.361ZM129.248 117.829C129.519 116.311 129.185 114.689 128.187 113.361L128.609 113.042C129.698 114.493 130.064 116.265 129.767 117.923L129.248 117.829ZM133.187 120.361C132.249 119.11 130.899 118.354 129.468 118.138L129.547 117.614C131.109 117.85 132.584 118.677 133.609 120.042L133.187 120.361ZM132.054 128.405C134.581 126.496 135.089 122.894 133.187 120.361L133.609 120.042C135.686 122.809 135.132 126.742 132.371 128.827L132.054 128.405ZM127.646 129.48C129.146 129.735 130.742 129.395 132.054 128.405L132.371 128.827C130.939 129.909 129.194 130.28 127.557 130.002L127.646 129.48ZM125.054 134.405C126.568 133.261 127.358 131.51 127.338 129.744L127.866 129.738C127.887 131.665 127.025 133.578 125.371 134.827L125.054 134.405ZM117.033 133.274C118.935 135.808 122.526 136.314 125.054 134.405L125.371 134.827C122.61 136.912 118.688 136.359 116.611 133.593L117.033 133.274ZM115.882 129.82C115.881 131.024 116.255 132.238 117.033 133.274L116.611 133.593C115.762 132.462 115.353 131.135 115.355 129.82L115.882 129.82ZM108.45 129.888C110.992 131.508 113.574 130.773 115.48 129.595L115.757 130.045C113.766 131.276 110.951 132.109 108.167 130.334L108.45 129.888ZM108.046 128.245C107.723 128.8 107.903 129.539 108.45 129.888L108.167 130.334C107.383 129.834 107.123 128.782 107.59 127.979L108.046 128.245ZM109.597 127.873C109.056 127.528 108.365 127.696 108.046 128.245L107.59 127.979C108.061 127.168 109.09 126.922 109.88 127.426L109.597 127.873ZM113.894 127.769C112.45 128.556 110.968 128.747 109.597 127.873L109.88 127.426C111.036 128.163 112.302 128.035 113.642 127.304L113.894 127.769ZM111.033 125.274C111.771 126.257 112.763 126.935 113.849 127.285L113.687 127.789C112.501 127.406 111.417 126.666 110.612 125.592L111.033 125.274ZM112.167 117.23C109.639 119.139 109.132 122.74 111.033 125.274L110.612 125.592C108.535 122.826 109.089 118.892 111.85 116.807L112.167 117.23ZM117.565 116.416C115.806 115.779 113.772 116.018 112.167 117.23L111.85 116.807C113.603 115.483 115.825 115.223 117.744 115.918L117.565 116.416Z" fill="black" fill-opacity="0.2" style="fill:black;fill-opacity:0.2;"/>
<path fill-rule="evenodd" clip-rule="evenodd" d="M91.514 159.079C92.1471 159.884 92.9941 160.537 94.0131 160.942C97.0922 162.167 100.576 160.662 101.794 157.58C102.547 155.676 102.259 153.617 101.203 152.032C102.786 151.477 104.128 150.264 104.794 148.58C106.012 145.498 104.504 142.007 101.425 140.783C99.8314 140.149 98.1297 140.246 96.6897 140.915C96.0726 139.535 94.9383 138.385 93.4243 137.782C90.3452 136.558 86.8615 138.063 85.6433 141.145C85.059 142.623 85.102 144.195 85.6445 145.566C83.8852 146.044 82.3658 147.317 81.6433 149.145C80.4251 152.227 81.9336 155.717 85.0127 156.942C86.4593 157.517 87.9952 157.49 89.3435 156.98C89.3278 157.013 89.312 157.045 89.296 157.077C88.4876 158.705 87.3316 159.744 85.6783 159.712C84.8885 159.696 84.2621 160.32 84.2791 161.106C84.2962 161.891 84.9502 162.541 85.74 162.556C88.6006 162.612 90.4254 160.916 91.514 159.079Z" fill="white" style="fill:white;fill-opacity:1;"/>
<path d="M91.514 159.079L91.2869 158.944L91.4831 158.612L91.7213 158.915L91.514 159.079ZM101.203 152.032L100.983 152.178L100.794 151.894L101.116 151.782L101.203 152.032ZM96.6897 140.915L96.8011 141.155L96.5583 141.267L96.4488 141.022L96.6897 140.915ZM85.6445 145.566L85.8899 145.469L85.9987 145.744L85.714 145.821L85.6445 145.566ZM89.3435 156.98L89.2498 156.733L89.868 156.499L89.5814 157.095L89.3435 156.98ZM89.296 157.077L89.0595 156.959L89.0595 156.959L89.296 157.077ZM85.6783 159.712L85.6736 159.976L85.6736 159.976L85.6783 159.712ZM84.2791 161.106L84.0151 161.111L84.0151 161.111L84.2791 161.106ZM85.74 162.556L85.7448 162.292L85.7448 162.292L85.74 162.556ZM93.9159 161.188C92.8525 160.765 91.9678 160.083 91.3067 159.242L91.7213 158.915C92.3263 159.684 93.1357 160.309 94.1102 160.697L93.9159 161.188ZM102.04 157.678C100.768 160.895 97.1307 162.467 93.9159 161.188L94.1102 160.697C97.0537 161.867 100.384 160.428 101.549 157.482L102.04 157.678ZM101.423 151.885C102.524 153.539 102.825 155.69 102.04 157.678L101.549 157.482C102.268 155.663 101.993 153.694 100.983 152.178L101.423 151.885ZM105.04 148.678C104.345 150.436 102.943 151.703 101.29 152.281L101.116 151.782C102.629 151.252 103.912 150.092 104.549 148.482L105.04 148.678ZM101.522 140.537C104.737 141.815 106.311 145.46 105.04 148.678L104.549 148.482C105.713 145.536 104.271 142.199 101.328 141.028L101.522 140.537ZM96.5784 140.675C98.0814 139.977 99.8584 139.875 101.522 140.537L101.328 141.028C99.8044 140.423 98.1781 140.515 96.8011 141.155L96.5784 140.675ZM93.5214 137.537C95.102 138.165 96.2865 139.367 96.9307 140.807L96.4488 141.022C95.8587 139.703 94.7746 138.604 93.3272 138.028L93.5214 137.537ZM85.3978 141.047C86.6696 137.83 90.3067 136.258 93.5214 137.537L93.3272 138.028C90.3836 136.857 87.0534 138.297 85.8888 141.243L85.3978 141.047ZM85.399 145.663C84.8327 144.232 84.7878 142.59 85.3978 141.047L85.8888 141.243C85.3303 142.655 85.3712 144.158 85.8899 145.469L85.399 145.663ZM81.3978 149.047C82.1522 147.139 83.7389 145.81 85.575 145.311L85.714 145.821C84.0315 146.278 82.5794 147.495 81.8888 149.243L81.3978 149.047ZM84.9156 157.188C81.7009 155.909 80.1259 152.265 81.3978 149.047L81.8888 149.243C80.7242 152.188 82.1663 155.526 85.1099 156.696L84.9156 157.188ZM89.4371 157.227C88.0297 157.76 86.4257 157.788 84.9156 157.188L85.1099 156.696C86.4929 157.246 87.9606 157.22 89.2498 156.733L89.4371 157.227ZM89.5814 157.095C89.5653 157.129 89.549 157.162 89.5324 157.195L89.0595 156.959C89.0751 156.928 89.0904 156.897 89.1055 156.865L89.5814 157.095ZM89.5324 157.195C88.7008 158.87 87.4706 160.011 85.6736 159.976L85.6831 159.447C87.1925 159.477 88.2743 158.54 89.0595 156.959L89.5324 157.195ZM85.6736 159.976C85.0319 159.963 84.5294 160.467 84.5431 161.101L84.0151 161.111C83.9948 160.174 84.7452 159.429 85.6831 159.447L85.6736 159.976ZM84.5431 161.101C84.557 161.743 85.0951 162.279 85.7448 162.292L85.7352 162.821C84.8053 162.802 84.0353 162.04 84.0151 161.111L84.5431 161.101ZM85.7448 162.292C88.4769 162.345 90.2267 160.733 91.2869 158.944L91.7411 159.214C90.624 161.1 88.7243 162.879 85.7352 162.821L85.7448 162.292Z" fill="black" fill-opacity="0.2" style="fill:black;fill-opacity:0.2;"/>
</g>
<mask id="path-39-outside-1_2536_8772" maskUnits="userSpaceOnUse" x="14" y="39" width="115" height="116" fill="black">
<rect fill="white" x="14" y="39" width="115" height="116"/>
<path fill-rule="evenodd" clip-rule="evenodd" d="M48 152C56.5129 152 64.2243 148.569 69.8266 143.014C70.7444 142.104 72.2556 142.104 73.1734 143.014C78.7757 148.569 86.4871 152 95 152C112.121 152 126 138.121 126 121C126 112.253 122.378 104.353 116.551 98.7166C115.591 97.7883 115.591 96.2117 116.551 95.2834C122.378 89.6472 126 81.7466 126 73C126 55.8792 112.121 42 95 42C86.4871 42 78.7757 45.4314 73.1734 50.9864C72.2556 51.8964 70.7444 51.8964 69.8266 50.9864C64.2243 45.4314 56.5129 42 48 42C30.8792 42 17 55.8792 17 73C17 81.7466 20.6224 89.6472 26.4489 95.2834C27.4085 96.2117 27.4085 97.7883 26.4489 98.7166C20.6224 104.353 17 112.253 17 121C17 138.121 30.8792 152 48 152Z"/>
</mask>
<path d="M116.551 98.7166L118.021 97.1973L116.551 98.7166ZM116.551 95.2834L115.081 93.7641L116.551 95.2834ZM26.4489 98.7166L24.9791 97.1973L26.4489 98.7166ZM69.8266 143.014L71.315 144.515L69.8266 143.014ZM73.1734 143.014L71.685 144.515L73.1734 143.014ZM68.3383 141.513C63.1157 146.691 55.933 149.886 48 149.886V154.114C57.0927 154.114 65.3329 150.446 71.315 144.515L68.3383 141.513ZM95 149.886C87.067 149.886 79.8843 146.691 74.6617 141.513L71.685 144.515C77.6671 150.446 85.9073 154.114 95 154.114V149.886ZM123.886 121C123.886 136.953 110.953 149.886 95 149.886V154.114C113.288 154.114 128.114 139.288 128.114 121H123.886ZM115.081 100.236C120.513 105.49 123.886 112.849 123.886 121H128.114C128.114 111.657 124.242 103.215 118.021 97.1973L115.081 100.236ZM123.886 73C123.886 81.1506 120.513 88.5097 115.081 93.7641L118.021 96.8027C124.242 90.7848 128.114 82.3427 128.114 73H123.886ZM95 44.1139C110.953 44.1139 123.886 57.0466 123.886 73H128.114C128.114 54.7117 113.288 39.8861 95 39.8861V44.1139ZM74.6617 52.4875C79.8843 47.309 87.067 44.1139 95 44.1139V39.8861C85.9073 39.8861 77.6671 43.5538 71.685 49.4854L74.6617 52.4875ZM48 44.1139C55.933 44.1139 63.1157 47.309 68.3383 52.4875L71.315 49.4854C65.3329 43.5538 57.0927 39.8861 48 39.8861V44.1139ZM19.1139 73C19.1139 57.0466 32.0466 44.1139 48 44.1139V39.8861C29.7117 39.8861 14.8861 54.7117 14.8861 73H19.1139ZM27.9186 93.7641C22.4868 88.5097 19.1139 81.1506 19.1139 73H14.8861C14.8861 82.3427 18.758 90.7848 24.9791 96.8027L27.9186 93.7641ZM19.1139 121C19.1139 112.849 22.4868 105.49 27.9186 100.236L24.9791 97.1973C18.758 103.215 14.8861 111.657 14.8861 121H19.1139ZM48 149.886C32.0466 149.886 19.1139 136.953 19.1139 121H14.8861C14.8861 139.288 29.7117 154.114 48 154.114V149.886ZM71.685 49.4854C71.6454 49.5247 71.5835 49.555 71.5 49.555C71.4165 49.555 71.3546 49.5247 71.315 49.4854L68.3383 52.4875C70.08 54.2145 72.92 54.2145 74.6617 52.4875L71.685 49.4854ZM118.021 97.1973C117.979 97.157 117.945 97.0914 117.945 97C117.945 96.9086 117.979 96.843 118.021 96.8027L115.081 93.7641C113.263 95.5232 113.263 98.4768 115.081 100.236L118.021 97.1973ZM24.9791 96.8027C25.0208 96.843 25.0547 96.9086 25.0547 97C25.0547 97.0914 25.0208 97.157 24.9791 97.1973L27.9186 100.236C29.7371 98.4768 29.7371 95.5232 27.9186 93.7641L24.9791 96.8027ZM71.315 144.515C71.3546 144.475 71.4165 144.445 71.5 144.445C71.5835 144.445 71.6454 144.475 71.685 144.515L74.6617 141.513C72.92 139.785 70.08 139.785 68.3383 141.513L71.315 144.515Z" fill="url(#paint0_radial_2536_8772)" fill-opacity="0.5" style="" mask="url(#path-39-outside-1_2536_8772)"/>
</g>
<g filter="url(#filter0_b_2536_8772)">
<rect x="3" y="165" width="138" height="41" rx="4.22771" fill="white" fill-opacity="0.5" style="fill:white;fill-opacity:0.5;"/>
<rect x="3.26423" y="165.264" width="137.472" height="40.4715" rx="3.96348" stroke="white" style="stroke:white;stroke-opacity:1;" stroke-width="0.528464"/>
</g>
<path fill-rule="evenodd" clip-rule="evenodd" d="M17 8.5C17 13.1944 13.1944 17 8.50001 17C7.62995 17 6.79043 16.8693 6.00001 16.6264L6 194.374C6.79042 194.131 7.62995 194 8.50001 194C13.1944 194 17 197.806 17 202.5C17 203.37 16.8693 204.21 16.6264 205H126.374C126.131 204.21 126 203.37 126 202.5C126 197.806 129.806 194 134.5 194C135.37 194 136.21 194.131 137 194.374L137 16.6264C136.21 16.8693 135.37 17 134.5 17C129.806 17 126 13.1944 126 8.5C126 7.62995 126.131 6.79042 126.374 6H16.6264C16.8693 6.79042 17 7.62995 17 8.5ZM0.0144703 203C0.273279 207.462 3.97344 211 8.50001 211C8.66786 211 8.83457 210.995 9.00001 210.986V211H134V210.986C134.165 210.995 134.332 211 134.5 211C139.027 211 142.727 207.462 142.986 203H143V202.516L143 202.5L143 202.484L143 8.50082V8.5V8.49918V8H142.986C142.736 3.70375 139.296 0.263674 135 0.0144617V0H134.5H8.50001H8.00001V0.0144618C3.70376 0.263674 0.263683 3.70375 0.0144703 8H8.52637e-06V8.5V202.5L0 203H0.0144703Z" fill="#D64980" style="fill:#D64980;fill:color(display-p3 0.8392 0.2863 0.5020);fill-opacity:1;"/>
<path fill-rule="evenodd" clip-rule="evenodd" d="M7.5 6C7.88418 6 8.23462 6.14443 8.5 6.38195C8.76538 6.14443 9.11582 6 9.5 6C10.3284 6 11 6.67157 11 7.5C11 7.88418 10.8556 8.23462 10.6181 8.5C10.8556 8.76538 11 9.11582 11 9.5C11 10.3284 10.3284 11 9.5 11C9.48731 11 9.47465 10.9998 9.46203 10.9995C9.45751 11.0469 9.43927 11.0972 9.40606 11.1476C9.28253 11.3348 8.99865 11.4523 8.77201 11.4099C8.3535 11.3316 8.08026 11.1599 7.90877 10.9436C7.77882 10.9804 7.64171 11 7.5 11C6.67157 11 6 10.3284 6 9.5C6 9.11582 6.14443 8.76538 6.38195 8.5C6.14443 8.23462 6 7.88418 6 7.5C6 6.67157 6.67157 6 7.5 6Z" fill="white" style="fill:white;fill-opacity:1;"/>
<path fill-rule="evenodd" clip-rule="evenodd" d="M7.5 205C7.88418 205 8.23462 204.856 8.5 204.618C8.76538 204.856 9.11582 205 9.5 205C10.3284 205 11 204.328 11 203.5C11 203.116 10.8556 202.765 10.6181 202.5C10.8556 202.235 11 201.884 11 201.5C11 200.672 10.3284 200 9.5 200C9.48704 200 9.47411 200 9.46123 200C9.4567 199.953 9.43846 199.903 9.40525 199.852C9.2817 199.665 8.99785 199.548 8.77126 199.59C8.3528 199.668 8.07963 199.84 7.90821 200.056C7.77842 200.02 7.6415 200 7.5 200C6.67157 200 6 200.672 6 201.5C6 201.884 6.14443 202.235 6.38195 202.5C6.14443 202.765 6 203.116 6 203.5C6 204.328 6.67157 205 7.5 205Z" fill="white" style="fill:white;fill-opacity:1;"/>
<path fill-rule="evenodd" clip-rule="evenodd" d="M135.5 6C135.116 6 134.765 6.14443 134.5 6.38195C134.235 6.14443 133.884 6 133.5 6C132.672 6 132 6.67157 132 7.5C132 7.88418 132.144 8.23462 132.382 8.5C132.144 8.76538 132 9.11582 132 9.5C132 10.3284 132.672 11 133.5 11C133.513 11 133.525 10.9998 133.538 10.9995C133.542 11.0469 133.561 11.0972 133.594 11.1476C133.717 11.3348 134.001 11.4523 134.228 11.4099C134.646 11.3316 134.92 11.1599 135.091 10.9436C135.221 10.9803 135.358 11 135.5 11C136.328 11 137 10.3284 137 9.5C137 9.11582 136.856 8.76538 136.618 8.5C136.856 8.23462 137 7.88418 137 7.5C137 6.67157 136.328 6 135.5 6Z" fill="white" style="fill:white;fill-opacity:1;"/>
<path fill-rule="evenodd" clip-rule="evenodd" d="M135.5 205C135.116 205 134.765 204.856 134.5 204.618C134.235 204.856 133.884 205 133.5 205C132.672 205 132 204.328 132 203.5C132 203.116 132.144 202.765 132.382 202.5C132.144 202.235 132 201.884 132 201.5C132 200.672 132.672 200 133.5 200C133.513 200 133.526 200 133.539 200C133.543 199.953 133.562 199.903 133.595 199.852C133.718 199.665 134.002 199.548 134.229 199.59C134.647 199.668 134.92 199.84 135.092 200.056C135.222 200.02 135.359 200 135.5 200C136.328 200 137 200.672 137 201.5C137 201.884 136.856 202.235 136.618 202.5C136.856 202.765 137 203.116 137 203.5C137 204.328 136.328 205 135.5 205Z" fill="white" style="fill:white;fill-opacity:1;"/>
<defs>
<filter id="filter0_b_2536_8772" x="-18.1386" y="143.861" width="180.277" height="83.2771" filterUnits="userSpaceOnUse" color-interpolation-filters="sRGB">
<feFlood flood-opacity="0" result="BackgroundImageFix"/>
<feGaussianBlur in="BackgroundImageFix" stdDeviation="10.5693"/>
<feComposite in2="SourceAlpha" operator="in" result="effect1_backgroundBlur_2536_8772"/>
<feBlend mode="normal" in="SourceGraphic" in2="effect1_backgroundBlur_2536_8772" result="shape"/>
</filter>
<radialGradient id="paint0_radial_2536_8772" cx="0" cy="0" r="1" gradientUnits="userSpaceOnUse" gradientTransform="translate(70.1482 94.9539) rotate(90) scale(66.59 65.9841)">
<stop stop-color="white" style="stop-color:white;stop-opacity:1;"/>
<stop offset="1" stop-color="white" stop-opacity="0.5" style="stop-color:white;stop-opacity:0.5;"/>
</radialGradient>
</defs>
</svg>
