<svg width="162" height="162" viewBox="0 0 162 162" fill="none" xmlns="http://www.w3.org/2000/svg">
<rect width="162" height="162" fill="#292929" style="fill:#292929;fill:color(display-p3 0.1608 0.1608 0.1608);fill-opacity:1;"/>
<path d="M136.262 76.8042C136.229 76.185 135.384 76.0334 135.125 76.6001L133.548 80.0427C133.456 80.2441 133.26 80.3792 133.039 80.3935L129.263 80.6373C128.642 80.6774 128.481 81.5189 129.046 81.7719L132.482 83.3095C132.683 83.3995 132.816 83.5938 132.828 83.8139L133.029 87.5752C133.062 88.1944 133.907 88.346 134.166 87.7793L135.743 84.3368C135.835 84.1353 136.031 84.0002 136.252 83.9859L140.028 83.7421C140.649 83.702 140.81 82.8605 140.245 82.6075L136.809 81.0699C136.608 80.9799 136.474 80.7857 136.463 80.5655L136.262 76.8042Z" fill="#4C4C4C" style="fill:#4C4C4C;fill:color(display-p3 0.2988 0.2982 0.2982);fill-opacity:1;"/>
<ellipse cx="1.4833" cy="1.48765" rx="1.4833" ry="1.48765" transform="matrix(-1 0 0 1 141.948 90.671)" fill="#4C4C4C" style="fill:#4C4C4C;fill:color(display-p3 0.2988 0.2982 0.2982);fill-opacity:1;"/>
<ellipse cx="28.1937" cy="28.2545" rx="28.1937" ry="28.2545" transform="matrix(0.931218 0.364464 -0.362616 0.931938 93.491 76.7865)" fill="#3B3B3B" style="fill:#3B3B3B;fill:color(display-p3 0.2300 0.2300 0.2300);fill-opacity:1;"/>
<path d="M101.113 99.8709L105.75 101.686L102.709 116.04L102.874 116.105L110.812 103.667L114.886 105.262L112.316 119.832L112.453 119.886L119.949 107.243L124.586 109.058L112.41 127.714L107.485 125.786L110.194 111.513L110.029 111.448L102.395 123.794L97.4703 121.867L101.113 99.8709ZM97.0483 108.244L121.921 117.979L120.741 121.011L95.8685 111.276L97.0483 108.244Z" fill="#292929" style="fill:#292929;fill:color(display-p3 0.1608 0.1608 0.1608);fill-opacity:1;"/>
</svg>
