<svg width="143" height="211" viewBox="0 0 143 211" fill="none" xmlns="http://www.w3.org/2000/svg">
<path fill-rule="evenodd" clip-rule="evenodd" d="M8.45543 0H133.545C138.214 0 142 3.78562 142 8.45543V202.545C142 207.214 138.214 211 133.545 211H8.45543C3.78563 211 0 207.214 0 202.545V8.45542C0 3.78562 3.78562 0 8.45543 0ZM72.1734 143.014C71.2556 142.104 69.7444 142.104 68.8266 143.014C63.2243 148.569 55.5129 152 47 152C29.8792 152 16 138.121 16 121C16 112.253 19.6224 104.353 25.4488 98.7166C26.4085 97.7883 26.4085 96.2117 25.4488 95.2834C19.6224 89.6472 16 81.7466 16 73C16 55.8792 29.8792 42 47 42C55.5129 42 63.2243 45.4314 68.8266 50.9864C69.7444 51.8964 71.2556 51.8964 72.1734 50.9864C77.7757 45.4314 85.4871 42 94 42C111.121 42 125 55.8792 125 73C125 81.7466 121.378 89.6472 115.551 95.2834C114.591 96.2117 114.591 97.7883 115.551 98.7166C121.378 104.353 125 112.253 125 121C125 138.121 111.121 152 94 152C85.4871 152 77.7757 148.569 72.1734 143.014Z" fill="#25DA83" style="fill:#25DA83;fill:color(display-p3 0.1459 0.8542 0.5142);fill-opacity:1;"/>
<mask id="mask0_2536_8108" style="mask-type:alpha" maskUnits="userSpaceOnUse" x="0" y="0" width="142" height="211">
<path fill-rule="evenodd" clip-rule="evenodd" d="M8.45543 0H133.545C138.214 0 142 3.78562 142 8.45543V202.545C142 207.214 138.214 211 133.545 211H8.45543C3.78563 211 0 207.214 0 202.545V8.45542C0 3.78562 3.78562 0 8.45543 0ZM72.1734 143.014C71.2556 142.104 69.7444 142.104 68.8266 143.014C63.2243 148.569 55.5129 152 47 152C29.8792 152 16 138.121 16 121C16 112.253 19.6224 104.353 25.4488 98.7166C26.4085 97.7883 26.4085 96.2117 25.4488 95.2834C19.6224 89.6472 16 81.7466 16 73C16 55.8792 29.8792 42 47 42C55.5129 42 63.2243 45.4314 68.8266 50.9864C69.7444 51.8964 71.2556 51.8964 72.1734 50.9864C77.7757 45.4314 85.4871 42 94 42C111.121 42 125 55.8792 125 73C125 81.7466 121.378 89.6472 115.551 95.2834C114.591 96.2117 114.591 97.7883 115.551 98.7166C121.378 104.353 125 112.253 125 121C125 138.121 111.121 152 94 152C85.4871 152 77.7757 148.569 72.1734 143.014Z" fill="#25DA83" style="fill:#25DA83;fill:color(display-p3 0.1459 0.8542 0.5142);fill-opacity:1;"/>
</mask>
<g mask="url(#mask0_2536_8108)">
<g opacity="0.3">
<path fill-rule="evenodd" clip-rule="evenodd" d="M10.4963 142.934C9.8621 142.124 9.01144 141.465 7.98688 141.058C4.90777 139.833 1.4241 141.338 0.205881 144.42C-0.546581 146.324 -0.258725 148.383 0.796983 149.968C-0.786106 150.523 -2.12839 151.736 -2.79412 153.42C-4.01234 156.502 -2.50379 159.993 0.575315 161.217C2.16863 161.851 3.87026 161.754 5.31028 161.085C5.9274 162.465 7.06169 163.615 8.5757 164.218C11.6548 165.442 15.1385 163.937 16.3567 160.855C16.9409 159.377 16.898 157.805 16.3555 156.434C18.1148 155.956 19.6342 154.683 20.3567 152.855C21.5749 149.773 20.0664 146.283 16.9873 145.058C15.5494 144.486 14.0232 144.509 12.6808 145.011C12.6942 144.983 12.7077 144.956 12.7214 144.928C13.5319 143.305 14.6909 142.269 16.3485 142.301C17.1403 142.316 17.7684 141.694 17.7513 140.91C17.7343 140.127 17.0785 139.479 16.2867 139.464C13.4175 139.408 11.5876 141.101 10.4963 142.934Z" fill="white" style="fill:white;fill-opacity:1;"/>
<path d="M10.4963 142.934L10.7231 143.07L10.5261 143.401L10.2885 143.097L10.4963 142.934ZM0.796983 149.968L1.01659 149.822L1.20551 150.106L0.884466 150.218L0.796983 149.968ZM5.31028 161.085L5.19894 160.845L5.44173 160.733L5.55123 160.978L5.31028 161.085ZM16.3555 156.434L16.11 156.531L16.0013 156.256L16.286 156.179L16.3555 156.434ZM12.6808 145.011L12.7734 145.259L12.1544 145.49L12.4433 144.895L12.6808 145.011ZM12.7214 144.928L12.4852 144.81L12.4852 144.81L12.7214 144.928ZM16.3485 142.301L16.3532 142.037L16.3532 142.037L16.3485 142.301ZM16.2867 139.464L16.2915 139.199L16.2915 139.199L16.2867 139.464ZM8.08402 140.812C9.15329 141.237 10.0418 141.925 10.7041 142.772L10.2885 143.097C9.68245 142.322 8.86958 141.693 7.88974 141.303L8.08402 140.812ZM-0.0396444 144.322C1.23222 141.105 4.86931 139.533 8.08402 140.812L7.88974 141.303C4.94623 140.133 1.61598 141.572 0.451406 144.518L-0.0396444 144.322ZM0.577379 150.115C-0.524382 148.461 -0.825329 146.31 -0.0396444 144.322L0.451406 144.518C-0.267834 146.337 0.0069325 148.306 1.01659 149.822L0.577379 150.115ZM-3.03964 153.322C-2.34458 151.564 -0.942735 150.297 0.709499 149.719L0.884466 150.218C-0.629476 150.748 -1.9122 151.908 -2.54859 153.518L-3.03964 153.322ZM0.478176 161.463C-2.73653 160.185 -4.31151 156.54 -3.03964 153.322L-2.54859 153.518C-3.71317 156.464 -2.27105 159.801 0.672455 160.972L0.478176 161.463ZM5.42162 161.325C3.91863 162.023 2.14163 162.125 0.478176 161.463L0.672455 160.972C2.19562 161.577 3.8219 161.485 5.19894 160.845L5.42162 161.325ZM8.47857 164.463C6.89797 163.835 5.71347 162.633 5.06933 161.193L5.55123 160.978C6.14133 162.297 7.22542 163.396 8.67284 163.972L8.47857 164.463ZM16.6022 160.953C15.3304 164.17 11.6933 165.742 8.47857 164.463L8.67284 163.972C11.6164 165.143 14.9466 163.703 16.1112 160.757L16.6022 160.953ZM16.601 156.337C17.1673 157.768 17.2121 159.41 16.6022 160.953L16.1112 160.757C16.6697 159.345 16.6288 157.842 16.11 156.531L16.601 156.337ZM20.6022 152.953C19.8478 154.861 18.261 156.19 16.425 156.689L16.286 156.179C17.9685 155.722 19.4205 154.505 20.1112 152.757L20.6022 152.953ZM17.0844 144.812C20.2991 146.091 21.8741 149.735 20.6022 152.953L20.1112 152.757C21.2757 149.812 19.8336 146.474 16.8901 145.304L17.0844 144.812ZM12.5882 144.763C13.9895 144.24 15.5833 144.215 17.0844 144.812L16.8901 145.304C15.5154 144.757 14.0569 144.779 12.7734 145.259L12.5882 144.763ZM12.4433 144.895C12.4571 144.866 12.471 144.838 12.4852 144.81L12.9576 145.047C12.9443 145.073 12.9312 145.1 12.9183 145.127L12.4433 144.895ZM12.4852 144.81C13.3193 143.139 14.5527 142.002 16.3532 142.037L16.3437 142.565C14.8292 142.536 13.7446 143.471 12.9576 145.047L12.4852 144.81ZM16.3532 142.037C16.9983 142.049 17.5011 141.546 17.4873 140.916L18.0153 140.905C18.0357 141.842 17.2823 142.584 16.3437 142.565L16.3532 142.037ZM17.4873 140.916C17.4734 140.277 16.9349 139.741 16.282 139.728L16.2915 139.199C17.2222 139.218 17.9951 139.977 18.0153 140.905L17.4873 140.916ZM16.282 139.728C13.5405 139.675 11.7857 141.285 10.7231 143.07L10.2694 142.799C11.3895 140.917 13.2944 139.141 16.2915 139.199L16.282 139.728Z" fill="black" fill-opacity="0.2" style="fill:black;fill-opacity:0.2;"/>
<path fill-rule="evenodd" clip-rule="evenodd" d="M22.4963 -1.06563C21.8621 -1.87639 21.0114 -2.5348 19.9869 -2.9423C16.9078 -4.16695 13.4241 -2.66154 12.2059 0.420113C11.4534 2.32357 11.7413 4.38318 12.797 5.96843C11.2139 6.52273 9.87161 7.73605 9.20588 9.42011C7.98766 12.5018 9.49621 15.9927 12.5753 17.2174C14.1686 17.8511 15.8703 17.7538 17.3103 17.0853C17.9274 18.4653 19.0617 19.6154 20.5757 20.2175C23.6548 21.4422 27.1385 19.9368 28.3567 16.8551C28.9409 15.3772 28.898 13.8052 28.3555 12.4342C30.1148 11.9561 31.6342 10.6828 32.3567 8.85513C33.5749 5.77348 32.0664 2.28253 28.9873 1.05788C27.5494 0.485982 26.0232 0.509452 24.6808 1.01079C24.6941 0.983239 24.7077 0.955759 24.7214 0.928347C25.5319 -0.695145 26.6909 -1.73129 28.3484 -1.69899C29.1403 -1.68356 29.7684 -2.30619 29.7513 -3.08968C29.7342 -3.87317 29.0785 -4.52083 28.2867 -4.53626C25.4174 -4.59217 23.5876 -2.89921 22.4963 -1.06563Z" fill="white" style="fill:white;fill-opacity:1;"/>
<path d="M22.4963 -1.06563L22.7231 -0.929991L22.5261 -0.598984L22.2885 -0.902768L22.4963 -1.06563ZM12.797 5.96843L13.0166 5.82195L13.2055 6.10564L12.8845 6.21805L12.797 5.96843ZM9.20588 9.42011L9.45141 9.51777L9.20588 9.42011ZM17.3103 17.0853L17.1989 16.8454L17.4417 16.7327L17.5512 16.9776L17.3103 17.0853ZM28.3555 12.4342L28.11 12.5313L28.0013 12.2563L28.286 12.179L28.3555 12.4342ZM24.6808 1.01079L24.7734 1.25856L24.1544 1.48969L24.4433 0.894858L24.6808 1.01079ZM24.7214 0.928347L24.9576 1.04688L24.9576 1.04689L24.7214 0.928347ZM28.3484 -1.69899L28.3437 -1.43462L28.3437 -1.43462L28.3484 -1.69899ZM29.7513 -3.08968L29.4873 -3.08432L29.4873 -3.08432L29.7513 -3.08968ZM28.2867 -4.53626L28.2914 -4.80063L28.2867 -4.53626ZM20.084 -3.18803C21.1533 -2.76275 22.0417 -2.0752 22.704 -1.22849L22.2885 -0.902768C21.6824 -1.67759 20.8696 -2.30686 19.8897 -2.69657L20.084 -3.18803ZM11.9604 0.322461C13.2322 -2.89491 16.8693 -4.46661 20.084 -3.18803L19.8897 -2.69657C16.9462 -3.86729 13.616 -2.42818 12.4514 0.517765L11.9604 0.322461ZM12.5774 6.11491C11.4756 4.46051 11.1747 2.30996 11.9604 0.322461L12.4514 0.517765C11.7322 2.33718 12.0069 4.30585 13.0166 5.82195L12.5774 6.11491ZM8.96036 9.32246C9.65542 7.56419 11.0573 6.29732 12.7095 5.71881L12.8845 6.21805C11.3705 6.74814 10.0878 7.90792 9.45141 9.51777L8.96036 9.32246ZM12.4782 17.4631C9.26347 16.1845 7.68849 12.5398 8.96036 9.32246L9.45141 9.51777C8.28683 12.4637 9.72895 15.8009 12.6725 16.9716L12.4782 17.4631ZM17.4216 17.3253C15.9186 18.0229 14.1416 18.1247 12.4782 17.4631L12.6725 16.9716C14.1956 17.5774 15.8219 17.4846 17.1989 16.8454L17.4216 17.3253ZM20.4786 20.4633C18.898 19.8346 17.7135 18.6335 17.0693 17.1931L17.5512 16.9776C18.1413 18.2971 19.2254 19.3961 20.6728 19.9718L20.4786 20.4633ZM28.6022 16.9528C27.3304 20.1702 23.6933 21.7419 20.4786 20.4633L20.6728 19.9718C23.6164 21.1425 26.9466 19.7034 28.1112 16.7575L28.6022 16.9528ZM28.601 12.3371C29.1673 13.7682 29.2121 15.4099 28.6022 16.9528L28.1112 16.7575C28.6697 15.3446 28.6288 13.8422 28.11 12.5313L28.601 12.3371ZM32.6022 8.95279C31.8478 10.8611 30.261 12.1904 28.425 12.6894L28.286 12.179C29.9685 11.7217 31.4205 10.5045 32.1112 8.75748L32.6022 8.95279ZM29.0844 0.812152C32.2991 2.09073 33.8741 5.73542 32.6022 8.95279L32.1112 8.75748C33.2757 5.81154 31.8336 2.47433 28.8901 1.30361L29.0844 0.812152ZM24.5882 0.763015C25.9895 0.23969 27.5833 0.215127 29.0844 0.812152L28.8901 1.30361C27.5154 0.756836 26.0569 0.779214 24.7734 1.25856L24.5882 0.763015ZM24.4433 0.894858C24.4571 0.866458 24.471 0.838107 24.4852 0.809808L24.9576 1.04689C24.9443 1.07341 24.9312 1.10002 24.9183 1.12671L24.4433 0.894858ZM24.4852 0.80981C25.3192 -0.860807 26.5526 -1.99845 28.3532 -1.96336L28.3437 -1.43462C26.8292 -1.46413 25.7446 -0.529483 24.9576 1.04688L24.4852 0.80981ZM28.3532 -1.96336C28.9983 -1.95079 29.501 -2.45411 29.4873 -3.08432L30.0153 -3.09504C30.0357 -2.15827 29.2823 -1.41633 28.3437 -1.43462L28.3532 -1.96336ZM29.4873 -3.08432C29.4734 -3.72309 28.9349 -4.25916 28.282 -4.27189L28.2914 -4.80063C29.2222 -4.78249 29.9951 -4.02326 30.0153 -3.09504L29.4873 -3.08432ZM28.282 -4.27189C25.5405 -4.32531 23.7857 -2.71523 22.7231 -0.929991L22.2694 -1.20127C23.3895 -3.0832 25.2944 -4.85903 28.2914 -4.80063L28.282 -4.27189Z" fill="black" fill-opacity="0.2" style="fill:black;fill-opacity:0.2;"/>
<path fill-rule="evenodd" clip-rule="evenodd" d="M14.7267 96.5656C13.5703 95.0608 13.1425 93.034 13.7567 91.0886C14.7544 87.9287 18.1234 86.1803 21.2816 87.1835C23.1494 87.7768 24.5251 89.1996 25.1312 90.9169C26.5934 89.9372 28.4721 89.6087 30.2816 90.1835C33.4398 91.1867 35.1913 94.5616 34.1936 97.7216C33.6024 99.5941 32.1785 100.971 30.4591 101.573C31.4356 103.037 31.7641 104.915 31.1936 106.722C30.1959 109.882 26.8269 111.63 23.6687 110.627C22.931 110.392 22.2701 110.029 21.703 109.568C20.7274 111.403 19.0421 113.104 16.2739 113.246C15.4831 113.287 14.7833 112.687 14.7108 111.907C14.6384 111.126 15.2207 110.461 16.0115 110.42C17.6529 110.336 18.7312 109.238 19.4254 107.585C18.2518 107.988 16.9428 108.032 15.6682 107.627C12.51 106.624 10.7585 103.249 11.7562 100.089C12.2573 98.5017 13.3565 97.2708 14.7267 96.5656Z" fill="white" style="fill:white;fill-opacity:1;"/>
<path d="M14.7267 96.5656L14.9359 96.4046L15.1291 96.6559L14.8477 96.8007L14.7267 96.5656ZM25.1312 90.9169L25.2783 91.1367L24.9956 91.3261L24.8822 91.0046L25.1312 90.9169ZM30.4591 101.573L30.2396 101.72L30.0504 101.436L30.3716 101.324L30.4591 101.573ZM31.1936 106.722L30.9418 106.642L31.1936 106.722ZM21.703 109.568L21.4698 109.444L21.6202 109.161L21.8691 109.363L21.703 109.568ZM16.2739 113.246L16.26 112.982L16.26 112.982L16.2739 113.246ZM14.7108 111.907L14.9738 111.883L14.9738 111.883L14.7108 111.907ZM16.0115 110.42L16.0255 110.684L16.0255 110.684L16.0115 110.42ZM19.4254 107.585L19.3393 107.335L19.8976 107.143L19.6688 107.688L19.4254 107.585ZM14.0086 91.1686C13.4215 93.0281 13.8299 94.9655 14.9359 96.4046L14.5175 96.7266C13.3106 95.1562 12.8636 93.0399 13.5049 91.0086L14.0086 91.1686ZM21.2021 87.4355C18.1829 86.4764 14.9623 88.1478 14.0086 91.1686L13.5049 91.0086C14.5465 87.7095 18.0639 85.8841 21.3612 86.9315L21.2021 87.4355ZM24.8822 91.0046C24.3026 89.3623 22.9874 88.0026 21.2021 87.4355L21.3612 86.9315C23.3113 87.551 24.7477 89.0369 25.3802 90.8292L24.8822 91.0046ZM30.2021 90.4355C28.4724 89.886 26.6767 90.1997 25.2783 91.1367L24.9841 90.6971C26.5101 89.6747 28.4719 89.3314 30.3612 89.9315L30.2021 90.4355ZM33.9418 97.6416C34.8955 94.6208 33.2212 91.3945 30.2021 90.4355L30.3612 89.9315C33.6584 90.9789 35.487 94.5024 34.4454 97.8016L33.9418 97.6416ZM30.3716 101.324C32.0159 100.748 33.3766 99.4315 33.9418 97.6416L34.4454 97.8016C33.8281 99.7567 32.341 101.194 30.5467 101.823L30.3716 101.324ZM30.9418 106.642C31.4871 104.914 31.1734 103.12 30.2396 101.72L30.6787 101.427C31.6978 102.955 32.0411 104.915 31.4454 106.802L30.9418 106.642ZM23.7483 110.375C26.7674 111.334 29.988 109.662 30.9418 106.642L31.4454 106.802C30.4038 110.101 26.8864 111.926 23.5892 110.879L23.7483 110.375ZM21.8691 109.363C22.4109 109.803 23.0426 110.151 23.7483 110.375L23.5892 110.879C22.8194 110.634 22.1292 110.254 21.5368 109.774L21.8691 109.363ZM16.26 112.982C18.9054 112.847 20.5213 111.227 21.4698 109.444L21.9361 109.693C20.9334 111.578 19.1787 113.362 16.2878 113.51L16.26 112.982ZM14.9738 111.883C15.0329 112.519 15.608 113.016 16.26 112.982L16.2878 113.51C15.3581 113.558 14.5337 112.855 14.4479 111.931L14.9738 111.883ZM16.0255 110.684C15.3814 110.717 14.9155 111.255 14.9738 111.883L14.4479 111.931C14.3612 110.998 15.0601 110.204 15.9976 110.156L16.0255 110.684ZM19.6688 107.688C18.954 109.39 17.8084 110.593 16.0255 110.684L15.9976 110.156C17.4975 110.079 18.5083 109.086 19.1819 107.482L19.6688 107.688ZM15.7477 107.375C16.9665 107.762 18.2174 107.721 19.3393 107.335L19.5115 107.835C18.2862 108.256 16.9191 108.301 15.5886 107.879L15.7477 107.375ZM12.008 100.169C11.0543 103.19 12.7286 106.416 15.7477 107.375L15.5886 107.879C12.2913 106.831 10.4628 103.308 11.5044 100.009L12.008 100.169ZM14.8477 96.8007C13.5375 97.4751 12.4871 98.6516 12.008 100.169L11.5044 100.009C12.0275 98.3519 13.1755 97.0665 14.6057 96.3304L14.8477 96.8007Z" fill="black" fill-opacity="0.2" style="fill:black;fill-opacity:0.2;"/>
<path fill-rule="evenodd" clip-rule="evenodd" d="M85.2406 187.607C84.5928 189.253 84.6725 191.167 85.6226 192.817C87.2764 195.689 90.9413 196.67 93.8085 195.008C95.5265 194.013 96.5682 192.294 96.7715 190.459C98.3755 191.039 100.215 190.931 101.808 190.008C104.676 188.347 105.659 184.672 104.005 181.801C103.011 180.075 101.291 179.032 99.4533 178.835C100.028 177.23 99.9219 175.392 99.0054 173.801C97.3516 170.929 93.6866 169.948 90.8195 171.609C90.0004 172.084 89.335 172.723 88.8409 173.461C87.5619 172.378 85.8727 171.665 83.7468 172.021C82.9677 172.151 82.4153 172.889 82.513 173.669C82.6107 174.448 83.3215 174.974 84.1007 174.844C85.2646 174.649 86.2576 175.031 87.1078 175.808C85.9956 175.753 84.855 176.009 83.8187 176.609C80.9515 178.271 79.9679 181.945 81.6217 184.817C82.4451 186.246 83.7669 187.207 85.2406 187.607Z" fill="white" style="fill:white;fill-opacity:1;"/>
<path d="M85.2406 187.607L85.4861 187.704L85.5943 187.429L85.3099 187.352L85.2406 187.607ZM96.7715 190.459L96.8613 190.21L96.5461 190.096L96.5091 190.43L96.7715 190.459ZM99.4533 178.835L99.205 178.746L99.0916 179.062L99.425 179.098L99.4533 178.835ZM99.0054 173.801L99.234 173.668L99.0054 173.801ZM88.8409 173.461L88.6705 173.663L88.8956 173.853L89.06 173.608L88.8409 173.461ZM83.7468 172.021L83.7037 171.76L83.7037 171.76L83.7468 172.021ZM82.513 173.669L82.7749 173.635L82.7749 173.635L82.513 173.669ZM84.1007 174.844L84.0575 174.583L84.0575 174.583L84.1007 174.844ZM87.1078 175.808L87.0946 176.072L87.8281 176.108L87.2858 175.612L87.1078 175.808ZM85.8512 192.685C84.943 191.108 84.8666 189.278 85.4861 187.704L84.9951 187.51C84.3191 189.228 84.402 191.227 85.3939 192.949L85.8512 192.685ZM93.6766 194.779C90.9357 196.367 87.4322 195.43 85.8512 192.685L85.3939 192.949C87.1206 195.947 90.9469 196.972 93.9403 195.237L93.6766 194.779ZM96.5091 190.43C96.3148 192.185 95.3188 193.828 93.6766 194.779L93.9403 195.237C95.7342 194.198 96.8217 192.403 97.0338 190.488L96.5091 190.43ZM101.677 189.779C100.154 190.662 98.3953 190.764 96.8613 190.21L96.6816 190.708C98.3557 191.313 100.277 191.201 101.94 190.237L101.677 189.779ZM103.777 181.933C105.358 184.678 104.417 188.191 101.677 189.779L101.94 190.237C104.934 188.503 105.961 184.666 104.234 181.668L103.777 181.933ZM99.425 179.098C101.182 179.286 102.827 180.283 103.777 181.933L104.234 181.668C103.196 179.866 101.399 178.777 99.4817 178.572L99.425 179.098ZM98.7768 173.933C99.6528 175.454 99.7549 177.211 99.205 178.746L99.7017 178.924C100.302 177.249 100.191 175.33 99.234 173.668L98.7768 173.933ZM90.9514 171.838C93.6923 170.25 97.1958 171.188 98.7768 173.933L99.234 173.668C97.5074 170.67 93.681 169.646 90.6876 171.381L90.9514 171.838ZM89.06 173.608C89.5321 172.903 90.1679 172.292 90.9514 171.838L90.6876 171.381C89.8328 171.876 89.1379 172.543 88.6218 173.313L89.06 173.608ZM83.79 172.282C85.8252 171.941 87.4385 172.62 88.6705 173.663L89.0114 173.259C87.6852 172.136 85.9202 171.389 83.7037 171.76L83.79 172.282ZM82.7749 173.635C82.6951 172.998 83.149 172.389 83.79 172.282L83.7037 171.76C82.7864 171.913 82.1356 172.78 82.2511 173.702L82.7749 173.635ZM84.0575 174.583C83.4243 174.689 82.8537 174.264 82.7749 173.635L82.2511 173.702C82.3678 174.632 83.2188 175.26 84.1438 175.105L84.0575 174.583ZM87.2858 175.612C86.3869 174.791 85.3151 174.372 84.0575 174.583L84.1438 175.105C85.2142 174.926 86.1282 175.271 86.9298 176.003L87.2858 175.612ZM83.9505 176.838C84.9416 176.264 86.0316 176.02 87.0946 176.072L87.121 175.544C85.9596 175.487 84.7684 175.754 83.6868 176.38L83.9505 176.838ZM81.8503 184.684C80.2694 181.939 81.2096 178.426 83.9505 176.838L83.6868 176.38C80.6934 178.115 79.6664 181.951 81.3931 184.949L81.8503 184.684ZM85.3099 187.352C83.9007 186.97 82.6375 186.051 81.8503 184.684L81.3931 184.949C82.2527 186.442 83.6331 187.445 85.1714 187.862L85.3099 187.352Z" fill="black" fill-opacity="0.2" style="fill:black;fill-opacity:0.2;"/>
<path fill-rule="evenodd" clip-rule="evenodd" d="M52.2406 211.607C51.5928 213.253 51.6725 215.167 52.6226 216.817C54.2764 219.689 57.9413 220.67 60.8085 219.008C62.5265 218.013 63.5682 216.294 63.7715 214.459C65.3755 215.039 67.2152 214.931 68.8085 214.008C71.6756 212.347 72.6592 208.672 71.0054 205.801C70.0113 204.075 68.2906 203.032 66.4533 202.835C67.0284 201.23 66.9219 199.392 66.0054 197.801C64.3516 194.929 60.6866 193.948 57.8195 195.609C57.0002 196.084 56.3347 196.723 55.8406 197.461C54.5615 196.379 52.8722 195.665 50.7462 196.021C49.967 196.152 49.4146 196.89 49.5123 197.669C49.61 198.449 50.3208 198.975 51.1 198.844C52.2639 198.649 53.2568 199.031 54.1069 199.808C52.995 199.754 51.8548 200.009 50.8187 200.609C47.9515 202.271 46.9679 205.945 48.6217 208.817C49.4451 210.246 50.7669 211.207 52.2406 211.607Z" fill="white" style="fill:white;fill-opacity:1;"/>
<path d="M52.2406 211.607L52.4861 211.704L52.5943 211.429L52.3099 211.352L52.2406 211.607ZM63.7715 214.459L63.8613 214.21L63.5461 214.096L63.5091 214.43L63.7715 214.459ZM66.4533 202.835L66.205 202.746L66.0916 203.062L66.425 203.098L66.4533 202.835ZM66.0054 197.801L65.7768 197.933L66.0054 197.801ZM55.8406 197.461L55.6702 197.663L55.8953 197.854L56.0597 197.608L55.8406 197.461ZM50.7462 196.021L50.7894 196.282L50.7894 196.282L50.7462 196.021ZM49.5123 197.669L49.7742 197.636L49.7742 197.636L49.5123 197.669ZM51.1 198.844L51.0568 198.583L51.0568 198.583L51.1 198.844ZM54.1069 199.808L54.0938 200.072L54.8273 200.108L54.2849 199.612L54.1069 199.808ZM52.8512 216.685C51.943 215.108 51.8666 213.278 52.4861 211.704L51.9951 211.51C51.3191 213.228 51.402 215.227 52.3939 216.949L52.8512 216.685ZM60.6766 218.779C57.9357 220.367 54.4322 219.43 52.8512 216.685L52.3939 216.949C54.1206 219.947 57.9469 220.972 60.9403 219.237L60.6766 218.779ZM63.5091 214.43C63.3148 216.185 62.3188 217.828 60.6766 218.779L60.9403 219.237C62.7342 218.198 63.8217 216.403 64.0338 214.488L63.5091 214.43ZM68.6766 213.779C67.1535 214.662 65.3953 214.764 63.8613 214.21L63.6816 214.708C65.3557 215.313 67.2768 215.201 68.9403 214.237L68.6766 213.779ZM70.7768 205.933C72.3578 208.678 71.4175 212.191 68.6766 213.779L68.9403 214.237C71.9337 212.503 72.9607 208.666 71.234 205.668L70.7768 205.933ZM66.425 203.098C68.1821 203.286 69.8266 204.283 70.7768 205.933L71.234 205.668C70.1961 203.866 68.3992 202.777 66.4817 202.572L66.425 203.098ZM65.7768 197.933C66.6528 199.454 66.7549 201.211 66.205 202.746L66.7017 202.924C67.3019 201.249 67.1909 199.33 66.234 197.668L65.7768 197.933ZM57.9514 195.838C60.6923 194.25 64.1958 195.188 65.7768 197.933L66.234 197.668C64.5074 194.67 60.681 193.646 57.6876 195.381L57.9514 195.838ZM56.0597 197.608C56.5318 196.903 57.1678 196.293 57.9514 195.838L57.6876 195.381C56.8327 195.876 56.1376 196.543 55.6215 197.314L56.0597 197.608ZM50.7894 196.282C52.8247 195.941 54.4382 196.621 55.6702 197.663L56.0111 197.259C54.6849 196.136 52.9197 195.389 50.7031 195.76L50.7894 196.282ZM49.7742 197.636C49.6943 196.999 50.1483 196.39 50.7894 196.282L50.7031 195.76C49.7858 195.914 49.1348 196.78 49.2504 197.702L49.7742 197.636ZM51.0568 198.583C50.4236 198.689 49.8529 198.264 49.7742 197.636L49.2504 197.702C49.367 198.633 50.2181 199.26 51.1432 199.105L51.0568 198.583ZM54.2849 199.612C53.3861 198.791 52.3143 198.373 51.0568 198.583L51.1432 199.105C52.2134 198.926 53.1275 199.271 53.929 200.003L54.2849 199.612ZM50.9505 200.838C51.9413 200.264 53.031 200.02 54.0938 200.072L54.1201 199.544C52.959 199.487 51.7682 199.754 50.6868 200.38L50.9505 200.838ZM48.8503 208.684C47.2694 205.939 48.2096 202.426 50.9505 200.838L50.6868 200.38C47.6934 202.115 46.6664 205.951 48.3931 208.949L48.8503 208.684ZM52.3099 211.352C50.9007 210.97 49.6375 210.051 48.8503 208.684L48.3931 208.949C49.2527 210.442 50.6331 211.445 52.1714 211.862L52.3099 211.352Z" fill="black" fill-opacity="0.2" style="fill:black;fill-opacity:0.2;"/>
<path fill-rule="evenodd" clip-rule="evenodd" d="M114.241 199.393C113.593 197.747 113.673 195.833 114.623 194.183C116.276 191.311 119.941 190.33 122.808 191.992C124.527 192.987 125.568 194.706 125.771 196.541C127.375 195.961 129.215 196.069 130.808 196.992C133.676 198.653 134.659 202.328 133.005 205.199C132.011 206.925 130.291 207.968 128.453 208.165C129.028 209.77 128.922 211.608 128.005 213.199C126.352 216.071 122.687 217.052 119.82 215.391C119 214.916 118.335 214.276 117.84 213.539C116.561 214.621 114.872 215.334 112.746 214.978C111.967 214.848 111.414 214.11 111.512 213.331C111.61 212.551 112.32 212.025 113.1 212.155C114.263 212.35 115.256 211.969 116.106 211.192C114.995 211.246 113.855 210.991 112.819 210.391C109.952 208.729 108.968 205.055 110.622 202.183C111.445 200.754 112.767 199.793 114.241 199.393Z" fill="white" style="fill:white;fill-opacity:1;"/>
<path d="M114.241 199.393L114.486 199.296L114.594 199.571L114.31 199.648L114.241 199.393ZM125.771 196.541L125.861 196.79L125.546 196.904L125.509 196.57L125.771 196.541ZM128.453 208.165L128.205 208.254L128.092 207.938L128.425 207.902L128.453 208.165ZM128.005 213.199L127.777 213.067L128.005 213.199ZM117.84 213.539L117.67 213.336L117.895 213.146L118.06 213.391L117.84 213.539ZM112.746 214.978L112.789 214.717L112.789 214.717L112.746 214.978ZM113.1 212.155L113.056 212.416L113.056 212.416L113.1 212.155ZM116.106 211.192L116.093 210.928L116.827 210.892L116.284 211.388L116.106 211.192ZM114.851 194.315C113.943 195.892 113.867 197.722 114.486 199.296L113.995 199.49C113.319 197.772 113.402 195.773 114.394 194.051L114.851 194.315ZM122.677 192.221C119.936 190.633 116.432 191.57 114.851 194.315L114.394 194.051C116.121 191.053 119.947 190.028 122.94 191.763L122.677 192.221ZM125.509 196.57C125.315 194.815 124.319 193.172 122.677 192.221L122.94 191.763C124.734 192.802 125.822 194.597 126.034 196.512L125.509 196.57ZM130.677 197.221C129.154 196.338 127.395 196.236 125.861 196.79L125.682 196.292C127.356 195.687 129.277 195.799 130.94 196.763L130.677 197.221ZM132.777 205.067C134.358 202.322 133.417 198.809 130.677 197.221L130.94 196.763C133.934 198.497 134.961 202.334 133.234 205.332L132.777 205.067ZM128.425 207.902C130.182 207.714 131.827 206.717 132.777 205.067L133.234 205.332C132.196 207.134 130.399 208.223 128.482 208.428L128.425 207.902ZM127.777 213.067C128.653 211.546 128.755 209.789 128.205 208.254L128.702 208.076C129.302 209.751 129.191 211.67 128.234 213.332L127.777 213.067ZM119.951 215.162C122.692 216.75 126.196 215.812 127.777 213.067L128.234 213.332C126.507 216.33 122.681 217.354 119.688 215.619L119.951 215.162ZM118.06 213.391C118.532 214.096 119.168 214.707 119.951 215.162L119.688 215.619C118.833 215.124 118.137 214.457 117.621 213.686L118.06 213.391ZM112.789 214.717C114.824 215.058 116.438 214.379 117.67 213.336L118.011 213.741C116.685 214.863 114.919 215.61 112.703 215.239L112.789 214.717ZM111.774 213.364C111.694 214.001 112.148 214.61 112.789 214.717L112.703 215.239C111.785 215.086 111.134 214.219 111.25 213.297L111.774 213.364ZM113.056 212.416C112.423 212.31 111.852 212.735 111.774 213.364L111.25 213.297C111.367 212.367 112.218 211.74 113.143 211.894L113.056 212.416ZM116.284 211.388C115.386 212.209 114.314 212.627 113.056 212.416L113.143 211.894C114.213 212.074 115.127 211.729 115.928 210.997L116.284 211.388ZM112.951 210.162C113.941 210.736 115.031 210.98 116.093 210.928L116.12 211.456C114.959 211.513 113.768 211.246 112.687 210.62L112.951 210.162ZM110.85 202.316C109.269 205.061 110.21 208.574 112.951 210.162L112.687 210.62C109.693 208.885 108.666 205.049 110.393 202.051L110.85 202.316ZM114.31 199.648C112.901 200.03 111.637 200.949 110.85 202.316L110.393 202.051C111.253 200.558 112.633 199.555 114.171 199.138L114.31 199.648Z" fill="black" fill-opacity="0.2" style="fill:black;fill-opacity:0.2;"/>
<path fill-rule="evenodd" clip-rule="evenodd" d="M18.5036 180.935C19.1378 180.124 19.9885 179.465 21.0131 179.058C24.0922 177.833 27.5759 179.338 28.7941 182.42C29.5466 184.324 29.2587 186.383 28.203 187.968C29.7861 188.523 31.1284 189.736 31.7941 191.42C33.0123 194.502 31.5038 197.993 28.4247 199.217C26.8314 199.851 25.1297 199.754 23.6897 199.085C23.0726 200.465 21.9383 201.615 20.4243 202.218C17.3452 203.442 13.8615 201.937 12.6433 198.855C12.0591 197.377 12.102 195.805 12.6445 194.434C10.8852 193.956 9.36582 192.683 8.6433 190.855C7.42508 187.773 8.93362 184.283 12.0127 183.058C13.4506 182.486 14.9766 182.509 16.319 183.011C16.3056 182.983 16.2921 182.956 16.2785 182.928C15.4679 181.305 14.3089 180.269 12.6513 180.301C11.8594 180.317 11.2313 179.694 11.2484 178.91C11.2654 178.127 11.9212 177.479 12.713 177.464C15.5824 177.408 17.4123 179.101 18.5036 180.935Z" fill="white" style="fill:white;fill-opacity:1;"/>
<path d="M18.5036 180.935L18.2768 181.07L18.4738 181.401L18.7114 181.097L18.5036 180.935ZM28.203 187.968L27.9834 187.822L27.7945 188.106L28.1155 188.218L28.203 187.968ZM31.7941 191.42L31.5486 191.518L31.7941 191.42ZM23.6897 199.085L23.8011 198.845L23.5583 198.733L23.4488 198.978L23.6897 199.085ZM12.6445 194.434L12.89 194.531L12.9987 194.256L12.714 194.179L12.6445 194.434ZM16.319 183.011L16.2264 183.258L16.8453 183.49L16.5565 182.895L16.319 183.011ZM16.2785 182.928L16.0423 183.047L16.0423 183.047L16.2785 182.928ZM12.6513 180.301L12.6465 180.037L12.6465 180.037L12.6513 180.301ZM11.2484 178.91L11.5124 178.916L11.5124 178.916L11.2484 178.91ZM12.713 177.464L12.7178 177.728L12.7178 177.728L12.713 177.464ZM20.916 178.812C19.8467 179.237 18.9582 179.925 18.2959 180.772L18.7114 181.097C19.3175 180.322 20.1304 179.693 21.1103 179.303L20.916 178.812ZM29.0396 182.322C27.7678 179.105 24.1307 177.533 20.916 178.812L21.1103 179.303C24.0538 178.133 27.384 179.572 28.5486 182.518L29.0396 182.322ZM28.4226 188.115C29.5244 186.461 29.8253 184.31 29.0396 182.322L28.5486 182.518C29.2678 184.337 28.9931 186.306 27.9834 187.822L28.4226 188.115ZM32.0396 191.322C31.3446 189.564 29.9427 188.297 28.2905 187.719L28.1155 188.218C29.6295 188.748 30.9122 189.908 31.5486 191.518L32.0396 191.322ZM28.5218 199.463C31.7365 198.185 33.3115 194.54 32.0396 191.322L31.5486 191.518C32.7132 194.464 31.2711 197.801 28.3275 198.972L28.5218 199.463ZM23.5784 199.325C25.0814 200.023 26.8584 200.125 28.5218 199.463L28.3275 198.972C26.8044 199.577 25.1781 199.485 23.8011 198.845L23.5784 199.325ZM20.5214 202.463C22.102 201.835 23.2865 200.633 23.9307 199.193L23.4488 198.978C22.8587 200.297 21.7746 201.396 20.3272 201.972L20.5214 202.463ZM12.3978 198.953C13.6696 202.17 17.3067 203.742 20.5214 202.463L20.3272 201.972C17.3836 203.143 14.0534 201.703 12.8888 198.757L12.3978 198.953ZM12.399 194.337C11.8327 195.768 11.7879 197.41 12.3978 198.953L12.8888 198.757C12.3303 197.345 12.3712 195.842 12.89 194.531L12.399 194.337ZM8.39777 190.953C9.15217 192.861 10.739 194.19 12.575 194.689L12.714 194.179C11.0315 193.722 9.57946 192.505 8.88882 190.757L8.39777 190.953ZM11.9156 182.812C8.70088 184.091 7.1259 187.735 8.39777 190.953L8.88882 190.757C7.72425 187.812 9.16636 184.474 12.1099 183.304L11.9156 182.812ZM16.4116 182.763C15.0103 182.24 13.4166 182.215 11.9156 182.812L12.1099 183.304C13.4845 182.757 14.9429 182.779 16.2264 183.258L16.4116 182.763ZM16.5565 182.895C16.5427 182.866 16.5288 182.838 16.5147 182.81L16.0423 183.047C16.0555 183.073 16.0686 183.1 16.0815 183.127L16.5565 182.895ZM16.5147 182.81C15.6806 181.139 14.4471 180.002 12.6465 180.037L12.656 180.566C14.1706 180.536 15.2552 181.471 16.0423 183.047L16.5147 182.81ZM12.6465 180.037C12.0014 180.049 11.4987 179.546 11.5124 178.916L10.9844 178.905C10.964 179.842 11.7174 180.584 12.656 180.566L12.6465 180.037ZM11.5124 178.916C11.5263 178.277 12.0648 177.741 12.7178 177.728L12.7083 177.2C11.7776 177.218 11.0046 177.977 10.9844 178.905L11.5124 178.916ZM12.7178 177.728C15.4593 177.675 17.2142 179.285 18.2768 181.07L18.7305 180.799C17.6103 178.917 15.7054 177.141 12.7083 177.2L12.7178 177.728Z" fill="black" fill-opacity="0.2" style="fill:black;fill-opacity:0.2;"/>
<path fill-rule="evenodd" clip-rule="evenodd" d="M52.5039 9.93416C53.1381 9.12349 53.9887 8.46516 55.0131 8.0577C58.0922 6.83305 61.5759 8.33846 62.7941 11.4201C63.5466 13.3236 63.2587 15.3832 62.203 16.9684C63.7861 17.5227 65.1284 18.7361 65.7941 20.4201C67.0123 23.5018 65.5038 26.9927 62.4247 28.2174C60.8314 28.8511 59.1297 28.7538 57.6897 28.0853C57.0726 29.4653 55.9383 30.6154 54.4243 31.2175C51.3452 32.4422 47.8615 30.9368 46.6433 27.8551C46.0591 26.3772 46.102 24.8052 46.6445 23.4342C44.8852 22.9561 43.3658 21.6828 42.6433 19.8551C41.4251 16.7735 42.9336 13.2825 46.0127 12.0579C47.4508 11.4859 48.9771 11.5095 50.3196 12.0109C50.3062 11.9833 50.2926 11.9557 50.2789 11.9283C49.4684 10.3047 48.3094 9.2685 46.652 9.3008C45.8602 9.31624 45.2321 8.69357 45.2492 7.91005C45.2662 7.12653 45.9219 6.47885 46.7137 6.46342C49.5829 6.4075 51.4126 8.10051 52.5039 9.93416Z" fill="white" style="fill:white;fill-opacity:1;"/>
<path d="M52.5039 9.93416L52.277 10.0698L52.474 10.4008L52.7117 10.097L52.5039 9.93416ZM62.203 16.9684L61.9834 16.8219L61.7945 17.1056L62.1155 17.218L62.203 16.9684ZM65.7941 20.4201L65.5486 20.5178L65.7941 20.4201ZM57.6897 28.0853L57.8011 27.8454L57.5583 27.7327L57.4488 27.9776L57.6897 28.0853ZM46.6445 23.4342L46.89 23.5313L46.9987 23.2563L46.714 23.179L46.6445 23.4342ZM50.3196 12.0109L50.227 12.2587L50.8459 12.4899L50.5571 11.895L50.3196 12.0109ZM50.2789 11.9283L50.0427 12.0468L50.0427 12.0468L50.2789 11.9283ZM46.652 9.3008L46.6473 9.03643L46.6473 9.03643L46.652 9.3008ZM45.2492 7.91005L45.5132 7.91541L45.5132 7.91541L45.2492 7.91005ZM46.7137 6.46342L46.7185 6.72779L46.7185 6.72779L46.7137 6.46342ZM54.916 7.81197C53.8468 8.23721 52.9584 8.92468 52.2961 9.77129L52.7117 10.097C53.3177 9.3223 54.1305 8.6931 55.1103 8.30343L54.916 7.81197ZM63.0396 11.3225C61.7678 8.10509 58.1307 6.53339 54.916 7.81197L55.1103 8.30343C58.0538 7.13271 61.384 8.57182 62.5486 11.5178L63.0396 11.3225ZM62.4226 17.1149C63.5244 15.4605 63.8253 13.31 63.0396 11.3225L62.5486 11.5178C63.2678 13.3372 62.9931 15.3059 61.9834 16.8219L62.4226 17.1149ZM66.0396 20.3225C65.3446 18.5642 63.9427 17.2973 62.2905 16.7188L62.1155 17.218C63.6295 17.7481 64.9122 18.9079 65.5486 20.5178L66.0396 20.3225ZM62.5218 28.4631C65.7365 27.1845 67.3115 23.5398 66.0396 20.3225L65.5486 20.5178C66.7132 23.4637 65.2711 26.8009 62.3275 27.9716L62.5218 28.4631ZM57.5784 28.3253C59.0814 29.0229 60.8584 29.1247 62.5218 28.4631L62.3275 27.9716C60.8044 28.5774 59.1781 28.4846 57.8011 27.8454L57.5784 28.3253ZM54.5214 31.4633C56.102 30.8346 57.2865 29.6335 57.9307 28.1931L57.4488 27.9776C56.8587 29.2971 55.7746 30.3961 54.3272 30.9718L54.5214 31.4633ZM46.3978 27.9528C47.6696 31.1702 51.3067 32.7419 54.5214 31.4633L54.3272 30.9718C51.3836 32.1425 48.0534 30.7034 46.8888 27.7575L46.3978 27.9528ZM46.399 23.3371C45.8327 24.7682 45.7879 26.4099 46.3978 27.9528L46.8888 27.7575C46.3303 26.3446 46.3712 24.8422 46.89 23.5313L46.399 23.3371ZM42.3978 19.9528C43.1522 21.8611 44.739 23.1904 46.575 23.6894L46.714 23.179C45.0315 22.7217 43.5795 21.5045 42.8888 19.7575L42.3978 19.9528ZM45.9156 11.8122C42.7009 13.0907 41.1259 16.7354 42.3978 19.9528L42.8888 19.7575C41.7243 16.8115 43.1664 13.4743 46.1099 12.3036L45.9156 11.8122ZM50.4122 11.7632C49.0108 11.2397 47.4168 11.2151 45.9156 11.8122L46.1099 12.3036C47.4847 11.7568 48.9434 11.7792 50.227 12.2587L50.4122 11.7632ZM50.5571 11.895C50.5433 11.8665 50.5293 11.8381 50.5151 11.8097L50.0427 12.0468C50.056 12.0734 50.0691 12.1001 50.0821 12.1268L50.5571 11.895ZM50.5151 11.8097C49.6811 10.139 48.4477 9.00134 46.6473 9.03643L46.6567 9.56518C48.1711 9.53566 49.2557 10.4703 50.0427 12.0468L50.5151 11.8097ZM46.6473 9.03643C46.0022 9.049 45.4995 8.54567 45.5132 7.91541L44.9852 7.90469C44.9648 8.84148 45.7182 9.58347 46.6567 9.56518L46.6473 9.03643ZM45.5132 7.91541C45.5271 7.27659 46.0656 6.74051 46.7185 6.72779L46.709 6.19904C45.7783 6.21718 45.0054 6.97646 44.9852 7.90469L45.5132 7.91541ZM46.7185 6.72779C49.4598 6.67436 51.2145 8.28448 52.277 10.0698L52.7308 9.79853C51.6107 7.91654 49.7059 6.14064 46.709 6.19904L46.7185 6.72779Z" fill="black" fill-opacity="0.2" style="fill:black;fill-opacity:0.2;"/>
<path fill-rule="evenodd" clip-rule="evenodd" d="M136.496 155.934C135.862 155.124 135.011 154.465 133.987 154.058C130.908 152.833 127.424 154.338 126.206 157.42C125.453 159.324 125.741 161.383 126.797 162.968C125.214 163.523 123.872 164.736 123.206 166.42C121.988 169.502 123.496 172.993 126.575 174.217C128.169 174.851 129.87 174.754 131.31 174.085C131.927 175.465 133.062 176.615 134.576 177.218C137.655 178.442 141.138 176.937 142.357 173.855C142.941 172.377 142.898 170.805 142.355 169.434C144.115 168.956 145.634 167.683 146.357 165.855C147.575 162.773 146.066 159.283 142.987 158.058C141.549 157.486 140.023 157.509 138.681 158.011C138.694 157.983 138.708 157.956 138.721 157.928C139.532 156.305 140.691 155.269 142.348 155.301C143.14 155.316 143.768 154.694 143.751 153.91C143.734 153.127 143.078 152.479 142.287 152.464C139.417 152.408 137.588 154.101 136.496 155.934Z" fill="white" style="fill:white;fill-opacity:1;"/>
<path d="M136.496 155.934L136.723 156.07L136.526 156.401L136.288 156.097L136.496 155.934ZM126.797 162.968L127.017 162.822L127.206 163.106L126.884 163.218L126.797 162.968ZM123.206 166.42L123.451 166.518L123.206 166.42ZM131.31 174.085L131.199 173.845L131.442 173.733L131.551 173.978L131.31 174.085ZM142.355 169.434L142.11 169.531L142.001 169.256L142.286 169.179L142.355 169.434ZM138.681 158.011L138.773 158.259L138.154 158.49L138.443 157.895L138.681 158.011ZM138.721 157.928L138.957 158.047L138.957 158.047L138.721 157.928ZM142.348 155.301L142.344 155.565L142.344 155.565L142.348 155.301ZM142.287 152.464L142.282 152.728L142.282 152.728L142.287 152.464ZM134.084 153.812C135.153 154.237 136.042 154.925 136.704 155.771L136.288 156.097C135.682 155.322 134.87 154.693 133.89 154.303L134.084 153.812ZM125.96 157.322C127.232 154.105 130.869 152.533 134.084 153.812L133.89 154.303C130.946 153.133 127.616 154.572 126.451 157.518L125.96 157.322ZM126.577 163.115C125.476 161.461 125.175 159.31 125.96 157.322L126.451 157.518C125.732 159.337 126.007 161.306 127.017 162.822L126.577 163.115ZM122.96 166.322C123.655 164.564 125.057 163.297 126.709 162.719L126.884 163.218C125.371 163.748 124.088 164.908 123.451 166.518L122.96 166.322ZM126.478 174.463C123.263 173.185 121.688 169.54 122.96 166.322L123.451 166.518C122.287 169.464 123.729 172.801 126.672 173.972L126.478 174.463ZM131.422 174.325C129.919 175.023 128.142 175.125 126.478 174.463L126.672 173.972C128.196 174.577 129.822 174.485 131.199 173.845L131.422 174.325ZM134.479 177.463C132.898 176.835 131.713 175.633 131.069 174.193L131.551 173.978C132.141 175.297 133.225 176.396 134.673 176.972L134.479 177.463ZM142.602 173.953C141.33 177.17 137.693 178.742 134.479 177.463L134.673 176.972C137.616 178.143 140.947 176.703 142.111 173.757L142.602 173.953ZM142.601 169.337C143.167 170.768 143.212 172.41 142.602 173.953L142.111 173.757C142.67 172.345 142.629 170.842 142.11 169.531L142.601 169.337ZM146.602 165.953C145.848 167.861 144.261 169.19 142.425 169.689L142.286 169.179C143.969 168.722 145.421 167.505 146.111 165.757L146.602 165.953ZM143.084 157.812C146.299 159.091 147.874 162.735 146.602 165.953L146.111 165.757C147.276 162.812 145.834 159.474 142.89 158.304L143.084 157.812ZM138.588 157.763C139.989 157.24 141.583 157.215 143.084 157.812L142.89 158.304C141.515 157.757 140.057 157.779 138.773 158.259L138.588 157.763ZM138.443 157.895C138.457 157.866 138.471 157.838 138.485 157.81L138.957 158.047C138.944 158.073 138.931 158.1 138.918 158.127L138.443 157.895ZM138.485 157.81C139.319 156.139 140.553 155.001 142.353 155.037L142.344 155.565C140.829 155.536 139.744 156.47 138.957 158.047L138.485 157.81ZM142.353 155.037C142.998 155.049 143.501 154.546 143.487 153.916L144.015 153.905C144.036 154.842 143.282 155.584 142.344 155.565L142.353 155.037ZM143.487 153.916C143.473 153.277 142.935 152.741 142.282 152.728L142.291 152.199C143.222 152.217 143.995 152.977 144.015 153.905L143.487 153.916ZM142.282 152.728C139.54 152.675 137.786 154.285 136.723 156.07L136.269 155.799C137.389 153.917 139.294 152.141 142.291 152.199L142.282 152.728Z" fill="black" fill-opacity="0.2" style="fill:black;fill-opacity:0.2;"/>
<path fill-rule="evenodd" clip-rule="evenodd" d="M54.486 174.079C53.8529 174.883 53.0059 175.537 51.9869 175.942C48.9078 177.167 45.4241 175.661 44.2059 172.58C43.4534 170.676 43.7413 168.617 44.797 167.031C43.2139 166.477 41.8716 165.264 41.2059 163.58C39.9877 160.498 41.4962 157.007 44.5753 155.783C46.1686 155.149 47.8703 155.246 49.3103 155.915C49.9274 154.535 51.0617 153.385 52.5757 152.782C55.6548 151.558 59.1385 153.063 60.3567 156.145C60.9409 157.623 60.898 159.195 60.3555 160.566C62.1148 161.044 63.6342 162.317 64.3567 164.145C65.5749 167.226 64.0664 170.717 60.9873 171.942C59.5407 172.517 58.0048 172.49 56.6566 171.98C56.6722 172.012 56.688 172.045 56.704 172.077C57.5124 173.705 58.6684 174.744 60.3217 174.711C61.1115 174.696 61.7379 175.32 61.7209 176.106C61.7038 176.891 61.0498 177.541 60.26 177.556C57.3993 177.612 55.5746 175.916 54.486 174.079Z" fill="white" style="fill:white;fill-opacity:1;"/>
<path d="M54.486 174.079L54.7131 173.943L54.5169 173.612L54.2787 173.915L54.486 174.079ZM44.797 167.031L45.0166 167.178L45.2055 166.894L44.8845 166.782L44.797 167.031ZM49.3103 155.915L49.1989 156.154L49.4417 156.267L49.5512 156.022L49.3103 155.915ZM60.3555 160.566L60.11 160.469L60.0013 160.744L60.286 160.821L60.3555 160.566ZM56.6566 171.98L56.7502 171.733L56.132 171.499L56.4186 172.095L56.6566 171.98ZM56.704 172.077L56.9405 171.959L56.9405 171.959L56.704 172.077ZM60.3217 174.711L60.3264 174.976L60.3264 174.976L60.3217 174.711ZM61.7209 176.106L61.9849 176.111L61.9849 176.111L61.7209 176.106ZM60.26 177.556L60.2648 177.82L60.2648 177.82L60.26 177.556ZM52.084 176.188C53.1475 175.765 54.0321 175.082 54.6933 174.242L54.2787 173.915C53.6737 174.684 52.8643 175.309 51.8897 175.696L52.084 176.188ZM43.9604 172.677C45.2322 175.895 48.8693 177.466 52.084 176.188L51.8897 175.696C48.9462 176.867 45.616 175.428 44.4514 172.482L43.9604 172.677ZM44.5774 166.885C43.4756 168.539 43.1747 170.69 43.9604 172.677L44.4514 172.482C43.7322 170.663 44.0069 168.694 45.0166 167.178L44.5774 166.885ZM40.9604 163.677C41.6554 165.436 43.0573 166.703 44.7095 167.281L44.8845 166.782C43.3705 166.252 42.0878 165.092 41.4514 163.482L40.9604 163.677ZM44.4782 155.537C41.2635 156.815 39.6885 160.46 40.9604 163.677L41.4514 163.482C40.2868 160.536 41.7289 157.199 44.6725 156.028L44.4782 155.537ZM49.4216 155.675C47.9186 154.977 46.1416 154.875 44.4782 155.537L44.6725 156.028C46.1956 155.422 47.8219 155.515 49.1989 156.154L49.4216 155.675ZM52.4786 152.537C50.898 153.165 49.7135 154.366 49.0693 155.807L49.5512 156.022C50.1413 154.703 51.2254 153.604 52.6728 153.028L52.4786 152.537ZM60.6022 156.047C59.3304 152.83 55.6933 151.258 52.4786 152.537L52.6728 153.028C55.6164 151.857 58.9466 153.296 60.1112 156.242L60.6022 156.047ZM60.601 160.663C61.1673 159.232 61.2121 157.59 60.6022 156.047L60.1112 156.242C60.6697 157.655 60.6288 159.158 60.11 160.469L60.601 160.663ZM64.6022 164.047C63.8478 162.139 62.261 160.809 60.425 160.311L60.286 160.821C61.9685 161.278 63.4205 162.495 64.1112 164.242L64.6022 164.047ZM61.0844 172.188C64.2991 170.909 65.8741 167.264 64.6022 164.047L64.1112 164.242C65.2757 167.188 63.8336 170.526 60.8901 171.696L61.0844 172.188ZM56.5629 172.227C57.9703 172.76 59.5743 172.788 61.0844 172.188L60.8901 171.696C59.5071 172.246 58.0394 172.22 56.7502 171.733L56.5629 172.227ZM56.4186 172.095C56.4347 172.128 56.451 172.162 56.4676 172.195L56.9405 171.959C56.9249 171.928 56.9096 171.896 56.8945 171.865L56.4186 172.095ZM56.4676 172.195C57.2992 173.87 58.5294 175.011 60.3264 174.976L60.3169 174.447C58.8075 174.477 57.7257 173.54 56.9405 171.959L56.4676 172.195ZM60.3264 174.976C60.9681 174.963 61.4706 175.467 61.4569 176.1L61.9849 176.111C62.0052 175.174 61.2548 174.429 60.3169 174.447L60.3264 174.976ZM61.4569 176.1C61.443 176.742 60.9049 177.279 60.2552 177.292L60.2648 177.82C61.1947 177.802 61.9647 177.04 61.9849 176.111L61.4569 176.1ZM60.2552 177.292C57.523 177.345 55.7733 175.733 54.7131 173.943L54.2588 174.214C55.376 176.099 57.2757 177.879 60.2648 177.82L60.2552 177.292Z" fill="black" fill-opacity="0.2" style="fill:black;fill-opacity:0.2;"/>
<path fill-rule="evenodd" clip-rule="evenodd" d="M17.4861 53.0785C16.853 53.8833 16.006 54.5369 14.9869 54.9422C11.9078 56.1668 8.4241 54.6614 7.20588 51.5798C6.45342 49.6763 6.74128 47.6167 7.79698 46.0315C6.21389 45.4772 4.87161 44.2638 4.20588 42.5798C2.98766 39.4981 4.49621 36.0072 7.57532 34.7825C9.16863 34.1488 10.8703 34.2461 12.3103 34.9146C12.9274 33.5346 14.0617 32.3845 15.5757 31.7823C18.6548 30.5577 22.1385 32.0631 23.3567 35.1447C23.9409 36.6226 23.898 38.1947 23.3555 39.5657C25.1148 40.0438 26.6342 41.317 27.3567 43.1447C28.5749 46.2264 27.0664 49.7173 23.9873 50.942C22.5408 51.5173 21.0051 51.4901 19.6568 50.9801C19.6724 51.0125 19.6882 51.0448 19.7042 51.077C20.5127 52.7048 21.6687 53.7436 23.322 53.7113C24.1118 53.6958 24.7383 54.3201 24.7212 55.1056C24.7042 55.8911 24.0501 56.5404 23.2603 56.5559C20.3996 56.6118 18.5748 54.9159 17.4861 53.0785Z" fill="white" style="fill:white;fill-opacity:1;"/>
<path d="M17.4861 53.0785L17.7132 52.9433L17.517 52.6122L17.2788 52.915L17.4861 53.0785ZM7.79698 46.0315L8.01659 46.1779L8.20551 45.8942L7.88447 45.7818L7.79698 46.0315ZM12.3103 34.9146L12.1989 35.1545L12.4417 35.2672L12.5512 35.0223L12.3103 34.9146ZM23.3555 39.5657L23.11 39.4686L23.0013 39.7435L23.286 39.8209L23.3555 39.5657ZM19.6568 50.9801L19.7505 50.7327L19.1323 50.4988L19.4189 51.0951L19.6568 50.9801ZM19.7042 51.077L19.9407 50.959L19.9407 50.959L19.7042 51.077ZM23.322 53.7113L23.3172 53.4469L23.3172 53.4469L23.322 53.7113ZM23.2603 56.5559L23.2556 56.2915L23.2556 56.2915L23.2603 56.5559ZM15.084 55.1879C16.1476 54.7649 17.0323 54.0824 17.6934 53.2419L17.2788 52.915C16.6738 53.6842 15.8644 54.3088 14.8897 54.6964L15.084 55.1879ZM6.96036 51.6774C8.23222 54.8948 11.8693 56.4665 15.084 55.1879L14.8897 54.6964C11.9462 55.8672 8.61598 54.4281 7.45141 51.4821L6.96036 51.6774ZM7.57738 45.885C6.47562 47.5394 6.17467 49.6899 6.96036 51.6774L7.45141 51.4821C6.73217 49.6627 7.00693 47.694 8.01659 46.1779L7.57738 45.885ZM3.96036 42.6774C4.65542 44.4357 6.05726 45.7026 7.7095 46.2811L7.88447 45.7818C6.37052 45.2517 5.0878 44.092 4.45141 42.4821L3.96036 42.6774ZM7.47818 34.5368C4.26347 35.8154 2.68849 39.46 3.96036 42.6774L4.45141 42.4821C3.28683 39.5362 4.72895 36.199 7.67246 35.0282L7.47818 34.5368ZM12.4216 34.6746C10.9186 33.9769 9.14163 33.8752 7.47818 34.5368L7.67246 35.0282C9.19562 34.4224 10.8219 34.5153 12.1989 35.1545L12.4216 34.6746ZM15.4786 31.5366C13.898 32.1653 12.7135 33.3664 12.0693 34.8068L12.5512 35.0223C13.1413 33.7028 14.2254 32.6037 15.6728 32.0281L15.4786 31.5366ZM23.6022 35.0471C22.3304 31.8297 18.6933 30.258 15.4786 31.5366L15.6728 32.0281C18.6164 30.8573 21.9466 32.2965 23.1112 35.2424L23.6022 35.0471ZM23.601 39.6628C24.1673 38.2317 24.2121 36.59 23.6022 35.0471L23.1112 35.2424C23.6697 36.6553 23.6288 38.1577 23.11 39.4686L23.601 39.6628ZM27.6022 43.0471C26.8478 41.1387 25.261 39.8094 23.425 39.3105L23.286 39.8209C24.9685 40.2781 26.4205 41.4953 27.1112 43.2424L27.6022 43.0471ZM24.0844 51.1877C27.2991 49.9091 28.8741 46.2645 27.6022 43.0471L27.1112 43.2424C28.2757 46.1883 26.8336 49.5256 23.8901 50.6963L24.0844 51.1877ZM19.5632 51.2275C20.9706 51.7599 22.5744 51.7883 24.0844 51.1877L23.8901 50.6963C22.5072 51.2463 21.0396 51.2204 19.7505 50.7327L19.5632 51.2275ZM19.4189 51.0951C19.435 51.1285 19.4512 51.1618 19.4678 51.1951L19.9407 50.959C19.9252 50.9278 19.9099 50.8965 19.8948 50.8651L19.4189 51.0951ZM19.4678 51.1951C20.2994 52.8695 21.5297 54.0108 23.3268 53.9756L23.3172 53.4469C21.8077 53.4764 20.7259 52.54 19.9407 50.959L19.4678 51.1951ZM23.3268 53.9756C23.9685 53.9631 24.471 54.4667 24.4573 55.1002L24.9852 55.1109C25.0055 54.1735 24.2552 53.4285 23.3172 53.4469L23.3268 53.9756ZM24.4573 55.1002C24.4433 55.7422 23.9053 56.2788 23.2556 56.2915L23.2651 56.8202C24.195 56.8021 24.9651 56.04 24.9852 55.1109L24.4573 55.1002ZM23.2556 56.2915C20.5232 56.345 18.7734 54.7327 17.7132 52.9433L17.259 53.2137C18.3761 55.0992 20.2759 56.8787 23.2651 56.8202L23.2556 56.2915Z" fill="black" fill-opacity="0.2" style="fill:black;fill-opacity:0.2;"/>
<path fill-rule="evenodd" clip-rule="evenodd" d="M108.214 7.72974C109.388 6.54023 110.934 5.94576 112.481 5.94821C112.483 4.42345 113.06 2.89884 114.214 1.72963C116.542 -0.62889 120.335 -0.648095 122.686 1.68674C123.889 2.88115 124.482 4.46021 124.462 6.03355C126.301 5.71982 128.259 6.26979 129.686 7.68674C132.038 10.0216 132.057 13.8263 129.729 16.1848C128.896 17.0293 127.875 17.5739 126.799 17.8179C127.944 18.5272 129.134 18.7338 130.341 18.1766C131.058 17.8456 131.882 18.1663 132.182 18.8929C132.482 19.6195 132.144 20.4768 131.427 20.8079C128.573 22.1255 126.015 21.0023 124.247 19.5566C123.984 20.5177 123.478 21.4261 122.729 22.1849C120.401 24.5435 116.608 24.5627 114.257 22.2278C113.076 21.055 112.483 19.5114 112.481 17.9665C110.954 17.9688 109.427 17.3898 108.257 16.2278C105.905 13.893 105.886 10.0883 108.214 7.72974Z" fill="white" style="fill:white;fill-opacity:1;"/>
<path d="M112.481 5.94821L112.48 6.21285L112.744 6.21326L112.745 5.9486L112.481 5.94821ZM124.462 6.03355L124.198 6.03022L124.194 6.34767L124.506 6.29444L124.462 6.03355ZM126.799 17.8179L126.741 17.5598L126.111 17.7026L126.66 18.043L126.799 17.8179ZM130.341 18.1766L130.452 18.417L130.452 18.417L130.341 18.1766ZM132.182 18.8929L132.426 18.7917L132.426 18.7917L132.182 18.8929ZM131.427 20.8079L131.317 20.5675L131.317 20.5675L131.427 20.8079ZM124.247 19.5566L124.414 19.3515L124.1 19.095L123.993 19.4865L124.247 19.5566ZM112.481 17.9665L112.744 17.966L112.744 17.7014L112.48 17.7018L112.481 17.9665ZM112.481 5.68358C110.867 5.68102 109.252 6.30171 108.026 7.54356L108.401 7.91592C109.524 6.77875 111.002 6.2105 112.48 6.21285L112.481 5.68358ZM114.027 1.54346C112.822 2.76409 112.219 4.35631 112.217 5.94782L112.745 5.9486C112.747 4.4906 113.298 3.03359 114.402 1.91581L114.027 1.54346ZM122.872 1.49867C120.417 -0.938985 116.457 -0.918934 114.027 1.54346L114.402 1.91581C116.627 -0.338846 120.253 -0.357205 122.501 1.87481L122.872 1.49867ZM124.726 6.03688C124.747 4.39472 124.128 2.74565 122.872 1.49867L122.501 1.87481C123.651 3.01664 124.217 4.5257 124.198 6.03022L124.726 6.03688ZM129.872 7.49868C128.382 6.01918 126.337 5.44525 124.418 5.77266L124.506 6.29444C126.265 5.9944 128.137 6.5204 129.501 7.87481L129.872 7.49868ZM129.917 16.371C132.347 13.9086 132.327 9.93633 129.872 7.49868L129.501 7.87481C131.749 10.1068 131.767 13.744 129.542 15.9986L129.917 16.371ZM126.857 18.076C127.98 17.8212 129.047 17.2524 129.917 16.371L129.542 15.9986C128.745 16.8062 127.769 17.3266 126.741 17.5598L126.857 18.076ZM126.66 18.043C127.86 18.7862 129.145 19.0204 130.452 18.417L130.231 17.9362C129.124 18.4473 128.028 18.2682 126.938 17.5927L126.66 18.043ZM130.452 18.417C131.034 18.148 131.697 18.4079 131.938 18.9941L132.426 18.7917C132.068 17.9247 131.082 17.5431 130.231 17.9362L130.452 18.417ZM131.938 18.9941C132.183 19.5879 131.906 20.2952 131.317 20.5675L131.537 21.0482C132.381 20.6585 132.781 19.6511 132.426 18.7917L131.938 18.9941ZM131.317 20.5675C128.592 21.8251 126.143 20.7654 124.414 19.3515L124.081 19.7618C125.887 21.2392 128.553 22.4258 131.537 21.0482L131.317 20.5675ZM122.917 22.3711C123.698 21.5792 124.226 20.6305 124.502 19.6268L123.993 19.4865C123.741 20.4049 123.258 21.2731 122.542 21.9987L122.917 22.3711ZM114.071 22.4159C116.526 24.8535 120.486 24.8335 122.917 22.3711L122.542 21.9987C120.316 24.2534 116.69 24.2718 114.442 22.0398L114.071 22.4159ZM112.217 17.9669C112.219 19.5794 112.838 21.1915 114.071 22.4159L114.442 22.0398C113.313 20.9186 112.747 19.4434 112.744 17.966L112.217 17.9669ZM108.071 16.4159C109.293 17.629 110.888 18.2335 112.481 18.2311L112.48 17.7018C111.021 17.704 109.561 17.1507 108.442 16.0398L108.071 16.4159ZM108.026 7.54356C105.596 10.006 105.616 13.9782 108.071 16.4159L108.442 16.0398C106.194 13.8077 106.176 10.1706 108.401 7.91592L108.026 7.54356Z" fill="black" fill-opacity="0.2" style="fill:black;fill-opacity:0.2;"/>
<path fill-rule="evenodd" clip-rule="evenodd" d="M89.5036 8.06539C90.1378 8.8762 90.9885 9.53466 92.0131 9.94218C95.0922 11.1668 98.5759 9.66142 99.7941 6.57976C100.547 4.67631 100.259 2.6167 99.203 1.03145C100.786 0.477151 102.128 -0.736177 102.794 -2.42024C104.012 -5.50189 102.504 -8.99284 99.4247 -10.2175C97.8314 -10.8512 96.1297 -10.7539 94.6897 -10.0854C94.0726 -11.4654 92.9383 -12.6155 91.4243 -13.2177C88.3452 -14.4423 84.8615 -12.9369 83.6433 -9.85526C83.0591 -8.37736 83.102 -6.80533 83.6445 -5.43428C81.8852 -4.95621 80.3658 -3.68297 79.6433 -1.85526C78.4251 1.2264 79.9336 4.71735 83.0127 5.942C84.4506 6.51386 85.9766 6.49043 87.319 5.98917C87.3057 6.01668 87.2921 6.04411 87.2785 6.07148C86.4679 7.69493 85.3089 8.73106 83.6513 8.69875C82.8595 8.68332 82.2314 9.30594 82.2484 10.0894C82.2655 10.8729 82.9212 11.5205 83.7131 11.536C86.5824 11.5919 88.4123 9.89893 89.5036 8.06539Z" fill="white" style="fill:white;fill-opacity:1;"/>
<path d="M89.5036 8.06539L89.2768 7.92975L89.4738 7.59874L89.7114 7.90253L89.5036 8.06539ZM99.203 1.03145L98.9834 1.17793L98.7945 0.894241L99.1155 0.781831L99.203 1.03145ZM102.794 -2.42024L102.549 -2.51789L102.794 -2.42024ZM94.6897 -10.0854L94.8011 -9.84552L94.5583 -9.73281L94.4488 -9.97768L94.6897 -10.0854ZM83.6445 -5.43428L83.89 -5.53137L83.9987 -5.25646L83.714 -5.17908L83.6445 -5.43428ZM87.319 5.98917L87.2264 5.7414L87.8454 5.51029L87.5565 6.10511L87.319 5.98917ZM87.2785 6.07148L87.0423 5.95294L87.0423 5.95294L87.2785 6.07148ZM83.6513 8.69875L83.6466 8.96313L83.6466 8.96313L83.6513 8.69875ZM82.2484 10.0894L81.9844 10.0948L81.9844 10.0948L82.2484 10.0894ZM83.7131 11.536L83.7178 11.2716L83.7178 11.2716L83.7131 11.536ZM91.916 10.1879C90.8467 9.76261 89.9582 9.07501 89.2959 8.22824L89.7114 7.90253C90.3175 8.6774 91.1304 9.30672 92.1103 9.69645L91.916 10.1879ZM100.04 6.67742C98.7678 9.89479 95.1307 11.4665 91.916 10.1879L92.1103 9.69645C95.0538 10.8672 98.384 9.42806 99.5486 6.48211L100.04 6.67742ZM99.4226 0.88497C100.524 2.53937 100.825 4.68992 100.04 6.67742L99.5486 6.48211C100.268 4.66269 99.9931 2.69402 98.9834 1.17793L99.4226 0.88497ZM103.04 -2.32258C102.345 -0.564312 100.943 0.702559 99.2905 1.28107L99.1155 0.781831C100.629 0.251743 101.912 -0.908042 102.549 -2.51789L103.04 -2.32258ZM99.5218 -10.4632C102.737 -9.18464 104.312 -5.53995 103.04 -2.32258L102.549 -2.51789C103.713 -5.46383 102.271 -8.80104 99.3275 -9.97176L99.5218 -10.4632ZM94.5784 -10.3254C96.0814 -11.0231 97.8584 -11.1248 99.5218 -10.4632L99.3275 -9.97176C97.8044 -10.5776 96.1781 -10.4847 94.8011 -9.84552L94.5784 -10.3254ZM91.5214 -13.4634C93.102 -12.8347 94.2865 -11.6336 94.9307 -10.1932L94.4488 -9.97768C93.8587 -11.2972 92.7746 -12.3963 91.3272 -12.9719L91.5214 -13.4634ZM83.3978 -9.95291C84.6696 -13.1703 88.3067 -14.742 91.5214 -13.4634L91.3272 -12.9719C88.3836 -14.1427 85.0534 -12.7035 83.8888 -9.7576L83.3978 -9.95291ZM83.399 -5.33719C82.8327 -6.76833 82.7879 -8.41005 83.3978 -9.95291L83.8888 -9.7576C83.3303 -8.34467 83.3712 -6.84233 83.89 -5.53137L83.399 -5.33719ZM79.3978 -1.95291C80.1522 -3.86127 81.739 -5.19055 83.575 -5.68948L83.714 -5.17908C82.0315 -4.72187 80.5795 -3.50466 79.8888 -1.7576L79.3978 -1.95291ZM82.9156 6.18773C79.7009 4.90915 78.1259 1.26446 79.3978 -1.95291L79.8888 -1.7576C78.7243 1.18834 80.1664 4.52555 83.1099 5.69627L82.9156 6.18773ZM87.4116 6.23695C86.0103 6.76019 84.4166 6.78472 82.9156 6.18773L83.1099 5.69627C84.4845 6.24301 85.9429 6.22067 87.2264 5.7414L87.4116 6.23695ZM87.5565 6.10511C87.5427 6.13347 87.5288 6.16177 87.5147 6.19002L87.0423 5.95294C87.0555 5.92645 87.0686 5.89989 87.0815 5.87324L87.5565 6.10511ZM87.5147 6.19002C86.6806 7.86061 85.4472 8.99821 83.6466 8.96313L83.656 8.43438C85.1706 8.4639 86.2552 7.52926 87.0423 5.95294L87.5147 6.19002ZM83.6466 8.96313C83.0015 8.95055 82.4987 9.45388 82.5124 10.0841L81.9844 10.0948C81.9641 9.15801 82.7175 8.41609 83.656 8.43438L83.6466 8.96313ZM82.5124 10.0841C82.5263 10.7228 83.0649 11.2589 83.7178 11.2716L83.7083 11.8003C82.7776 11.7822 82.0046 11.023 81.9844 10.0948L82.5124 10.0841ZM83.7178 11.2716C86.4593 11.325 88.2142 9.71494 89.2768 7.92975L89.7305 8.20103C88.6104 10.0829 86.7055 11.8587 83.7083 11.8003L83.7178 11.2716Z" fill="black" fill-opacity="0.2" style="fill:black;fill-opacity:0.2;"/>
<path fill-rule="evenodd" clip-rule="evenodd" d="M70.5039 59.0657C71.138 59.8764 71.9886 60.5347 73.0131 60.9422C76.0922 62.1668 79.5759 60.6614 80.7941 57.5798C81.5466 55.6763 81.2587 53.6167 80.203 52.0314C81.7861 51.4772 83.1284 50.2638 83.7941 48.5798C85.0123 45.4981 83.5038 42.0072 80.4247 40.7825C78.8314 40.1488 77.1297 40.2461 75.6897 40.9146C75.0726 39.5346 73.9383 38.3845 72.4243 37.7823C69.3452 36.5577 65.8615 38.0631 64.6433 41.1447C64.0591 42.6226 64.102 44.1947 64.6445 45.5657C62.8852 46.0438 61.3658 47.317 60.6433 49.1447C59.4251 52.2264 60.9336 55.7173 64.0127 56.942C65.4508 57.5139 66.977 57.4904 68.3195 56.989C68.3061 57.0166 68.2926 57.0441 68.2789 57.0716C67.4683 58.6952 66.3094 59.7313 64.6519 59.699C63.8601 59.6836 63.232 60.3063 63.2491 61.0898C63.2661 61.8733 63.9218 62.521 64.7136 62.5364C67.5828 62.5923 69.4126 60.8993 70.5039 59.0657Z" fill="white" style="fill:white;fill-opacity:1;"/>
<path d="M70.5039 59.0657L70.277 58.93L70.474 58.599L70.7116 58.9028L70.5039 59.0657ZM80.203 52.0314L79.9834 52.1779L79.7945 51.8942L80.1155 51.7818L80.203 52.0314ZM83.7941 48.5798L83.5486 48.4821L83.7941 48.5798ZM75.6897 40.9146L75.8011 41.1545L75.5583 41.2672L75.4488 41.0223L75.6897 40.9146ZM64.6445 45.5657L64.89 45.4686L64.9987 45.7435L64.714 45.8209L64.6445 45.5657ZM68.3195 56.989L68.2269 56.7412L68.8459 56.51L68.557 57.1049L68.3195 56.989ZM68.2789 57.0716L68.5151 57.1901L68.5151 57.1901L68.2789 57.0716ZM64.6519 59.699L64.6472 59.9634L64.6472 59.9634L64.6519 59.699ZM63.2491 61.0898L63.5131 61.0844L63.5131 61.0844L63.2491 61.0898ZM64.7136 62.5364L64.7184 62.272L64.7184 62.272L64.7136 62.5364ZM72.916 61.1879C71.8468 60.7627 70.9584 60.0752 70.2961 59.2285L70.7116 58.9028C71.3177 59.6776 72.1305 60.3068 73.1103 60.6964L72.916 61.1879ZM81.0396 57.6774C79.7678 60.8948 76.1307 62.4665 72.916 61.1879L73.1103 60.6964C76.0538 61.8672 79.384 60.4281 80.5486 57.4821L81.0396 57.6774ZM80.4226 51.885C81.5244 53.5394 81.8253 55.6899 81.0396 57.6774L80.5486 57.4821C81.2678 55.6627 80.9931 53.694 79.9834 52.1779L80.4226 51.885ZM84.0396 48.6774C83.3446 50.4357 81.9427 51.7026 80.2905 52.2811L80.1155 51.7818C81.6295 51.2517 82.9122 50.092 83.5486 48.4821L84.0396 48.6774ZM80.5218 40.5368C83.7365 41.8154 85.3115 45.46 84.0396 48.6774L83.5486 48.4821C84.7132 45.5362 83.2711 42.199 80.3275 41.0282L80.5218 40.5368ZM75.5784 40.6746C77.0814 39.9769 78.8584 39.8752 80.5218 40.5368L80.3275 41.0282C78.8044 40.4224 77.1781 40.5153 75.8011 41.1545L75.5784 40.6746ZM72.5214 37.5366C74.102 38.1653 75.2865 39.3664 75.9307 40.8068L75.4488 41.0223C74.8587 39.7028 73.7746 38.6037 72.3272 38.0281L72.5214 37.5366ZM64.3978 41.0471C65.6696 37.8297 69.3067 36.258 72.5214 37.5366L72.3272 38.0281C69.3836 36.8573 66.0534 38.2965 64.8888 41.2424L64.3978 41.0471ZM64.399 45.6628C63.8327 44.2317 63.7879 42.59 64.3978 41.0471L64.8888 41.2424C64.3303 42.6553 64.3712 44.1577 64.89 45.4686L64.399 45.6628ZM60.3978 49.0471C61.1522 47.1387 62.739 45.8094 64.575 45.3105L64.714 45.8209C63.0315 46.2781 61.5795 47.4953 60.8888 49.2424L60.3978 49.0471ZM63.9156 57.1877C60.7009 55.9091 59.1259 52.2645 60.3978 49.0471L60.8888 49.2424C59.7243 52.1883 61.1664 55.5256 64.1099 56.6963L63.9156 57.1877ZM68.4121 57.2367C67.0107 57.7602 65.4168 57.7848 63.9156 57.1877L64.1099 56.6963C65.4847 57.2431 66.9433 57.2207 68.2269 56.7412L68.4121 57.2367ZM68.557 57.1049C68.5432 57.1334 68.5292 57.1618 68.5151 57.1901L68.0427 56.9531C68.0559 56.9265 68.0691 56.8998 68.082 56.8731L68.557 57.1049ZM68.5151 57.1901C67.681 58.8608 66.4477 59.9985 64.6472 59.9634L64.6566 59.4347C66.1711 59.4642 67.2556 58.5295 68.0427 56.9531L68.5151 57.1901ZM64.6472 59.9634C64.0021 59.9508 63.4994 60.4542 63.5131 61.0844L62.9851 61.0951C62.9647 60.1583 63.7181 59.4164 64.6566 59.4347L64.6472 59.9634ZM63.5131 61.0844C63.527 61.7232 64.0655 62.2593 64.7184 62.272L64.7089 62.8008C63.7782 62.7826 63.0053 62.0234 62.9851 61.0951L63.5131 61.0844ZM64.7184 62.272C67.4597 62.3254 69.2145 60.7153 70.277 58.93L70.7307 59.2013C69.6106 61.0833 67.7059 62.8592 64.7089 62.8008L64.7184 62.272Z" fill="black" fill-opacity="0.2" style="fill:black;fill-opacity:0.2;"/>
<path fill-rule="evenodd" clip-rule="evenodd" d="M113.515 54.0795C114.148 54.8838 114.994 55.537 116.013 55.9422C119.092 57.1668 122.576 55.6614 123.794 52.5798C124.547 50.6763 124.259 48.6167 123.203 47.0314C124.786 46.4772 126.128 45.2638 126.794 43.5798C128.012 40.4981 126.504 37.0072 123.425 35.7825C121.831 35.1488 120.13 35.2461 118.69 35.9146C118.073 34.5346 116.938 33.3845 115.424 32.7823C112.345 31.5577 108.862 33.0631 107.643 36.1447C107.059 37.6226 107.102 39.1947 107.645 40.5657C105.885 41.0438 104.366 42.317 103.643 44.1447C102.425 47.2264 103.934 50.7173 107.013 51.942C108.46 52.5176 109.996 52.4901 111.345 51.9794C111.329 52.0122 111.313 52.0449 111.297 52.0775C110.489 53.7055 109.333 54.7446 107.68 54.7122C106.89 54.6968 106.264 55.3212 106.281 56.1068C106.298 56.8925 106.952 57.542 107.742 57.5574C110.602 57.6134 112.426 55.9172 113.515 54.0795Z" fill="white" style="fill:white;fill-opacity:1;"/>
<path d="M113.515 54.0795L113.288 53.9443L113.484 53.6132L113.722 53.916L113.515 54.0795ZM123.203 47.0314L122.983 47.1779L122.794 46.8942L123.116 46.7818L123.203 47.0314ZM126.794 43.5798L126.549 43.4821L126.794 43.5798ZM118.69 35.9146L118.801 36.1545L118.558 36.2672L118.449 36.0223L118.69 35.9146ZM107.645 40.5657L107.89 40.4686L107.999 40.7435L107.714 40.8209L107.645 40.5657ZM111.345 51.9794L111.251 51.732L111.869 51.498L111.583 52.0943L111.345 51.9794ZM111.297 52.0775L111.061 51.9595L111.061 51.9595L111.297 52.0775ZM107.68 54.7122L107.675 54.9766L107.675 54.9766L107.68 54.7122ZM106.281 56.1068L106.545 56.1015L106.545 56.1015L106.281 56.1068ZM107.742 57.5574L107.746 57.293L107.746 57.293L107.742 57.5574ZM115.916 56.1879C114.853 55.7651 113.968 55.083 113.307 54.243L113.722 53.916C114.327 54.6847 115.136 55.309 116.11 55.6964L115.916 56.1879ZM124.04 52.6774C122.768 55.8948 119.131 57.4665 115.916 56.1879L116.11 55.6964C119.054 56.8672 122.384 55.4281 123.549 52.4821L124.04 52.6774ZM123.423 46.885C124.524 48.5394 124.825 50.6899 124.04 52.6774L123.549 52.4821C124.268 50.6627 123.993 48.694 122.983 47.1779L123.423 46.885ZM127.04 43.6774C126.345 45.4357 124.943 46.7026 123.291 47.2811L123.116 46.7818C124.629 46.2517 125.912 45.092 126.549 43.4821L127.04 43.6774ZM123.522 35.5368C126.737 36.8154 128.312 40.46 127.04 43.6774L126.549 43.4821C127.713 40.5362 126.271 37.199 123.328 36.0282L123.522 35.5368ZM118.578 35.6746C120.081 34.9769 121.858 34.8752 123.522 35.5368L123.328 36.0282C121.804 35.4224 120.178 35.5153 118.801 36.1545L118.578 35.6746ZM115.521 32.5366C117.102 33.1653 118.287 34.3664 118.931 35.8068L118.449 36.0223C117.859 34.7028 116.775 33.6037 115.327 33.0281L115.521 32.5366ZM107.398 36.0471C108.67 32.8297 112.307 31.258 115.521 32.5366L115.327 33.0281C112.384 31.8573 109.053 33.2965 107.889 36.2424L107.398 36.0471ZM107.399 40.6628C106.833 39.2317 106.788 37.59 107.398 36.0471L107.889 36.2424C107.33 37.6553 107.371 39.1577 107.89 40.4686L107.399 40.6628ZM103.398 44.0471C104.152 42.1387 105.739 40.8094 107.575 40.3105L107.714 40.8209C106.031 41.2781 104.579 42.4953 103.889 44.2424L103.398 44.0471ZM106.916 52.1877C103.701 50.9091 102.126 47.2645 103.398 44.0471L103.889 44.2424C102.724 47.1883 104.166 50.5256 107.11 51.6963L106.916 52.1877ZM111.439 52.2267C110.031 52.7598 108.426 52.7886 106.916 52.1877L107.11 51.6963C108.493 52.2465 109.962 52.2204 111.251 51.732L111.439 52.2267ZM111.583 52.0943C111.567 52.1281 111.55 52.1618 111.534 52.1955L111.061 51.9595C111.076 51.9279 111.092 51.8962 111.107 51.8645L111.583 52.0943ZM111.534 52.1955C110.702 53.8702 109.472 55.0118 107.675 54.9766L107.685 54.4478C109.194 54.4774 110.276 53.5409 111.061 51.9595L111.534 52.1955ZM107.675 54.9766C107.034 54.964 106.531 55.4676 106.545 56.1015L106.017 56.1122C105.997 55.1747 106.747 54.4295 107.685 54.4478L107.675 54.9766ZM106.545 56.1015C106.559 56.7437 107.097 57.2803 107.746 57.293L107.737 57.8218C106.807 57.8036 106.037 57.0413 106.017 56.1122L106.545 56.1015ZM107.746 57.293C110.478 57.3465 112.228 55.734 113.288 53.9443L113.742 54.2146C112.625 56.1004 110.726 57.8803 107.737 57.8218L107.746 57.293Z" fill="black" fill-opacity="0.2" style="fill:black;fill-opacity:0.2;"/>
<path fill-rule="evenodd" clip-rule="evenodd" d="M138.515 81.0791C139.148 81.8837 139.995 82.5371 141.014 82.9423C144.093 84.1669 147.576 82.6615 148.795 79.5799C149.547 77.6764 149.259 75.6168 148.204 74.0316C149.787 73.4773 151.129 72.2639 151.795 70.5799C153.013 67.4982 151.504 64.0073 148.425 62.7826C146.832 62.1489 145.13 62.2462 143.69 62.9146C143.073 61.5347 141.939 60.3847 140.425 59.7825C137.346 58.5579 133.862 60.0633 132.644 63.1449C132.06 64.6228 132.103 66.1949 132.645 67.5659C130.886 68.044 129.366 69.3172 128.644 71.1449C127.426 74.2266 128.934 77.7175 132.013 78.9422C133.46 79.5176 134.996 79.4903 136.344 78.98C136.329 79.0126 136.313 79.045 136.297 79.0774C135.489 80.7052 134.333 81.7441 132.679 81.7118C131.89 81.6963 131.263 82.3207 131.28 83.1062C131.297 83.8918 131.951 84.5412 132.741 84.5566C135.602 84.6126 137.426 82.9166 138.515 81.0791Z" fill="white" style="fill:white;fill-opacity:1;"/>
<path d="M138.515 81.0791L138.288 80.9439L138.484 80.6128L138.722 80.9156L138.515 81.0791ZM148.204 74.0316L147.984 74.1781L147.795 73.8944L148.116 73.782L148.204 74.0316ZM143.69 62.9146L143.802 63.1546L143.559 63.2673L143.449 63.0224L143.69 62.9146ZM132.645 67.5659L132.891 67.4688L132.999 67.7437L132.715 67.8211L132.645 67.5659ZM136.344 78.98L136.251 78.7327L136.869 78.4987L136.582 79.095L136.344 78.98ZM136.297 79.0774L136.06 78.9594L136.06 78.9594L136.297 79.0774ZM132.679 81.7118L132.675 81.9762L132.675 81.9762L132.679 81.7118ZM131.28 83.1062L131.544 83.1009L131.544 83.1009L131.28 83.1062ZM132.741 84.5566L132.746 84.2922L132.746 84.2922L132.741 84.5566ZM140.916 83.188C139.853 82.7651 138.969 82.0828 138.307 81.2425L138.722 80.9156C139.327 81.6845 140.136 82.309 141.111 82.6966L140.916 83.188ZM149.04 79.6775C147.768 82.8949 144.131 84.4666 140.916 83.188L141.111 82.6966C144.054 83.8673 147.385 82.4282 148.549 79.4822L149.04 79.6775ZM148.423 73.8851C149.525 75.5395 149.826 77.69 149.04 79.6775L148.549 79.4822C149.268 77.6628 148.994 75.6941 147.984 74.1781L148.423 73.8851ZM152.04 70.6775C151.345 72.4358 149.943 73.7027 148.291 74.2812L148.116 73.782C149.63 73.2519 150.913 72.0921 151.549 70.4822L152.04 70.6775ZM148.522 62.5369C151.737 63.8155 153.312 67.4602 152.04 70.6775L151.549 70.4822C152.714 67.5363 151.272 64.1991 148.328 63.0284L148.522 62.5369ZM143.579 62.6747C145.082 61.9771 146.859 61.8753 148.522 62.5369L148.328 63.0284C146.805 62.4226 145.179 62.5154 143.802 63.1546L143.579 62.6747ZM140.522 59.5368C142.103 60.1654 143.287 61.3665 143.931 62.8069L143.449 63.0224C142.859 61.7029 141.775 60.6039 140.328 60.0282L140.522 59.5368ZM132.398 63.0473C133.67 59.8299 137.307 58.2582 140.522 59.5368L140.328 60.0282C137.384 58.8575 134.054 60.2966 132.889 63.2426L132.398 63.0473ZM132.4 67.663C131.833 66.2319 131.788 64.5901 132.398 63.0473L132.889 63.2426C132.331 64.6555 132.372 66.1579 132.891 67.4688L132.4 67.663ZM128.398 71.0473C129.153 69.1389 130.74 67.8096 132.576 67.3107L132.715 67.8211C131.032 68.2783 129.58 69.4955 128.889 71.2426L128.398 71.0473ZM131.916 79.1879C128.702 77.9093 127.127 74.2646 128.398 71.0473L128.889 71.2426C127.725 74.1885 129.167 77.5257 132.11 78.6965L131.916 79.1879ZM136.438 79.2274C135.031 79.76 133.426 79.7886 131.916 79.1879L132.11 78.6965C133.494 79.2466 134.962 79.2206 136.251 78.7327L136.438 79.2274ZM136.582 79.095C136.566 79.1285 136.55 79.162 136.533 79.1954L136.06 78.9594C136.076 78.928 136.091 78.8966 136.107 78.8651L136.582 79.095ZM136.533 79.1954C135.702 80.8699 134.472 82.0113 132.675 81.9762L132.684 81.4474C134.194 81.477 135.275 80.5405 136.06 78.9594L136.533 79.1954ZM132.675 81.9762C132.033 81.9636 131.53 82.4672 131.544 83.1009L131.016 83.1116C130.996 82.1741 131.746 81.4291 132.684 81.4474L132.675 81.9762ZM131.544 83.1009C131.558 83.743 132.096 84.2795 132.746 84.2922L132.736 84.821C131.806 84.8028 131.036 84.0406 131.016 83.1116L131.544 83.1009ZM132.746 84.2922C135.478 84.3457 137.228 82.7334 138.288 80.9439L138.742 81.2143C137.625 83.0999 135.725 84.8795 132.736 84.821L132.746 84.2922Z" fill="black" fill-opacity="0.2" style="fill:black;fill-opacity:0.2;"/>
<path fill-rule="evenodd" clip-rule="evenodd" d="M117.655 116.167C117.829 114.576 118.633 113.058 120.008 112.019C122.653 110.022 126.409 110.551 128.398 113.201C129.442 114.591 129.792 116.288 129.507 117.876C131.004 118.102 132.416 118.893 133.398 120.201C135.388 122.852 134.857 126.619 132.212 128.616C130.841 129.652 129.17 130.008 127.602 129.741C127.622 131.587 126.797 133.419 125.212 134.616C122.568 136.613 118.812 136.083 116.822 133.433C116.009 132.35 115.617 131.079 115.618 129.82C113.67 131.024 110.972 131.809 108.309 130.111C107.643 129.687 107.423 128.792 107.818 128.112C108.213 127.432 109.073 127.225 109.739 127.65C111.003 128.455 112.376 128.296 113.768 127.537C112.632 127.171 111.594 126.461 110.823 125.433C108.833 122.783 109.364 119.016 112.009 117.019C113.688 115.75 115.816 115.501 117.655 116.167Z" fill="white" style="fill:white;fill-opacity:1;"/>
<path d="M117.655 116.167L117.917 116.195L117.88 116.53L117.565 116.416L117.655 116.167ZM129.507 117.876L129.468 118.138L129.2 118.097L129.248 117.829L129.507 117.876ZM127.602 129.741L127.338 129.744L127.335 129.427L127.646 129.48L127.602 129.741ZM115.618 129.82L115.48 129.595L115.883 129.346L115.882 129.82L115.618 129.82ZM108.309 130.111L108.451 129.888L108.451 129.888L108.309 130.111ZM107.818 128.112L108.046 128.245L108.046 128.245L107.818 128.112ZM109.739 127.65L109.597 127.873L109.597 127.873L109.739 127.65ZM113.768 127.537L113.849 127.285L114.436 127.474L113.894 127.769L113.768 127.537ZM120.167 112.23C118.852 113.223 118.084 114.674 117.917 116.195L117.392 116.138C117.574 114.478 118.413 112.892 119.85 111.807L120.167 112.23ZM128.188 113.361C126.286 110.827 122.695 110.321 120.167 112.23L119.85 111.807C122.611 109.722 126.532 110.275 128.609 113.042L128.188 113.361ZM129.248 117.829C129.519 116.311 129.185 114.689 128.188 113.361L128.609 113.042C129.698 114.493 130.064 116.265 129.767 117.922L129.248 117.829ZM133.188 120.361C132.249 119.11 130.899 118.354 129.468 118.138L129.547 117.614C131.109 117.85 132.584 118.676 133.609 120.042L133.188 120.361ZM132.054 128.405C134.581 126.496 135.089 122.894 133.188 120.361L133.609 120.042C135.686 122.809 135.132 126.742 132.371 128.827L132.054 128.405ZM127.646 129.48C129.146 129.735 130.742 129.395 132.054 128.405L132.371 128.827C130.939 129.909 129.194 130.28 127.557 130.002L127.646 129.48ZM125.054 134.405C126.568 133.261 127.358 131.51 127.338 129.744L127.866 129.738C127.887 131.665 127.025 133.578 125.371 134.827L125.054 134.405ZM117.033 133.274C118.935 135.807 122.526 136.314 125.054 134.405L125.371 134.827C122.61 136.912 118.688 136.359 116.611 133.592L117.033 133.274ZM115.882 129.82C115.881 131.024 116.256 132.238 117.033 133.274L116.611 133.592C115.763 132.461 115.353 131.135 115.355 129.82L115.882 129.82ZM108.451 129.888C110.992 131.508 113.574 130.773 115.48 129.595L115.757 130.045C113.766 131.276 110.951 132.109 108.167 130.334L108.451 129.888ZM108.046 128.245C107.724 128.8 107.903 129.539 108.451 129.888L108.167 130.334C107.383 129.835 107.123 128.783 107.59 127.979L108.046 128.245ZM109.597 127.873C109.056 127.528 108.365 127.696 108.046 128.245L107.59 127.979C108.062 127.168 109.09 126.922 109.881 127.426L109.597 127.873ZM113.894 127.769C112.45 128.557 110.969 128.747 109.597 127.873L109.881 127.426C111.036 128.163 112.302 128.035 113.642 127.304L113.894 127.769ZM111.033 125.274C111.772 126.257 112.763 126.935 113.849 127.285L113.687 127.788C112.501 127.406 111.417 126.666 110.612 125.592L111.033 125.274ZM112.167 117.23C109.639 119.139 109.132 122.74 111.033 125.274L110.612 125.592C108.535 122.825 109.089 118.892 111.85 116.807L112.167 117.23ZM117.565 116.416C115.806 115.779 113.772 116.018 112.167 117.23L111.85 116.807C113.604 115.483 115.825 115.223 117.744 115.918L117.565 116.416Z" fill="black" fill-opacity="0.2" style="fill:black;fill-opacity:0.2;"/>
<path fill-rule="evenodd" clip-rule="evenodd" d="M91.514 159.079C92.1471 159.883 92.9941 160.537 94.0131 160.942C97.0922 162.167 100.576 160.661 101.794 157.58C102.547 155.676 102.259 153.617 101.203 152.031C102.786 151.477 104.128 150.264 104.794 148.58C106.012 145.498 104.504 142.007 101.425 140.783C99.8314 140.149 98.1297 140.246 96.6897 140.915C96.0726 139.535 94.9383 138.385 93.4243 137.782C90.3452 136.558 86.8615 138.063 85.6433 141.145C85.0591 142.623 85.102 144.195 85.6445 145.566C83.8852 146.044 82.3658 147.317 81.6433 149.145C80.4251 152.226 81.9336 155.717 85.0127 156.942C86.4593 157.517 87.9952 157.49 89.3435 156.98C89.3278 157.012 89.312 157.045 89.296 157.077C88.4876 158.705 87.3316 159.744 85.6783 159.711C84.8885 159.696 84.2621 160.32 84.2791 161.106C84.2962 161.891 84.9502 162.541 85.74 162.556C88.6007 162.612 90.4254 160.916 91.514 159.079Z" fill="white" style="fill:white;fill-opacity:1;"/>
<path d="M91.514 159.079L91.2869 158.943L91.4831 158.612L91.7213 158.915L91.514 159.079ZM101.203 152.031L100.983 152.178L100.794 151.894L101.116 151.782L101.203 152.031ZM104.794 148.58L104.549 148.482L104.794 148.58ZM96.6897 140.915L96.8011 141.154L96.5583 141.267L96.4488 141.022L96.6897 140.915ZM85.6445 145.566L85.89 145.469L85.9987 145.744L85.714 145.821L85.6445 145.566ZM89.3435 156.98L89.2498 156.733L89.868 156.499L89.5814 157.095L89.3435 156.98ZM89.296 157.077L89.0595 156.959L89.0595 156.959L89.296 157.077ZM85.6783 159.711L85.6736 159.976L85.6736 159.976L85.6783 159.711ZM84.2791 161.106L84.5431 161.1L84.5431 161.1L84.2791 161.106ZM85.74 162.556L85.7448 162.292L85.7448 162.292L85.74 162.556ZM93.916 161.188C92.8525 160.765 91.9679 160.082 91.3067 159.242L91.7213 158.915C92.3263 159.684 93.1357 160.309 94.1103 160.696L93.916 161.188ZM102.04 157.677C100.768 160.895 97.1307 162.466 93.916 161.188L94.1103 160.696C97.0538 161.867 100.384 160.428 101.549 157.482L102.04 157.677ZM101.423 151.885C102.524 153.539 102.825 155.69 102.04 157.677L101.549 157.482C102.268 155.663 101.993 153.694 100.983 152.178L101.423 151.885ZM105.04 148.677C104.345 150.436 102.943 151.703 101.291 152.281L101.116 151.782C102.629 151.252 103.912 150.092 104.549 148.482L105.04 148.677ZM101.522 140.537C104.737 141.815 106.312 145.46 105.04 148.677L104.549 148.482C105.713 145.536 104.271 142.199 101.328 141.028L101.522 140.537ZM96.5784 140.675C98.0814 139.977 99.8584 139.875 101.522 140.537L101.328 141.028C99.8044 140.422 98.1781 140.515 96.8011 141.154L96.5784 140.675ZM93.5214 137.537C95.102 138.165 96.2865 139.366 96.9307 140.807L96.4488 141.022C95.8587 139.703 94.7746 138.604 93.3272 138.028L93.5214 137.537ZM85.3978 141.047C86.6696 137.83 90.3067 136.258 93.5214 137.537L93.3272 138.028C90.3836 136.857 87.0534 138.296 85.8888 141.242L85.3978 141.047ZM85.399 145.663C84.8327 144.232 84.7879 142.59 85.3978 141.047L85.8888 141.242C85.3303 142.655 85.3712 144.158 85.89 145.469L85.399 145.663ZM81.3978 149.047C82.1522 147.139 83.739 145.809 85.575 145.311L85.714 145.821C84.0315 146.278 82.5795 147.495 81.8888 149.242L81.3978 149.047ZM84.9156 157.188C81.7009 155.909 80.1259 152.264 81.3978 149.047L81.8888 149.242C80.7243 152.188 82.1664 155.526 85.1099 156.696L84.9156 157.188ZM89.4371 157.227C88.0297 157.76 86.4257 157.788 84.9156 157.188L85.1099 156.696C86.4929 157.246 87.9606 157.22 89.2498 156.733L89.4371 157.227ZM89.5814 157.095C89.5653 157.128 89.549 157.162 89.5325 157.195L89.0595 156.959C89.0751 156.928 89.0904 156.896 89.1055 156.865L89.5814 157.095ZM89.5325 157.195C88.7009 158.87 87.4706 160.011 85.6736 159.976L85.6831 159.447C87.1926 159.477 88.2743 158.54 89.0595 156.959L89.5325 157.195ZM85.6736 159.976C85.0319 159.963 84.5294 160.467 84.5431 161.1L84.0151 161.111C83.9948 160.174 84.7452 159.429 85.6831 159.447L85.6736 159.976ZM84.5431 161.1C84.557 161.742 85.0951 162.279 85.7448 162.292L85.7353 162.82C84.8053 162.802 84.0353 162.04 84.0151 161.111L84.5431 161.1ZM85.7448 162.292C88.477 162.345 90.2267 160.733 91.2869 158.943L91.7412 159.214C90.624 161.099 88.7244 162.879 85.7353 162.82L85.7448 162.292Z" fill="black" fill-opacity="0.2" style="fill:black;fill-opacity:0.2;"/>
</g>
<mask id="path-39-outside-1_2536_8108" maskUnits="userSpaceOnUse" x="14" y="39" width="115" height="116" fill="black">
<rect fill="white" x="14" y="39" width="115" height="116"/>
<path fill-rule="evenodd" clip-rule="evenodd" d="M48 152C56.5129 152 64.2243 148.569 69.8266 143.014C70.7444 142.104 72.2556 142.104 73.1734 143.014C78.7757 148.569 86.4871 152 95 152C112.121 152 126 138.121 126 121C126 112.253 122.378 104.353 116.551 98.7166C115.591 97.7883 115.591 96.2117 116.551 95.2834C122.378 89.6472 126 81.7466 126 73C126 55.8792 112.121 42 95 42C86.4871 42 78.7757 45.4314 73.1734 50.9864C72.2556 51.8964 70.7444 51.8964 69.8266 50.9864C64.2243 45.4314 56.5129 42 48 42C30.8792 42 17 55.8792 17 73C17 81.7466 20.6224 89.6472 26.4489 95.2834C27.4085 96.2117 27.4085 97.7883 26.4489 98.7166C20.6224 104.353 17 112.253 17 121C17 138.121 30.8792 152 48 152Z"/>
</mask>
<path d="M116.551 98.7166L118.021 97.1973L116.551 98.7166ZM116.551 95.2834L115.081 93.7641L116.551 95.2834ZM26.4489 98.7166L24.9791 97.1973L26.4489 98.7166ZM69.8266 143.014L71.315 144.515L69.8266 143.014ZM73.1734 143.014L71.685 144.515L73.1734 143.014ZM68.3383 141.513C63.1157 146.691 55.933 149.886 48 149.886V154.114C57.0927 154.114 65.3329 150.446 71.315 144.515L68.3383 141.513ZM95 149.886C87.067 149.886 79.8843 146.691 74.6617 141.513L71.685 144.515C77.6671 150.446 85.9073 154.114 95 154.114V149.886ZM123.886 121C123.886 136.953 110.953 149.886 95 149.886V154.114C113.288 154.114 128.114 139.288 128.114 121H123.886ZM115.081 100.236C120.513 105.49 123.886 112.849 123.886 121H128.114C128.114 111.657 124.242 103.215 118.021 97.1973L115.081 100.236ZM123.886 73C123.886 81.1506 120.513 88.5097 115.081 93.7641L118.021 96.8027C124.242 90.7848 128.114 82.3427 128.114 73H123.886ZM95 44.1139C110.953 44.1139 123.886 57.0466 123.886 73H128.114C128.114 54.7117 113.288 39.8861 95 39.8861V44.1139ZM74.6617 52.4875C79.8843 47.309 87.067 44.1139 95 44.1139V39.8861C85.9073 39.8861 77.6671 43.5538 71.685 49.4854L74.6617 52.4875ZM48 44.1139C55.933 44.1139 63.1157 47.309 68.3383 52.4875L71.315 49.4854C65.3329 43.5538 57.0927 39.8861 48 39.8861V44.1139ZM19.1139 73C19.1139 57.0466 32.0466 44.1139 48 44.1139V39.8861C29.7117 39.8861 14.8861 54.7117 14.8861 73H19.1139ZM27.9186 93.7641C22.4868 88.5097 19.1139 81.1506 19.1139 73H14.8861C14.8861 82.3427 18.758 90.7848 24.9791 96.8027L27.9186 93.7641ZM19.1139 121C19.1139 112.849 22.4868 105.49 27.9186 100.236L24.9791 97.1973C18.758 103.215 14.8861 111.657 14.8861 121H19.1139ZM48 149.886C32.0466 149.886 19.1139 136.953 19.1139 121H14.8861C14.8861 139.288 29.7117 154.114 48 154.114V149.886ZM71.685 49.4854C71.6454 49.5247 71.5835 49.555 71.5 49.555C71.4165 49.555 71.3546 49.5247 71.315 49.4854L68.3383 52.4875C70.08 54.2145 72.92 54.2145 74.6617 52.4875L71.685 49.4854ZM118.021 97.1973C117.979 97.157 117.945 97.0914 117.945 97C117.945 96.9086 117.979 96.843 118.021 96.8027L115.081 93.7641C113.263 95.5232 113.263 98.4768 115.081 100.236L118.021 97.1973ZM24.9791 96.8027C25.0208 96.843 25.0547 96.9086 25.0547 97C25.0547 97.0914 25.0208 97.157 24.9791 97.1973L27.9186 100.236C29.7371 98.4768 29.7371 95.5232 27.9186 93.7641L24.9791 96.8027ZM71.315 144.515C71.3546 144.475 71.4165 144.445 71.5 144.445C71.5835 144.445 71.6454 144.475 71.685 144.515L74.6617 141.513C72.92 139.785 70.08 139.785 68.3383 141.513L71.315 144.515Z" fill="url(#paint0_radial_2536_8108)" fill-opacity="0.5" style="" mask="url(#path-39-outside-1_2536_8108)"/>
</g>
<g filter="url(#filter0_b_2536_8108)">
<rect x="3" y="165" width="138" height="41" rx="4.22771" fill="white" fill-opacity="0.5" style="fill:white;fill-opacity:0.5;"/>
<rect x="3.26423" y="165.264" width="137.472" height="40.4715" rx="3.96348" stroke="white" style="stroke:white;stroke-opacity:1;" stroke-width="0.528464"/>
</g>
<path fill-rule="evenodd" clip-rule="evenodd" d="M17 8.5C17 13.1944 13.1944 17 8.50001 17C7.62995 17 6.79043 16.8693 6.00001 16.6264L6 194.374C6.79042 194.131 7.62995 194 8.50001 194C13.1944 194 17 197.806 17 202.5C17 203.37 16.8693 204.21 16.6264 205H126.374C126.131 204.21 126 203.37 126 202.5C126 197.806 129.806 194 134.5 194C135.37 194 136.21 194.131 137 194.374L137 16.6264C136.21 16.8693 135.37 17 134.5 17C129.806 17 126 13.1944 126 8.5C126 7.62995 126.131 6.79042 126.374 6H16.6264C16.8693 6.79042 17 7.62995 17 8.5ZM0.0144703 203C0.273279 207.462 3.97344 211 8.50001 211C8.66786 211 8.83457 210.995 9.00001 210.986V211H134V210.986C134.165 210.995 134.332 211 134.5 211C139.027 211 142.727 207.462 142.986 203H143V202.516L143 202.5L143 202.484L143 8.50082V8.5V8.49918V8H142.986C142.736 3.70375 139.296 0.263674 135 0.0144617V0H134.5H8.50001H8.00001V0.0144618C3.70376 0.263674 0.263683 3.70375 0.0144703 8H8.52636e-06V8.5V202.5L0 203H0.0144703Z" fill="#1FAB68" style="fill:#1FAB68;fill:color(display-p3 0.1235 0.6699 0.4091);fill-opacity:1;"/>
<path fill-rule="evenodd" clip-rule="evenodd" d="M7.5 6C7.88418 6 8.23462 6.14443 8.5 6.38195C8.76538 6.14443 9.11582 6 9.5 6C10.3284 6 11 6.67157 11 7.5C11 7.88418 10.8556 8.23462 10.6181 8.5C10.8556 8.76538 11 9.11582 11 9.5C11 10.3284 10.3284 11 9.5 11C9.48735 11 9.47474 10.9998 9.46216 10.9995C9.45764 11.0469 9.4394 11.0972 9.40619 11.1476C9.28266 11.3348 8.99878 11.4523 8.77213 11.4099C8.35362 11.3316 8.08037 11.1599 7.90886 10.9436C7.77888 10.9803 7.64174 11 7.5 11C6.67157 11 6 10.3284 6 9.5C6 9.11582 6.14443 8.76538 6.38195 8.5C6.14443 8.23462 6 7.88418 6 7.5C6 6.67157 6.67157 6 7.5 6Z" fill="white" style="fill:white;fill-opacity:1;"/>
<path fill-rule="evenodd" clip-rule="evenodd" d="M7.5 205C7.88418 205 8.23462 204.856 8.5 204.618C8.76538 204.856 9.11582 205 9.5 205C10.3284 205 11 204.328 11 203.5C11 203.116 10.8556 202.765 10.6181 202.5C10.8556 202.235 11 201.884 11 201.5C11 200.672 10.3284 200 9.5 200C9.48701 200 9.47405 200 9.46114 200C9.45661 199.953 9.43837 199.903 9.40516 199.852C9.28161 199.665 8.99777 199.548 8.77118 199.59C8.35272 199.668 8.07956 199.84 7.90815 200.056C7.77838 200.02 7.64148 200 7.5 200C6.67157 200 6 200.672 6 201.5C6 201.884 6.14443 202.235 6.38195 202.5C6.14443 202.765 6 203.116 6 203.5C6 204.328 6.67157 205 7.5 205Z" fill="white" style="fill:white;fill-opacity:1;"/>
<path fill-rule="evenodd" clip-rule="evenodd" d="M135.5 6C135.116 6 134.765 6.14443 134.5 6.38195C134.235 6.14443 133.884 6 133.5 6C132.672 6 132 6.67157 132 7.5C132 7.88418 132.144 8.23462 132.382 8.5C132.144 8.76538 132 9.11582 132 9.5C132 10.3284 132.672 11 133.5 11C133.513 11 133.525 10.9998 133.538 10.9995C133.542 11.0469 133.561 11.0972 133.594 11.1476C133.717 11.3348 134.001 11.4523 134.228 11.4099C134.646 11.3316 134.92 11.1599 135.091 10.9436C135.221 10.9804 135.358 11 135.5 11C136.328 11 137 10.3284 137 9.5C137 9.11582 136.856 8.76538 136.618 8.5C136.856 8.23462 137 7.88418 137 7.5C137 6.67157 136.328 6 135.5 6Z" fill="white" style="fill:white;fill-opacity:1;"/>
<path fill-rule="evenodd" clip-rule="evenodd" d="M135.5 205C135.116 205 134.765 204.856 134.5 204.618C134.235 204.856 133.884 205 133.5 205C132.672 205 132 204.328 132 203.5C132 203.116 132.144 202.765 132.382 202.5C132.144 202.235 132 201.884 132 201.5C132 200.672 132.672 200 133.5 200C133.513 200 133.526 200 133.539 200C133.543 199.953 133.562 199.903 133.595 199.852C133.718 199.665 134.002 199.548 134.229 199.59C134.647 199.668 134.92 199.84 135.092 200.056C135.222 200.02 135.359 200 135.5 200C136.328 200 137 200.672 137 201.5C137 201.884 136.856 202.235 136.618 202.5C136.856 202.765 137 203.116 137 203.5C137 204.328 136.328 205 135.5 205Z" fill="white" style="fill:white;fill-opacity:1;"/>
<defs>
<filter id="filter0_b_2536_8108" x="-18.1386" y="143.861" width="180.277" height="83.2771" filterUnits="userSpaceOnUse" color-interpolation-filters="sRGB">
<feFlood flood-opacity="0" result="BackgroundImageFix"/>
<feGaussianBlur in="BackgroundImageFix" stdDeviation="10.5693"/>
<feComposite in2="SourceAlpha" operator="in" result="effect1_backgroundBlur_2536_8108"/>
<feBlend mode="normal" in="SourceGraphic" in2="effect1_backgroundBlur_2536_8108" result="shape"/>
</filter>
<radialGradient id="paint0_radial_2536_8108" cx="0" cy="0" r="1" gradientUnits="userSpaceOnUse" gradientTransform="translate(70.1482 94.9539) rotate(90) scale(66.59 65.9841)">
<stop stop-color="white" style="stop-color:white;stop-opacity:1;"/>
<stop offset="1" stop-color="white" stop-opacity="0.5" style="stop-color:white;stop-opacity:0.5;"/>
</radialGradient>
</defs>
</svg>
