<svg width="48" height="48" viewBox="0 0 48 48" fill="none" xmlns="http://www.w3.org/2000/svg">
<path d="M14.2197 14.2197C13.9534 14.4859 13.9292 14.9026 14.1471 15.1962L14.2197 15.2803L18.2542 19.3149C16.3323 20.6644 14.8958 22.6799 14.2989 25.0644C14.1983 25.4662 14.4425 25.8735 14.8443 25.9741C15.2461 26.0746 15.6534 25.8305 15.754 25.4286C16.2835 23.3135 17.5911 21.5395 19.3342 20.3945L21.1438 22.2043C20.4363 22.9258 20 23.9143 20 25.0046C20 27.2138 21.7909 29.0046 24 29.0046C25.0904 29.0046 26.0788 28.5683 26.8004 27.8608L32.7197 33.7803C33.0126 34.0732 33.4874 34.0732 33.7803 33.7803C34.0466 33.5141 34.0708 33.0974 33.8529 32.8038L33.7803 32.7197L27.6668 26.6055L27.668 26.604L20.7188 19.6578L20.72 19.656L19.5867 18.5255L15.2803 14.2197C14.9874 13.9268 14.5126 13.9268 14.2197 14.2197ZM24 17.5C22.9997 17.5 22.0291 17.6481 21.1111 17.925L22.3481 19.1612C22.8839 19.0553 23.4364 19 24 19C27.9231 19 31.3099 21.6803 32.2471 25.4332C32.3475 25.835 32.7546 26.0794 33.1565 25.9791C33.5584 25.8787 33.8028 25.4716 33.7024 25.0697C32.5994 20.6527 28.6155 17.5 24 17.5ZM24.1947 21.0093L27.996 24.81C27.8942 22.7531 26.2472 21.1076 24.1947 21.0093Z" fill="white" style="fill:white;fill-opacity:1;"/>
</svg>
