<svg width="162" height="162" viewBox="0 0 162 162" fill="none" xmlns="http://www.w3.org/2000/svg">
<rect width="162" height="162" fill="#292929" style="fill:#292929;fill:color(display-p3 0.1608 0.1608 0.1608);fill-opacity:1;"/>
<g clip-path="url(#clip0_2569_7927)">
<path d="M71.7134 119.982L71.1848 120.854L70.2855 120.357C67.9925 119.088 65.0368 119.866 63.6839 122.094C62.331 124.321 63.0931 127.155 65.3862 128.424L74.0112 133.194C74.3311 133.371 74.7436 133.263 74.9323 132.952L80.0261 124.57C81.3734 122.338 80.6165 119.511 78.3231 118.242C76.0259 116.972 73.0688 117.75 71.7134 119.982Z" fill="#3B3B3B" style="fill:#3B3B3B;fill:color(display-p3 0.2300 0.2300 0.2300);fill-opacity:1;"/>
</g>
<path d="M86.2789 136.332L85.9512 136.663L85.6225 136.332C84.7845 135.487 83.4258 135.487 82.5878 136.332C81.7497 137.176 81.7497 138.546 82.5878 139.39L85.7399 142.566C85.8569 142.684 86.0465 142.684 86.1634 142.566L89.318 139.389C90.1542 138.542 90.1556 137.177 89.3174 136.332C88.4779 135.486 87.1185 135.486 86.2789 136.332Z" fill="#3B3B3B" style="fill:#3B3B3B;fill:color(display-p3 0.2300 0.2300 0.2300);fill-opacity:1;"/>
<path d="M131.408 97.1955C139.468 99.3317 144.208 107.676 141.7 116.934C136.684 135.451 113.858 144.995 106.214 142.969C98.5702 140.943 83.6261 121.388 88.6421 102.872C91.15 93.6131 99.5737 88.7578 107.532 90.8673C112.467 92.1751 116.101 95.9735 118.037 99.3219C121.407 97.3798 126.474 95.8877 131.408 97.1955Z" fill="#3B3B3B" style="fill:#3B3B3B;fill:color(display-p3 0.2300 0.2300 0.2300);fill-opacity:1;"/>
<defs>
<clipPath id="clip0_2569_7927">
<rect width="20.9581" height="20.8768" fill="white" style="fill:white;fill-opacity:1;" transform="matrix(0.967082 -0.254464 0.259696 0.965691 59 117.809)"/>
</clipPath>
</defs>
</svg>
