<svg width="393" height="100" viewBox="0 0 393 100" fill="none" xmlns="http://www.w3.org/2000/svg">
<path fill-rule="evenodd" clip-rule="evenodd" d="M154.946 16C159.712 16 164.122 13.7429 167.738 10.6382C175.461 4.00792 185.511 0 196.5 0C207.489 0 217.539 4.00791 225.262 10.6382C228.878 13.7429 233.288 16 238.054 16H377C385.837 16 393 23.1634 393 32V84C393 92.8366 385.837 100 377 100H14C6.26802 100 0 93.732 0 86V32C0 23.1634 7.16344 16 16 16H154.946Z" fill="black" style="fill:black;fill-opacity:1;"/>
<rect y="46" width="393" height="54" fill="black" style="fill:black;fill-opacity:1;"/>
</svg>
