<svg width="162" height="162" viewBox="0 0 162 162" fill="none" xmlns="http://www.w3.org/2000/svg">
<rect width="162" height="162" fill="#2A2A2A" style="fill:#2A2A2A;fill:color(display-p3 0.1649 0.1649 0.1649);fill-opacity:1;"/>
<rect width="37.7639" height="14.4893" rx="2" transform="matrix(0.345713 0.93834 -0.941105 0.338113 129.375 87.2806)" fill="#3B3B3B" style="fill:#3B3B3B;fill:color(display-p3 0.2300 0.2300 0.2300);fill-opacity:1;"/>
<rect width="18.1267" height="6.86336" rx="2" transform="matrix(0.345713 0.93834 -0.941105 0.338113 136.398 95.3881)" fill="#3B3B3B" style="fill:#3B3B3B;fill:color(display-p3 0.2300 0.2300 0.2300);fill-opacity:1;"/>
<rect width="18.1267" height="6.86336" rx="2" transform="matrix(0.345713 0.93834 -0.941105 0.338113 85.4453 113.148)" fill="#3B3B3B" style="fill:#3B3B3B;fill:color(display-p3 0.2300 0.2300 0.2300);fill-opacity:1;"/>
<rect width="37.7639" height="14.4893" rx="2" transform="matrix(0.345713 0.93834 -0.941105 0.338113 92.7734 100.431)" fill="#3B3B3B" style="fill:#3B3B3B;fill:color(display-p3 0.2300 0.2300 0.2300);fill-opacity:1;"/>
<rect width="12.8397" height="36.6046" transform="matrix(0.345713 0.93834 -0.941105 0.338113 126.637 101.908)" fill="#3B3B3B" style="fill:#3B3B3B;fill:color(display-p3 0.2300 0.2300 0.2300);fill-opacity:1;"/>
<path d="M66.9027 100.036L69.4943 102.77L71.8702 99.8516L71.7456 103.594L75.5152 103.19L72.7473 105.749L75.7023 108.095L71.9126 107.972L72.3221 111.694L69.7306 108.961L67.3546 111.879L67.4793 108.137L63.7097 108.541L66.4776 105.982L63.5225 103.636L67.3122 103.759L66.9027 100.036Z" fill="#4C4C4C" style="fill:#4C4C4C;fill:color(display-p3 0.2988 0.2982 0.2982);fill-opacity:1;"/>
<ellipse cx="1.49559" cy="1.48338" rx="1.49559" ry="1.48338" transform="matrix(-0.910787 0.412877 0.42155 0.906805 69.9023 117.133)" fill="#4C4C4C" style="fill:#4C4C4C;fill:color(display-p3 0.2988 0.2982 0.2982);fill-opacity:1;"/>
</svg>
