<svg width="209" height="88" viewBox="0 0 209 88" fill="none" xmlns="http://www.w3.org/2000/svg">
<path d="M111.928 18.4056C111.928 21.0871 109.743 22.6027 108.186 22.9816C108.126 23.0108 108.126 23.2148 108.186 23.2439C110.072 23.6811 113.156 25.1968 113.156 30.1517C113.156 38.8373 97.5874 37.6132 89.8034 37.4674C89.3243 37.4674 88.6357 37.0594 88.6357 36.593L88.6657 10.4195C88.6657 9.92398 89.0549 9.54508 89.5638 9.54508L99.3837 9.51593C103.605 9.51593 111.928 10.1572 111.928 18.4056ZM102.557 18.2599C102.557 17.2689 102.168 15.6658 98.6652 15.4327C98.1562 15.4035 97.767 15.7533 97.767 16.2779V19.8921C97.767 20.4167 98.2461 20.7665 98.755 20.7373C102.527 20.5333 102.557 19.0468 102.557 18.2599ZM102.557 28.9567C102.557 27.9657 102.168 26.3626 98.6652 26.1294C98.1562 26.1003 97.767 26.4501 97.767 26.9747V30.5889C97.767 31.1135 98.2461 31.4633 98.755 31.4341C102.527 31.2301 102.557 29.7436 102.557 28.9567Z" fill="white" style="fill:white;fill-opacity:1;"/>
<path d="M66.7789 36.8839C66.6891 37.2337 66.2699 37.5251 65.9107 37.5251L58.0967 37.496C57.4081 37.496 57.0189 36.9422 57.2584 36.3301L66.8687 10.4772C66.9885 10.1566 67.3777 9.89424 67.707 9.89424L76.0898 9.77765C76.4491 9.77765 76.8383 10.0691 76.9581 10.3897L85.9996 36.3884C86.2091 37.0005 85.79 37.5543 85.1313 37.5543H77.2275C76.8982 37.5543 76.509 37.292 76.3892 36.9713L75.8204 35.514C75.7006 35.1934 75.3114 34.9311 74.9821 34.9311L68.0064 34.9019C67.6471 34.9019 67.228 35.1934 67.1382 35.5432L66.7789 36.8839ZM72.4074 24.0594C72.1379 23.2142 71.0302 23.185 70.7009 24.0011L69.5632 27.0324C69.3237 27.6153 69.7428 28.1982 70.4015 28.1982H72.5271C73.1858 28.1982 73.575 27.6736 73.3954 27.0615L72.4074 24.0594Z" fill="white" style="fill:white;fill-opacity:1;"/>
<path d="M31.248 37.583C30.739 37.583 30.0205 37.2041 30.0205 36.7086L30.0504 10.7099C30.0504 10.2436 30.4995 9.83553 31.0085 9.83553C43.3732 9.74809 56.6061 8.43649 56.6061 23.9716C56.6061 37.8745 47.0556 37.6122 31.248 37.583ZM41.008 17.7634C40.4691 17.7342 40.1099 18.1131 40.1099 18.6086L40.1697 28.7225C40.1697 29.1888 40.4392 29.5386 40.8883 29.5677C45.3491 29.8009 46.9958 27.236 46.9958 23.651C46.9958 20.9403 46.3371 18.0257 41.008 17.7634Z" fill="white" style="fill:white;fill-opacity:1;"/>
<path d="M1.22749 37.583C0.718529 37.583 0 37.2041 0 36.7086L0.0299386 10.7099C0.0299386 10.2436 0.479019 9.83553 0.987977 9.83553C13.3527 9.74809 26.5856 8.43649 26.5856 23.9716C26.5856 37.8745 17.0351 37.6122 1.22749 37.583ZM10.9875 17.7634C10.4486 17.7342 10.0893 18.1131 10.0893 18.6086L10.1492 28.7225C10.1492 29.1888 10.4187 29.5386 10.8678 29.5677C15.3286 29.8009 16.9753 27.236 16.9753 23.651C16.9753 20.9403 16.3465 18.0257 10.9875 17.7634Z" fill="white" style="fill:white;fill-opacity:1;"/>
<path d="M207.589 21.9321C208.098 21.9321 208.487 22.1944 208.487 22.6899C208.427 32.4539 207.11 37.4671 195.344 37.4671C184.446 37.4671 180.225 32.2499 180.225 21.7863C180.225 12.6926 186.152 9.77795 194.805 9.77795C201.331 9.77795 207.559 11.6433 208.157 18.5802C208.217 19.1048 207.858 19.7169 207.319 19.7169H200.194C199.864 19.7169 199.266 19.2214 199.146 18.93C198.487 17.2395 195.883 16.5691 194.236 16.5691C191.362 16.5691 189.506 18.0847 189.506 20.9119C189.506 24.8467 188.937 30.9092 194.296 30.9092C196.811 30.9092 199.056 30.5594 199.565 28.7523C199.745 28.1403 199.415 27.8779 198.787 27.8779H195.374C194.865 27.8779 194.475 27.499 194.475 27.0035L194.416 22.8356C194.416 22.3693 194.835 21.9612 195.314 21.9612L207.589 21.9321Z" fill="white" style="fill:white;fill-opacity:1;"/>
<path d="M157.47 36.4464C157.47 36.9419 157.081 37.3208 156.572 37.3208H149.297C148.788 37.3208 148.399 36.9419 148.399 36.4464L148.339 10.9141C148.339 10.4186 148.728 10.0397 149.237 10.0397H157.141C157.261 10.0397 157.62 10.1854 157.71 10.2437L165.584 16.7725C166.212 17.268 167.081 16.8891 167.081 16.073L167.021 10.9141C167.021 10.4477 167.44 10.0397 167.919 10.0397H175.673C176.182 10.0397 176.571 10.4186 176.571 10.9141L176.451 36.5047C176.451 37.0002 176.062 37.3791 175.553 37.3791H167.889C167.41 37.3791 167.021 37.0002 166.991 36.5339L166.811 30.3256C166.811 30.1508 166.631 29.7719 166.512 29.6553L158.997 23.5928C158.368 23.0682 157.53 23.4762 157.53 24.2632L157.47 36.4464Z" fill="white" style="fill:white;fill-opacity:1;"/>
<path d="M174.507 73.8807C173.998 73.8807 173.608 73.5018 173.608 73.0063V47.0367C173.608 46.5413 173.998 46.1624 174.507 46.1624H182.65C183.159 46.1624 183.548 46.5413 183.548 47.0367V73.0063C183.548 73.5018 183.159 73.8807 182.65 73.8807H174.507Z" fill="white" style="fill:white;fill-opacity:1;"/>
<path d="M159.115 73.8534C158.606 73.8534 158.217 73.4744 158.217 72.979V64.6431C158.217 64.1476 157.828 63.7687 157.319 63.7687H152.559C152.05 63.7687 151.661 64.1476 151.661 64.6431V72.979C151.661 73.4744 151.271 73.8534 150.762 73.8534H142.469C141.96 73.8534 141.571 73.4744 141.571 72.979V46.8928C141.571 46.3973 141.96 46.0184 142.469 46.0184H150.762C151.271 46.0184 151.661 46.3973 151.661 46.8928V55.4619C151.661 55.9574 152.05 56.3363 152.559 56.3363H157.319C157.828 56.3363 158.217 55.9574 158.217 55.4619V46.8928C158.217 46.3973 158.606 46.0184 159.115 46.0184H167.408C167.917 46.0184 168.307 46.3973 168.307 46.8928V72.979C168.307 73.4744 167.917 73.8534 167.408 73.8534H159.115Z" fill="white" style="fill:white;fill-opacity:1;"/>
<path d="M127.791 65.9838C129.078 65.9838 130.605 65.5757 131.773 64.6431C132.102 64.3807 132.851 64.2933 133.15 64.5848L137.85 68.6944C138.269 69.0442 138.299 69.5397 137.91 69.8894C135.305 72.3669 131.803 73.9116 127.851 73.9116C119.977 73.9116 113.54 67.6451 113.54 59.9796C113.54 52.2558 119.977 46.0184 127.851 46.0184C131.743 46.0184 135.216 47.5049 137.82 49.9824C138.21 50.3321 138.18 50.8276 137.82 51.1774L132.88 55.7825C132.551 56.074 131.922 56.074 131.593 55.8117C130.336 54.8498 128.869 54.5001 127.731 54.5001C125.755 54.5001 122.402 56.1614 122.402 60.2419C122.402 64.3516 125.456 65.9838 127.791 65.9838Z" fill="white" style="fill:white;fill-opacity:1;"/>
<path d="M112.702 46.3098C113.21 46.3098 113.6 46.6887 113.6 47.1841L113.63 53.8004C113.63 54.2959 113.24 54.6748 112.731 54.6748L104.738 54.7331C104.229 54.7331 103.84 55.112 103.84 55.6075V72.9497C103.84 73.416 103.421 73.8241 102.942 73.8241L94.9479 73.7366C94.4389 73.7366 94.0497 73.3577 94.0497 72.8622L93.9898 55.6075C93.9898 55.112 93.6006 54.7331 93.0917 54.7331L85.1579 54.6165C84.649 54.6165 84.2598 54.2376 84.2598 53.7421L84.3196 47.1841C84.3196 46.6887 84.7088 46.3098 85.2178 46.3098H112.702Z" fill="white" style="fill:white;fill-opacity:1;"/>
<path d="M25.2301 74.1244C24.72 74.1244 24 73.7416 24 73.2411L24.03 46.9775C24.03 46.5064 24.48 46.0942 24.99 46.0942C37.3806 46.0059 50.6412 44.6809 50.6412 60.3743C50.6412 74.4188 41.0708 74.1538 25.2301 74.1244ZM35.0105 54.1028C34.4705 54.0734 34.1105 54.4562 34.1105 54.9567L34.1705 65.1736C34.1705 65.6447 34.4405 65.998 34.8905 66.0274C39.3607 66.263 41.0108 63.6719 41.0108 60.0504C41.0108 57.3122 40.3807 54.3678 35.0105 54.1028Z" fill="white" style="fill:white;fill-opacity:1;"/>
<path d="M68.7216 66.896C64.0844 70.709 66.5505 76.2216 68.3633 78.5012L72.3705 75.6421C68.7119 75.3172 67.7503 68.7631 68.7216 66.896Z" fill="#25DA83" style="fill:#25DA83;fill:color(display-p3 0.1459 0.8542 0.5142);fill-opacity:1;"/>
<path fill-rule="evenodd" clip-rule="evenodd" d="M61.7573 71.1148C64.7227 71.0586 67.2249 69.1865 68.0886 66.6416C69.1674 68.7953 71.5025 70.2591 74.1985 70.208C77.8987 70.1378 80.8777 67.2403 80.8521 63.7362C80.8339 61.2408 79.2969 59.1107 77.0771 58.1165C78.7947 56.9361 79.909 55.0153 79.8933 52.8664C79.8677 49.3623 76.8473 46.5786 73.1471 46.6487C70.7588 46.694 68.6711 47.9171 67.4977 49.7209C66.3268 47.8409 64.149 46.6016 61.6648 46.6487C57.9645 46.7189 54.9855 49.6164 55.0111 53.1205C55.0305 55.7716 56.764 58.0103 59.2093 58.9128C56.7322 59.8883 54.9915 62.215 55.0111 64.8971C55.0367 68.4012 58.0571 71.1849 61.7573 71.1148Z" fill="#25DA83" style="fill:#25DA83;fill:color(display-p3 0.1459 0.8542 0.5142);fill-opacity:1;"/>
<path d="M130.188 29.6385C125.551 33.4515 128.017 38.9641 129.83 41.2438L133.837 38.3847C130.179 38.0598 129.217 31.5055 130.188 29.6385Z" fill="#25DA83" style="fill:#25DA83;fill:color(display-p3 0.1459 0.8542 0.5142);fill-opacity:1;"/>
<path fill-rule="evenodd" clip-rule="evenodd" d="M123.224 33.8616C126.19 33.8054 128.692 31.9333 129.555 29.3885C130.634 31.5421 132.969 33.006 135.665 32.9548C139.366 32.8847 142.344 29.9872 142.319 26.4831C142.301 23.9877 140.764 21.8576 138.544 20.8634C140.262 19.6829 141.376 17.7621 141.36 15.6132C141.335 12.1091 138.314 9.32539 134.614 9.39555C132.226 9.44084 130.138 10.6639 128.964 12.4677C127.794 10.5877 125.616 9.34844 123.132 9.39555C119.431 9.46572 116.452 12.3632 116.478 15.8673C116.497 18.5184 118.231 20.7572 120.676 21.6596C118.199 22.6351 116.458 24.9618 116.478 27.6439C116.503 31.148 119.524 33.9318 123.224 33.8616Z" fill="#25DA83" style="fill:#25DA83;fill:color(display-p3 0.1459 0.8542 0.5142);fill-opacity:1;"/>
</svg>
