<svg width="32" height="32" viewBox="0 0 32 32" fill="none" xmlns="http://www.w3.org/2000/svg">
<circle cx="16" cy="16" r="16" fill="#383838" style="fill:#383838;fill:color(display-p3 0.2214 0.2214 0.2214);fill-opacity:1;"/>
<path fill-rule="evenodd" clip-rule="evenodd" d="M21.3264 10.5071C21.3586 10.5634 21.415 10.6037 21.4875 10.6037C23.4208 10.6037 24.9997 12.1808 24.9997 14.112V18.8917C24.9997 20.8228 23.4208 22.4 21.4875 22.4H12.4009C10.4595 22.4 8.88867 20.8228 8.88867 18.8917V14.112C8.88867 12.1808 10.4595 10.6037 12.4009 10.6037C12.4653 10.6037 12.5298 10.5715 12.5539 10.5071L12.6023 10.4106C12.63 10.3521 12.6585 10.2921 12.6875 10.2311C12.8936 9.79705 13.1215 9.31683 13.2628 9.03459C13.6334 8.3104 14.2617 7.90807 15.0431 7.90002H18.8372C19.6186 7.90807 20.255 8.3104 20.6256 9.03459C20.7525 9.28807 20.9458 9.69638 21.1321 10.0899C21.1705 10.1711 21.2087 10.2517 21.2458 10.3301L21.3264 10.5071ZM20.738 13.597C20.738 13.9993 21.0602 14.3212 21.463 14.3212C21.8658 14.3212 22.1961 13.9993 22.1961 13.597C22.1961 13.1947 21.8658 12.8648 21.463 12.8648C21.0602 12.8648 20.738 13.1947 20.738 13.597ZM15.5508 14.8442C15.9294 14.466 16.4208 14.2649 16.9444 14.2649C17.468 14.2649 17.9594 14.466 18.3299 14.8362C18.7005 15.2063 18.9019 15.6972 18.9019 16.2202C18.8938 17.2984 18.0238 18.1755 16.9444 18.1755C16.4208 18.1755 15.9294 17.9744 15.5588 17.6042C15.1883 17.2341 14.9869 16.7432 14.9869 16.2202V16.2122C14.9788 15.7052 15.1802 15.2144 15.5508 14.8442ZM19.1756 18.4572C18.6037 19.0285 17.8142 19.3825 16.9442 19.3825C16.0984 19.3825 15.309 19.0526 14.7048 18.4572C14.1087 17.8537 13.7784 17.0651 13.7784 16.2202C13.7704 15.3834 14.1006 14.5948 14.6968 13.9913C15.3009 13.3878 16.0984 13.0579 16.9442 13.0579C17.7901 13.0579 18.5876 13.3878 19.1837 13.9833C19.7798 14.5868 20.1101 15.3834 20.1101 16.2202C20.102 17.0973 19.7476 17.8858 19.1756 18.4572Z" fill="#595959" style="fill:#595959;fill:color(display-p3 0.3477 0.3477 0.3477);fill-opacity:1;"/>
</svg>
