<svg width="393" height="255" viewBox="0 0 393 255" fill="none" xmlns="http://www.w3.org/2000/svg">
<mask id="mask0_765_17835" style="mask-type:alpha" maskUnits="userSpaceOnUse" x="0" y="0" width="393" height="240">
<path d="M0 0H392.999V239.999H0V0Z" fill="#D9D9D9" style="fill:#D9D9D9;fill:color(display-p3 0.8510 0.8510 0.8510);fill-opacity:1;"/>
</mask>
<g mask="url(#mask0_765_17835)">
<path d="M197.005 64.1259L211.297 83.6189L229.069 68.7897L239.052 91.8137L259.269 82.5101L264.363 107.727L285.851 104.49L285.759 130.434L307.27 133.451L301.997 158.615L322.28 167.711L312.133 190.632L330.01 205.279L315.579 224.625L330.01 243.971L312.133 258.618L322.28 281.539L301.997 290.636L307.27 315.799L285.759 318.817L285.851 344.761L264.363 341.524L259.269 366.741L239.052 357.437L229.069 380.461L211.297 365.632L197.005 385.125L182.712 365.632L164.941 380.461L154.958 357.437L134.74 366.741L129.647 341.524L108.158 344.761L108.251 318.817L86.7396 315.799L92.0125 290.636L71.7293 281.539L81.8761 258.618L63.9995 243.971L78.4306 224.625L63.9995 205.279L81.8761 190.632L71.7293 167.711L92.0125 158.615L86.7396 133.451L108.251 130.434L108.158 104.49L129.647 107.727L134.74 82.5101L154.958 91.8137L164.941 68.7897L182.712 83.6189L197.005 64.1259Z" fill="#2A2A2A" style="fill:#2A2A2A;fill:color(display-p3 0.1649 0.1649 0.1649);fill-opacity:1;"/>
<path d="M197.983 109.64L208.104 124.008L220.712 112.628L227.84 129.263L242.302 121.442L246.078 139.51L261.67 135.64L261.905 154.235L276.448 154.509L274.526 172.7L290.014 177.105L283.31 193.978L297.568 202.293L287.814 217.003L300.129 228.811L287.814 240.62L297.568 255.329L283.31 263.645L290.014 280.518L274.526 284.923L277.844 303.113L261.905 303.387L261.67 321.983L246.078 318.112L242.302 336.181L227.84 328.359L220.712 344.995L208.104 333.615L197.983 347.982L187.861 333.615L175.253 344.995L168.125 328.359L153.663 336.181L149.887 318.112L134.295 321.983L134.06 303.387L118.121 303.113L121.439 284.923L105.952 280.518L112.656 263.645L98.397 255.329L108.151 240.62L95.8359 228.811L108.151 217.003L98.397 202.293L112.656 193.978L105.952 177.105L121.439 172.7L118.121 154.509L134.06 154.235L134.295 135.64L149.887 139.51L153.663 121.442L168.125 129.263L175.253 112.628L187.861 124.008L197.983 109.64Z" fill="#414141" style="fill:#414141;fill:color(display-p3 0.2567 0.2567 0.2567);fill-opacity:1;"/>
<path d="M164.294 180.362C158.051 172.416 164.159 162.718 173.563 154.993C187.4 143.626 207.418 142.293 222.146 152.481C234.294 160.885 242.475 172.547 236.223 180.362C228.1 190.516 209.144 186.849 200.682 183.747C194.758 187.413 173.601 192.209 164.294 180.362Z" fill="#333333" style="fill:#333333;fill:color(display-p3 0.2000 0.2000 0.2000);fill-opacity:1;"/>
<path d="M184.572 175.273C184.572 170.694 188.284 166.982 192.863 166.982H206.682C211.261 166.982 214.973 170.694 214.973 175.273C214.973 179.853 211.261 183.565 206.682 183.565H192.863C188.284 183.565 184.572 179.853 184.572 175.273Z" fill="#242424" style="fill:#242424;fill:color(display-p3 0.1401 0.1401 0.1401);fill-opacity:1;"/>
<path d="M199.083 172.002C199.083 170.946 199.939 170.089 200.996 170.089H206.842C207.899 170.089 208.756 170.946 208.756 172.002V172.321C208.756 173.378 207.899 174.235 206.842 174.235H200.996C199.939 174.235 199.083 173.378 199.083 172.321V172.002Z" fill="#515151" style="fill:#515151;fill:color(display-p3 0.3177 0.3177 0.3177);fill-opacity:1;"/>
<path d="M184.572 157.634C184.572 163.361 180.625 168.004 175.757 168.004C170.889 168.004 166.942 163.361 166.942 157.634C166.942 151.906 170.889 147.263 175.757 147.263C180.625 147.263 184.572 151.906 184.572 157.634Z" fill="#202020" style="fill:#202020;fill:color(display-p3 0.1257 0.1257 0.1257);fill-opacity:1;"/>
<path d="M179.386 154.004C179.386 155.436 178.226 156.596 176.794 156.596C175.362 156.596 174.201 155.436 174.201 154.004C174.201 152.572 175.362 151.411 176.794 151.411C178.226 151.411 179.386 152.572 179.386 154.004Z" fill="#BDBDBD" style="fill:#BDBDBD;fill:color(display-p3 0.7402 0.7402 0.7402);fill-opacity:1;"/>
<path d="M232.277 157.634C232.277 163.361 228.33 168.004 223.462 168.004C218.593 168.004 214.646 163.361 214.646 157.634C214.646 151.906 218.593 147.263 223.462 147.263C228.33 147.263 232.277 151.906 232.277 157.634Z" fill="#202020" style="fill:#202020;fill:color(display-p3 0.1257 0.1257 0.1257);fill-opacity:1;"/>
<path d="M228.128 154.004C228.128 155.436 226.967 156.596 225.536 156.596C224.104 156.596 222.943 155.436 222.943 154.004C222.943 152.572 224.104 151.411 225.536 151.411C226.967 151.411 228.128 152.572 228.128 154.004Z" fill="#BDBDBD" style="fill:#BDBDBD;fill:color(display-p3 0.7402 0.7402 0.7402);fill-opacity:1;"/>
<path fill-rule="evenodd" clip-rule="evenodd" d="M202.936 187.907C202.148 187.44 200.737 187.536 199.308 188.42C195.9 190.528 190.978 191.717 186.389 192.003C184.068 192.148 181.75 192.067 179.66 191.725C177.598 191.386 175.616 190.77 174.076 189.743C173.114 189.102 172.855 187.802 173.496 186.84C174.137 185.878 175.437 185.618 176.399 186.259C177.253 186.829 178.587 187.305 180.338 187.593C182.063 187.876 184.059 187.954 186.129 187.824C190.322 187.563 194.491 186.476 197.106 184.859C199.147 183.597 202.349 182.692 205.072 184.306C210.461 187.502 216.933 190.339 224.588 186.163C225.603 185.61 226.875 185.984 227.428 186.999C227.982 188.014 227.608 189.285 226.593 189.839C216.863 195.146 208.58 191.254 202.936 187.907Z" fill="#1C1C1C" style="fill:#1C1C1C;fill:color(display-p3 0.1116 0.1116 0.1116);fill-opacity:1;"/>
<path d="M254.692 112.964C230.449 101.797 221.156 126.922 219.54 140.881C246.207 136.415 262.974 155.771 268.025 166.007C274.328 133.995 271.82 120.854 254.692 112.964Z" fill="#414141" style="fill:#414141;fill:color(display-p3 0.2549 0.2549 0.2549);fill-opacity:1;"/>
<path d="M140.765 112.964C165.007 101.797 174.3 126.923 175.917 140.881C149.25 136.415 132.482 155.771 127.432 166.007C121.129 133.995 123.637 120.854 140.765 112.964Z" fill="#414141" style="fill:#414141;fill:color(display-p3 0.2549 0.2549 0.2549);fill-opacity:1;"/>
<g opacity="0.5">
<path fill-rule="evenodd" clip-rule="evenodd" d="M114.083 236.907C114.083 235.902 114.898 235.087 115.903 235.087H125.653C126.657 235.087 127.472 235.902 127.472 236.907C127.472 237.912 126.657 238.727 125.653 238.727H115.903C114.898 238.727 114.083 237.912 114.083 236.907Z" fill="#626262" style="fill:#626262;fill:color(display-p3 0.3842 0.3842 0.3842);fill-opacity:1;"/>
<path fill-rule="evenodd" clip-rule="evenodd" d="M283.128 236.907C283.128 235.902 282.314 235.087 281.309 235.087H271.559C270.554 235.087 269.74 235.902 269.74 236.907C269.74 237.912 270.554 238.727 271.559 238.727H281.309C282.314 238.727 283.128 237.912 283.128 236.907Z" fill="#626262" style="fill:#626262;fill:color(display-p3 0.3842 0.3842 0.3842);fill-opacity:1;"/>
<path fill-rule="evenodd" clip-rule="evenodd" d="M129.518 231.074C129.518 230.109 130.299 229.327 131.264 229.327H133.492C134.456 229.327 135.238 230.109 135.238 231.074C135.238 232.038 134.456 232.82 133.492 232.82H131.264C130.299 232.82 129.518 232.038 129.518 231.074Z" fill="#626262" style="fill:#626262;fill:color(display-p3 0.3842 0.3842 0.3842);fill-opacity:1;"/>
<path fill-rule="evenodd" clip-rule="evenodd" d="M267.694 231.074C267.694 230.109 266.913 229.327 265.948 229.327H263.72C262.756 229.327 261.974 230.109 261.974 231.074C261.974 232.038 262.756 232.82 263.72 232.82H265.948C266.913 232.82 267.694 232.038 267.694 231.074Z" fill="#626262" style="fill:#626262;fill:color(display-p3 0.3842 0.3842 0.3842);fill-opacity:1;"/>
<path fill-rule="evenodd" clip-rule="evenodd" d="M220.266 235.741C221.149 235.263 221.52 234.138 221.093 233.228L220.048 231.001C219.621 230.092 218.559 229.742 217.675 230.22C216.791 230.699 216.421 231.824 216.848 232.734L217.892 234.96C218.319 235.87 219.382 236.22 220.266 235.741Z" fill="#626262" style="fill:#626262;fill:color(display-p3 0.3842 0.3842 0.3842);fill-opacity:1;"/>
<path fill-rule="evenodd" clip-rule="evenodd" d="M175.841 231.549C175.027 231.005 173.923 231.27 173.375 232.142C173.246 232.348 173.113 232.558 172.977 232.773C171.58 234.984 169.875 237.68 169.03 240.432C168.727 241.42 169.238 242.451 170.171 242.735C171.105 243.019 172.107 242.449 172.41 241.461C173.091 239.244 174.509 236.995 175.966 234.682C176.085 234.493 176.205 234.303 176.324 234.113C176.872 233.241 176.656 232.093 175.841 231.549Z" fill="#626262" style="fill:#626262;fill:color(display-p3 0.3842 0.3842 0.3842);fill-opacity:1;"/>
<path fill-rule="evenodd" clip-rule="evenodd" d="M222.027 224.834C222.448 223.921 223.528 223.522 224.441 223.942C226.251 224.775 227.765 226.311 229.003 227.567C229.103 227.668 229.2 227.766 229.296 227.863C230.723 229.303 231.855 230.348 233.099 230.793C234.045 231.132 234.537 232.173 234.198 233.119C233.86 234.065 232.818 234.558 231.872 234.219C229.729 233.452 228.046 231.772 226.711 230.425C226.669 230.382 226.627 230.34 226.585 230.298C225.175 228.874 224.104 227.793 222.92 227.248C222.007 226.828 221.607 225.747 222.027 224.834Z" fill="#626262" style="fill:#626262;fill:color(display-p3 0.3842 0.3842 0.3842);fill-opacity:1;"/>
<path fill-rule="evenodd" clip-rule="evenodd" d="M236.091 222.176C236.172 221.174 237.049 220.427 238.051 220.508C239.443 220.62 240.72 221.062 241.782 221.429C242.044 221.52 242.292 221.606 242.527 221.681C243.483 221.989 244.009 223.015 243.7 223.971C243.392 224.928 242.367 225.453 241.41 225.145C241.022 225.02 240.677 224.902 240.358 224.793C239.371 224.455 238.649 224.207 237.759 224.136C236.757 224.055 236.01 223.177 236.091 222.176Z" fill="#626262" style="fill:#626262;fill:color(display-p3 0.3842 0.3842 0.3842);fill-opacity:1;"/>
<path fill-rule="evenodd" clip-rule="evenodd" d="M241.35 238.544C241.702 237.603 242.75 237.124 243.692 237.476C246.877 238.666 249.687 240.75 252.23 242.635C252.812 243.066 253.38 243.487 253.935 243.885C254.752 244.47 254.94 245.606 254.355 246.424C253.77 247.241 252.634 247.429 251.817 246.844C251.152 246.368 250.51 245.893 249.882 245.429C247.369 243.573 245.075 241.878 242.418 240.885C241.477 240.533 240.999 239.485 241.35 238.544Z" fill="#626262" style="fill:#626262;fill:color(display-p3 0.3842 0.3842 0.3842);fill-opacity:1;"/>
<path fill-rule="evenodd" clip-rule="evenodd" d="M234.507 207.136C234.859 206.195 235.907 205.717 236.848 206.068C240.033 207.258 242.844 209.342 245.387 211.227C245.969 211.658 246.537 212.079 247.092 212.477C247.909 213.062 248.097 214.198 247.512 215.016C246.927 215.833 245.79 216.021 244.973 215.436C244.309 214.96 243.667 214.485 243.039 214.021C240.526 212.165 238.232 210.47 235.575 209.477C234.634 209.126 234.155 208.077 234.507 207.136Z" fill="#626262" style="fill:#626262;fill:color(display-p3 0.3842 0.3842 0.3842);fill-opacity:1;"/>
<path fill-rule="evenodd" clip-rule="evenodd" d="M160.773 236.714C161.508 237.399 161.549 238.55 160.864 239.285C160.452 239.729 160.019 240.04 159.71 240.259C159.691 240.272 159.672 240.286 159.653 240.299C159.35 240.514 159.185 240.631 159.03 240.779C158.303 241.473 157.151 241.446 156.457 240.719C155.763 239.992 155.79 238.841 156.517 238.147C156.876 237.803 157.259 237.534 157.522 237.348C157.552 237.328 157.579 237.308 157.605 237.29C157.898 237.083 158.063 236.954 158.201 236.806C158.886 236.07 160.037 236.029 160.773 236.714Z" fill="#626262" style="fill:#626262;fill:color(display-p3 0.3842 0.3842 0.3842);fill-opacity:1;"/>
<path fill-rule="evenodd" clip-rule="evenodd" d="M199.216 233.818C200.22 233.818 201.035 234.632 201.035 235.637V247.915C201.035 248.92 200.22 249.734 199.216 249.734C198.211 249.734 197.396 248.92 197.396 247.915V235.637C197.396 234.632 198.211 233.818 199.216 233.818Z" fill="#626262" style="fill:#626262;fill:color(display-p3 0.3842 0.3842 0.3842);fill-opacity:1;"/>
<path fill-rule="evenodd" clip-rule="evenodd" d="M192.367 202.411C193.372 202.411 194.187 203.226 194.187 204.23V216.508C194.187 217.513 193.372 218.327 192.367 218.327C191.362 218.327 190.547 217.513 190.547 216.508V204.23C190.547 203.226 191.362 202.411 192.367 202.411Z" fill="#626262" style="fill:#626262;fill:color(display-p3 0.3842 0.3842 0.3842);fill-opacity:1;"/>
<path fill-rule="evenodd" clip-rule="evenodd" d="M186.259 238.486C187.113 239.016 187.376 240.137 186.846 240.991C185.317 243.454 183.644 246.747 183.274 249.333C183.131 250.328 182.209 251.019 181.215 250.876C180.22 250.734 179.529 249.812 179.671 248.817C180.156 245.433 182.189 241.593 183.754 239.072C184.284 238.218 185.406 237.956 186.259 238.486Z" fill="#626262" style="fill:#626262;fill:color(display-p3 0.3842 0.3842 0.3842);fill-opacity:1;"/>
<path fill-rule="evenodd" clip-rule="evenodd" d="M179.414 207.078C180.268 207.608 180.53 208.73 180.001 209.583C178.472 212.046 176.799 215.339 176.429 217.925C176.286 218.92 175.364 219.611 174.369 219.468C173.375 219.326 172.684 218.404 172.826 217.409C173.311 214.025 175.344 210.186 176.909 207.664C177.439 206.81 178.56 206.548 179.414 207.078Z" fill="#626262" style="fill:#626262;fill:color(display-p3 0.3842 0.3842 0.3842);fill-opacity:1;"/>
<path fill-rule="evenodd" clip-rule="evenodd" d="M183.81 215.849C184.815 215.849 185.63 216.664 185.63 217.669V219.724C185.63 220.729 184.815 221.544 183.81 221.544C182.805 221.544 181.991 220.729 181.991 219.724V217.669C181.991 216.664 182.805 215.849 183.81 215.849Z" fill="#626262" style="fill:#626262;fill:color(display-p3 0.3842 0.3842 0.3842);fill-opacity:1;"/>
<path fill-rule="evenodd" clip-rule="evenodd" d="M208.264 234.925C209.269 234.925 210.083 235.74 210.083 236.744V241.677C210.083 242.682 209.269 243.497 208.264 243.497C207.259 243.497 206.444 242.682 206.444 241.677V236.744C206.444 235.74 207.259 234.925 208.264 234.925Z" fill="#626262" style="fill:#626262;fill:color(display-p3 0.3842 0.3842 0.3842);fill-opacity:1;"/>
<path fill-rule="evenodd" clip-rule="evenodd" d="M201.418 203.517C202.423 203.517 203.238 204.332 203.238 205.337V210.269C203.238 211.274 202.423 212.089 201.418 212.089C200.413 212.089 199.599 211.274 199.599 210.269V205.337C199.599 204.332 200.413 203.517 201.418 203.517Z" fill="#626262" style="fill:#626262;fill:color(display-p3 0.3842 0.3842 0.3842);fill-opacity:1;"/>
<path fill-rule="evenodd" clip-rule="evenodd" d="M214.185 201.573C215.128 201.226 216.173 201.71 216.52 202.653C217.069 204.148 218.13 205.179 219.573 206.583C219.683 206.69 219.796 206.8 219.911 206.912C220.63 207.614 220.643 208.766 219.941 209.485C219.239 210.204 218.087 210.218 217.368 209.515C217.238 209.388 217.103 209.259 216.966 209.126C215.617 207.826 213.955 206.223 213.104 203.909C212.758 202.965 213.241 201.92 214.185 201.573Z" fill="#626262" style="fill:#626262;fill:color(display-p3 0.3842 0.3842 0.3842);fill-opacity:1;"/>
<path fill-rule="evenodd" clip-rule="evenodd" d="M208.971 209.004C209.976 209.004 210.791 209.818 210.791 210.823C210.791 212.21 211.104 213.447 211.572 214.77C211.76 215.302 211.963 215.823 212.181 216.381C212.24 216.532 212.3 216.686 212.361 216.844C212.642 217.566 212.934 218.343 213.191 219.17C213.489 220.13 212.952 221.149 211.993 221.447C211.033 221.745 210.013 221.208 209.716 220.248C209.498 219.546 209.243 218.866 208.969 218.16C208.914 218.02 208.859 217.878 208.802 217.733C208.582 217.168 208.35 216.576 208.141 215.983C207.605 214.467 207.152 212.79 207.152 210.823C207.152 209.818 207.967 209.004 208.971 209.004Z" fill="#626262" style="fill:#626262;fill:color(display-p3 0.3842 0.3842 0.3842);fill-opacity:1;"/>
<path fill-rule="evenodd" clip-rule="evenodd" d="M199.874 219.221C200.879 219.221 201.693 220.036 201.693 221.041V225.484C201.693 226.489 200.879 227.303 199.874 227.303C198.869 227.303 198.054 226.489 198.054 225.484V221.041C198.054 220.036 198.869 219.221 199.874 219.221Z" fill="#626262" style="fill:#626262;fill:color(display-p3 0.3842 0.3842 0.3842);fill-opacity:1;"/>
<path fill-rule="evenodd" clip-rule="evenodd" d="M243.493 232.5C243.493 231.535 244.275 230.753 245.239 230.753C246.975 230.753 248.289 230.831 250.043 231.459C250.951 231.784 251.423 232.784 251.098 233.692C250.773 234.6 249.773 235.072 248.865 234.747C247.662 234.317 246.812 234.246 245.239 234.246C244.275 234.246 243.493 233.464 243.493 232.5Z" fill="#626262" style="fill:#626262;fill:color(display-p3 0.3842 0.3842 0.3842);fill-opacity:1;"/>
<path fill-rule="evenodd" clip-rule="evenodd" d="M236.65 201.093C236.65 200.129 237.432 199.347 238.397 199.347C240.133 199.347 241.446 199.424 243.2 200.052C244.108 200.378 244.58 201.377 244.255 202.285C243.93 203.193 242.931 203.666 242.023 203.341C240.819 202.91 239.969 202.839 238.397 202.839C237.432 202.839 236.65 202.057 236.65 201.093Z" fill="#626262" style="fill:#626262;fill:color(display-p3 0.3842 0.3842 0.3842);fill-opacity:1;"/>
</g>
<path opacity="0.5" fill-rule="evenodd" clip-rule="evenodd" d="M153.538 209.455C154.209 210.2 154.148 211.347 153.404 212.017C151.961 213.316 150.439 214.738 149.409 216.002C148.776 216.778 147.634 216.895 146.857 216.262C146.08 215.629 145.963 214.486 146.596 213.709C147.826 212.2 149.546 210.607 150.976 209.32C151.721 208.65 152.868 208.71 153.538 209.455Z" fill="#626262" style="fill:#626262;fill:color(display-p3 0.3842 0.3842 0.3842);fill-opacity:1;"/>
<path opacity="0.5" fill-rule="evenodd" clip-rule="evenodd" d="M137.766 196.675C137.967 197.657 137.334 198.616 136.353 198.817C135.789 198.932 135.2 199.114 134.534 199.335C134.403 199.379 134.268 199.424 134.129 199.471C133.594 199.651 133.006 199.848 132.428 200.011C132.022 200.125 131.484 200.221 131.017 200.298C130.817 200.332 130.626 200.363 130.44 200.393C130.166 200.437 129.907 200.479 129.657 200.522C129.207 200.965 128.538 201.159 127.888 200.974C127.761 200.938 127.562 200.875 127.356 200.763L127.354 200.762C127.234 200.697 126.652 200.382 126.422 199.648C126.112 198.659 126.689 197.95 126.945 197.713C127.195 197.482 127.457 197.364 127.563 197.318C127.98 197.139 128.575 197.029 128.961 196.961C129.251 196.909 129.59 196.854 129.912 196.802C130.09 196.773 130.263 196.745 130.42 196.719C130.913 196.637 131.259 196.57 131.445 196.518C131.928 196.382 132.402 196.223 132.924 196.047C133.075 195.997 133.231 195.945 133.391 195.891C134.076 195.664 134.837 195.423 135.625 195.262C136.606 195.061 137.565 195.694 137.766 196.675Z" fill="#626262" style="fill:#626262;fill:color(display-p3 0.3842 0.3842 0.3842);fill-opacity:1;"/>
<path opacity="0.5" fill-rule="evenodd" clip-rule="evenodd" d="M162.101 194.352C162.633 195.2 162.377 196.32 161.528 196.853C161.196 197.061 160.876 197.258 160.567 197.448C159.462 198.127 158.487 198.726 157.525 199.512C156.749 200.146 155.606 200.031 154.972 199.255C154.338 198.479 154.453 197.336 155.229 196.702C156.399 195.746 157.639 194.986 158.771 194.291C159.055 194.117 159.332 193.947 159.6 193.779C160.448 193.246 161.568 193.503 162.101 194.352Z" fill="#626262" style="fill:#626262;fill:color(display-p3 0.3842 0.3842 0.3842);fill-opacity:1;"/>
<path opacity="0.5" fill-rule="evenodd" clip-rule="evenodd" d="M166.485 204.698C167.469 204.884 168.116 205.834 167.93 206.818C167.036 211.535 165.74 216.754 163.596 221.222C163.162 222.126 162.079 222.506 161.175 222.073C160.272 221.639 159.891 220.555 160.325 219.652C162.264 215.611 163.49 210.759 164.365 206.143C164.551 205.158 165.5 204.511 166.485 204.698Z" fill="#626262" style="fill:#626262;fill:color(display-p3 0.3842 0.3842 0.3842);fill-opacity:1;"/>
<path opacity="0.5" fill-rule="evenodd" clip-rule="evenodd" d="M256.165 219.041C256.165 217.885 257.102 216.947 258.258 216.947H265.236C266.392 216.947 267.33 217.885 267.33 219.041C267.33 220.197 266.392 221.134 265.236 221.134H258.258C257.102 221.134 256.165 220.197 256.165 219.041Z" fill="#626262" style="fill:#626262;fill:color(display-p3 0.3842 0.3842 0.3842);fill-opacity:1;"/>
<path opacity="0.5" fill-rule="evenodd" clip-rule="evenodd" d="M136.978 216.419C136.596 215.327 135.402 214.752 134.31 215.133L127.723 217.437C126.632 217.818 126.057 219.012 126.438 220.104C126.82 221.195 128.014 221.771 129.105 221.389L135.692 219.086C136.784 218.704 137.359 217.51 136.978 216.419Z" fill="#626262" style="fill:#626262;fill:color(display-p3 0.3842 0.3842 0.3842);fill-opacity:1;"/>
<path opacity="0.5" fill-rule="evenodd" clip-rule="evenodd" d="M152.243 224.18C151.488 223.304 150.166 223.206 149.29 223.96L144.004 228.515C143.128 229.27 143.029 230.592 143.784 231.468C144.539 232.343 145.861 232.442 146.737 231.687L152.023 227.132C152.899 226.378 152.998 225.056 152.243 224.18Z" fill="#626262" style="fill:#626262;fill:color(display-p3 0.3842 0.3842 0.3842);fill-opacity:1;"/>
<path opacity="0.5" fill-rule="evenodd" clip-rule="evenodd" d="M255.052 195.221C255.105 194.221 255.958 193.452 256.959 193.504C261.18 193.725 264.843 194.831 268.439 195.917C268.94 196.069 269.44 196.22 269.94 196.368C270.901 196.652 271.449 197.662 271.165 198.623C270.88 199.584 269.87 200.132 268.91 199.847C268.388 199.692 267.876 199.538 267.373 199.387C263.748 198.295 260.523 197.324 256.769 197.128C255.769 197.076 255 196.222 255.052 195.221Z" fill="#626262" style="fill:#626262;fill:color(display-p3 0.3842 0.3842 0.3842);fill-opacity:1;"/>
<path opacity="0.5" fill-rule="evenodd" clip-rule="evenodd" d="M266.212 209.272C266.212 208.27 267.025 207.458 268.027 207.458H273.609C274.611 207.458 275.424 208.27 275.424 209.272C275.424 210.274 274.611 211.086 273.609 211.086H268.027C267.025 211.086 266.212 210.274 266.212 209.272Z" fill="#626262" style="fill:#626262;fill:color(display-p3 0.3842 0.3842 0.3842);fill-opacity:1;"/>
<path opacity="0.5" fill-rule="evenodd" clip-rule="evenodd" d="M124.269 210.513C123.938 209.567 122.903 209.069 121.957 209.399L116.688 211.242C115.742 211.573 115.243 212.608 115.574 213.554C115.904 214.499 116.939 214.998 117.885 214.667L123.155 212.825C124.101 212.494 124.6 211.459 124.269 210.513Z" fill="#626262" style="fill:#626262;fill:color(display-p3 0.3842 0.3842 0.3842);fill-opacity:1;"/>
</g>
<path d="M256.422 238.546C254.871 244.173 247.573 247.071 240.12 245.018C232.667 242.965 227.882 236.738 229.432 231.111C230.982 225.483 238.281 222.585 245.734 224.639C253.187 226.692 257.972 232.918 256.422 238.546Z" fill="#7C7C7C" style="fill:#7C7C7C;fill:color(display-p3 0.4882 0.4882 0.4882);fill-opacity:1;"/>
<path d="M234.955 239.426C233.412 241.577 230.779 242.329 229.073 241.106C227.367 239.883 227.235 237.147 228.777 234.996C230.32 232.845 232.953 232.092 234.659 233.316C236.365 234.539 236.497 237.274 234.955 239.426Z" fill="#7C7C7C" style="fill:#7C7C7C;fill:color(display-p3 0.4882 0.4882 0.4882);fill-opacity:1;"/>
<path d="M252.407 244.79C251.241 247.167 248.769 248.345 246.884 247.421C244.999 246.497 244.416 243.821 245.581 241.444C246.747 239.067 249.219 237.889 251.104 238.813C252.989 239.737 253.572 242.413 252.407 244.79Z" fill="#7C7C7C" style="fill:#7C7C7C;fill:color(display-p3 0.4882 0.4882 0.4882);fill-opacity:1;"/>
<path d="M241.162 242.231C240.047 244.632 237.415 245.775 235.282 244.785C233.15 243.795 232.325 241.046 233.44 238.645C234.555 236.244 237.187 235.1 239.32 236.09C241.452 237.081 242.277 239.83 241.162 242.231Z" fill="#7C7C7C" style="fill:#7C7C7C;fill:color(display-p3 0.4882 0.4882 0.4882);fill-opacity:1;"/>
<path d="M246.594 243.864C245.679 246.348 243.27 247.748 241.213 246.99C239.156 246.233 238.23 243.605 239.145 241.121C240.06 238.637 242.469 237.237 244.526 237.995C246.583 238.752 247.509 241.38 246.594 243.864Z" fill="#7C7C7C" style="fill:#7C7C7C;fill:color(display-p3 0.4882 0.4882 0.4882);fill-opacity:1;"/>
<path d="M214.134 39.5742C214.159 39.6364 214.171 39.6738 214.171 39.6862C214.184 39.6987 214.202 39.7484 214.227 39.8356C214.29 39.9725 214.333 40.1405 214.358 40.3396C214.383 40.5387 214.402 40.7254 214.414 40.8996C214.414 41.1485 214.377 41.3974 214.302 41.6463C214.227 41.8827 214.128 42.0943 214.003 42.2809C213.916 42.4178 213.829 42.5298 213.742 42.617C213.655 42.6916 213.543 42.7787 213.406 42.8783C213.331 42.9156 213.232 42.9592 213.107 43.009C212.995 43.0463 212.865 43.0836 212.715 43.121C212.491 43.1583 212.261 43.1894 212.025 43.2143C211.788 43.2267 211.521 43.1645 211.222 43.0276L210.867 42.729C210.643 42.6045 210.463 42.4614 210.326 42.2996C210.201 42.1254 210.083 41.9512 209.971 41.7769L209.729 41.4783L209.467 41.4036C209.355 41.2791 209.262 41.2294 209.187 41.2543C209.113 41.2791 209.019 41.2605 208.907 41.1983C208.77 41.1734 208.609 41.1485 208.422 41.1236C208.235 41.0987 208.061 41.1174 207.899 41.1796C207.775 41.2169 207.669 41.2791 207.582 41.3663C207.507 41.4409 207.433 41.528 207.358 41.6276C207.308 41.6898 207.258 41.7769 207.209 41.8889C207.171 41.9885 207.146 42.0694 207.134 42.1316C207.121 42.1565 207.109 42.2374 207.097 42.3743C207.084 42.4987 207.078 42.6854 207.078 42.9343L206.126 42.9716C206.101 42.8472 206.082 42.7414 206.07 42.6543C206.07 42.5547 206.076 42.4614 206.088 42.3743C206.088 42.2872 206.095 42.2001 206.107 42.1129C206.132 42.0258 206.157 41.9201 206.182 41.7956C206.207 41.696 206.238 41.5529 206.275 41.3663C206.312 41.1796 206.375 41.0365 206.462 40.9369L206.649 40.6569C206.748 40.5698 206.81 40.5138 206.835 40.4889C206.873 40.464 206.897 40.4454 206.91 40.4329C206.922 40.4329 206.941 40.4267 206.966 40.4142C207.003 40.3893 207.078 40.3271 207.19 40.2276C207.426 40.0409 207.688 39.9289 207.974 39.8916C208.273 39.8542 208.596 39.8418 208.945 39.8542L209.337 39.9102L209.598 40.0036C209.673 40.0409 209.747 40.072 209.822 40.0969C209.897 40.1218 209.984 40.1591 210.083 40.2089C210.17 40.2711 210.276 40.3582 210.401 40.4702C210.525 40.5698 210.674 40.7129 210.849 40.8996C210.886 40.9369 210.917 40.9743 210.942 41.0116C210.979 41.0489 211.01 41.0863 211.035 41.1236C211.135 41.2231 211.259 41.3476 211.409 41.4969C211.57 41.6463 211.701 41.752 211.801 41.8143C211.938 41.9263 212.087 41.9823 212.249 41.9823C212.423 41.9823 212.578 41.9698 212.715 41.9449C212.753 41.9325 212.802 41.9201 212.865 41.9076C212.939 41.8952 213.014 41.8765 213.089 41.8516C213.188 41.8143 213.269 41.7396 213.331 41.6276C213.394 41.5032 213.437 41.3663 213.462 41.2169C213.499 40.9805 213.499 40.7316 213.462 40.4702C213.437 40.3085 213.418 40.1716 213.406 40.0596C213.394 39.9476 213.356 39.8107 213.294 39.6489L214.134 39.5742Z" fill="#9B9B9B" style="fill:#9B9B9B;fill:color(display-p3 0.6096 0.6096 0.6096);fill-opacity:1;"/>
<path d="M196.722 32.2193C196.684 32.2442 196.634 32.2567 196.572 32.2567C196.51 32.2567 196.454 32.2567 196.404 32.2567C196.379 32.4931 196.373 32.8602 196.386 33.358C196.41 33.8558 196.435 34.3785 196.46 34.9261C196.485 35.4861 196.504 36.015 196.516 36.5128C196.541 36.9981 196.554 37.3466 196.554 37.5581C196.628 37.6079 196.709 37.639 196.796 37.6515C196.896 37.6639 196.946 37.7199 196.946 37.8195C197.095 37.7821 197.269 37.7697 197.468 37.7821C197.68 37.7821 197.879 37.7946 198.066 37.8195C198.178 37.8195 198.395 37.8195 198.719 37.8195C199.055 37.8195 199.41 37.8132 199.783 37.8008C200.156 37.7884 200.499 37.7759 200.81 37.7635C201.133 37.751 201.345 37.7448 201.444 37.7448C201.619 37.7324 201.755 37.7199 201.855 37.7075C201.967 37.695 202.042 37.6328 202.079 37.5208C202.116 37.4461 202.147 37.2968 202.172 37.0728C202.197 36.8488 202.216 36.6061 202.228 36.3448C202.241 36.0959 202.247 35.8532 202.247 35.6168C202.26 35.3803 202.266 35.2123 202.266 35.1127C202.266 34.9634 202.278 34.7518 202.303 34.4781C202.34 34.2043 202.372 33.9243 202.396 33.638C202.409 33.3643 202.409 33.1091 202.396 32.8727C202.384 32.6362 202.334 32.4807 202.247 32.406C202.172 32.4433 202.073 32.462 201.948 32.462C201.911 32.462 201.849 32.4682 201.762 32.4807C201.675 32.4807 201.581 32.4869 201.482 32.4993C201.382 32.5118 201.295 32.5242 201.22 32.5367C201.146 32.5491 201.108 32.5491 201.108 32.5367C201.108 32.4745 201.096 32.4371 201.071 32.4247C201.059 32.4122 201.003 32.4247 200.903 32.462C200.891 32.4869 200.872 32.4869 200.847 32.462C200.835 32.4371 200.822 32.4122 200.81 32.3873C200.797 32.3625 200.785 32.3438 200.772 32.3313C200.76 32.3065 200.754 32.3065 200.754 32.3313C200.729 32.406 200.716 32.5802 200.716 32.854C200.729 33.1278 200.741 33.4203 200.754 33.7314C200.766 34.0425 200.772 34.3349 200.772 34.6087C200.772 34.8701 200.766 35.0381 200.754 35.1127C200.579 35.1003 200.324 35.0941 199.988 35.0941C199.665 35.0941 199.335 35.0941 198.999 35.0941C198.651 35.0941 198.321 35.0941 198.01 35.0941C197.711 35.0941 197.493 35.0879 197.356 35.0754C197.356 34.951 197.35 34.7581 197.338 34.4967C197.338 34.2229 197.338 33.9367 197.338 33.638C197.325 33.3394 197.306 33.0594 197.282 32.798C197.269 32.5367 197.244 32.3562 197.207 32.2567C197.194 32.2193 197.163 32.2007 197.114 32.2007C197.064 32.1882 197.008 32.182 196.946 32.182L196.722 32.2193ZM198.719 42.2622L198.607 39.1822C198.632 38.9706 198.638 38.815 198.626 38.7155C198.613 38.6035 198.613 38.4915 198.626 38.3795C198.688 38.367 198.75 38.367 198.812 38.3795C198.887 38.3919 198.999 38.3982 199.148 38.3982C199.248 38.3982 199.379 38.3919 199.54 38.3795C199.715 38.3546 199.833 38.3546 199.895 38.3795C199.982 38.3795 200.044 38.4044 200.082 38.4542C200.131 38.5039 200.175 38.5599 200.212 38.6222C200.237 38.6844 200.256 38.7404 200.268 38.7902C200.281 38.8399 200.299 38.8711 200.324 38.8835C200.349 39.0079 200.38 39.1324 200.418 39.2568C200.443 39.3564 200.461 39.4746 200.474 39.6115C200.499 39.736 200.517 39.8542 200.53 39.9662L200.511 40.4515V41.9076C200.523 42.1938 200.53 42.368 200.53 42.4302C200.53 42.4925 200.536 42.536 200.548 42.5609C200.548 42.5982 200.548 42.6542 200.548 42.7289C200.561 42.7911 200.579 42.9716 200.604 43.2703C200.741 43.2578 200.878 43.2516 201.015 43.2516C201.164 43.2392 201.32 43.2329 201.482 43.2329C201.718 43.2329 201.899 43.2329 202.023 43.2329C202.16 43.2329 202.284 43.2329 202.396 43.2329C202.508 43.2454 202.62 43.2578 202.732 43.2703C202.857 43.2827 203.025 43.2952 203.236 43.3076C203.585 43.3076 203.896 43.3138 204.17 43.3263C204.456 43.3263 204.705 43.4134 204.916 43.5876C204.892 43.6125 204.867 43.6312 204.842 43.6436C204.792 43.6685 204.748 43.6809 204.711 43.6809C204.711 43.7058 204.674 43.7432 204.599 43.7929C204.537 43.8303 204.487 43.8676 204.45 43.9049C204.213 43.9298 203.952 43.9423 203.666 43.9423C203.38 43.9298 203 43.9485 202.527 43.9983C202.39 43.9858 202.104 43.9734 201.668 43.9609C201.245 43.9485 200.766 43.9547 200.231 43.9796C199.895 44.0045 199.559 44.0294 199.223 44.0543C198.887 44.0792 198.576 44.1041 198.29 44.1289C198.003 44.1538 197.748 44.1725 197.524 44.185C197.313 44.1974 197.157 44.2036 197.058 44.2036C196.697 44.2036 196.367 44.2161 196.068 44.241C195.782 44.2534 195.477 44.2845 195.154 44.3343C195.042 44.3592 194.961 44.3778 194.911 44.3903C194.874 44.3903 194.842 44.3841 194.818 44.3716C194.793 44.3716 194.768 44.3592 194.743 44.3343C194.718 44.3094 194.668 44.2783 194.594 44.241C194.569 44.1041 194.575 43.9672 194.612 43.8303C194.662 43.6809 194.699 43.5565 194.724 43.4569C194.986 43.432 195.197 43.4196 195.359 43.4196C195.521 43.4072 195.676 43.4009 195.826 43.4009C195.962 43.4009 196.118 43.4009 196.292 43.4009C196.466 43.3885 196.69 43.3698 196.964 43.3449H197.095C197.12 43.32 197.188 43.3138 197.3 43.3263C197.412 43.3263 197.531 43.3325 197.655 43.3449C197.779 43.3698 197.891 43.3885 197.991 43.4009C198.091 43.4134 198.147 43.4134 198.159 43.4009C198.259 43.4009 198.371 43.4072 198.495 43.4196C198.632 43.4196 198.763 43.432 198.887 43.4569C198.787 43.2952 198.744 43.1147 198.756 42.9156C198.769 42.704 198.756 42.4862 198.719 42.2622ZM198.831 46.425C198.893 46.2383 198.999 46.0766 199.148 45.9397C199.298 45.7903 199.466 45.6659 199.652 45.5663C199.827 45.4792 200.007 45.417 200.194 45.3796C200.393 45.3423 200.573 45.3423 200.735 45.3796C200.76 45.4419 200.76 45.473 200.735 45.473C200.723 45.4605 200.741 45.4668 200.791 45.4916C200.94 45.5539 201.046 45.6099 201.108 45.6597C201.183 45.7094 201.307 45.7903 201.482 45.9023C201.594 46.089 201.693 46.257 201.78 46.4063C201.88 46.5432 201.998 46.705 202.135 46.8917C202.11 47.0286 202.091 47.097 202.079 47.097C202.079 47.1095 202.048 47.0784 201.986 47.0037C201.998 47.2899 201.936 47.5948 201.799 47.9184C201.675 48.2544 201.519 48.5344 201.332 48.7584C201.245 48.9451 201.121 49.082 200.959 49.1691C200.81 49.2686 200.648 49.3308 200.474 49.3557C200.287 49.3682 200.1 49.3495 199.914 49.2997C199.727 49.25 199.559 49.1753 199.41 49.0757C199.173 49.0135 199.018 48.9451 198.943 48.8704C198.868 48.8082 198.781 48.7148 198.682 48.5904C198.644 48.5282 198.613 48.4784 198.588 48.441C198.576 48.4037 198.526 48.3166 198.439 48.1797C198.377 48.0802 198.321 47.9557 198.271 47.8064C198.221 47.657 198.19 47.5077 198.178 47.3584C198.165 47.209 198.171 47.0659 198.196 46.929C198.221 46.7921 198.271 46.6739 198.346 46.5743C198.408 46.537 198.439 46.5495 198.439 46.6117C198.439 46.6615 198.47 46.6677 198.532 46.6303C198.57 46.5806 198.613 46.537 198.663 46.4997C198.75 46.425 198.806 46.4001 198.831 46.425ZM197.375 37.1288C197.375 37.079 197.369 36.9857 197.356 36.8488C197.356 36.7119 197.356 36.5688 197.356 36.4194C197.356 36.2701 197.356 36.1332 197.356 36.0088C197.356 35.8719 197.356 35.7723 197.356 35.7101C197.506 35.7474 197.73 35.7785 198.028 35.8034C198.327 35.8283 198.644 35.8408 198.98 35.8408C199.316 35.8532 199.634 35.8656 199.932 35.8781C200.231 35.8781 200.455 35.8781 200.604 35.8781C200.604 35.9403 200.598 36.0399 200.586 36.1768C200.586 36.3012 200.586 36.4319 200.586 36.5688C200.573 36.7057 200.555 36.8426 200.53 36.9795C200.517 37.1039 200.505 37.191 200.492 37.2408C200.318 37.2408 200.075 37.2408 199.764 37.2408C199.466 37.2408 199.161 37.2346 198.85 37.2221C198.526 37.2221 198.227 37.2159 197.954 37.2035C197.68 37.191 197.487 37.1661 197.375 37.1288ZM199.727 48.4597C200.051 48.5344 200.331 48.3477 200.567 47.8997C200.629 47.7628 200.698 47.6073 200.772 47.433C200.847 47.2712 200.915 47.1219 200.978 46.985C200.978 46.9103 200.866 46.873 200.642 46.873C200.43 46.873 200.206 46.9166 199.97 47.0037C199.721 47.0784 199.503 47.1966 199.316 47.3584C199.13 47.5201 199.061 47.7193 199.111 47.9557C199.161 48.0304 199.26 48.1175 199.41 48.217C199.559 48.3166 199.665 48.3975 199.727 48.4597ZM200.156 42.6916C200.131 42.7165 200.113 42.7974 200.1 42.9343C200.1 43.0587 200.088 43.1832 200.063 43.3076H200.138C200.138 43.2454 200.138 43.1769 200.138 43.1023C200.15 43.0276 200.163 42.9529 200.175 42.8783C200.175 42.816 200.175 42.7663 200.175 42.7289C200.175 42.6916 200.169 42.6791 200.156 42.6916ZM199.802 43.3076H199.82H199.914C199.889 43.2454 199.87 43.1956 199.858 43.1583C199.858 43.1209 199.858 43.1147 199.858 43.1396L199.802 43.3076ZM198.906 43.4569H198.98C198.98 43.4445 198.974 43.4383 198.962 43.4383C198.962 43.4258 198.962 43.4072 198.962 43.3823C198.924 43.3947 198.906 43.4196 198.906 43.4569Z" fill="#9B9B9B" style="fill:#9B9B9B;fill:color(display-p3 0.6096 0.6096 0.6096);fill-opacity:1;"/>
<path d="M188.903 39.8167L188.922 40.7874C188.947 41.3101 188.947 41.727 188.922 42.0381C188.909 42.3368 188.928 42.6355 188.978 42.9341C188.99 43.0461 188.99 43.1893 188.978 43.3635C188.978 43.5253 188.978 43.687 188.978 43.8488C188.978 44.0231 188.978 44.1848 188.978 44.3342C188.99 44.4835 189.027 44.5955 189.09 44.6702V44.6328C189.09 44.6204 189.108 44.6017 189.146 44.5768C189.171 44.664 189.202 44.7075 189.239 44.7075C189.289 44.7075 189.326 44.7573 189.351 44.8568C189.413 44.8444 189.469 44.8382 189.519 44.8382C189.606 44.8382 189.662 44.8506 189.687 44.8755C189.712 44.8631 189.712 44.8506 189.687 44.8382C189.675 44.8257 189.681 44.8133 189.706 44.8008L189.724 44.8568C189.787 44.8568 189.843 44.8444 189.892 44.8195C189.942 44.7946 189.998 44.7822 190.06 44.7822C190.085 44.7324 190.11 44.6826 190.135 44.6328C190.185 44.5208 190.216 44.4213 190.228 44.3342C190.228 44.3217 190.235 44.3342 190.247 44.3715C190.26 44.4088 190.272 44.4586 190.284 44.5208C190.297 44.5831 190.309 44.6391 190.322 44.6888C190.334 44.7386 190.34 44.7635 190.34 44.7635C190.365 44.7635 190.384 44.72 190.396 44.6328C190.421 44.5457 190.44 44.4462 190.452 44.3342C190.465 44.2346 190.471 44.1413 190.471 44.0542C190.484 43.9671 190.502 43.9111 190.527 43.8862C190.54 43.8737 190.54 43.911 190.527 43.9982C190.527 44.0853 190.527 44.1848 190.527 44.2968C190.515 44.4088 190.508 44.5084 190.508 44.5955C190.508 44.6826 190.521 44.7262 190.546 44.7262C190.62 44.664 190.683 44.6204 190.732 44.5955C190.795 44.5706 190.876 44.5271 190.975 44.4648C190.95 44.1662 190.938 43.9546 190.938 43.8302C190.938 43.7057 190.944 43.5937 190.956 43.4942C190.956 43.407 190.956 43.3075 190.956 43.1955C190.969 43.071 190.969 42.8657 190.956 42.5795C190.944 42.2061 190.932 41.8577 190.919 41.5341C190.919 41.1981 190.919 40.8745 190.919 40.5634L191.404 40.6194C191.579 40.5945 191.784 40.5821 192.02 40.5821C192.269 40.5821 192.524 40.5821 192.786 40.5821C193.035 40.5945 193.271 40.607 193.495 40.6194C193.719 40.6194 193.9 40.607 194.037 40.5821L194.018 40.0781C193.968 40.0158 193.881 39.9785 193.756 39.9661C193.644 39.9536 193.526 39.9474 193.402 39.9474C193.265 39.9474 193.134 39.9474 193.01 39.9474C192.885 39.935 192.786 39.9101 192.711 39.8727L192.73 39.9847C192.493 39.9598 192.195 39.9412 191.834 39.9287C191.473 39.9163 191.162 39.9287 190.9 39.9661C190.9 39.4434 190.9 38.9332 190.9 38.4354C190.913 37.9251 190.944 37.3589 190.994 36.7367C190.956 36.4504 190.944 36.1953 190.956 35.9713C190.981 35.7349 191.006 35.4984 191.031 35.262C191.006 35.0255 190.963 34.8202 190.9 34.6459C190.851 34.4593 190.813 34.2664 190.788 34.0673C190.764 33.8682 190.739 33.6753 190.714 33.4886C190.689 33.3019 190.589 33.2024 190.415 33.1899C190.34 33.165 190.241 33.1526 190.116 33.1526C189.992 33.1401 189.868 33.1339 189.743 33.1339C189.619 33.1464 189.5 33.1588 189.388 33.1712C189.276 33.1712 189.196 33.1775 189.146 33.1899C189.059 33.3766 189.034 33.5881 189.071 33.8246C189.121 34.0486 189.133 34.2664 189.108 34.4779C189.083 35.0131 189.059 35.486 189.034 35.8966C189.009 36.2949 188.99 36.6869 188.978 37.0727C188.953 37.4585 188.934 37.8691 188.922 38.3047C188.909 38.7278 188.903 39.2318 188.903 39.8167ZM182.892 35.5046L182.911 36.0086C182.836 36.0211 182.718 36.0335 182.556 36.046C182.407 36.046 182.233 36.046 182.034 36.046C181.822 36.046 181.604 36.046 181.38 36.046C181.156 36.0335 180.932 36.0273 180.708 36.0273C180.783 36.0771 180.833 36.1455 180.858 36.2326C180.882 36.27 180.882 36.3198 180.858 36.382C180.845 36.4318 180.826 36.4878 180.802 36.55C180.789 36.6122 180.77 36.662 180.746 36.6993C180.721 36.7367 180.708 36.8549 180.708 37.054C180.708 37.1536 180.708 37.3713 180.708 37.7074C180.708 38.0434 180.708 38.4043 180.708 38.79C180.708 39.1758 180.708 39.5305 180.708 39.8541C180.708 40.1776 180.708 40.3705 180.708 40.4327C180.683 40.5447 180.671 40.6568 180.671 40.7688C180.671 40.8683 180.683 40.9554 180.708 41.0301C180.708 41.1297 180.702 41.1981 180.69 41.2354C180.69 41.2603 180.69 41.2852 180.69 41.3101C180.677 41.3474 180.671 41.3848 180.671 41.4221C180.683 41.4594 180.696 41.5279 180.708 41.6274C180.721 41.6897 180.727 41.783 180.727 41.9074C180.739 42.0319 180.752 42.1377 180.764 42.2248C180.777 42.287 180.802 42.3741 180.839 42.4861C180.889 42.5857 180.988 42.623 181.138 42.5981C181.25 42.5981 181.318 42.6044 181.343 42.6168C181.368 42.6168 181.393 42.6168 181.418 42.6168C181.43 42.6168 181.449 42.623 181.474 42.6355C181.511 42.6355 181.586 42.6355 181.698 42.6355C181.872 42.623 182.002 42.623 182.09 42.6355C182.189 42.6355 182.276 42.6355 182.351 42.6355C182.426 42.6479 182.506 42.6541 182.594 42.6541C182.681 42.6541 182.805 42.6417 182.967 42.6168C182.979 42.6168 183.004 42.6168 183.042 42.6168C183.091 42.6168 183.141 42.6168 183.191 42.6168C183.228 42.6168 183.259 42.623 183.284 42.6355C183.322 42.6479 183.334 42.6604 183.322 42.6728C183.346 42.6977 183.315 42.735 183.228 42.7848C183.141 42.8221 183.085 42.847 183.06 42.8595C183.085 42.9217 183.091 42.9404 183.079 42.9155C183.079 42.8906 183.048 42.9092 182.986 42.9715C182.948 42.9839 182.961 43.0026 183.023 43.0275C183.085 43.0399 183.116 43.0586 183.116 43.0835C182.892 43.0835 182.73 43.0897 182.631 43.1021C182.531 43.1146 182.394 43.1208 182.22 43.1208L181.903 43.1021C181.729 43.1395 181.554 43.1333 181.38 43.0835C181.218 43.0337 181.069 43.0461 180.932 43.1208C180.845 43.1457 180.783 43.1519 180.746 43.1395C180.708 43.127 180.652 43.1395 180.578 43.1768C180.354 43.3013 180.229 43.3261 180.204 43.2515C180.005 43.2639 179.794 43.2639 179.57 43.2515C179.345 43.2266 179.19 43.183 179.103 43.1208C179.041 43.0835 178.997 42.9839 178.972 42.8221C178.96 42.6604 178.929 42.5235 178.879 42.4115C178.866 42.3368 178.841 42.2808 178.804 42.2435C178.767 42.2061 178.761 42.1439 178.785 42.0568C178.785 42.0319 178.792 42.0008 178.804 41.9634C178.817 41.9261 178.823 41.8888 178.823 41.8514C178.81 41.8266 178.804 41.7892 178.804 41.7394V41.6834C178.792 41.5963 178.785 41.4221 178.785 41.1608C178.785 40.8994 178.792 40.5945 178.804 40.2461C178.804 39.9101 178.81 39.5492 178.823 39.1634C178.835 38.7776 178.848 38.4105 178.86 38.062C178.86 37.7136 178.86 37.4087 178.86 37.1473C178.873 36.886 178.879 36.7055 178.879 36.606C178.854 36.4691 178.835 36.3633 178.823 36.2887C178.823 36.2015 178.885 36.1269 179.009 36.0646C179.009 36.0646 179.022 36.0398 179.047 35.99C178.897 35.9775 178.723 35.9713 178.524 35.9713C178.337 35.9589 178.201 35.9029 178.113 35.8033C178.113 35.766 178.107 35.7535 178.095 35.766C178.095 35.7784 178.089 35.7971 178.076 35.822C178.064 35.8469 178.051 35.8655 178.039 35.878C178.026 35.878 178.014 35.8531 178.001 35.8033C178.001 35.7784 178.008 35.7286 178.02 35.654C178.045 35.5669 178.045 35.5109 178.02 35.486C178.02 35.4362 178.051 35.4113 178.113 35.4113C178.213 35.4113 178.275 35.4175 178.3 35.43C178.325 35.43 178.344 35.43 178.356 35.43C178.369 35.43 178.387 35.43 178.412 35.43C178.437 35.4175 178.505 35.3989 178.617 35.374C178.667 35.3615 178.754 35.3677 178.879 35.3926C179.003 35.4175 179.078 35.4237 179.103 35.4113C179.202 35.3989 179.377 35.3926 179.626 35.3926C179.874 35.3802 180.142 35.374 180.428 35.374C180.702 35.3864 180.957 35.3989 181.194 35.4113C181.442 35.4113 181.617 35.4175 181.716 35.43V35.318C181.766 35.3553 181.847 35.374 181.959 35.374C182.071 35.374 182.189 35.374 182.314 35.374C182.438 35.374 182.556 35.3802 182.668 35.3926C182.78 35.4051 182.855 35.4424 182.892 35.5046ZM187.914 35.8033L187.932 36.3073C187.858 36.3198 187.739 36.3322 187.578 36.3447C187.428 36.3447 187.254 36.3447 187.055 36.3447C186.856 36.3447 186.644 36.3447 186.42 36.3447C186.196 36.3322 185.979 36.326 185.767 36.326L185.711 36.494C185.699 36.5562 185.68 36.6184 185.655 36.6807C185.643 36.7304 185.636 36.8611 185.636 37.0727C185.636 37.1722 185.636 37.39 185.636 37.726C185.636 38.062 185.636 38.4167 185.636 38.79C185.636 39.1634 185.636 39.5118 185.636 39.8354C185.649 40.159 185.655 40.3519 185.655 40.4141C185.63 40.5261 185.618 40.6381 185.618 40.7501C185.618 40.8496 185.63 40.9368 185.655 41.0114C185.655 41.111 185.649 41.1794 185.636 41.2168C185.636 41.2417 185.636 41.2665 185.636 41.2914C185.624 41.3288 185.618 41.3661 185.618 41.4034C185.63 41.4408 185.643 41.5092 185.655 41.6088C185.667 41.671 185.674 41.783 185.674 41.9448C185.686 42.0941 185.699 42.2123 185.711 42.2995C185.723 42.3617 185.748 42.4488 185.786 42.5608C185.835 42.6604 185.935 42.6977 186.084 42.6728C186.196 42.6728 186.265 42.679 186.29 42.6915C186.315 42.6915 186.339 42.6915 186.364 42.6915C186.377 42.6915 186.395 42.6977 186.42 42.7101C186.458 42.7101 186.532 42.7101 186.644 42.7101C187.005 42.6852 187.31 42.6728 187.559 42.6728C187.82 42.6604 188.113 42.6355 188.436 42.5981C188.461 42.5981 188.492 42.5981 188.53 42.5981C188.567 42.5981 188.573 42.6168 188.548 42.6541C188.573 42.679 188.579 42.7164 188.567 42.7661C188.567 42.8035 188.555 42.8284 188.53 42.8408C188.555 42.903 188.561 42.9217 188.548 42.8968C188.548 42.8719 188.517 42.8906 188.455 42.9528C188.43 42.9652 188.443 42.9839 188.492 43.0088C188.555 43.0213 188.586 43.0399 188.586 43.0648C188.374 43.0648 188.219 43.0835 188.119 43.1208C188.019 43.1581 187.883 43.1768 187.708 43.1768C187.547 43.1519 187.41 43.1519 187.298 43.1768C187.198 43.2017 187.055 43.2017 186.868 43.1768C186.694 43.2141 186.52 43.2204 186.346 43.1955C186.184 43.1581 186.035 43.1768 185.898 43.2515C185.811 43.2764 185.748 43.2888 185.711 43.2888C185.674 43.2764 185.618 43.2826 185.543 43.3075C185.493 43.3199 185.419 43.3324 185.319 43.3448C185.232 43.3448 185.132 43.3448 185.02 43.3448C184.908 43.3573 184.796 43.3635 184.684 43.3635C184.585 43.351 184.504 43.3448 184.442 43.3448C184.367 43.3448 184.311 43.3386 184.274 43.3261C184.249 43.3137 184.23 43.295 184.218 43.2701C184.193 43.2577 184.168 43.239 184.143 43.2141C184.13 43.1768 184.099 43.1395 184.05 43.1021C183.987 43.0648 183.944 42.9653 183.919 42.8035C183.906 42.6417 183.875 42.5048 183.826 42.3928C183.813 42.3181 183.788 42.2621 183.751 42.2248C183.714 42.1875 183.707 42.1252 183.732 42.0381C183.732 42.0132 183.738 41.9821 183.751 41.9448C183.763 41.9074 183.77 41.8701 183.77 41.8328C183.757 41.8079 183.751 41.7706 183.751 41.7208V41.6648C183.738 41.5777 183.732 41.4034 183.732 41.1421C183.732 40.8808 183.732 40.5759 183.732 40.2274C183.732 39.879 183.732 39.5118 183.732 39.1261C183.745 38.7403 183.757 38.3731 183.77 38.0247C183.77 37.6762 183.77 37.3713 183.77 37.11C183.782 36.8362 183.788 36.6495 183.788 36.55C183.776 36.4878 183.763 36.438 183.751 36.4007C183.751 36.3509 183.751 36.3073 183.751 36.27C183.651 36.2575 183.558 36.2389 183.471 36.214C183.396 36.1891 183.334 36.1518 183.284 36.102C183.284 36.0646 183.278 36.0522 183.266 36.0646C183.266 36.0771 183.259 36.0958 183.247 36.1206C183.234 36.1455 183.222 36.1642 183.21 36.1766C183.197 36.1766 183.185 36.1518 183.172 36.102C183.172 36.0771 183.178 36.0273 183.191 35.9526C183.216 35.8655 183.216 35.8095 183.191 35.7846C183.191 35.7349 183.222 35.71 183.284 35.71C183.384 35.71 183.446 35.7162 183.471 35.7286C183.496 35.7286 183.514 35.7286 183.527 35.7286C183.539 35.7286 183.558 35.7286 183.583 35.7286C183.608 35.7162 183.676 35.6975 183.788 35.6726C183.838 35.6602 183.925 35.6664 184.05 35.6913C184.174 35.7162 184.249 35.7224 184.274 35.71C184.373 35.6975 184.529 35.6913 184.74 35.6913C184.952 35.6789 185.176 35.6726 185.412 35.6726C185.649 35.6851 185.867 35.6975 186.066 35.71C186.277 35.71 186.433 35.7162 186.532 35.7286V35.6166C186.582 35.654 186.675 35.6726 186.812 35.6726C186.949 35.6726 187.092 35.6726 187.242 35.6726C187.391 35.6726 187.528 35.6789 187.652 35.6913C187.789 35.7037 187.876 35.7411 187.914 35.8033ZM180.279 36.0833C180.304 36.1455 180.322 36.158 180.335 36.1206C180.36 36.0833 180.378 36.0522 180.391 36.0273H180.223L180.279 36.0833Z" fill="#9B9B9B" style="fill:#9B9B9B;fill:color(display-p3 0.6096 0.6096 0.6096);fill-opacity:1;"/>
<path fill-rule="evenodd" clip-rule="evenodd" d="M100.49 174.12C96.5534 169.857 99.1553 166.469 102.197 167.027C104.599 167.467 108.2 169.611 109.794 175.005C110.084 174.702 110.415 174.421 110.785 174.173C112.983 172.697 115.713 172.913 116.883 174.656C117.307 175.286 117.468 176.03 117.397 176.793C118.982 176.345 120.61 176.701 121.579 177.864C122.309 178.741 122.52 179.902 122.269 181.054C123.6 181.073 124.847 181.65 125.613 182.74C126.515 184.024 126.521 185.695 125.78 187.118C126.449 187.398 127.035 187.85 127.468 188.466C128.819 190.39 128.159 193.183 125.993 194.705C125.572 195.001 125.125 195.227 124.668 195.385C124.274 196.152 123.764 196.856 123.136 197.476C118.979 201.574 111.21 200.434 105.782 194.93C100.64 189.715 99.4439 182.453 102.867 178.219C102.181 176.655 101.437 175.146 100.49 174.12Z" fill="#7C7C7C" style="fill:#7C7C7C;fill:color(display-p3 0.4882 0.4882 0.4882);fill-opacity:1;"/>
<path fill-rule="evenodd" clip-rule="evenodd" d="M92.7054 159.07C93.2395 158.736 93.9436 158.898 94.278 159.432L96.48 162.949C96.8144 163.483 96.6525 164.187 96.1184 164.521C95.5843 164.856 94.8802 164.694 94.5457 164.16L92.3438 160.643C92.0094 160.109 92.1713 159.405 92.7054 159.07Z" fill="#8B8B8B" style="fill:#8B8B8B;fill:color(display-p3 0.5466 0.5466 0.5466);fill-opacity:1;"/>
<path fill-rule="evenodd" clip-rule="evenodd" d="M101.332 156.496C101.962 156.514 102.431 157.038 102.379 157.666L102.038 161.801C101.987 162.429 101.434 162.924 100.804 162.906C100.174 162.888 99.7056 162.364 99.7573 161.736L100.098 157.6C100.149 156.972 100.702 156.478 101.332 156.496Z" fill="#8B8B8B" style="fill:#8B8B8B;fill:color(display-p3 0.5466 0.5466 0.5466);fill-opacity:1;"/>
<path fill-rule="evenodd" clip-rule="evenodd" d="M110.211 158.681C110.722 159.05 110.838 159.763 110.469 160.274L108.041 163.639C107.672 164.15 106.959 164.265 106.448 163.896C105.937 163.528 105.822 162.815 106.191 162.303L108.618 158.939C108.987 158.428 109.7 158.312 110.211 158.681Z" fill="#8B8B8B" style="fill:#8B8B8B;fill:color(display-p3 0.5466 0.5466 0.5466);fill-opacity:1;"/>
</svg>
