<svg width="116" height="116" viewBox="0 0 116 116" fill="none" xmlns="http://www.w3.org/2000/svg">
<rect width="116" height="116" rx="24" fill="#292929" style="fill:#292929;fill:color(display-p3 0.1608 0.1608 0.1608);fill-opacity:1;"/>
<g opacity="0.5">
<path opacity="0.2" fill-rule="evenodd" clip-rule="evenodd" d="M79.7426 51.3518C85.2143 48.8366 89.0136 43.3073 89.0136 36.8907C89.0136 28.1053 81.8916 20.9834 73.1063 20.9834C66.9814 20.9834 61.665 24.445 59.0068 29.5185C56.3486 24.445 51.0322 20.9834 44.9073 20.9834C36.122 20.9834 29.0001 28.1053 29.0001 36.8907C29.0001 43.3073 32.7993 48.8366 38.271 51.3517C32.7993 53.8669 29 59.3962 29 65.8129C29 74.5982 36.1219 81.7201 44.9073 81.7201C49.955 81.7201 54.4537 79.369 57.3678 75.702C52.4846 84.9219 57.334 95.901 61.0735 101.007L71.1141 93.6545C64.4192 92.84 61.3279 83.263 61.095 76.2424C64.0114 79.5984 68.3111 81.7201 73.1063 81.7201C81.8916 81.7201 89.0136 74.5982 89.0136 65.8129C89.0136 59.3962 85.2143 53.8669 79.7426 51.3518Z" fill="#747474" style="fill:#747474;fill:color(display-p3 0.4545 0.4545 0.4545);fill-opacity:1;"/>
<g opacity="0.4">
<ellipse cx="54.2443" cy="43.8456" rx="1.4289" ry="3.8104" fill="#838383" style="fill:#838383;fill:color(display-p3 0.5149 0.5149 0.5149);fill-opacity:1;"/>
<ellipse cx="63.7702" cy="43.8456" rx="1.4289" ry="3.8104" fill="#838383" style="fill:#838383;fill:color(display-p3 0.5149 0.5149 0.5149);fill-opacity:1;"/>
<path d="M64.2785 50.9998H54.8599C54.214 50.9998 53.9127 51.8001 54.3984 52.2261L59.3556 56.5731C59.6302 56.814 60.0439 56.8031 60.3056 56.5482L64.767 52.2011C65.2168 51.7628 64.9065 50.9998 64.2785 50.9998Z" fill="#838383" style="fill:#838383;fill:color(display-p3 0.5149 0.5149 0.5149);fill-opacity:1;"/>
</g>
</g>
</svg>
