<svg width="143" height="211" viewBox="0 0 143 211" fill="none" xmlns="http://www.w3.org/2000/svg">
<path fill-rule="evenodd" clip-rule="evenodd" d="M8.43999 0H133.56C138.221 0 142 3.77871 142 8.43999V202.56C142 207.221 138.221 211 133.56 211H8.43998C3.77871 211 0 207.221 0 202.56V8.43999C0 3.77872 3.77871 0 8.43999 0ZM72.1702 143.01C71.2543 142.102 69.7457 142.102 68.8298 143.01C63.2272 148.567 55.5145 152 47 152C29.8792 152 16 138.121 16 121C16 112.252 19.6238 104.35 25.4522 98.7133C26.4103 97.7868 26.4103 96.2132 25.4522 95.2867C19.6238 89.6503 16 81.7483 16 73C16 55.8792 29.8792 42 47 42C55.5145 42 63.2272 45.4327 68.8298 50.9896C69.7457 51.898 71.2543 51.898 72.1702 50.9896C77.7728 45.4327 85.4855 42 94 42C111.121 42 125 55.8792 125 73C125 81.7483 121.376 89.6503 115.548 95.2867C114.59 96.2132 114.59 97.7868 115.548 98.7133C121.376 104.35 125 112.252 125 121C125 138.121 111.121 152 94 152C85.4855 152 77.7728 148.567 72.1702 143.01Z" fill="#FF674B" style="fill:#FF674B;fill:color(display-p3 1.0000 0.4036 0.2947);fill-opacity:1;"/>
<mask id="mask0_2536_8550" style="mask-type:alpha" maskUnits="userSpaceOnUse" x="0" y="0" width="142" height="211">
<path fill-rule="evenodd" clip-rule="evenodd" d="M8.43999 0H133.56C138.221 0 142 3.77871 142 8.43999V202.56C142 207.221 138.221 211 133.56 211H8.43998C3.77871 211 0 207.221 0 202.56V8.43999C0 3.77872 3.77871 0 8.43999 0ZM72.1702 143.01C71.2543 142.102 69.7457 142.102 68.8298 143.01C63.2272 148.567 55.5145 152 47 152C29.8792 152 16 138.121 16 121C16 112.252 19.6238 104.35 25.4522 98.7133C26.4103 97.7868 26.4103 96.2132 25.4522 95.2867C19.6238 89.6503 16 81.7483 16 73C16 55.8792 29.8792 42 47 42C55.5145 42 63.2272 45.4327 68.8298 50.9896C69.7457 51.898 71.2543 51.898 72.1702 50.9896C77.7728 45.4327 85.4855 42 94 42C111.121 42 125 55.8792 125 73C125 81.7483 121.376 89.6503 115.548 95.2867C114.59 96.2132 114.59 97.7868 115.548 98.7133C121.376 104.35 125 112.252 125 121C125 138.121 111.121 152 94 152C85.4855 152 77.7728 148.567 72.1702 143.01Z" fill="#25DA83" style="fill:#25DA83;fill:color(display-p3 0.1459 0.8542 0.5142);fill-opacity:1;"/>
</mask>
<g mask="url(#mask0_2536_8550)">
<g opacity="0.3">
<path fill-rule="evenodd" clip-rule="evenodd" d="M10.4948 142.934C9.8607 142.123 9.01014 141.465 7.98574 141.057C4.90664 139.833 1.42299 141.338 0.204797 144.42C-0.547645 146.323 -0.25979 148.383 0.795898 149.968C-0.787195 150.522 -2.12948 151.736 -2.7952 153.42C-4.0134 156.501 -2.50484 159.992 0.574256 161.217C2.16753 161.851 3.86912 161.753 5.3091 161.085C5.92619 162.465 7.06055 163.615 8.57471 164.218C11.6538 165.442 15.1375 163.937 16.3557 160.855C16.9399 159.377 16.897 157.805 16.3544 156.434C18.1137 155.956 19.6331 154.683 20.3557 152.855C21.5739 149.774 20.0653 146.283 16.9862 145.058C15.5479 144.486 14.0213 144.509 12.6786 145.011C12.692 144.983 12.7057 144.956 12.7195 144.928C13.5299 143.304 14.6888 142.268 16.3461 142.3C17.1378 142.316 17.7658 141.693 17.7487 140.909C17.7317 140.126 17.076 139.478 16.2843 139.463C13.4156 139.407 11.5861 141.1 10.4948 142.934Z" fill="white" style="fill:white;fill-opacity:1;"/>
<path d="M10.4948 142.934L10.7213 143.069L10.5247 143.399L10.2875 143.096L10.4948 142.934ZM0.795898 149.968L1.0151 149.822L1.20368 150.105L0.883221 150.217L0.795898 149.968ZM5.3091 161.085L5.19797 160.845L5.44033 160.733L5.54962 160.977L5.3091 161.085ZM8.57471 164.218L8.67167 163.972L8.57471 164.218ZM16.3544 156.434L16.1094 156.531L16.0008 156.257L16.2851 156.18L16.3544 156.434ZM12.6786 145.011L12.771 145.259L12.1533 145.489L12.4415 144.896L12.6786 145.011ZM12.7195 144.928L12.4837 144.81L12.4837 144.81L12.7195 144.928ZM16.3461 142.3L16.3413 142.564L16.3413 142.564L16.3461 142.3ZM17.7487 140.909L17.4852 140.915L17.4852 140.915L17.7487 140.909ZM16.2843 139.463L16.2891 139.199L16.2891 139.199L16.2843 139.463ZM8.0827 140.812C9.15172 141.237 10.04 141.924 10.7022 142.771L10.2875 143.096C9.68139 142.321 8.86855 141.692 7.88878 141.302L8.0827 140.812ZM-0.0402793 144.322C1.23147 141.105 4.86825 139.533 8.0827 140.812L7.88878 141.302C4.94503 140.132 1.61452 141.571 0.449873 144.517L-0.0402793 144.322ZM0.576695 150.114C-0.524961 148.46 -0.825881 146.309 -0.0402793 144.322L0.449873 144.517C-0.269408 146.337 0.0053804 148.305 1.0151 149.822L0.576695 150.114ZM-3.04028 153.322C-2.34527 151.564 -0.943538 150.297 0.708574 149.719L0.883221 150.217C-0.630853 150.747 -1.91369 151.907 -2.55013 153.517L-3.04028 153.322ZM0.477295 161.462C-2.73715 160.184 -4.31203 156.539 -3.04028 153.322L-2.55013 153.517C-3.71477 156.463 -2.27253 159.801 0.671216 160.972L0.477295 161.462ZM5.42024 161.324C3.91739 162.022 2.14058 162.124 0.477295 161.462L0.671216 160.972C2.19447 161.577 3.82084 161.485 5.19797 160.845L5.42024 161.324ZM8.47775 164.463C6.89712 163.834 5.71264 162.633 5.06858 161.192L5.54962 160.977C6.13973 162.297 7.22399 163.397 8.67167 163.972L8.47775 164.463ZM16.6007 160.953C15.329 164.17 11.6922 165.741 8.47775 164.463L8.67167 163.972C11.6154 165.143 14.9459 163.704 16.1106 160.758L16.6007 160.953ZM16.5994 156.337C17.1657 157.768 17.2106 159.41 16.6007 160.953L16.1106 160.758C16.6692 159.345 16.6282 157.842 16.1094 156.531L16.5994 156.337ZM20.6007 152.953C19.8464 154.861 18.2597 156.19 16.4238 156.689L16.2851 156.18C17.9677 155.722 19.4199 154.505 20.1106 152.758L20.6007 152.953ZM17.0832 144.813C20.2976 146.091 21.8725 149.736 20.6007 152.953L20.1106 152.758C21.2752 149.812 19.833 146.474 16.8892 145.303L17.0832 144.813ZM12.5861 144.764C13.9876 144.24 15.5818 144.215 17.0832 144.813L16.8892 145.303C15.514 144.756 14.055 144.779 12.771 145.259L12.5861 144.764ZM12.4415 144.896C12.4554 144.867 12.4694 144.838 12.4837 144.81L12.9553 145.046C12.9419 145.073 12.9287 145.1 12.9156 145.127L12.4415 144.896ZM12.4837 144.81C13.3176 143.139 14.5507 142.001 16.3508 142.036L16.3413 142.564C14.8268 142.535 13.7422 143.47 12.9553 145.046L12.4837 144.81ZM16.3508 142.036C16.996 142.049 17.499 141.545 17.4852 140.915L18.0122 140.904C18.0326 141.841 17.2796 142.583 16.3413 142.564L16.3508 142.036ZM17.4852 140.915C17.4713 140.276 16.9326 139.739 16.2796 139.727L16.2891 139.199C17.2195 139.217 17.992 139.976 18.0122 140.904L17.4852 140.915ZM16.2796 139.727C13.5385 139.673 11.7838 141.283 10.7213 143.069L10.2684 142.798C11.3883 140.916 13.2927 139.14 16.2891 139.199L16.2796 139.727Z" fill="black" fill-opacity="0.2" style="fill:black;fill-opacity:0.2;"/>
<path fill-rule="evenodd" clip-rule="evenodd" d="M22.4948 -1.06647C21.8607 -1.87707 21.0101 -2.53536 19.9857 -2.9428C16.9066 -4.16747 13.423 -2.66208 12.2048 0.419586C11.4524 2.32303 11.7402 4.38263 12.7959 5.96789C11.2128 6.52218 9.87052 7.73551 9.2048 9.41959C7.9866 12.5013 9.49516 15.9922 12.5743 17.2169C14.1675 17.8506 15.8691 17.7533 17.3091 17.0849C17.9262 18.4651 19.0606 19.6153 20.5747 20.2176C23.6538 21.4423 27.1375 19.9369 28.3557 16.8552C28.9399 15.3773 28.897 13.8053 28.3544 12.4342C30.1137 11.9562 31.6331 10.6829 32.3557 8.8552C33.5739 5.77353 32.0653 2.28256 28.9862 1.05789C27.5479 0.485815 26.0213 0.509456 24.6786 1.01121C24.692 0.983422 24.7057 0.955704 24.7195 0.928054C25.5299 -0.695664 26.6888 -1.73195 28.3461 -1.69965C29.1378 -1.68421 29.7658 -2.30694 29.7487 -3.09053C29.7317 -3.87413 29.076 -4.52187 28.2843 -4.5373C25.4156 -4.59322 23.5861 -2.9002 22.4948 -1.06647Z" fill="white" style="fill:white;fill-opacity:1;"/>
<path d="M22.4948 -1.06647L22.7213 -0.931092L22.5247 -0.600671L22.2875 -0.903887L22.4948 -1.06647ZM12.7959 5.96789L13.0151 5.82168L13.2037 6.10485L12.8832 6.21705L12.7959 5.96789ZM17.3091 17.0849L17.198 16.8454L17.4403 16.7329L17.5496 16.9774L17.3091 17.0849ZM20.5747 20.2176L20.6717 19.9723L20.5747 20.2176ZM28.3544 12.4342L28.1094 12.5311L28.0008 12.2567L28.2851 12.1795L28.3544 12.4342ZM24.6786 1.01121L24.771 1.25851L24.1533 1.48936L24.4415 0.895533L24.6786 1.01121ZM24.7195 0.928054L24.4837 0.809759L24.4837 0.809756L24.7195 0.928054ZM28.3461 -1.69965L28.3508 -1.96354L28.3508 -1.96354L28.3461 -1.69965ZM28.2843 -4.5373L28.2891 -4.80119L28.2891 -4.80119L28.2843 -4.5373ZM20.0827 -3.18808C21.1517 -2.76289 22.04 -2.07552 22.7022 -1.22904L22.2875 -0.903887C21.6814 -1.67862 20.8685 -2.30783 19.8888 -2.69752L20.0827 -3.18808ZM11.9597 0.32211C13.2315 -2.89502 16.8682 -4.46659 20.0827 -3.18808L19.8888 -2.69752C16.945 -3.86836 13.6145 -2.42914 12.4499 0.517062L11.9597 0.32211ZM12.5767 6.1141C11.475 4.45982 11.1741 2.30944 11.9597 0.32211L12.4499 0.517062C11.7306 2.33662 12.0054 4.30545 13.0151 5.82168L12.5767 6.1141ZM8.95972 9.32211C9.65473 7.56396 11.0565 6.29718 12.7086 5.71872L12.8832 6.21705C11.3691 6.74718 10.0863 7.90706 9.44987 9.51706L8.95972 9.32211ZM12.4773 17.4622C9.26285 16.1837 7.68797 12.5392 8.95972 9.32211L9.44987 9.51706C8.28523 12.4633 9.72747 15.8008 12.6712 16.9716L12.4773 17.4622ZM17.4202 17.3244C15.9174 18.022 14.1406 18.1237 12.4773 17.4622L12.6712 16.9716C14.1945 17.5775 15.8208 17.4847 17.198 16.8454L17.4202 17.3244ZM20.4778 20.4629C18.8971 19.8342 17.7126 18.633 17.0686 17.1925L17.5496 16.9774C18.1397 18.2972 19.224 19.3965 20.6717 19.9723L20.4778 20.4629ZM28.6007 16.9527C27.329 20.1698 23.6922 21.7414 20.4778 20.4629L20.6717 19.9723C23.6154 21.1431 26.9459 19.7039 28.1106 16.7577L28.6007 16.9527ZM28.5994 12.3373C29.1657 13.7684 29.2106 15.4099 28.6007 16.9527L28.1106 16.7577C28.6692 15.3447 28.6282 13.8422 28.1094 12.5311L28.5994 12.3373ZM32.6007 8.95268C31.8464 10.8609 30.2597 12.1901 28.4238 12.689L28.2851 12.1795C29.9677 11.7223 31.4199 10.505 32.1106 8.75772L32.6007 8.95268ZM29.0832 0.812609C32.2976 2.09111 33.8725 5.73555 32.6007 8.95268L32.1106 8.75772C33.2752 5.81152 31.833 2.47401 28.8892 1.30317L29.0832 0.812609ZM24.5861 0.763906C25.9876 0.240186 27.5818 0.215446 29.0832 0.812609L28.8892 1.30317C27.514 0.756184 26.055 0.778727 24.771 1.25851L24.5861 0.763906ZM24.4415 0.895533C24.4554 0.866891 24.4694 0.8383 24.4837 0.809759L24.9553 1.04635C24.9419 1.07311 24.9287 1.09995 24.9156 1.12688L24.4415 0.895533ZM24.4837 0.809756C25.3176 -0.860978 26.5507 -1.99862 28.3508 -1.96354L28.3413 -1.43576C26.8268 -1.46528 25.7422 -0.530349 24.9553 1.04635L24.4837 0.809756ZM28.3508 -1.96354C28.996 -1.95096 29.499 -2.45452 29.4852 -3.08519L30.0122 -3.09588C30.0326 -2.15935 29.2796 -1.41747 28.3413 -1.43576L28.3508 -1.96354ZM29.4852 -3.08519C29.4713 -3.72438 28.9326 -4.26069 28.2796 -4.27341L28.2891 -4.80119C29.2195 -4.78306 29.992 -4.02388 30.0122 -3.09588L29.4852 -3.08519ZM28.2796 -4.27341C25.5385 -4.32684 23.7838 -2.71658 22.7213 -0.931092L22.2684 -1.20184C23.3883 -3.08382 25.2927 -4.8596 28.2891 -4.80119L28.2796 -4.27341Z" fill="black" fill-opacity="0.2" style="fill:black;fill-opacity:0.2;"/>
<path fill-rule="evenodd" clip-rule="evenodd" d="M14.7266 96.566C13.5696 95.0611 13.1415 93.0337 13.7558 91.0879C14.7535 87.9279 18.1225 86.1795 21.2807 87.1828C23.1485 87.7761 24.5243 89.1991 25.1304 90.9165C26.5925 89.937 28.4711 89.6086 30.2805 90.1833C33.4387 91.1866 35.1901 94.5615 34.1925 97.7215C33.6013 99.5939 32.1776 100.971 30.4585 101.573C31.4347 103.037 31.7631 104.914 31.1927 106.721C30.195 109.881 26.826 111.629 23.6678 110.626C22.9305 110.392 22.2698 110.028 21.7029 109.568C20.7271 111.402 19.0416 113.103 16.2734 113.245C15.4824 113.286 14.7825 112.686 14.7101 111.906C14.6377 111.126 15.2201 110.46 16.011 110.419C17.6524 110.335 18.7307 109.238 19.4251 107.585C18.2519 107.988 16.9434 108.031 15.6692 107.627C12.511 106.623 10.7596 103.249 11.7572 100.089C12.2582 98.502 13.3569 97.2712 14.7266 96.566Z" fill="white" style="fill:white;fill-opacity:1;"/>
<path d="M14.7266 96.566L14.9355 96.4052L15.1283 96.656L14.8475 96.8007L14.7266 96.566ZM25.1304 90.9165L25.2772 91.1359L24.995 91.325L24.8818 91.0041L25.1304 90.9165ZM30.4585 101.573L30.2393 101.719L30.0505 101.436L30.3711 101.324L30.4585 101.573ZM21.7029 109.568L21.4702 109.444L21.6203 109.162L21.8687 109.363L21.7029 109.568ZM16.2734 113.245L16.2872 113.509L16.2872 113.509L16.2734 113.245ZM14.7101 111.906L14.9726 111.882L14.9726 111.882L14.7101 111.906ZM16.011 110.419L16.0249 110.683L16.0249 110.683L16.011 110.419ZM19.4251 107.585L19.3392 107.336L19.8965 107.144L19.6681 107.688L19.4251 107.585ZM14.0072 91.1677C13.4199 93.0278 13.8288 94.9658 14.9355 96.4052L14.5178 96.7267C13.3104 95.1563 12.863 93.0396 13.5045 91.008L14.0072 91.1677ZM21.2013 87.4343C18.1819 86.4752 14.961 88.1467 14.0072 91.1677L13.5045 91.008C14.546 87.7092 18.063 85.8839 21.3601 86.9313L21.2013 87.4343ZM24.8818 91.0041C24.3022 89.3615 22.9869 88.0015 21.2013 87.4343L21.3601 86.9313C23.3102 87.5508 24.7465 89.0367 25.3789 90.829L24.8818 91.0041ZM30.2011 90.4349C28.4713 89.8854 26.6757 90.199 25.2772 91.1359L24.9835 90.6972C26.5094 89.6749 28.4709 89.3318 30.3599 89.9318L30.2011 90.4349ZM33.9411 97.6416C34.8949 94.6206 33.2204 91.394 30.2011 90.4349L30.3599 89.9318C33.6569 90.9792 35.4854 94.5025 34.4439 97.8013L33.9411 97.6416ZM30.3711 101.324C32.0153 100.748 33.376 99.4315 33.9411 97.6416L34.4439 97.8013C33.8267 99.7562 32.3399 101.193 30.5459 101.822L30.3711 101.324ZM30.9413 106.641C31.4866 104.914 31.173 103.119 30.2393 101.719L30.6777 101.427C31.6965 102.954 32.0396 104.914 31.444 106.801L30.9413 106.641ZM23.7472 110.374C26.7666 111.334 29.9875 109.662 30.9413 106.641L31.444 106.801C30.4025 110.1 26.8854 111.925 23.5884 110.878L23.7472 110.374ZM21.8687 109.363C22.4104 109.803 23.0418 110.15 23.7472 110.374L23.5884 110.878C22.8191 110.633 22.1292 110.254 21.5371 109.773L21.8687 109.363ZM16.2595 112.982C18.9052 112.846 20.5215 111.227 21.4702 109.444L21.9356 109.693C20.9327 111.577 19.1779 113.36 16.2872 113.509L16.2595 112.982ZM14.9726 111.882C15.0317 112.518 15.6071 113.015 16.2595 112.982L16.2872 113.509C15.3578 113.557 14.5334 112.854 14.4476 111.93L14.9726 111.882ZM16.0249 110.683C15.3804 110.716 14.9143 111.254 14.9726 111.882L14.4476 111.93C14.361 110.997 15.0598 110.204 15.9971 110.156L16.0249 110.683ZM19.6681 107.688C18.9531 109.39 17.8075 110.591 16.0249 110.683L15.9971 110.156C17.4973 110.079 18.5084 109.086 19.1821 107.483L19.6681 107.688ZM15.7486 107.375C16.9671 107.762 18.2176 107.721 19.3392 107.336L19.511 107.835C18.2861 108.256 16.9197 108.301 15.5898 107.878L15.7486 107.375ZM12.0086 100.168C11.0548 103.189 12.7293 106.416 15.7486 107.375L15.5898 107.878C12.2928 106.831 10.4644 103.308 11.5059 100.009L12.0086 100.168ZM14.8475 96.8007C13.5376 97.4751 12.4875 98.6515 12.0086 100.168L11.5059 100.009C12.0288 98.3524 13.1762 97.0673 14.6058 96.3313L14.8475 96.8007Z" fill="black" fill-opacity="0.2" style="fill:black;fill-opacity:0.2;"/>
<path fill-rule="evenodd" clip-rule="evenodd" d="M85.2405 187.607C84.5928 189.253 84.6724 191.168 85.6225 192.817C87.2762 195.689 90.9412 196.67 93.8083 195.008C95.5263 194.013 96.568 192.294 96.7713 190.459C98.3753 191.039 100.215 190.932 101.808 190.008C104.675 188.347 105.659 184.672 104.005 181.801C103.011 180.075 101.29 179.032 99.4532 178.835C100.028 177.23 99.9217 175.392 99.0053 173.801C97.3515 170.929 93.6866 169.948 90.8194 171.61C90.0002 172.084 89.3348 172.723 88.8407 173.461C87.5617 172.378 85.8724 171.665 83.7464 172.021C82.9673 172.151 82.4149 172.889 82.5126 173.669C82.6103 174.448 83.3211 174.975 84.1002 174.844C85.2641 174.649 86.2571 175.031 87.1073 175.808C85.9952 175.753 84.8548 176.009 83.8185 176.609C80.9514 178.271 79.9678 181.945 81.6216 184.817C82.4449 186.246 83.7668 187.208 85.2405 187.607Z" fill="white" style="fill:white;fill-opacity:1;"/>
<path d="M85.2405 187.607L85.4856 187.704L85.5936 187.429L85.3097 187.352L85.2405 187.607ZM96.7713 190.459L96.8609 190.211L96.5464 190.097L96.5094 190.43L96.7713 190.459ZM99.4532 178.835L99.2053 178.746L99.0921 179.062L99.4249 179.098L99.4532 178.835ZM88.8407 173.461L88.6706 173.663L88.8953 173.853L89.0594 173.608L88.8407 173.461ZM83.7464 172.021L83.7033 171.76L83.7033 171.76L83.7464 172.021ZM82.5126 173.669L82.2512 173.702L82.2512 173.702L82.5126 173.669ZM84.1002 174.844L84.0571 174.584L84.0571 174.584L84.1002 174.844ZM87.1073 175.808L87.0941 176.072L87.8263 176.107L87.2849 175.613L87.1073 175.808ZM85.8507 192.685C84.9425 191.108 84.866 189.278 85.4856 187.704L84.9955 187.511C84.3195 189.228 84.4024 191.227 85.3943 192.949L85.8507 192.685ZM93.6767 194.78C90.9356 196.368 87.4318 195.43 85.8507 192.685L85.3943 192.949C87.1207 195.947 90.9468 196.971 93.9399 195.237L93.6767 194.78ZM96.5094 190.43C96.315 192.186 95.319 193.828 93.6767 194.78L93.9399 195.237C95.7336 194.197 96.821 192.403 97.0331 190.488L96.5094 190.43ZM101.677 189.78C100.153 190.662 98.395 190.765 96.8609 190.211L96.6816 190.707C98.3555 191.312 100.277 191.201 101.94 190.237L101.677 189.78ZM103.777 181.933C105.358 184.678 104.418 188.191 101.677 189.78L101.94 190.237C104.933 188.502 105.96 184.666 104.233 181.668L103.777 181.933ZM99.4249 179.098C101.182 179.286 102.827 180.283 103.777 181.933L104.233 181.668C103.196 179.866 101.399 178.778 99.4815 178.572L99.4249 179.098ZM98.777 173.933C99.6532 175.454 99.7552 177.211 99.2053 178.746L99.7011 178.924C100.301 177.249 100.19 175.33 99.2335 173.668L98.777 173.933ZM90.9511 171.838C93.6922 170.25 97.196 171.188 98.777 173.933L99.2335 173.668C97.507 170.671 93.681 169.647 90.6878 171.381L90.9511 171.838ZM89.0594 173.608C89.5316 172.903 90.1675 172.292 90.9511 171.838L90.6878 171.381C89.833 171.876 89.1381 172.544 88.6221 173.314L89.0594 173.608ZM83.7895 172.281C85.8249 171.941 87.4385 172.62 88.6706 173.663L89.0109 173.259C87.6848 172.137 85.9198 171.389 83.7033 171.76L83.7895 172.281ZM82.7739 173.635C82.6941 172.998 83.1482 172.389 83.7895 172.281L83.7033 171.76C82.7863 171.914 82.1356 172.78 82.2512 173.702L82.7739 173.635ZM84.0571 174.584C83.4236 174.69 82.8528 174.264 82.7739 173.635L82.2512 173.702C82.3677 174.632 83.2185 175.259 84.1433 175.104L84.0571 174.584ZM87.2849 175.613C86.3862 174.791 85.3145 174.373 84.0571 174.584L84.1433 175.104C85.2138 174.925 86.128 175.27 86.9296 176.003L87.2849 175.613ZM83.9502 176.838C84.9412 176.264 86.0311 176.02 87.0941 176.072L87.1204 175.544C85.9593 175.487 84.7684 175.754 83.6869 176.381L83.9502 176.838ZM81.8498 184.685C80.2687 181.939 81.2091 178.426 83.9502 176.838L83.6869 176.381C80.6937 178.115 79.6669 181.951 81.3934 184.949L81.8498 184.685ZM85.3097 187.352C83.9003 186.97 82.637 186.051 81.8498 184.685L81.3934 184.949C82.2529 186.442 83.6333 187.445 85.1714 187.862L85.3097 187.352Z" fill="black" fill-opacity="0.2" style="fill:black;fill-opacity:0.2;"/>
<path fill-rule="evenodd" clip-rule="evenodd" d="M52.2405 211.607C51.5928 213.253 51.6724 215.168 52.6225 216.817C54.2762 219.689 57.9412 220.67 60.8083 219.008C62.5263 218.013 63.568 216.294 63.7713 214.459C65.3753 215.039 67.215 214.932 68.8083 214.008C71.6754 212.347 72.659 208.672 71.0053 205.801C70.0112 204.075 68.2905 203.032 66.4532 202.835C67.0282 201.23 66.9217 199.392 66.0053 197.801C64.3515 194.929 60.6866 193.948 57.8194 195.61C57.0003 196.084 56.3348 196.723 55.8408 197.461C54.5617 196.378 52.8724 195.665 50.7464 196.021C49.9673 196.151 49.4149 196.889 49.5126 197.669C49.6103 198.448 50.3211 198.974 51.1002 198.844C52.2642 198.649 53.2571 199.031 54.1073 199.808C52.9952 199.753 51.8548 200.009 50.8185 200.609C47.9514 202.271 46.9678 205.945 48.6216 208.817C49.4449 210.246 50.7668 211.208 52.2405 211.607Z" fill="white" style="fill:white;fill-opacity:1;"/>
<path d="M52.2405 211.607L52.4856 211.704L52.5936 211.429L52.3097 211.352L52.2405 211.607ZM63.7713 214.459L63.8609 214.211L63.5464 214.097L63.5094 214.43L63.7713 214.459ZM66.4532 202.835L66.2053 202.746L66.0921 203.062L66.4249 203.098L66.4532 202.835ZM55.8408 197.461L55.6706 197.663L55.8953 197.853L56.0594 197.608L55.8408 197.461ZM50.7464 196.021L50.7034 195.76L50.7034 195.76L50.7464 196.021ZM49.5126 197.669L49.774 197.635L49.774 197.635L49.5126 197.669ZM51.1002 198.844L51.0572 198.584L51.0572 198.584L51.1002 198.844ZM54.1073 199.808L54.0941 200.072L54.8263 200.107L54.285 199.613L54.1073 199.808ZM52.8507 216.685C51.9425 215.108 51.866 213.278 52.4856 211.704L51.9955 211.511C51.3195 213.228 51.4024 215.227 52.3943 216.949L52.8507 216.685ZM60.6767 218.78C57.9356 220.368 54.4318 219.43 52.8507 216.685L52.3943 216.949C54.1207 219.947 57.9468 220.971 60.9399 219.237L60.6767 218.78ZM63.5094 214.43C63.315 216.186 62.319 217.828 60.6767 218.78L60.9399 219.237C62.7336 218.197 63.821 216.403 64.0331 214.488L63.5094 214.43ZM68.6767 213.78C67.1535 214.662 65.395 214.765 63.8609 214.211L63.6816 214.707C65.3555 215.312 67.2765 215.201 68.9399 214.237L68.6767 213.78ZM70.777 205.933C72.3581 208.678 71.4178 212.191 68.6767 213.78L68.9399 214.237C71.9331 212.502 72.9599 208.666 71.2335 205.668L70.777 205.933ZM66.4249 203.098C68.1822 203.286 69.8268 204.283 70.777 205.933L71.2335 205.668C70.1956 203.866 68.3988 202.778 66.4815 202.572L66.4249 203.098ZM65.777 197.933C66.6532 199.454 66.7552 201.211 66.2053 202.746L66.7011 202.924C67.3012 201.249 67.1902 199.33 66.2335 197.668L65.777 197.933ZM57.9511 195.838C60.6922 194.25 64.196 195.188 65.777 197.933L66.2335 197.668C64.507 194.671 60.681 193.647 57.6878 195.381L57.9511 195.838ZM56.0594 197.608C56.5316 196.903 57.1675 196.292 57.9511 195.838L57.6878 195.381C56.833 195.876 56.1381 196.544 55.6221 197.314L56.0594 197.608ZM50.7895 196.281C52.825 195.94 54.4386 196.62 55.6706 197.663L56.0109 197.259C54.6848 196.137 52.9198 195.389 50.7034 195.76L50.7895 196.281ZM49.774 197.635C49.6941 196.998 50.1483 196.389 50.7895 196.281L50.7034 195.76C49.7864 195.914 49.1357 196.78 49.2512 197.702L49.774 197.635ZM51.0572 198.584C50.4237 198.69 49.8528 198.264 49.774 197.635L49.2512 197.702C49.3678 198.632 50.2185 199.259 51.1433 199.104L51.0572 198.584ZM54.285 199.613C53.3862 198.791 52.3146 198.373 51.0572 198.584L51.1433 199.104C52.2138 198.925 53.128 199.27 53.9297 200.003L54.285 199.613ZM50.9502 200.838C51.9412 200.264 53.0312 200.02 54.0941 200.072L54.1205 199.544C52.9593 199.487 51.7684 199.754 50.6869 200.381L50.9502 200.838ZM48.8498 208.685C47.2687 205.939 48.2091 202.426 50.9502 200.838L50.6869 200.381C47.6937 202.115 46.6669 205.951 48.3934 208.949L48.8498 208.685ZM52.3097 211.352C50.9003 210.97 49.637 210.051 48.8498 208.685L48.3934 208.949C49.2529 210.442 50.6333 211.445 52.1714 211.862L52.3097 211.352Z" fill="black" fill-opacity="0.2" style="fill:black;fill-opacity:0.2;"/>
<path fill-rule="evenodd" clip-rule="evenodd" d="M114.241 199.392C113.593 197.746 113.672 195.832 114.622 194.182C116.276 191.311 119.941 190.33 122.808 191.991C124.526 192.987 125.568 194.705 125.771 196.54C127.375 195.961 129.215 196.068 130.808 196.991C133.675 198.652 134.659 202.327 133.005 205.199C132.011 206.925 130.29 207.968 128.453 208.164C129.028 209.77 128.922 211.607 128.005 213.199C126.351 216.07 122.687 217.051 119.819 215.39C119 214.915 118.335 214.276 117.841 213.538C116.562 214.621 114.872 215.335 112.747 214.979C111.967 214.848 111.415 214.11 111.513 213.331C111.61 212.551 112.321 212.025 113.1 212.155C114.264 212.35 115.257 211.969 116.107 211.192C114.995 211.246 113.855 210.991 112.819 210.39C109.951 208.729 108.968 205.054 110.622 202.183C111.445 200.753 112.767 199.792 114.241 199.392Z" fill="white" style="fill:white;fill-opacity:1;"/>
<path d="M114.241 199.392L114.486 199.296L114.594 199.57L114.31 199.647L114.241 199.392ZM125.771 196.54L125.861 196.789L125.546 196.902L125.509 196.569L125.771 196.54ZM128.453 208.164L128.205 208.253L128.092 207.937L128.425 207.902L128.453 208.164ZM117.841 213.538L117.671 213.337L117.895 213.146L118.059 213.392L117.841 213.538ZM112.747 214.979L112.79 214.718L112.79 214.718L112.747 214.979ZM111.513 213.331L111.774 213.364L111.774 213.364L111.513 213.331ZM113.1 212.155L113.057 212.416L113.057 212.416L113.1 212.155ZM116.107 211.192L116.094 210.928L116.826 210.892L116.285 211.387L116.107 211.192ZM114.851 194.314C113.942 195.891 113.866 197.722 114.486 199.296L113.995 199.489C113.319 197.771 113.402 195.772 114.394 194.05L114.851 194.314ZM122.677 192.22C119.936 190.631 116.432 191.569 114.851 194.314L114.394 194.05C116.121 191.052 119.947 190.028 122.94 191.763L122.677 192.22ZM125.509 196.569C125.315 194.814 124.319 193.171 122.677 192.22L122.94 191.763C124.734 192.802 125.821 194.596 126.033 196.512L125.509 196.569ZM130.677 197.22C129.153 196.337 127.395 196.234 125.861 196.789L125.682 196.292C127.356 195.687 129.277 195.799 130.94 196.763L130.677 197.22ZM132.777 205.066C134.358 202.321 133.418 198.808 130.677 197.22L130.94 196.763C133.933 198.497 134.96 202.333 133.233 205.331L132.777 205.066ZM128.425 207.902C130.182 207.714 131.827 206.716 132.777 205.066L133.233 205.331C132.196 207.133 130.399 208.222 128.482 208.427L128.425 207.902ZM127.777 213.066C128.653 211.545 128.755 209.789 128.205 208.253L128.701 208.075C129.301 209.751 129.19 211.67 128.233 213.331L127.777 213.066ZM119.951 215.161C122.692 216.75 126.196 215.812 127.777 213.066L128.233 213.331C126.507 216.329 122.681 217.353 119.688 215.618L119.951 215.161ZM118.059 213.392C118.532 214.096 119.168 214.707 119.951 215.161L119.688 215.618C118.833 215.123 118.138 214.456 117.622 213.685L118.059 213.392ZM112.79 214.718C114.825 215.059 116.439 214.38 117.671 213.337L118.011 213.74C116.685 214.863 114.92 215.61 112.703 215.239L112.79 214.718ZM111.774 213.364C111.694 214.001 112.148 214.611 112.79 214.718L112.703 215.239C111.786 215.085 111.136 214.219 111.251 213.298L111.774 213.364ZM113.057 212.416C112.424 212.31 111.853 212.735 111.774 213.364L111.251 213.298C111.368 212.367 112.219 211.74 113.143 211.895L113.057 212.416ZM116.285 211.387C115.386 212.208 114.315 212.626 113.057 212.416L113.143 211.895C114.214 212.074 115.128 211.729 115.93 210.996L116.285 211.387ZM112.95 210.162C113.941 210.736 115.031 210.98 116.094 210.928L116.121 211.455C114.959 211.512 113.768 211.245 112.687 210.619L112.95 210.162ZM110.85 202.315C109.269 205.06 110.209 208.573 112.95 210.162L112.687 210.619C109.694 208.884 108.667 205.048 110.393 202.05L110.85 202.315ZM114.31 199.647C112.9 200.029 111.637 200.948 110.85 202.315L110.393 202.05C111.253 200.558 112.633 199.554 114.171 199.137L114.31 199.647Z" fill="black" fill-opacity="0.2" style="fill:black;fill-opacity:0.2;"/>
<path fill-rule="evenodd" clip-rule="evenodd" d="M18.5041 180.934C19.1383 180.123 19.9888 179.465 21.0133 179.057C24.0924 177.833 27.576 179.338 28.7942 182.42C29.5467 184.323 29.2588 186.383 28.2031 187.968C29.7862 188.522 31.1285 189.736 31.7942 191.42C33.0124 194.501 31.5039 197.992 28.4248 199.217C26.8315 199.851 25.1299 199.753 23.6899 199.085C23.0728 200.465 21.9385 201.615 20.4243 202.218C17.3452 203.442 13.8616 201.937 12.6434 198.855C12.0592 197.377 12.1021 195.805 12.6446 194.434C10.8853 193.956 9.36588 192.683 8.64337 190.855C7.42517 187.774 8.93373 184.283 12.0128 183.058C13.4511 182.486 14.9776 182.509 16.3203 183.011C16.3068 182.983 16.2932 182.956 16.2794 182.928C15.469 181.304 14.3101 180.268 12.6528 180.3C11.861 180.316 11.233 179.693 11.2501 178.91C11.2671 178.126 11.9228 177.478 12.7145 177.463C15.5833 177.407 17.4129 179.1 18.5041 180.934Z" fill="white" style="fill:white;fill-opacity:1;"/>
<path d="M18.5041 180.934L18.2776 181.069L18.4743 181.399L18.7115 181.096L18.5041 180.934ZM28.2031 187.968L27.9839 187.822L27.7953 188.105L28.1158 188.217L28.2031 187.968ZM23.6899 199.085L23.8011 198.845L23.5587 198.733L23.4494 198.977L23.6899 199.085ZM20.4243 202.218L20.3274 201.972L20.4243 202.218ZM12.6446 194.434L12.8896 194.531L12.9982 194.257L12.714 194.18L12.6446 194.434ZM16.3203 183.011L16.2278 183.258L16.8456 183.489L16.5574 182.895L16.3203 183.011ZM16.2794 182.928L16.5152 182.81L16.5152 182.81L16.2794 182.928ZM12.6528 180.3L12.6575 180.564L12.6575 180.564L12.6528 180.3ZM11.2501 178.91L11.5136 178.915L11.5136 178.915L11.2501 178.91ZM12.7145 177.463L12.7192 177.727L12.7192 177.727L12.7145 177.463ZM20.9163 178.812C19.8473 179.237 18.9589 179.925 18.2967 180.771L18.7115 181.096C19.3176 180.321 20.1304 179.692 21.1102 179.302L20.9163 178.812ZM29.0393 182.322C27.7676 179.105 24.1308 177.533 20.9163 178.812L21.1102 179.302C24.054 178.132 27.3845 179.571 28.5492 182.517L29.0393 182.322ZM28.4223 188.114C29.524 186.46 29.8249 184.309 29.0393 182.322L28.5492 182.517C29.2684 184.337 28.9936 186.305 27.9839 187.822L28.4223 188.114ZM32.0393 191.322C31.3443 189.564 29.9426 188.297 28.2904 187.719L28.1158 188.217C29.6299 188.747 30.9127 189.907 31.5492 191.517L32.0393 191.322ZM28.5217 199.462C31.7362 198.184 33.3111 194.539 32.0393 191.322L31.5492 191.517C32.7138 194.463 31.2716 197.801 28.3278 198.972L28.5217 199.462ZM23.5788 199.324C25.0816 200.022 26.8584 200.124 28.5217 199.462L28.3278 198.972C26.8045 199.577 25.1782 199.485 23.8011 198.845L23.5788 199.324ZM20.5213 202.463C22.1019 201.834 23.2864 200.633 23.9304 199.192L23.4494 198.977C22.8593 200.297 21.775 201.397 20.3274 201.972L20.5213 202.463ZM12.3983 198.953C13.67 202.17 17.3068 203.741 20.5213 202.463L20.3274 201.972C17.3836 203.143 14.0531 201.704 12.8884 198.758L12.3983 198.953ZM12.3996 194.337C11.8333 195.768 11.7884 197.41 12.3983 198.953L12.8884 198.758C12.3299 197.345 12.3708 195.842 12.8896 194.531L12.3996 194.337ZM8.39829 190.953C9.15263 192.861 10.7393 194.19 12.5752 194.689L12.714 194.18C11.0313 193.722 9.57913 192.505 8.88845 190.758L8.39829 190.953ZM11.9159 182.813C8.70142 184.091 7.12655 187.736 8.39829 190.953L8.88845 190.758C7.7238 187.812 9.16604 184.474 12.1098 183.303L11.9159 182.813ZM16.4128 182.764C15.0113 182.24 13.4172 182.215 11.9159 182.813L12.1098 183.303C13.485 182.756 14.9439 182.779 16.2278 183.258L16.4128 182.764ZM16.5574 182.895C16.5435 182.867 16.5294 182.838 16.5152 182.81L16.0436 183.046C16.057 183.073 16.0702 183.1 16.0832 183.127L16.5574 182.895ZM16.5152 182.81C15.6813 181.139 14.4482 180.001 12.648 180.037L12.6575 180.564C14.172 180.535 15.2566 181.47 16.0436 183.046L16.5152 182.81ZM12.648 180.037C12.0028 180.049 11.4998 179.546 11.5136 178.915L10.9866 178.904C10.9662 179.841 11.7192 180.583 12.6575 180.564L12.648 180.037ZM11.5136 178.915C11.5275 178.276 12.0662 177.739 12.7192 177.727L12.7098 177.199C11.7793 177.217 11.0068 177.976 10.9866 178.904L11.5136 178.915ZM12.7192 177.727C15.4604 177.673 17.2151 179.284 18.2776 181.069L18.7306 180.798C17.6106 178.916 15.7062 177.141 12.7098 177.199L12.7192 177.727Z" fill="black" fill-opacity="0.2" style="fill:black;fill-opacity:0.2;"/>
<path fill-rule="evenodd" clip-rule="evenodd" d="M52.5044 9.93354C53.1386 9.12293 53.9891 8.46464 55.0135 8.0572C58.0926 6.83253 61.5763 8.33792 62.7945 11.4196C63.5469 13.323 63.2591 15.3826 62.2034 16.9679C63.7865 17.5222 65.1287 18.7355 65.7945 20.4196C67.0127 23.5013 65.5041 26.9922 62.425 28.2169C60.8317 28.8506 59.1302 28.7533 57.6902 28.0849C57.0731 29.4651 55.9387 30.6153 54.4246 31.2176C51.3455 32.4423 47.8618 30.9369 46.6436 27.8552C46.0594 26.3773 46.1023 24.8053 46.6448 23.4342C44.8855 22.9562 43.3661 21.6829 42.6436 19.8552C41.4254 16.7735 42.934 13.2826 46.0131 12.0579C47.4514 11.4858 48.978 11.5095 50.3207 12.0112C50.3072 11.9834 50.2936 11.9557 50.2798 11.9281C49.4693 10.3043 48.3105 9.26806 46.6532 9.30036C45.8615 9.31579 45.2335 8.69307 45.2505 7.90948C45.2676 7.12588 45.9232 6.47814 46.7149 6.46271C49.5837 6.40679 51.4132 8.09981 52.5044 9.93354Z" fill="white" style="fill:white;fill-opacity:1;"/>
<path d="M52.5044 9.93354L52.278 10.0689L52.4746 10.3993L52.7118 10.0961L52.5044 9.93354ZM62.2034 16.9679L61.9842 16.8217L61.7956 17.1049L62.116 17.2171L62.2034 16.9679ZM57.6902 28.0849L57.8013 27.8454L57.5589 27.7329L57.4496 27.9774L57.6902 28.0849ZM54.4246 31.2176L54.3276 30.9723L54.4246 31.2176ZM46.6448 23.4342L46.8898 23.5311L46.9984 23.2567L46.7142 23.1795L46.6448 23.4342ZM50.3207 12.0112L50.2282 12.2585L50.846 12.4893L50.5578 11.8955L50.3207 12.0112ZM50.2798 11.9281L50.5156 11.8098L50.5156 11.8098L50.2798 11.9281ZM46.6532 9.30036L46.6484 9.03647L46.6484 9.03647L46.6532 9.30036ZM46.7149 6.46271L46.7196 6.7266L46.7196 6.7266L46.7149 6.46271ZM54.9166 7.81192C53.8475 8.23711 52.9592 8.92448 52.297 9.77097L52.7118 10.0961C53.3179 9.32138 54.1307 8.69217 55.1105 8.30248L54.9166 7.81192ZM63.0395 11.3221C61.7678 8.10498 58.131 6.53341 54.9166 7.81192L55.1105 8.30248C58.0542 7.13164 61.3847 8.57086 62.5494 11.5171L63.0395 11.3221ZM62.4226 17.1141C63.5242 15.4598 63.8251 13.3094 63.0395 11.3221L62.5494 11.5171C63.2687 13.3366 62.9939 15.3055 61.9842 16.8217L62.4226 17.1141ZM66.0395 20.3221C65.3445 18.564 63.9428 17.2972 62.2907 16.7187L62.116 17.2171C63.6301 17.7472 64.913 18.9071 65.5494 20.5171L66.0395 20.3221ZM62.522 28.4622C65.7364 27.1837 67.3113 23.5392 66.0395 20.3221L65.5494 20.5171C66.714 23.4633 65.2718 26.8008 62.3281 27.9716L62.522 28.4622ZM57.579 28.3244C59.0819 29.022 60.8587 29.1237 62.522 28.4622L62.3281 27.9716C60.8048 28.5775 59.1784 28.4847 57.8013 27.8454L57.579 28.3244ZM54.5215 31.4629C56.1021 30.8342 57.2866 29.633 57.9307 28.1925L57.4496 27.9774C56.8595 29.2972 55.7753 30.3965 54.3276 30.9723L54.5215 31.4629ZM46.3985 27.9527C47.6703 31.1698 51.3071 32.7414 54.5215 31.4629L54.3276 30.9723C51.3838 32.1431 48.0533 30.7039 46.8887 27.7577L46.3985 27.9527ZM46.3998 23.3373C45.8336 24.7684 45.7887 26.4099 46.3985 27.9527L46.8887 27.7577C46.3301 26.3447 46.371 24.8422 46.8898 23.5311L46.3998 23.3373ZM42.3985 19.9527C43.1529 21.8609 44.7395 23.1901 46.5754 23.689L46.7142 23.1795C45.0315 22.7223 43.5794 21.505 42.8887 19.7577L42.3985 19.9527ZM45.9161 11.8126C42.7017 13.0911 41.1268 16.7355 42.3985 19.9527L42.8887 19.7577C41.724 16.8115 43.1663 13.474 46.11 12.3032L45.9161 11.8126ZM50.4132 11.7639C49.0117 11.2402 47.4175 11.2154 45.9161 11.8126L46.11 12.3032C47.4853 11.7562 48.9443 11.7787 50.2282 12.2585L50.4132 11.7639ZM50.5578 11.8955C50.5439 11.8669 50.5298 11.8383 50.5156 11.8098L50.044 12.0464C50.0573 12.0731 50.0706 12.1 50.0836 12.1269L50.5578 11.8955ZM50.5156 11.8098C49.6816 10.139 48.4486 9.00138 46.6484 9.03647L46.6579 9.56425C48.1724 9.53473 49.257 10.4697 50.044 12.0464L50.5156 11.8098ZM46.6484 9.03647C46.0033 9.04905 45.5003 8.54549 45.514 7.91483L44.987 7.90413C44.9666 8.84066 45.7196 9.58254 46.6579 9.56425L46.6484 9.03647ZM45.514 7.91483C45.5279 7.27563 46.0666 6.73933 46.7196 6.7266L46.7102 6.19882C45.7798 6.21696 45.0072 6.97614 44.987 7.90413L45.514 7.91483ZM46.7196 6.7266C49.4608 6.67317 51.2154 8.28343 52.278 10.0689L52.7309 9.79817C51.6109 7.9162 49.7065 6.14042 46.7102 6.19882L46.7196 6.7266Z" fill="black" fill-opacity="0.2" style="fill:black;fill-opacity:0.2;"/>
<path fill-rule="evenodd" clip-rule="evenodd" d="M136.495 155.933C135.86 155.123 135.01 154.465 133.985 154.057C130.906 152.833 127.423 154.338 126.205 157.42C125.452 159.323 125.74 161.383 126.796 162.968C125.213 163.522 123.87 164.736 123.205 166.42C121.986 169.501 123.495 172.992 126.574 174.217C128.167 174.851 129.869 174.753 131.309 174.085C131.926 175.465 133.06 176.615 134.574 177.218C137.654 178.442 141.137 176.937 142.355 173.855C142.94 172.377 142.897 170.805 142.354 169.434C144.113 168.956 145.633 167.683 146.355 165.855C147.574 162.774 146.065 159.283 142.986 158.058C141.548 157.486 140.021 157.509 138.678 158.011C138.692 157.983 138.705 157.956 138.719 157.928C139.53 156.304 140.688 155.268 142.346 155.3C143.137 155.316 143.765 154.693 143.748 153.909C143.731 153.126 143.076 152.478 142.284 152.463C139.415 152.407 137.586 154.1 136.495 155.933Z" fill="white" style="fill:white;fill-opacity:1;"/>
<path d="M136.495 155.933L136.721 156.069L136.524 156.399L136.287 156.096L136.495 155.933ZM126.796 162.968L127.015 162.822L127.203 163.105L126.883 163.217L126.796 162.968ZM131.309 174.085L131.198 173.845L131.44 173.733L131.549 173.977L131.309 174.085ZM134.574 177.218L134.671 176.972L134.574 177.218ZM142.354 169.434L142.109 169.531L142.001 169.257L142.285 169.18L142.354 169.434ZM138.678 158.011L138.771 158.259L138.153 158.489L138.441 157.896L138.678 158.011ZM138.719 157.928L138.955 158.046L138.955 158.046L138.719 157.928ZM142.346 155.3L142.341 155.564L142.341 155.564L142.346 155.3ZM142.284 152.463L142.279 152.727L142.279 152.727L142.284 152.463ZM134.082 153.812C135.151 154.237 136.04 154.924 136.702 155.771L136.287 156.096C135.681 155.321 134.868 154.692 133.889 154.302L134.082 153.812ZM125.959 157.322C127.231 154.105 130.868 152.533 134.082 153.812L133.889 154.302C130.945 153.132 127.614 154.571 126.45 157.517L125.959 157.322ZM126.576 163.114C125.475 161.46 125.174 159.309 125.959 157.322L126.45 157.517C125.73 159.337 126.005 161.305 127.015 162.822L126.576 163.114ZM122.959 166.322C123.654 164.564 125.056 163.297 126.708 162.719L126.883 163.217C125.369 163.747 124.086 164.907 123.45 166.517L122.959 166.322ZM126.477 174.462C123.263 173.184 121.688 169.539 122.959 166.322L123.45 166.517C122.285 169.463 123.727 172.801 126.671 173.972L126.477 174.462ZM131.42 174.324C129.917 175.022 128.14 175.124 126.477 174.462L126.671 173.972C128.194 174.577 129.821 174.485 131.198 173.845L131.42 174.324ZM134.478 177.463C132.897 176.834 131.712 175.633 131.068 174.192L131.549 173.977C132.139 175.297 133.224 176.397 134.671 176.972L134.478 177.463ZM142.6 173.953C141.329 177.17 137.692 178.741 134.478 177.463L134.671 176.972C137.615 178.143 140.946 176.704 142.11 173.758L142.6 173.953ZM142.599 169.337C143.165 170.768 143.21 172.41 142.6 173.953L142.11 173.758C142.669 172.345 142.628 170.842 142.109 169.531L142.599 169.337ZM146.6 165.953C145.846 167.861 144.259 169.19 142.424 169.689L142.285 169.18C143.967 168.722 145.42 167.505 146.11 165.758L146.6 165.953ZM143.083 157.813C146.297 159.091 147.872 162.736 146.6 165.953L146.11 165.758C147.275 162.812 145.833 159.474 142.889 158.303L143.083 157.813ZM138.586 157.764C139.987 157.24 141.581 157.215 143.083 157.813L142.889 158.303C141.514 157.756 140.055 157.779 138.771 158.259L138.586 157.764ZM138.441 157.896C138.455 157.867 138.469 157.838 138.483 157.81L138.955 158.046C138.942 158.073 138.928 158.1 138.915 158.127L138.441 157.896ZM138.483 157.81C139.317 156.139 140.55 155.001 142.35 155.036L142.341 155.564C140.827 155.535 139.742 156.47 138.955 158.046L138.483 157.81ZM142.35 155.036C142.996 155.049 143.499 154.545 143.485 153.915L144.012 153.904C144.032 154.841 143.279 155.582 142.341 155.564L142.35 155.036ZM143.485 153.915C143.471 153.276 142.932 152.739 142.279 152.727L142.289 152.199C143.219 152.217 143.992 152.976 144.012 153.904L143.485 153.915ZM142.279 152.727C139.538 152.673 137.784 154.283 136.721 156.069L136.268 155.798C137.388 153.916 139.292 152.14 142.289 152.199L142.279 152.727Z" fill="black" fill-opacity="0.2" style="fill:black;fill-opacity:0.2;"/>
<path fill-rule="evenodd" clip-rule="evenodd" d="M54.4836 174.079C53.8506 174.883 53.0039 175.536 51.9853 175.941C48.9062 177.166 45.4225 175.661 44.2043 172.579C43.4519 170.676 43.7397 168.616 44.7954 167.031C43.2123 166.476 41.87 165.263 41.2043 163.579C39.9861 160.497 41.4947 157.006 44.5738 155.782C46.1672 155.148 47.8689 155.245 49.309 155.914C49.9261 154.534 51.0604 153.384 52.5742 152.782C55.6533 151.557 59.137 153.063 60.3552 156.144C60.9394 157.622 60.8965 159.194 60.354 160.565C62.1132 161.043 63.6327 162.317 64.3552 164.144C65.5734 167.226 64.0648 170.717 60.9857 171.942C59.5386 172.517 58.0022 172.49 56.6536 171.979C56.6693 172.012 56.6853 172.045 56.7014 172.077C57.5097 173.705 58.6655 174.744 60.3185 174.712C61.1082 174.697 61.7345 175.321 61.7175 176.107C61.7004 176.892 61.0465 177.542 60.2568 177.557C57.3965 177.613 55.5721 175.917 54.4836 174.079Z" fill="white" style="fill:white;fill-opacity:1;"/>
<path d="M54.4836 174.079L54.7104 173.944L54.5146 173.613L54.2767 173.916L54.4836 174.079ZM44.7954 167.031L45.0146 167.177L45.2032 166.894L44.8827 166.782L44.7954 167.031ZM49.309 155.914L49.1978 156.153L49.4402 156.266L49.5495 156.021L49.309 155.914ZM52.5742 152.782L52.6712 153.027L52.5742 152.782ZM60.354 160.565L60.1089 160.468L60.0004 160.743L60.2846 160.82L60.354 160.565ZM56.6536 171.979L56.7471 171.732L56.1301 171.499L56.416 172.094L56.6536 171.979ZM56.7014 172.077L56.9375 171.959L56.9375 171.959L56.7014 172.077ZM60.3185 174.712L60.3137 174.448L60.3137 174.448L60.3185 174.712ZM61.7175 176.107L61.454 176.101L61.454 176.101L61.7175 176.107ZM60.2568 177.557L60.2521 177.293L60.2521 177.293L60.2568 177.557ZM52.0822 176.187C53.1452 175.764 54.0295 175.082 54.6905 174.242L54.2767 173.916C53.6717 174.684 52.8625 175.309 51.8883 175.696L52.0822 176.187ZM43.9592 172.677C45.231 175.894 48.8678 177.465 52.0822 176.187L51.8883 175.696C48.9445 176.867 45.614 175.428 44.4494 172.482L43.9592 172.677ZM44.5762 166.885C43.4746 168.539 43.1736 170.689 43.9592 172.677L44.4494 172.482C43.7301 170.662 44.0049 168.693 45.0146 167.177L44.5762 166.885ZM40.9592 163.677C41.6542 165.435 43.056 166.701 44.7081 167.28L44.8827 166.782C43.3687 166.251 42.0858 165.092 41.4494 163.482L40.9592 163.677ZM44.4768 155.536C41.2624 156.815 39.6875 160.459 40.9592 163.677L41.4494 163.482C40.2847 160.535 41.727 157.198 44.6707 156.027L44.4768 155.536ZM49.4201 155.674C47.9172 154.977 46.1402 154.875 44.4768 155.536L44.6707 156.027C46.1941 155.421 47.8206 155.514 49.1978 156.153L49.4201 155.674ZM52.4773 152.537C50.8969 153.165 49.7126 154.366 49.0685 155.806L49.5495 156.021C50.1397 154.702 51.2238 153.603 52.6712 153.027L52.4773 152.537ZM60.6002 156.047C59.3285 152.83 55.6917 151.258 52.4773 152.537L52.6712 153.027C55.6149 151.856 58.9454 153.296 60.1101 156.242L60.6002 156.047ZM60.599 160.662C61.1652 159.231 61.2101 157.59 60.6002 156.047L60.1101 156.242C60.6687 157.655 60.6277 159.157 60.1089 160.468L60.599 160.662ZM64.6002 164.047C63.8459 162.139 62.2592 160.81 60.4233 160.311L60.2846 160.82C61.9672 161.277 63.4194 162.495 64.1101 164.242L64.6002 164.047ZM61.0827 172.187C64.2971 170.909 65.872 167.264 64.6002 164.047L64.1101 164.242C65.2747 167.188 63.8325 170.526 60.8887 171.696L61.0827 172.187ZM56.56 172.226C57.9677 172.759 59.5721 172.788 61.0827 172.187L60.8887 171.696C59.5051 172.247 58.0367 172.221 56.7471 171.732L56.56 172.226ZM56.416 172.094C56.4322 172.128 56.4487 172.161 56.4654 172.195L56.9375 171.959C56.9218 171.928 56.9064 171.896 56.8911 171.864L56.416 172.094ZM56.4654 172.195C57.2968 173.87 58.5267 175.011 60.3232 174.976L60.3137 174.448C58.8043 174.478 57.7226 173.541 56.9375 171.959L56.4654 172.195ZM60.3232 174.976C60.965 174.963 61.4677 175.467 61.454 176.101L61.981 176.112C62.0013 175.175 61.2513 174.43 60.3137 174.448L60.3232 174.976ZM61.454 176.101C61.44 176.744 60.9018 177.281 60.2521 177.293L60.2616 177.821C61.1912 177.803 61.9608 177.041 61.981 176.112L61.454 176.101ZM60.2521 177.293C57.52 177.347 55.7704 175.734 54.7104 173.944L54.2569 174.214C55.3737 176.1 57.273 177.88 60.2616 177.821L60.2521 177.293Z" fill="black" fill-opacity="0.2" style="fill:black;fill-opacity:0.2;"/>
<path fill-rule="evenodd" clip-rule="evenodd" d="M17.4836 53.0789C16.8506 53.8832 16.0038 54.5363 14.9853 54.9415C11.9062 56.1661 8.42251 54.6607 7.20431 51.5791C6.45187 49.6756 6.73972 47.616 7.79541 46.0308C6.21232 45.4765 4.87003 44.2631 4.20431 42.5791C2.98611 39.4974 4.49467 36.0064 7.57377 34.7818C9.16717 34.148 10.8689 34.2453 12.309 34.9139C12.9261 33.5341 14.0604 32.3842 15.5742 31.782C18.6533 30.5574 22.137 32.0628 23.3552 35.1444C23.9394 36.6223 23.8965 38.1943 23.354 39.5654C25.1132 40.0435 26.6327 41.3167 27.3552 43.1444C28.5734 46.2261 27.0648 49.7171 23.9857 50.9417C22.5386 51.5173 21.0021 51.4899 19.6534 50.9792C19.6692 51.0119 19.6851 51.0446 19.7013 51.0773C20.5096 52.7053 21.6654 53.7444 23.3183 53.712C24.108 53.6966 24.7343 54.321 24.7173 55.1067C24.7003 55.8923 24.0463 56.5418 23.2567 56.5573C20.3964 56.6132 18.572 54.9168 17.4836 53.0789Z" fill="white" style="fill:white;fill-opacity:1;"/>
<path d="M17.4836 53.0789L17.7103 52.944L17.5145 52.6134L17.2767 52.9157L17.4836 53.0789ZM7.79541 46.0308L8.01461 46.177L8.20319 45.8938L7.88273 45.7816L7.79541 46.0308ZM12.309 34.9139L12.1978 35.1534L12.4402 35.2659L12.5495 35.0215L12.309 34.9139ZM15.5742 31.782L15.6712 32.0273L15.5742 31.782ZM23.354 39.5654L23.1089 39.4685L23.0004 39.7429L23.2846 39.8201L23.354 39.5654ZM19.6534 50.9792L19.747 50.7323L19.1299 50.4986L19.4159 51.0939L19.6534 50.9792ZM19.7013 51.0773L19.9374 50.9595L19.9374 50.9595L19.7013 51.0773ZM23.3183 53.712L23.3231 53.9759L23.3231 53.9759L23.3183 53.712ZM24.7173 55.1067L24.4538 55.1013L24.4538 55.1013L24.7173 55.1067ZM23.2567 56.5573L23.2614 56.8211L23.2614 56.8211L23.2567 56.5573ZM15.0822 55.1867C16.1452 54.764 17.0294 54.082 17.6905 53.2421L17.2767 52.9157C16.6717 53.6844 15.8625 54.3087 14.8883 54.6962L15.0822 55.1867ZM6.95923 51.6765C8.23098 54.8937 11.8678 56.4652 15.0822 55.1867L14.8883 54.6962C11.9445 55.867 8.61403 54.4278 7.44938 51.4816L6.95923 51.6765ZM7.57621 45.8846C6.47455 47.5388 6.17363 49.6892 6.95923 51.6765L7.44938 51.4816C6.7301 49.662 7.00489 47.6932 8.01461 46.177L7.57621 45.8846ZM3.95923 42.6765C4.65424 44.4347 6.05597 45.7015 7.70809 46.2799L7.88273 45.7816C6.36866 45.2515 5.08582 44.0916 4.44938 42.4816L3.95923 42.6765ZM7.47681 34.5365C4.26236 35.815 2.68748 39.4594 3.95923 42.6765L4.44938 42.4816C3.28474 39.5354 4.72698 36.1979 7.67073 35.027L7.47681 34.5365ZM12.4201 34.6744C10.9172 33.9767 9.14023 33.8749 7.47681 34.5365L7.67073 35.027C9.19411 34.4211 10.8206 34.514 12.1978 35.1534L12.4201 34.6744ZM15.4773 31.5368C13.8969 32.1653 12.7126 33.3662 12.0685 34.8063L12.5495 35.0215C13.1397 33.702 14.2238 32.603 15.6712 32.0273L15.4773 31.5368ZM23.6002 35.047C22.3285 31.8298 18.6917 30.2583 15.4773 31.5368L15.6712 32.0273C18.6149 30.8565 21.9454 32.2957 23.1101 35.2419L23.6002 35.047ZM23.599 39.6623C24.1652 38.2313 24.2101 36.5897 23.6002 35.047L23.1101 35.2419C23.6687 36.655 23.6277 38.1574 23.1089 39.4685L23.599 39.6623ZM27.6002 43.047C26.8459 41.1387 25.2592 39.8095 23.4233 39.3107L23.2846 39.8201C24.9672 40.2774 26.4194 41.4947 27.1101 43.2419L27.6002 43.047ZM24.0827 51.187C27.2971 49.9085 28.872 46.2641 27.6002 43.047L27.1101 43.2419C28.2747 46.1881 26.8325 49.5256 23.8887 50.6965L24.0827 51.187ZM19.5599 51.2261C20.9676 51.7591 22.5721 51.7878 24.0827 51.187L23.8887 50.6965C22.5051 51.2468 21.0366 51.2206 19.747 50.7323L19.5599 51.2261ZM19.4159 51.0939C19.4321 51.1277 19.4486 51.1614 19.4653 51.195L19.9374 50.9595C19.9217 50.9279 19.9062 50.8962 19.891 50.8644L19.4159 51.0939ZM19.4653 51.195C20.2967 52.8697 21.5265 54.0111 23.3231 53.9759L23.3136 53.4481C21.8042 53.4777 20.7225 52.541 19.9374 50.9595L19.4653 51.195ZM23.3231 53.9759C23.9648 53.9634 24.4675 54.4672 24.4538 55.1013L24.9808 55.112C25.0011 54.1748 24.2512 53.4298 23.3136 53.4481L23.3231 53.9759ZM24.4538 55.1013C24.4399 55.7439 23.9016 56.2806 23.2519 56.2934L23.2614 56.8211C24.191 56.8029 24.9607 56.0408 24.9808 55.112L24.4538 55.1013ZM23.2519 56.2934C20.5199 56.3468 18.7703 54.734 17.7103 52.944L17.2568 53.2138C18.3736 55.0997 20.2729 56.8796 23.2614 56.8211L23.2519 56.2934Z" fill="black" fill-opacity="0.2" style="fill:black;fill-opacity:0.2;"/>
<path fill-rule="evenodd" clip-rule="evenodd" d="M125.05 20.1496C124.762 20.8896 124.321 21.5839 123.728 22.1845C121.401 24.5431 117.608 24.5623 115.256 22.2274C114.053 21.033 113.461 19.4539 113.48 17.8806C111.641 18.1944 109.683 17.6444 108.256 16.2274C105.905 13.8925 105.885 10.0878 108.213 7.72922C109.387 6.53979 110.934 5.94531 112.48 5.94768C112.482 4.42296 113.059 2.8984 114.213 1.72922C116.541 -0.629327 120.334 -0.64853 122.685 1.68633C123.888 2.88074 124.481 4.45979 124.461 6.03314C126.3 5.71937 128.258 6.26934 129.685 7.68633C132.037 10.0212 132.056 13.826 129.728 16.1845C128.895 17.029 127.873 17.5736 126.798 17.8176C127.943 18.5271 129.133 18.7337 130.34 18.1765C131.057 17.8455 131.881 18.1662 132.181 18.8928C132.481 19.6194 132.143 20.4768 131.426 20.8078C128.979 21.9373 126.75 21.2731 125.05 20.1496Z" fill="white" style="fill:white;fill-opacity:1;"/>
<path d="M125.05 20.1496L125.195 19.929L124.923 19.7495L124.805 20.0534L125.05 20.1496ZM113.48 17.8806L113.744 17.8839L113.748 17.567L113.436 17.6202L113.48 17.8806ZM112.48 5.94768L112.48 6.21183L112.743 6.21223L112.743 5.94807L112.48 5.94768ZM124.461 6.03314L124.198 6.02981L124.194 6.34668L124.505 6.29355L124.461 6.03314ZM126.798 17.8176L126.74 17.56L126.111 17.7025L126.659 18.0423L126.798 17.8176ZM130.34 18.1765L130.45 18.4164L130.45 18.4164L130.34 18.1765ZM131.426 20.8078L131.316 20.5679L131.316 20.5679L131.426 20.8078ZM123.915 22.3703C124.534 21.7437 124.994 21.0187 125.295 20.2459L124.805 20.0534C124.529 20.7604 124.108 21.4241 123.541 21.9987L123.915 22.3703ZM115.071 22.4151C117.526 24.8526 121.485 24.8326 123.915 22.3703L123.541 21.9987C121.316 24.2535 117.689 24.2719 115.441 22.0397L115.071 22.4151ZM113.217 17.8773C113.196 19.5193 113.815 21.1682 115.071 22.4151L115.441 22.0397C114.291 20.8977 113.725 19.3886 113.744 17.8839L113.217 17.8773ZM108.071 16.4151C109.561 17.8945 111.605 18.4684 113.525 18.141L113.436 17.6202C111.677 17.9203 109.806 17.3942 108.441 16.0397L108.071 16.4151ZM108.026 7.54338C105.596 10.0056 105.616 13.9776 108.071 16.4151L108.441 16.0397C106.193 13.8074 106.175 10.1699 108.4 7.91506L108.026 7.54338ZM112.48 5.68352C110.866 5.68105 109.251 6.3017 108.026 7.54338L108.4 7.91506C109.523 6.77787 111.001 6.20956 112.48 6.21183L112.48 5.68352ZM114.026 1.54338C112.821 2.76389 112.219 4.35593 112.217 5.94729L112.743 5.94807C112.745 4.48999 113.297 3.0329 114.4 1.91506L114.026 1.54338ZM122.871 1.49861C120.416 -0.938892 116.456 -0.918844 114.026 1.54338L114.4 1.91506C116.626 -0.339809 120.252 -0.358169 122.5 1.87406L122.871 1.49861ZM124.724 6.03646C124.745 4.39442 124.126 2.74549 122.871 1.49861L122.5 1.87406C123.65 3.01599 124.217 4.52517 124.198 6.02981L124.724 6.03646ZM129.871 7.49861C128.381 6.01918 126.336 5.4453 124.417 5.77272L124.505 6.29355C126.264 5.99345 128.136 6.5195 129.5 7.87406L129.871 7.49861ZM129.915 16.3703C132.345 13.9081 132.325 9.9361 129.871 7.49861L129.5 7.87406C131.748 10.1063 131.766 13.7438 129.541 15.9987L129.915 16.3703ZM126.856 18.0753C127.979 17.8205 129.046 17.2517 129.915 16.3703L129.541 15.9987C128.744 16.8064 127.768 17.3268 126.74 17.56L126.856 18.0753ZM126.659 18.0423C127.859 18.7856 129.143 19.0198 130.45 18.4164L130.23 17.9365C129.123 18.4477 128.026 18.2685 126.936 17.5929L126.659 18.0423ZM130.45 18.4164C131.033 18.1474 131.696 18.4074 131.938 18.9938L132.424 18.7918C132.067 17.925 131.081 17.5436 130.23 17.9365L130.45 18.4164ZM131.938 18.9938C132.183 19.5879 131.905 20.2955 131.316 20.5679L131.536 21.0478C132.38 20.6581 132.779 19.651 132.424 18.7918L131.938 18.9938ZM131.316 20.5679C128.978 21.6473 126.847 21.0204 125.195 19.929L124.905 20.3702C126.654 21.5258 128.981 22.2274 131.536 21.0478L131.316 20.5679Z" fill="black" fill-opacity="0.2" style="fill:black;fill-opacity:0.2;"/>
<path fill-rule="evenodd" clip-rule="evenodd" d="M89.5044 8.0656C90.1386 8.87621 90.9891 9.5345 92.0135 9.94195C95.0926 11.1666 98.5763 9.66122 99.7945 6.57956C100.547 4.67611 100.259 2.61651 99.2034 1.03126C100.786 0.476968 102.129 -0.736365 102.794 -2.42044C104.013 -5.50211 102.504 -8.99308 99.425 -10.2178C97.8316 -10.8515 96.1299 -10.7542 94.6898 -10.0856C94.0726 -11.4654 92.9384 -12.6153 91.4246 -13.2175C88.3455 -14.4421 84.8618 -12.9367 83.6436 -9.85508C83.0594 -8.37719 83.1023 -6.80516 83.6448 -5.43412C81.8855 -4.95606 80.3661 -3.68281 79.6436 -1.85508C78.4254 1.22659 79.934 4.71756 83.0131 5.94223C84.4512 6.51422 85.9775 6.49067 87.3201 5.98914C87.3068 6.01652 87.2934 6.04384 87.2798 6.07109C86.4693 7.6948 85.3105 8.73108 83.6532 8.69878C82.8614 8.68335 82.2334 9.30607 82.2505 10.0897C82.2676 10.8733 82.9232 11.521 83.7149 11.5364C86.5837 11.5923 88.4132 9.89932 89.5044 8.0656Z" fill="white" style="fill:white;fill-opacity:1;"/>
<path d="M89.5044 8.0656L89.278 7.93022L89.4746 7.5998L89.7118 7.90302L89.5044 8.0656ZM99.2034 1.03126L98.9842 1.17747L98.7956 0.894292L99.116 0.782091L99.2034 1.03126ZM94.6898 -10.0856L94.801 -9.84612L94.5586 -9.73362L94.4493 -9.97802L94.6898 -10.0856ZM91.4246 -13.2175L91.3276 -12.9722L91.4246 -13.2175ZM83.6448 -5.43412L83.8898 -5.53103L83.9984 -5.25661L83.7142 -5.17938L83.6448 -5.43412ZM87.3201 5.98914L87.2277 5.74183L87.8455 5.51104L87.5572 6.10485L87.3201 5.98914ZM87.2798 6.07109L87.044 5.95279L87.044 5.95279L87.2798 6.07109ZM83.6532 8.69878L83.6484 8.96267L83.6484 8.96267L83.6532 8.69878ZM82.2505 10.0897L82.514 10.0843L82.514 10.0843L82.2505 10.0897ZM83.7149 11.5364L83.7196 11.2725L83.7196 11.2725L83.7149 11.5364ZM91.9166 10.1872C90.8475 9.76203 89.9592 9.07466 89.297 8.22817L89.7118 7.90302C90.3179 8.67776 91.1307 9.30697 92.1105 9.69667L91.9166 10.1872ZM100.04 6.67704C98.7678 9.89416 95.131 11.4657 91.9166 10.1872L92.1105 9.69667C95.0542 10.8675 98.3847 9.42828 99.5494 6.48208L100.04 6.67704ZM99.4226 0.885045C100.524 2.53933 100.825 4.6897 100.04 6.67704L99.5494 6.48208C100.269 4.66252 99.9939 2.69369 98.9842 1.17747L99.4226 0.885045ZM103.04 -2.32297C102.345 -0.564812 100.943 0.701967 99.2907 1.28042L99.116 0.782091C100.63 0.251969 101.913 -0.907919 102.549 -2.51792L103.04 -2.32297ZM99.522 -10.463C102.736 -9.18453 104.311 -5.5401 103.04 -2.32297L102.549 -2.51792C103.714 -5.46412 102.272 -8.80164 99.3281 -9.97247L99.522 -10.463ZM94.5787 -10.3251C96.0816 -11.0228 97.8585 -11.1246 99.522 -10.463L99.3281 -9.97247C97.8047 -10.5784 96.1782 -10.4855 94.801 -9.84612L94.5787 -10.3251ZM91.5215 -13.4627C93.1018 -12.8342 94.2862 -11.6333 94.9303 -10.1932L94.4493 -9.97802C93.8591 -11.2975 92.775 -12.3965 91.3276 -12.9722L91.5215 -13.4627ZM83.3985 -9.95255C84.6703 -13.1697 88.3071 -14.7412 91.5215 -13.4627L91.3276 -12.9722C88.3838 -14.143 85.0533 -12.7038 83.8887 -9.7576L83.3985 -9.95255ZM83.3998 -5.33721C82.8336 -6.76823 82.7887 -8.40982 83.3985 -9.95255L83.8887 -9.7576C83.3301 -8.34456 83.371 -6.8421 83.8898 -5.53103L83.3998 -5.33721ZM79.3985 -1.95255C80.1529 -3.86079 81.7395 -5.18998 83.5754 -5.68885L83.7142 -5.17938C82.0315 -4.72214 80.5794 -3.50483 79.8887 -1.7576L79.3985 -1.95255ZM82.9161 6.18751C79.7017 4.90901 78.1268 1.26458 79.3985 -1.95255L79.8887 -1.7576C78.724 1.1886 80.1663 4.52612 83.11 5.69695L82.9161 6.18751ZM87.4126 6.23645C86.0112 6.75994 84.4173 6.78459 82.9161 6.18751L83.11 5.69695C84.4851 6.24386 85.9439 6.2214 87.2277 5.74183L87.4126 6.23645ZM87.5572 6.10485C87.5435 6.13308 87.5296 6.16126 87.5156 6.18939L87.044 5.95279C87.0571 5.92642 87.0702 5.89997 87.083 5.87343L87.5572 6.10485ZM87.5156 6.18938C86.6816 7.86011 85.4485 8.99776 83.6484 8.96267L83.6579 8.43489C85.1724 8.46441 86.257 7.52948 87.044 5.95279L87.5156 6.18938ZM83.6484 8.96267C83.0033 8.95009 82.5003 9.45366 82.514 10.0843L81.987 10.095C81.9666 9.15848 82.7196 8.4166 83.6579 8.43489L83.6484 8.96267ZM82.514 10.0843C82.5279 10.7235 83.0666 11.2598 83.7196 11.2725L83.7102 11.8003C82.7797 11.7822 82.0072 11.023 81.987 10.095L82.514 10.0843ZM83.7196 11.2725C86.4608 11.326 88.2154 9.7157 89.278 7.93022L89.7309 8.20097C88.6109 10.0829 86.7065 11.8587 83.7102 11.8003L83.7196 11.2725Z" fill="black" fill-opacity="0.2" style="fill:black;fill-opacity:0.2;"/>
<path fill-rule="evenodd" clip-rule="evenodd" d="M70.5044 59.0657C71.1385 59.8763 71.9891 60.5346 73.0135 60.9421C76.0926 62.1667 79.5763 60.6613 80.7945 57.5797C81.5469 55.6762 81.2591 53.6166 80.2034 52.0314C81.7865 51.4771 83.1287 50.2638 83.7945 48.5797C85.0127 45.498 83.5041 42.007 80.425 40.7824C78.8317 40.1487 77.1302 40.2459 75.6902 40.9143C75.0731 39.5342 73.9387 38.3839 72.4246 37.7817C69.3455 36.557 65.8618 38.0624 64.6436 41.1441C64.0594 42.622 64.1023 44.194 64.6448 45.565C62.8855 46.0431 61.3661 47.3163 60.6436 49.1441C59.4254 52.2257 60.934 55.7167 64.0131 56.9414C65.4514 57.5134 66.978 57.4898 68.3207 56.9881C68.3072 57.0159 68.2935 57.0436 68.2798 57.0712C67.4693 58.6949 66.3104 59.7312 64.6531 59.6989C63.8614 59.6835 63.2334 60.3062 63.2505 61.0898C63.2675 61.8734 63.9232 62.5211 64.7149 62.5365C67.5836 62.5924 69.4132 60.8994 70.5044 59.0657Z" fill="white" style="fill:white;fill-opacity:1;"/>
<path d="M70.5044 59.0657L70.2779 58.9303L70.4746 58.5999L70.7118 58.9031L70.5044 59.0657ZM80.2034 52.0314L79.9842 52.1776L79.7956 51.8944L80.116 51.7822L80.2034 52.0314ZM75.6902 40.9143L75.8013 41.1538L75.5589 41.2663L75.4496 41.0219L75.6902 40.9143ZM72.4246 37.7817L72.3276 38.027L72.4246 37.7817ZM64.6448 45.565L64.8898 45.4681L64.9984 45.7425L64.7142 45.8198L64.6448 45.565ZM68.3207 56.9881L68.2282 56.7408L68.8459 56.5099L68.5577 57.1038L68.3207 56.9881ZM68.2798 57.0712L68.5155 57.1895L68.5155 57.1895L68.2798 57.0712ZM64.6531 59.6989L64.6484 59.9628L64.6484 59.9628L64.6531 59.6989ZM63.2505 61.0898L63.514 61.0844L63.514 61.0844L63.2505 61.0898ZM64.7149 62.5365L64.7196 62.2726L64.7196 62.2726L64.7149 62.5365ZM72.9166 61.1873C71.8475 60.7622 70.9592 60.0748 70.297 59.2283L70.7118 58.9031C71.3179 59.6779 72.1307 60.3071 73.1105 60.6968L72.9166 61.1873ZM81.0395 57.6772C79.7678 60.8943 76.131 62.4659 72.9166 61.1873L73.1105 60.6968C76.0542 61.8676 79.3847 60.4284 80.5494 57.4822L81.0395 57.6772ZM80.4226 51.8852C81.5242 53.5395 81.8251 55.6898 81.0395 57.6772L80.5494 57.4822C81.2687 55.6626 80.9939 53.6938 79.9842 52.1776L80.4226 51.8852ZM84.0395 48.6772C83.3445 50.4353 81.9428 51.7021 80.2907 52.2805L80.116 51.7822C81.6301 51.2521 82.913 50.0922 83.5494 48.4822L84.0395 48.6772ZM80.522 40.5371C83.7364 41.8156 85.3113 45.46 84.0395 48.6772L83.5494 48.4822C84.714 45.536 83.2718 42.1985 80.3281 41.0277L80.522 40.5371ZM75.579 40.6748C77.0819 39.9773 78.8587 39.8755 80.522 40.5371L80.3281 41.0277C78.8048 40.4218 77.1784 40.5146 75.8013 41.1538L75.579 40.6748ZM72.5215 37.5364C74.1021 38.1651 75.2866 39.3663 75.9307 40.8068L75.4496 41.0219C74.8595 39.7021 73.7753 38.6028 72.3276 38.027L72.5215 37.5364ZM64.3985 41.0466C65.6703 37.8295 69.3071 36.2579 72.5215 37.5364L72.3276 38.027C69.3838 36.8561 66.0533 38.2953 64.8887 41.2415L64.3985 41.0466ZM64.3998 45.6619C63.8336 44.2309 63.7887 42.5893 64.3985 41.0466L64.8887 41.2415C64.3301 42.6546 64.371 44.157 64.8898 45.4681L64.3998 45.6619ZM60.3985 49.0466C61.1529 47.1384 62.7395 45.8092 64.5754 45.3103L64.7142 45.8198C63.0315 46.277 61.5794 47.4943 60.8887 49.2415L60.3985 49.0466ZM63.9161 57.1867C60.7017 55.9082 59.1268 52.2637 60.3985 49.0466L60.8887 49.2415C59.724 52.1877 61.1663 55.5253 64.11 56.6961L63.9161 57.1867ZM68.4131 57.2354C67.0116 57.7591 65.4175 57.7838 63.9161 57.1867L64.11 56.6961C65.4853 57.2431 66.9443 57.2205 68.2282 56.7408L68.4131 57.2354ZM68.5577 57.1038C68.5438 57.1324 68.5298 57.161 68.5155 57.1895L68.044 56.9529C68.0573 56.9262 68.0705 56.8993 68.0836 56.8724L68.5577 57.1038ZM68.5155 57.1895C67.6816 58.8602 66.4485 59.9979 64.6484 59.9628L64.6579 59.435C66.1724 59.4645 67.257 58.5296 68.044 56.9529L68.5155 57.1895ZM64.6484 59.9628C64.0032 59.9502 63.5002 60.4538 63.514 61.0844L62.987 61.0951C62.9666 60.1586 63.7196 59.4167 64.6579 59.435L64.6484 59.9628ZM63.514 61.0844C63.5279 61.7236 64.0666 62.2599 64.7196 62.2726L64.7102 62.8004C63.7797 62.7823 63.0072 62.0231 62.987 61.0951L63.514 61.0844ZM64.7196 62.2726C67.4608 62.3261 69.2154 60.7158 70.2779 58.9303L70.7309 59.2011C69.6109 61.083 67.7065 62.8588 64.7102 62.8004L64.7196 62.2726Z" fill="black" fill-opacity="0.2" style="fill:black;fill-opacity:0.2;"/>
<path fill-rule="evenodd" clip-rule="evenodd" d="M113.515 54.0787C114.148 54.883 114.995 55.5362 116.014 55.9413C119.093 57.166 122.577 55.6606 123.795 52.5789C124.547 50.6755 124.259 48.6159 123.204 47.0306C124.787 46.4764 126.129 45.263 126.795 43.5789C128.013 40.4973 126.504 37.0063 123.425 35.7816C121.832 35.1479 120.13 35.2452 118.69 35.9138C118.073 34.534 116.939 33.384 115.425 32.7819C112.346 31.5573 108.862 33.0626 107.644 36.1443C107.06 37.6222 107.103 39.1942 107.645 40.5653C105.886 41.0433 104.366 42.3166 103.644 44.1443C102.426 47.226 103.934 50.717 107.013 51.9416C108.46 52.5172 109.997 52.4897 111.346 51.9791C111.33 52.0118 111.314 52.0445 111.298 52.0771C110.489 53.7052 109.334 54.7442 107.681 54.7119C106.891 54.6964 106.265 55.3208 106.282 56.1065C106.299 56.8922 106.953 57.5416 107.742 57.5571C110.603 57.613 112.427 55.9166 113.515 54.0787Z" fill="white" style="fill:white;fill-opacity:1;"/>
<path d="M113.515 54.0787L113.289 53.9438L113.484 53.6133L113.722 53.9155L113.515 54.0787ZM123.204 47.0306L122.984 47.1769L122.796 46.8937L123.116 46.7815L123.204 47.0306ZM118.69 35.9138L118.801 36.1533L118.559 36.2658L118.45 36.0214L118.69 35.9138ZM115.425 32.7819L115.328 33.0272L115.425 32.7819ZM107.645 40.5653L107.89 40.4684L107.999 40.7428L107.714 40.82L107.645 40.5653ZM111.346 51.9791L111.252 51.7322L111.869 51.4985L111.583 52.0938L111.346 51.9791ZM111.298 52.0771L111.534 52.1949L111.534 52.1949L111.298 52.0771ZM107.681 54.7119L107.676 54.9758L107.676 54.9758L107.681 54.7119ZM106.282 56.1065L106.545 56.1011L106.545 56.1012L106.282 56.1065ZM107.742 57.5571L107.747 57.2932L107.747 57.2932L107.742 57.5571ZM115.917 56.1866C114.854 55.7638 113.97 55.0818 113.309 54.2419L113.722 53.9155C114.327 54.6843 115.136 55.3086 116.111 55.6961L115.917 56.1866ZM124.04 52.6764C122.768 55.8936 119.131 57.4651 115.917 56.1866L116.111 55.6961C119.054 56.8669 122.385 55.4277 123.55 52.4815L124.04 52.6764ZM123.423 46.8844C124.524 48.5387 124.825 50.6891 124.04 52.6764L123.55 52.4815C124.269 50.6619 123.994 48.6931 122.984 47.1769L123.423 46.8844ZM127.04 43.6764C126.345 45.4346 124.943 46.7014 123.291 47.2798L123.116 46.7815C124.63 46.2514 125.913 45.0915 126.55 43.4815L127.04 43.6764ZM123.522 35.5364C126.737 36.8149 128.312 40.4593 127.04 43.6764L126.55 43.4815C127.714 40.5353 126.272 37.1978 123.328 36.0269L123.522 35.5364ZM118.579 35.6743C120.082 34.9766 121.859 34.8748 123.522 35.5364L123.328 36.0269C121.805 35.421 120.178 35.5139 118.801 36.1533L118.579 35.6743ZM115.522 32.5366C117.102 33.1652 118.286 34.3661 118.931 35.8062L118.45 36.0214C117.859 34.7019 116.775 33.6029 115.328 33.0272L115.522 32.5366ZM107.399 36.0468C108.671 32.8297 112.307 31.2581 115.522 32.5366L115.328 33.0272C112.384 31.8564 109.054 33.2956 107.889 36.2418L107.399 36.0468ZM107.4 40.6622C106.834 39.2312 106.789 37.5896 107.399 36.0468L107.889 36.2418C107.33 37.6548 107.371 39.1573 107.89 40.4684L107.4 40.6622ZM103.399 44.0468C104.153 42.1386 105.74 40.8094 107.576 40.3105L107.714 40.82C106.032 41.2772 104.58 42.4946 103.889 44.2418L103.399 44.0468ZM106.916 52.1869C103.702 50.9084 102.127 47.264 103.399 44.0468L103.889 44.2418C102.724 47.188 104.167 50.5255 107.11 51.6963L106.916 52.1869ZM111.439 52.226C110.031 52.759 108.427 52.7877 106.916 52.1869L107.11 51.6963C108.494 52.2467 109.962 52.2205 111.252 51.7322L111.439 52.226ZM111.583 52.0938C111.567 52.1276 111.55 52.1613 111.534 52.1949L111.062 51.9593C111.077 51.9278 111.093 51.8961 111.108 51.8644L111.583 52.0938ZM111.534 52.1949C110.702 53.8695 109.472 55.0109 107.676 54.9758L107.685 54.448C109.195 54.4775 110.276 53.5408 111.062 51.9593L111.534 52.1949ZM107.676 54.9758C107.034 54.9632 106.531 55.467 106.545 56.1011L106.018 56.1118C105.998 55.1746 106.748 54.4296 107.685 54.448L107.676 54.9758ZM106.545 56.1012C106.559 56.7437 107.097 57.2804 107.747 57.2932L107.738 57.8209C106.808 57.8027 106.038 57.0406 106.018 56.1118L106.545 56.1012ZM107.747 57.2932C110.479 57.3466 112.229 55.7338 113.289 53.9438L113.742 54.2136C112.625 56.0995 110.726 57.8794 107.738 57.8209L107.747 57.2932Z" fill="black" fill-opacity="0.2" style="fill:black;fill-opacity:0.2;"/>
<path fill-rule="evenodd" clip-rule="evenodd" d="M138.515 81.0787C139.148 81.883 139.995 82.5362 141.014 82.9413C144.093 84.166 147.577 82.6606 148.795 79.5789C149.547 77.6755 149.259 75.6159 148.204 74.0306C149.787 73.4764 151.129 72.263 151.795 70.5789C153.013 67.4973 151.504 64.0063 148.425 62.7816C146.832 62.1479 145.13 62.2452 143.69 62.9138C143.073 61.534 141.939 60.384 140.425 59.7819C137.346 58.5573 133.862 60.0626 132.644 63.1443C132.06 64.6222 132.103 66.1942 132.645 67.5653C130.886 68.0433 129.366 69.3166 128.644 71.1443C127.426 74.226 128.934 77.717 132.013 78.9416C133.46 79.5172 134.997 79.4897 136.345 78.9791C136.33 79.0119 136.314 79.0445 136.298 79.0771C135.489 80.7051 134.333 81.7442 132.68 81.7118C131.891 81.6964 131.264 82.3208 131.282 83.1064C131.299 83.8921 131.953 84.5415 132.742 84.557C135.602 84.613 137.427 82.9166 138.515 81.0787Z" fill="white" style="fill:white;fill-opacity:1;"/>
<path d="M138.515 81.0787L138.289 80.9438L138.484 80.6132L138.722 80.9155L138.515 81.0787ZM148.204 74.0306L147.984 74.1769L147.796 73.8937L148.116 73.7815L148.204 74.0306ZM143.69 62.9138L143.801 63.1533L143.559 63.2658L143.45 63.0214L143.69 62.9138ZM140.425 59.7819L140.328 60.0272L140.425 59.7819ZM132.645 67.5653L132.89 67.4684L132.999 67.7428L132.714 67.82L132.645 67.5653ZM136.345 78.9791L136.252 78.7322L136.869 78.4986L136.583 79.0938L136.345 78.9791ZM136.298 79.0771L136.534 79.1949L136.534 79.1949L136.298 79.0771ZM132.68 81.7118L132.676 81.9757L132.676 81.9757L132.68 81.7118ZM132.742 84.557L132.747 84.2931L132.747 84.2931L132.742 84.557ZM140.917 83.1866C139.854 82.7638 138.97 82.0818 138.308 81.2419L138.722 80.9155C139.327 81.6842 140.136 82.3086 141.111 82.6961L140.917 83.1866ZM149.04 79.6764C147.768 82.8936 144.131 84.4651 140.917 83.1866L141.111 82.6961C144.054 83.8669 147.385 82.4277 148.55 79.4815L149.04 79.6764ZM148.423 73.8844C149.524 75.5387 149.825 77.6891 149.04 79.6764L148.55 79.4815C149.269 77.6619 148.994 75.6931 147.984 74.1769L148.423 73.8844ZM152.04 70.6764C151.345 72.4346 149.943 73.7014 148.291 74.2798L148.116 73.7815C149.63 73.2514 150.913 72.0915 151.55 70.4815L152.04 70.6764ZM148.522 62.5364C151.737 63.8149 153.312 67.4593 152.04 70.6764L151.55 70.4815C152.714 67.5353 151.272 64.1978 148.328 63.0269L148.522 62.5364ZM143.579 62.6743C145.082 61.9766 146.859 61.8748 148.522 62.5364L148.328 63.0269C146.805 62.421 145.178 62.5139 143.801 63.1533L143.579 62.6743ZM140.522 59.5366C142.102 60.1652 143.286 61.3661 143.931 62.8062L143.45 63.0214C142.859 61.7019 141.775 60.6029 140.328 60.0272L140.522 59.5366ZM132.399 63.0468C133.671 59.8297 137.307 58.2581 140.522 59.5366L140.328 60.0272C137.384 58.8564 134.054 60.2956 132.889 63.2418L132.399 63.0468ZM132.4 67.6622C131.834 66.2312 131.789 64.5896 132.399 63.0468L132.889 63.2418C132.33 64.6548 132.371 66.1573 132.89 67.4684L132.4 67.6622ZM128.399 71.0468C129.153 69.1386 130.74 67.8094 132.576 67.3105L132.714 67.82C131.032 68.2772 129.58 69.4946 128.889 71.2418L128.399 71.0468ZM131.916 79.1869C128.702 77.9084 127.127 74.264 128.399 71.0468L128.889 71.2418C127.724 74.188 129.167 77.5255 132.11 78.6963L131.916 79.1869ZM136.439 79.226C135.031 79.759 133.427 79.7877 131.916 79.1869L132.11 78.6963C133.494 79.2467 134.962 79.2205 136.252 78.7322L136.439 79.226ZM136.583 79.0938C136.567 79.1276 136.55 79.1613 136.534 79.1949L136.062 78.9593C136.077 78.9278 136.093 78.8961 136.108 78.8644L136.583 79.0938ZM136.534 79.1949C135.702 80.8695 134.472 82.0109 132.676 81.9757L132.685 81.4479C134.195 81.4775 135.276 80.5408 136.062 78.9593L136.534 79.1949ZM132.676 81.9757C132.034 81.9632 131.531 82.467 131.545 83.1011L131.018 83.1117C130.998 82.1745 131.748 81.4296 132.685 81.4479L132.676 81.9757ZM131.545 83.1011C131.559 83.7436 132.097 84.2804 132.747 84.2931L132.737 84.8209C131.808 84.8027 131.038 84.0406 131.018 83.1117L131.545 83.1011ZM132.747 84.2931C135.479 84.3466 137.229 82.7337 138.289 80.9438L138.742 81.2136C137.625 83.0994 135.726 84.8794 132.737 84.8209L132.747 84.2931Z" fill="black" fill-opacity="0.2" style="fill:black;fill-opacity:0.2;"/>
<path fill-rule="evenodd" clip-rule="evenodd" d="M117.654 116.166C117.828 114.576 118.632 113.057 120.008 112.018C122.652 110.021 126.408 110.551 128.398 113.201C129.441 114.591 129.791 116.288 129.507 117.875C131.003 118.101 132.416 118.893 133.398 120.201C135.387 122.851 134.856 126.618 132.212 128.615C130.84 129.651 129.169 130.007 127.601 129.74C127.622 131.587 126.796 133.419 125.212 134.615C122.567 136.612 118.811 136.083 116.822 133.433C116.008 132.349 115.616 131.079 115.618 129.819C113.669 131.023 110.971 131.808 108.308 130.11C107.642 129.686 107.422 128.791 107.817 128.111C108.212 127.431 109.072 127.224 109.738 127.649C111.001 128.454 112.375 128.295 113.767 127.536C112.631 127.17 111.594 126.461 110.822 125.433C108.832 122.782 109.364 119.015 112.008 117.018C113.687 115.75 115.815 115.501 117.654 116.166Z" fill="white" style="fill:white;fill-opacity:1;"/>
<path d="M117.654 116.166L117.916 116.195L117.879 116.529L117.564 116.415L117.654 116.166ZM129.507 117.875L129.467 118.136L129.2 118.096L129.248 117.829L129.507 117.875ZM127.601 129.74L127.338 129.743L127.334 129.427L127.645 129.48L127.601 129.74ZM115.618 129.819L115.48 129.594L115.882 129.346L115.881 129.819L115.618 129.819ZM108.308 130.11L108.166 130.333L108.166 130.333L108.308 130.11ZM107.817 128.111L108.045 128.244L108.045 128.244L107.817 128.111ZM109.738 127.649L109.879 127.426L109.879 127.426L109.738 127.649ZM113.767 127.536L113.848 127.285L114.433 127.473L113.893 127.768L113.767 127.536ZM120.166 112.229C118.851 113.223 118.083 114.674 117.916 116.195L117.392 116.138C117.574 114.478 118.413 112.892 119.85 111.807L120.166 112.229ZM128.187 113.36C126.285 110.826 122.694 110.32 120.166 112.229L119.85 111.807C122.61 109.723 126.532 110.275 128.608 113.042L128.187 113.36ZM129.248 117.829C129.519 116.31 129.184 114.689 128.187 113.36L128.608 113.042C129.697 114.493 130.063 116.265 129.766 117.922L129.248 117.829ZM133.187 120.36C132.248 119.109 130.899 118.353 129.467 118.136L129.546 117.614C131.108 117.85 132.583 118.676 133.608 120.042L133.187 120.36ZM132.053 128.404C134.581 126.495 135.089 122.893 133.187 120.36L133.608 120.042C135.685 122.809 135.13 126.741 132.37 128.826L132.053 128.404ZM127.645 129.48C129.145 129.735 130.742 129.395 132.053 128.404L132.37 128.826C130.938 129.908 129.193 130.279 127.557 130.001L127.645 129.48ZM125.053 134.404C126.568 133.261 127.357 131.51 127.338 129.743L127.865 129.737C127.886 131.664 127.024 133.577 125.37 134.826L125.053 134.404ZM117.032 133.274C118.934 135.807 122.525 136.314 125.053 134.404L125.37 134.826C122.609 136.911 118.688 136.358 116.611 133.592L117.032 133.274ZM115.881 129.819C115.88 131.023 116.254 132.238 117.032 133.274L116.611 133.592C115.762 132.461 115.353 131.134 115.355 129.819L115.881 129.819ZM108.449 129.887C110.991 131.508 113.574 130.772 115.48 129.594L115.756 130.044C113.765 131.274 110.95 132.108 108.166 130.333L108.449 129.887ZM108.045 128.244C107.722 128.8 107.901 129.538 108.449 129.887L108.166 130.333C107.383 129.834 107.123 128.782 107.59 127.978L108.045 128.244ZM109.596 127.872C109.055 127.527 108.363 127.695 108.045 128.244L107.59 127.978C108.061 127.167 109.089 126.922 109.879 127.426L109.596 127.872ZM113.893 127.768C112.449 128.555 110.967 128.746 109.596 127.872L109.879 127.426C111.035 128.163 112.301 128.035 113.641 127.304L113.893 127.768ZM111.032 125.274C111.77 126.257 112.762 126.935 113.848 127.285L113.686 127.787C112.501 127.405 111.417 126.665 110.611 125.592L111.032 125.274ZM112.166 117.229C109.638 119.138 109.13 122.74 111.032 125.274L110.611 125.592C108.535 122.825 109.089 118.892 111.85 116.807L112.166 117.229ZM117.564 116.415C115.806 115.778 113.772 116.017 112.166 117.229L111.85 116.807C113.603 115.483 115.825 115.223 117.744 115.918L117.564 116.415Z" fill="black" fill-opacity="0.2" style="fill:black;fill-opacity:0.2;"/>
<path fill-rule="evenodd" clip-rule="evenodd" d="M91.5154 159.079C92.1484 159.883 92.9951 160.536 94.0138 160.941C97.0929 162.166 100.577 160.661 101.795 157.579C102.547 155.676 102.259 153.616 101.204 152.031C102.787 151.476 104.129 150.263 104.795 148.579C106.013 145.497 104.504 142.006 101.425 140.782C99.8319 140.148 98.1301 140.245 96.69 140.914C96.0729 139.534 94.9387 138.384 93.4248 137.782C90.3457 136.557 86.8621 138.063 85.6439 141.144C85.0596 142.622 85.1026 144.194 85.6451 145.565C83.8858 146.043 82.3664 147.317 81.6439 149.144C80.4257 152.226 81.9342 155.717 85.0133 156.942C86.4604 157.517 87.9968 157.49 89.3454 156.979C89.3297 157.012 89.3138 157.045 89.2976 157.077C88.4893 158.705 87.3335 159.744 85.6805 159.712C84.8908 159.696 84.2645 160.321 84.2815 161.106C84.2986 161.892 84.9525 162.542 85.7422 162.557C88.6025 162.613 90.427 160.917 91.5154 159.079Z" fill="white" style="fill:white;fill-opacity:1;"/>
<path d="M91.5154 159.079L91.2887 158.944L91.4844 158.613L91.7223 158.916L91.5154 159.079ZM101.204 152.031L100.984 152.177L100.796 151.894L101.116 151.781L101.204 152.031ZM96.69 140.914L96.8012 141.153L96.5589 141.266L96.4495 141.021L96.69 140.914ZM93.4248 137.782L93.3278 138.027L93.4248 137.782ZM85.6451 145.565L85.8901 145.468L85.9987 145.743L85.7145 145.82L85.6451 145.565ZM89.3454 156.979L89.2519 156.732L89.869 156.499L89.583 157.094L89.3454 156.979ZM89.2976 157.077L89.5336 157.195L89.5336 157.195L89.2976 157.077ZM85.6805 159.712L85.6758 159.976L85.6758 159.976L85.6805 159.712ZM84.2815 161.106L84.545 161.101L84.545 161.101L84.2815 161.106ZM85.7422 162.557L85.7469 162.293L85.7469 162.293L85.7422 162.557ZM93.9168 161.187C92.8538 160.764 91.9695 160.082 91.3085 159.242L91.7223 158.916C92.3273 159.684 93.1365 160.309 94.1107 160.696L93.9168 161.187ZM102.04 157.676C100.768 160.894 97.1313 162.465 93.9168 161.187L94.1107 160.696C97.0545 161.867 100.385 160.428 101.55 157.481L102.04 157.676ZM101.423 151.884C102.524 153.539 102.825 155.689 102.04 157.676L101.55 157.481C102.269 155.662 101.994 153.693 100.984 152.177L101.423 151.884ZM105.04 148.676C104.345 150.435 102.943 151.701 101.291 152.28L101.116 151.781C102.63 151.251 103.913 150.091 104.55 148.481L105.04 148.676ZM101.522 140.536C104.737 141.815 106.312 145.459 105.04 148.676L104.55 148.481C105.714 145.535 104.272 142.198 101.328 141.027L101.522 140.536ZM96.5789 140.674C98.0818 139.977 99.8588 139.875 101.522 140.536L101.328 141.027C99.8049 140.421 98.1784 140.514 96.8012 141.153L96.5789 140.674ZM93.5218 137.537C95.1021 138.165 96.2864 139.366 96.9305 140.806L96.4495 141.021C95.8594 139.702 94.7752 138.603 93.3278 138.027L93.5218 137.537ZM85.3988 141.047C86.6705 137.83 90.3073 136.258 93.5218 137.537L93.3278 138.027C90.3841 136.856 87.0536 138.296 85.8889 141.242L85.3988 141.047ZM85.4001 145.662C84.8338 144.231 84.7889 142.59 85.3988 141.047L85.8889 141.242C85.3304 142.655 85.3713 144.157 85.8901 145.468L85.4001 145.662ZM81.3988 149.047C82.1531 147.139 83.7398 145.809 85.5757 145.311L85.7145 145.82C84.0318 146.277 82.5796 147.495 81.8889 149.242L81.3988 149.047ZM84.9164 157.187C81.7019 155.908 80.127 152.264 81.3988 149.047L81.8889 149.242C80.7243 152.188 82.1665 155.526 85.1103 156.696L84.9164 157.187ZM89.439 157.226C88.0313 157.759 86.4269 157.788 84.9164 157.187L85.1103 156.696C86.4939 157.247 87.9623 157.22 89.2519 156.732L89.439 157.226ZM89.583 157.094C89.5668 157.128 89.5503 157.161 89.5336 157.195L89.0615 156.959C89.0772 156.928 89.0926 156.896 89.1079 156.864L89.583 157.094ZM89.5336 157.195C88.7022 158.869 87.4723 160.011 85.6758 159.976L85.6853 159.448C87.1947 159.477 88.2764 158.541 89.0615 156.959L89.5336 157.195ZM85.6758 159.976C85.034 159.963 84.5313 160.467 84.545 161.101L84.018 161.112C83.9977 160.175 84.7477 159.43 85.6853 159.448L85.6758 159.976ZM84.545 161.101C84.559 161.744 85.0972 162.28 85.7469 162.293L85.7374 162.821C84.8078 162.803 84.0382 162.041 84.018 161.112L84.545 161.101ZM85.7469 162.293C88.479 162.347 90.2286 160.734 91.2887 158.944L91.7421 159.214C90.6253 161.099 88.726 162.879 85.7374 162.821L85.7469 162.293Z" fill="black" fill-opacity="0.2" style="fill:black;fill-opacity:0.2;"/>
</g>
<mask id="path-39-outside-1_2536_8550" maskUnits="userSpaceOnUse" x="14" y="39" width="115" height="116" fill="black">
<rect fill="white" x="14" y="39" width="115" height="116"/>
<path fill-rule="evenodd" clip-rule="evenodd" d="M48 152C56.5145 152 64.2272 148.567 69.8298 143.01C70.7457 142.102 72.2543 142.102 73.1702 143.01C78.7728 148.567 86.4855 152 95 152C112.121 152 126 138.121 126 121C126 112.252 122.376 104.35 116.548 98.7133C115.59 97.7868 115.59 96.2132 116.548 95.2867C122.376 89.6503 126 81.7483 126 73C126 55.8792 112.121 42 95 42C86.4855 42 78.7728 45.4327 73.1702 50.9896C72.2543 51.898 70.7457 51.898 69.8298 50.9896C64.2272 45.4327 56.5145 42 48 42C30.8792 42 17 55.8792 17 73C17 81.7483 20.6238 89.6503 26.4522 95.2867C27.4103 96.2132 27.4103 97.7868 26.4522 98.7133C20.6238 104.35 17 112.252 17 121C17 138.121 30.8792 152 48 152Z"/>
</mask>
<path d="M73.1702 50.9896L74.6561 52.4877L73.1702 50.9896ZM69.8298 50.9896L68.3439 52.4877L69.8298 50.9896ZM116.548 98.7133L118.015 97.1966L116.548 98.7133ZM116.548 95.2867L118.015 96.8034L116.548 95.2867ZM26.4522 95.2867L24.9854 96.8034L26.4522 95.2867ZM73.1702 143.01L71.6843 144.509L73.1702 143.01ZM68.344 141.512C63.1204 146.693 55.9356 149.89 48 149.89V154.11C57.0934 154.11 65.334 150.441 71.3157 144.509L68.344 141.512ZM95 149.89C87.0644 149.89 79.8796 146.693 74.6561 141.512L71.6843 144.509C77.666 150.441 85.9066 154.11 95 154.11V149.89ZM123.89 121C123.89 136.956 110.956 149.89 95 149.89V154.11C113.286 154.11 128.11 139.286 128.11 121H123.89ZM115.081 100.23C120.515 105.485 123.89 112.847 123.89 121H128.11C128.11 111.657 124.237 103.214 118.015 97.1966L115.081 100.23ZM123.89 73C123.89 81.1532 120.515 88.5146 115.081 93.7699L118.015 96.8034C124.237 90.786 128.11 82.3434 128.11 73H123.89ZM95 44.11C110.956 44.11 123.89 57.0445 123.89 73H128.11C128.11 54.7139 113.286 39.89 95 39.89V44.11ZM74.6561 52.4877C79.8796 47.3067 87.0644 44.11 95 44.11V39.89C85.9066 39.89 77.666 43.5586 71.6843 49.4915L74.6561 52.4877ZM48 44.11C55.9356 44.11 63.1204 47.3067 68.3439 52.4877L71.3157 49.4915C65.334 43.5586 57.0934 39.89 48 39.89V44.11ZM19.11 73C19.11 57.0445 32.0445 44.11 48 44.11V39.89C29.7139 39.89 14.89 54.7139 14.89 73H19.11ZM27.919 93.7699C22.4847 88.5146 19.11 81.1532 19.11 73H14.89C14.89 82.3434 18.7629 90.786 24.9854 96.8034L27.919 93.7699ZM19.11 121C19.11 112.847 22.4847 105.485 27.919 100.23L24.9854 97.1966C18.7629 103.214 14.89 111.657 14.89 121H19.11ZM48 149.89C32.0445 149.89 19.11 136.956 19.11 121H14.89C14.89 139.286 29.7139 154.11 48 154.11V149.89ZM71.6843 49.4915C71.6448 49.5306 71.5832 49.5609 71.5 49.5609C71.4168 49.5609 71.3552 49.5306 71.3157 49.4915L68.3439 52.4877C70.0825 54.212 72.9175 54.212 74.6561 52.4877L71.6843 49.4915ZM118.015 97.1966C117.973 97.1564 117.939 97.0911 117.939 97C117.939 96.9089 117.973 96.8436 118.015 96.8034L115.081 93.7699C113.265 95.5257 113.265 98.4743 115.081 100.23L118.015 97.1966ZM24.9854 96.8034C25.0269 96.8436 25.0608 96.9089 25.0608 97C25.0608 97.0911 25.0269 97.1564 24.9854 97.1966L27.919 100.23C29.7347 98.4743 29.7347 95.5257 27.919 93.7699L24.9854 96.8034ZM71.3157 144.509C71.3552 144.469 71.4168 144.439 71.5 144.439C71.5832 144.439 71.6448 144.469 71.6843 144.509L74.6561 141.512C72.9175 139.788 70.0825 139.788 68.344 141.512L71.3157 144.509Z" fill="url(#paint0_radial_2536_8550)" fill-opacity="0.5" style="" mask="url(#path-39-outside-1_2536_8550)"/>
</g>
<g filter="url(#filter0_b_2536_8550)">
<rect x="3" y="165" width="138" height="41" rx="4.21999" fill="white" fill-opacity="0.5" style="fill:white;fill-opacity:0.5;"/>
</g>
<path fill-rule="evenodd" clip-rule="evenodd" d="M17 8.5C17 13.1944 13.1944 17 8.5 17C7.62994 17 6.79042 16.8693 6 16.6264L5.99999 194.374C6.79042 194.131 7.62994 194 8.5 194C13.1944 194 17 197.806 17 202.5C17 203.37 16.8693 204.21 16.6264 205H126.374C126.131 204.21 126 203.37 126 202.5C126 197.806 129.806 194 134.5 194C135.37 194 136.21 194.131 137 194.374L137 16.6264C136.21 16.8693 135.37 17 134.5 17C129.806 17 126 13.1944 126 8.5C126 7.62995 126.131 6.79042 126.374 6H16.6264C16.8693 6.79042 17 7.62995 17 8.5ZM0.0144617 203C0.27327 207.462 3.97343 211 8.5 211C8.66785 211 8.83456 210.995 9 210.986V211H134V210.986C134.165 210.995 134.332 211 134.5 211C139.027 211 142.727 207.462 142.986 203H143V202.516L143 202.5L143 202.484L143 8.50082V8.5V8.49918V8H142.986C142.736 3.70375 139.296 0.263674 135 0.0144617V0H134.5H8.5H8V0.0144618C3.70375 0.263674 0.263674 3.70375 0.0144618 8H0V8.5V202.5L-8.52648e-06 203H0.0144617Z" fill="#C74932" style="fill:#C74932;fill:color(display-p3 0.7786 0.2869 0.1971);fill-opacity:1;"/>
<path fill-rule="evenodd" clip-rule="evenodd" d="M7.5 6C7.88418 6 8.23462 6.14443 8.5 6.38195C8.76538 6.14443 9.11582 6 9.5 6C10.3284 6 11 6.67157 11 7.5C11 7.88418 10.8556 8.23462 10.6181 8.5C10.8556 8.76538 11 9.11582 11 9.5C11 10.3284 10.3284 11 9.5 11C9.48715 11 9.47434 10.9998 9.46156 10.9995C9.45704 11.0469 9.4388 11.0972 9.40559 11.1476C9.28205 11.3349 8.99819 11.4524 8.77157 11.41C8.35309 11.3318 8.07989 11.16 7.90844 10.9437C7.77859 10.9804 7.64159 11 7.5 11C6.67157 11 6 10.3284 6 9.5C6 9.11582 6.14443 8.76538 6.38195 8.5C6.14443 8.23462 6 7.88418 6 7.5C6 6.67157 6.67157 6 7.5 6Z" fill="white" style="fill:white;fill-opacity:1;"/>
<path fill-rule="evenodd" clip-rule="evenodd" d="M7.5 205C7.88418 205 8.23462 204.856 8.5 204.618C8.76538 204.856 9.11582 205 9.5 205C10.3284 205 11 204.328 11 203.5C11 203.116 10.8556 202.765 10.6181 202.5C10.8556 202.235 11 201.884 11 201.5C11 200.672 10.3284 200 9.5 200C9.48715 200 9.47434 200 9.46156 200C9.45704 199.953 9.4388 199.903 9.40559 199.852C9.28205 199.665 8.99819 199.548 8.77157 199.59C8.35309 199.668 8.07989 199.84 7.90844 200.056C7.77859 200.02 7.64159 200 7.5 200C6.67157 200 6 200.672 6 201.5C6 201.884 6.14443 202.235 6.38195 202.5C6.14443 202.765 6 203.116 6 203.5C6 204.328 6.67157 205 7.5 205Z" fill="white" style="fill:white;fill-opacity:1;"/>
<path fill-rule="evenodd" clip-rule="evenodd" d="M135.5 6C135.116 6 134.765 6.14443 134.5 6.38195C134.235 6.14443 133.884 6 133.5 6C132.672 6 132 6.67157 132 7.5C132 7.88418 132.144 8.23462 132.382 8.5C132.144 8.76538 132 9.11582 132 9.5C132 10.3284 132.672 11 133.5 11C133.513 11 133.526 10.9998 133.538 10.9995C133.543 11.0469 133.561 11.0972 133.594 11.1476C133.718 11.3349 134.002 11.4524 134.228 11.41C134.647 11.3318 134.92 11.16 135.092 10.9437C135.221 10.9804 135.358 11 135.5 11C136.328 11 137 10.3284 137 9.5C137 9.11582 136.856 8.76538 136.618 8.5C136.856 8.23462 137 7.88418 137 7.5C137 6.67157 136.328 6 135.5 6Z" fill="white" style="fill:white;fill-opacity:1;"/>
<path fill-rule="evenodd" clip-rule="evenodd" d="M135.5 205C135.116 205 134.765 204.856 134.5 204.618C134.235 204.856 133.884 205 133.5 205C132.672 205 132 204.328 132 203.5C132 203.116 132.144 202.765 132.382 202.5C132.144 202.235 132 201.884 132 201.5C132 200.672 132.672 200 133.5 200C133.513 200 133.526 200 133.538 200C133.543 199.953 133.561 199.903 133.594 199.852C133.718 199.665 134.002 199.548 134.228 199.59C134.647 199.668 134.92 199.84 135.092 200.056C135.221 200.02 135.358 200 135.5 200C136.328 200 137 200.672 137 201.5C137 201.884 136.856 202.235 136.618 202.5C136.856 202.765 137 203.116 137 203.5C137 204.328 136.328 205 135.5 205Z" fill="white" style="fill:white;fill-opacity:1;"/>
<defs>
<filter id="filter0_b_2536_8550" x="-18.1" y="143.9" width="180.2" height="83.1999" filterUnits="userSpaceOnUse" color-interpolation-filters="sRGB">
<feFlood flood-opacity="0" result="BackgroundImageFix"/>
<feGaussianBlur in="BackgroundImageFix" stdDeviation="10.55"/>
<feComposite in2="SourceAlpha" operator="in" result="effect1_backgroundBlur_2536_8550"/>
<feBlend mode="normal" in="SourceGraphic" in2="effect1_backgroundBlur_2536_8550" result="shape"/>
</filter>
<radialGradient id="paint0_radial_2536_8550" cx="0" cy="0" r="1" gradientUnits="userSpaceOnUse" gradientTransform="translate(70.1485 94.9538) rotate(90) scale(66.59 65.9844)">
<stop stop-color="white" style="stop-color:white;stop-opacity:1;"/>
<stop offset="1" stop-color="white" stop-opacity="0.5" style="stop-color:white;stop-opacity:0.5;"/>
</radialGradient>
</defs>
</svg>
