<svg width="48" height="48" viewBox="0 0 48 48" fill="none" xmlns="http://www.w3.org/2000/svg">
<path d="M23.725 21.5046C25.9341 21.5046 27.725 23.2955 27.725 25.5046C27.725 27.7138 25.9341 29.5046 23.725 29.5046C21.5158 29.5046 19.725 27.7138 19.725 25.5046C19.725 23.2955 21.5158 21.5046 23.725 21.5046ZM23.725 18C28.3385 18 32.3211 21.15 33.4261 25.5644C33.5267 25.9662 33.2825 26.3735 32.8807 26.4741C32.4788 26.5746 32.0716 26.3305 31.971 25.9286C31.0321 22.178 27.6463 19.5 23.725 19.5C19.8019 19.5 16.4151 22.1803 15.4778 25.9332C15.3775 26.335 14.9703 26.5794 14.5685 26.4791C14.1666 26.3787 13.9222 25.9716 14.0225 25.5697C15.1256 21.1527 19.1095 18 23.725 18Z" fill="white" style="fill:white;fill-opacity:1;"/>
</svg>
