<svg width="143" height="211" viewBox="0 0 143 211" fill="none" xmlns="http://www.w3.org/2000/svg">
<path fill-rule="evenodd" clip-rule="evenodd" d="M8.45543 0H133.545C138.214 0 142 3.78562 142 8.45543V202.545C142 207.214 138.214 211 133.545 211H8.45543C3.78563 211 0 207.214 0 202.545V8.45542C0 3.78562 3.78562 0 8.45543 0ZM72.1734 143.014C71.2556 142.104 69.7444 142.104 68.8266 143.014C63.2243 148.569 55.5129 152 47 152C29.8792 152 16 138.121 16 121C16 112.253 19.6224 104.353 25.4488 98.7166C26.4085 97.7883 26.4085 96.2117 25.4488 95.2834C19.6224 89.6472 16 81.7466 16 73C16 55.8792 29.8792 42 47 42C55.5129 42 63.2243 45.4314 68.8266 50.9864C69.7444 51.8964 71.2556 51.8964 72.1734 50.9864C77.7757 45.4314 85.4871 42 94 42C111.121 42 125 55.8792 125 73C125 81.7466 121.378 89.6472 115.551 95.2834C114.591 96.2117 114.591 97.7883 115.551 98.7166C121.378 104.353 125 112.253 125 121C125 138.121 111.121 152 94 152C85.4871 152 77.7757 148.569 72.1734 143.014Z" fill="#56BAF0" style="fill:#56BAF0;fill:color(display-p3 0.3373 0.7294 0.9412);fill-opacity:1;"/>
<mask id="mask0_2536_8329" style="mask-type:alpha" maskUnits="userSpaceOnUse" x="0" y="0" width="142" height="211">
<path fill-rule="evenodd" clip-rule="evenodd" d="M8.45543 0H133.545C138.214 0 142 3.78562 142 8.45543V202.545C142 207.214 138.214 211 133.545 211H8.45543C3.78563 211 0 207.214 0 202.545V8.45542C0 3.78562 3.78562 0 8.45543 0ZM72.1734 143.014C71.2556 142.104 69.7444 142.104 68.8266 143.014C63.2243 148.569 55.5129 152 47 152C29.8792 152 16 138.121 16 121C16 112.253 19.6224 104.353 25.4488 98.7166C26.4085 97.7883 26.4085 96.2117 25.4488 95.2834C19.6224 89.6472 16 81.7466 16 73C16 55.8792 29.8792 42 47 42C55.5129 42 63.2243 45.4314 68.8266 50.9864C69.7444 51.8964 71.2556 51.8964 72.1734 50.9864C77.7757 45.4314 85.4871 42 94 42C111.121 42 125 55.8792 125 73C125 81.7466 121.378 89.6472 115.551 95.2834C114.591 96.2117 114.591 97.7883 115.551 98.7166C121.378 104.353 125 112.253 125 121C125 138.121 111.121 152 94 152C85.4871 152 77.7757 148.569 72.1734 143.014Z" fill="#25DA83" style="fill:#25DA83;fill:color(display-p3 0.1459 0.8542 0.5142);fill-opacity:1;"/>
</mask>
<g mask="url(#mask0_2536_8329)">
<g opacity="0.3">
<path fill-rule="evenodd" clip-rule="evenodd" d="M10.4962 142.934C9.862 142.124 9.01139 141.465 7.98691 141.058C4.9078 139.833 1.42413 141.339 0.205903 144.42C-0.546564 146.324 -0.258707 148.383 0.797004 149.969C-0.786083 150.523 -2.12836 151.736 -2.7941 153.42C-4.01232 156.502 -2.50378 159.993 0.575332 161.217C2.16864 161.851 3.87027 161.754 5.31029 161.085C5.9274 162.465 7.06169 163.615 8.57571 164.218C11.6548 165.442 15.1385 163.937 16.3567 160.855C16.941 159.377 16.898 157.805 16.3555 156.434C18.1148 155.956 19.6342 154.683 20.3567 152.855C21.5749 149.774 20.0664 146.283 16.9873 145.058C15.5493 144.486 14.023 144.51 12.6805 145.011C12.6939 144.983 12.7074 144.956 12.7211 144.928C13.5317 143.305 14.6906 142.269 16.3481 142.301C17.1399 142.316 17.768 141.694 17.7509 140.91C17.7339 140.127 17.0782 139.479 16.2864 139.464C13.4172 139.408 11.5875 141.101 10.4962 142.934Z" fill="white" style="fill:white;fill-opacity:1;"/>
<path d="M10.4962 142.934L10.723 143.07L10.526 143.401L10.2884 143.097L10.4962 142.934ZM0.797004 149.969L1.01661 149.822L1.20553 150.106L0.884488 150.218L0.797004 149.969ZM5.31029 161.085L5.19894 160.846L5.44174 160.733L5.55124 160.978L5.31029 161.085ZM8.57571 164.218L8.67285 163.972L8.57571 164.218ZM16.3555 156.434L16.1101 156.531L16.0013 156.256L16.286 156.179L16.3555 156.434ZM12.6805 145.011L12.7731 145.259L12.1541 145.49L12.443 144.895L12.6805 145.011ZM12.7211 144.928L12.4849 144.81L12.4849 144.81L12.7211 144.928ZM16.3481 142.301L16.3528 142.037L16.3528 142.037L16.3481 142.301ZM17.7509 140.91L18.0149 140.905L18.0149 140.905L17.7509 140.91ZM16.2864 139.464L16.2911 139.199L16.2911 139.199L16.2864 139.464ZM8.08405 140.812C9.15324 141.237 10.0416 141.925 10.7039 142.771L10.2884 143.097C9.68235 142.322 8.86953 141.693 7.88977 141.304L8.08405 140.812ZM-0.0396229 144.323C1.23225 141.105 4.86934 139.534 8.08405 140.812L7.88977 141.304C4.94626 140.133 1.616 141.572 0.451428 144.518L-0.0396229 144.323ZM0.5774 150.115C-0.524365 148.461 -0.825312 146.31 -0.0396229 144.323L0.451428 144.518C-0.267816 146.337 0.00695049 148.306 1.01661 149.822L0.5774 150.115ZM-3.03962 153.323C-2.34455 151.564 -0.942713 150.297 0.709521 149.719L0.884488 150.218C-0.629454 150.748 -1.91218 151.908 -2.54857 153.518L-3.03962 153.323ZM0.478192 161.463C-2.73652 160.185 -4.3115 156.54 -3.03962 153.323L-2.54857 153.518C-3.71315 156.464 -2.27104 159.801 0.672473 160.972L0.478192 161.463ZM5.42163 161.325C3.91864 162.023 2.14164 162.125 0.478192 161.463L0.672473 160.972C2.19563 161.578 3.8219 161.485 5.19894 160.846L5.42163 161.325ZM8.47857 164.463C6.89797 163.835 5.71348 162.634 5.06933 161.193L5.55124 160.978C6.14133 162.297 7.22542 163.396 8.67285 163.972L8.47857 164.463ZM16.6022 160.953C15.3304 164.17 11.6933 165.742 8.47857 164.463L8.67285 163.972C11.6164 165.143 14.9466 163.704 16.1112 160.758L16.6022 160.953ZM16.601 156.337C17.1673 157.768 17.2122 159.41 16.6022 160.953L16.1112 160.758C16.6697 159.345 16.6288 157.842 16.1101 156.531L16.601 156.337ZM20.6022 152.953C19.8478 154.861 18.2611 156.191 16.425 156.689L16.286 156.179C17.9685 155.722 19.4206 154.505 20.1112 152.758L20.6022 152.953ZM17.0844 144.812C20.2991 146.091 21.8741 149.736 20.6022 152.953L20.1112 152.758C21.2758 149.812 19.8337 146.474 16.8902 145.304L17.0844 144.812ZM12.5879 144.763C13.9893 144.24 15.5832 144.215 17.0844 144.812L16.8902 145.304C15.5153 144.757 14.0567 144.779 12.7731 145.259L12.5879 144.763ZM12.443 144.895C12.4568 144.867 12.4708 144.838 12.4849 144.81L12.9574 145.047C12.9441 145.074 12.9309 145.1 12.918 145.127L12.443 144.895ZM12.4849 144.81C13.319 143.139 14.5523 142.002 16.3528 142.037L16.3434 142.565C14.8289 142.536 13.7444 143.471 12.9574 145.047L12.4849 144.81ZM16.3528 142.037C16.9979 142.049 17.5007 141.546 17.4869 140.916L18.0149 140.905C18.0353 141.842 17.2819 142.584 16.3434 142.565L16.3528 142.037ZM17.4869 140.916C17.473 140.277 16.9345 139.741 16.2816 139.728L16.2911 139.199C17.2218 139.217 17.9947 139.977 18.0149 140.905L17.4869 140.916ZM16.2816 139.728C13.5403 139.675 11.7856 141.285 10.723 143.07L10.2693 142.799C11.3894 140.917 13.2941 139.141 16.2911 139.199L16.2816 139.728Z" fill="black" fill-opacity="0.2" style="fill:black;fill-opacity:0.2;"/>
<path fill-rule="evenodd" clip-rule="evenodd" d="M22.4964 -1.06543C21.8622 -1.87623 21.0115 -2.53467 19.9869 -2.94217C16.9078 -4.16682 13.4241 -2.66141 12.2059 0.420244C11.4534 2.3237 11.7413 4.38331 12.797 5.96856C11.2139 6.52286 9.87164 7.73619 9.2059 9.42024C7.98768 12.5019 9.49622 15.9928 12.5753 17.2175C14.1686 17.8512 15.8703 17.7539 17.3103 17.0854C17.9274 18.4654 19.0617 19.6155 20.5757 20.2177C23.6548 21.4423 27.1385 19.9369 28.3567 16.8552C28.941 15.3773 28.898 13.8053 28.3555 12.4343C30.1148 11.9562 31.6342 10.6829 32.3567 8.85524C33.5749 5.77359 32.0664 2.28264 28.9873 1.058C27.5494 0.486128 26.0234 0.509573 24.681 1.01085C24.6943 0.983337 24.7078 0.95589 24.7215 0.928513C25.5321 -0.694948 26.6911 -1.73107 28.3487 -1.69877C29.1405 -1.68334 29.7686 -2.30596 29.7515 -3.08943C29.7345 -3.87291 29.0787 -4.52055 28.2869 -4.53598C25.4176 -4.59189 23.5877 -2.89897 22.4964 -1.06543Z" fill="white" style="fill:white;fill-opacity:1;"/>
<path d="M22.4964 -1.06543L22.7232 -0.929789L22.5262 -0.598786L22.2886 -0.902573L22.4964 -1.06543ZM12.797 5.96856L13.0166 5.82208L13.2055 6.10577L12.8845 6.21818L12.797 5.96856ZM17.3103 17.0854L17.1989 16.8455L17.4417 16.7328L17.5512 16.9777L17.3103 17.0854ZM20.5757 20.2177L20.6728 19.9719L20.5757 20.2177ZM28.3555 12.4343L28.1101 12.5314L28.0013 12.2564L28.286 12.1791L28.3555 12.4343ZM24.681 1.01085L24.7735 1.25862L24.1546 1.48974L24.4435 0.894914L24.681 1.01085ZM24.7215 0.928513L24.9577 1.04705L24.9577 1.04705L24.7215 0.928513ZM28.3487 -1.69877L28.3439 -1.4344L28.3439 -1.4344L28.3487 -1.69877ZM29.7515 -3.08943L30.0155 -3.0948L30.0155 -3.09479L29.7515 -3.08943ZM28.2869 -4.53598L28.2916 -4.80035L28.2916 -4.80035L28.2869 -4.53598ZM20.0841 -3.1879C21.1534 -2.76261 22.0418 -2.07503 22.7041 -1.22829L22.2886 -0.902573C21.6825 -1.67742 20.8696 -2.30672 19.8898 -2.69644L20.0841 -3.1879ZM11.9604 0.322592C13.2323 -2.89477 16.8693 -4.46648 20.0841 -3.1879L19.8898 -2.69644C16.9463 -3.86716 13.616 -2.42805 12.4514 0.517895L11.9604 0.322592ZM12.5774 6.11504C11.4756 4.46064 11.1747 2.31009 11.9604 0.322592L12.4514 0.517895C11.7322 2.33732 12.007 4.30599 13.0166 5.82208L12.5774 6.11504ZM8.96038 9.32259C9.65545 7.56432 11.0573 6.29745 12.7095 5.71894L12.8845 6.21818C11.3705 6.74827 10.0878 7.90805 9.45143 9.5179L8.96038 9.32259ZM12.4782 17.4632C9.26348 16.1846 7.6885 12.54 8.96038 9.32259L9.45143 9.5179C8.28685 12.4638 9.72896 15.801 12.6725 16.9718L12.4782 17.4632ZM17.4216 17.3254C15.9186 18.023 14.1416 18.1248 12.4782 17.4632L12.6725 16.9718C14.1956 17.5776 15.8219 17.4847 17.1989 16.8455L17.4216 17.3254ZM20.4786 20.4634C18.898 19.8347 17.7135 18.6336 17.0693 17.1932L17.5512 16.9777C18.1413 18.2972 19.2254 19.3962 20.6728 19.9719L20.4786 20.4634ZM28.6022 16.9529C27.3304 20.1703 23.6933 21.742 20.4786 20.4634L20.6728 19.9719C23.6164 21.1426 26.9466 19.7035 28.1112 16.7576L28.6022 16.9529ZM28.601 12.3372C29.1673 13.7683 29.2122 15.41 28.6022 16.9529L28.1112 16.7576C28.6697 15.3447 28.6288 13.8423 28.1101 12.5314L28.601 12.3372ZM32.6022 8.95289C31.8478 10.8612 30.2611 12.1905 28.425 12.6895L28.286 12.1791C29.9685 11.7219 31.4206 10.5046 32.1112 8.75759L32.6022 8.95289ZM29.0844 0.812272C32.2991 2.09085 33.8741 5.73553 32.6022 8.95289L32.1112 8.75759C33.2758 5.81165 31.8337 2.47444 28.8901 1.30373L29.0844 0.812272ZM24.5884 0.763075C25.9897 0.239811 27.5834 0.215275 29.0844 0.812272L28.8901 1.30373C27.5155 0.756981 26.0571 0.779335 24.7735 1.25862L24.5884 0.763075ZM24.4435 0.894914C24.4572 0.866552 24.4712 0.838237 24.4853 0.809972L24.9577 1.04705C24.9445 1.07354 24.9314 1.10012 24.9184 1.12678L24.4435 0.894914ZM24.4853 0.809973C25.3194 -0.860616 26.5528 -1.99823 28.3534 -1.96314L28.3439 -1.4344C26.8294 -1.46391 25.7447 -0.529279 24.9577 1.04705L24.4853 0.809973ZM28.3534 -1.96314C28.9985 -1.95057 29.5013 -2.45389 29.4876 -3.08407L30.0155 -3.09479C30.0359 -2.15803 29.2825 -1.41611 28.3439 -1.4344L28.3534 -1.96314ZM29.4876 -3.08407C29.4737 -3.72282 28.9351 -4.25888 28.2822 -4.27161L28.2916 -4.80035C29.2224 -4.78221 29.9953 -4.023 30.0155 -3.0948L29.4876 -3.08407ZM28.2822 -4.27161C25.5407 -4.32503 23.7858 -2.71498 22.7232 -0.929789L22.2695 -1.20107C23.3896 -3.08297 25.2945 -4.85876 28.2916 -4.80035L28.2822 -4.27161Z" fill="black" fill-opacity="0.2" style="fill:black;fill-opacity:0.2;"/>
<path fill-rule="evenodd" clip-rule="evenodd" d="M14.7267 96.5657C13.5702 95.061 13.1425 93.0341 13.7567 91.0888C14.7544 87.9288 18.1234 86.1804 21.2816 87.1836C23.1494 87.7769 24.5251 89.1997 25.1312 90.917C26.5934 89.9373 28.4721 89.6088 30.2816 90.1836C33.4398 91.1868 35.1913 94.5617 34.1936 97.7217C33.6024 99.5942 32.1784 100.971 30.4591 101.573C31.4356 103.037 31.7641 104.915 31.1936 106.722C30.1959 109.882 26.8269 111.63 23.6687 110.627C22.9309 110.392 22.2699 110.029 21.7028 109.568C20.7271 111.402 19.0418 113.104 16.2735 113.246C15.4827 113.287 14.7829 112.687 14.7104 111.907C14.638 111.126 15.2203 110.461 16.0112 110.42C17.6526 110.336 18.7308 109.238 19.4251 107.585C18.2516 107.989 16.9427 108.032 15.6682 107.627C12.51 106.624 10.7585 103.249 11.7562 100.089C12.2573 98.5019 13.3565 97.2709 14.7267 96.5657Z" fill="white" style="fill:white;fill-opacity:1;"/>
<path d="M14.7267 96.5657L14.9359 96.4047L15.1291 96.6561L14.8477 96.8009L14.7267 96.5657ZM25.1312 90.917L25.2783 91.1368L24.9956 91.3262L24.8822 91.0048L25.1312 90.917ZM30.2816 90.1836L30.202 90.4356L30.2816 90.1836ZM30.4591 101.573L30.2396 101.72L30.0504 101.436L30.3716 101.324L30.4591 101.573ZM21.7028 109.568L21.4696 109.444L21.62 109.161L21.8689 109.363L21.7028 109.568ZM16.2735 113.246L16.2596 112.982L16.2596 112.982L16.2735 113.246ZM14.7104 111.907L14.9734 111.883L14.9734 111.883L14.7104 111.907ZM16.0112 110.42L16.0251 110.684L16.0251 110.684L16.0112 110.42ZM19.4251 107.585L19.339 107.335L19.8973 107.143L19.6685 107.688L19.4251 107.585ZM14.0085 91.1687C13.4215 93.0282 13.8299 94.9656 14.9359 96.4047L14.5174 96.7267C13.3105 95.1563 12.8636 93.04 13.5049 91.0088L14.0085 91.1687ZM21.202 87.4356C18.1829 86.4766 14.9623 88.148 14.0085 91.1687L13.5049 91.0088C14.5465 87.7096 18.0639 85.8843 21.3612 86.9317L21.202 87.4356ZM24.8822 91.0048C24.3026 89.3624 22.9874 88.0027 21.202 87.4356L21.3612 86.9317C23.3113 87.5511 24.7477 89.0371 25.3802 90.8293L24.8822 91.0048ZM30.202 90.4356C28.4724 89.8862 26.6767 90.1998 25.2783 91.1368L24.9841 90.6973C26.5101 89.6748 28.4719 89.3315 30.3612 89.9317L30.202 90.4356ZM33.9417 97.6417C34.8955 94.6209 33.2212 91.3946 30.202 90.4356L30.3612 89.9317C33.6584 90.979 35.487 94.5026 34.4454 97.8017L33.9417 97.6417ZM30.3716 101.324C32.0159 100.748 33.3766 99.4316 33.9417 97.6417L34.4454 97.8017C33.8281 99.7569 32.341 101.194 30.5467 101.823L30.3716 101.324ZM30.9417 106.642C31.4871 104.914 31.1734 103.12 30.2396 101.72L30.6787 101.427C31.6978 102.955 32.0411 104.915 31.4454 106.802L30.9417 106.642ZM23.7482 110.375C26.7674 111.334 29.988 109.662 30.9417 106.642L31.4454 106.802C30.4038 110.101 26.8864 111.926 23.5891 110.879L23.7482 110.375ZM21.8689 109.363C22.4108 109.803 23.0425 110.151 23.7482 110.375L23.5891 110.879C22.8193 110.634 22.129 110.254 21.5366 109.774L21.8689 109.363ZM16.2596 112.982C18.9051 112.846 20.5211 111.227 21.4696 109.444L21.9359 109.693C20.9332 111.578 19.1784 113.362 16.2874 113.51L16.2596 112.982ZM14.9734 111.883C15.0324 112.519 15.6076 113.016 16.2596 112.982L16.2874 113.51C15.3577 113.558 14.5333 112.855 14.4474 111.931L14.9734 111.883ZM16.0251 110.684C15.381 110.717 14.9151 111.255 14.9734 111.883L14.4474 111.931C14.3608 110.998 15.0597 110.204 15.9973 110.156L16.0251 110.684ZM19.6685 107.688C18.9536 109.39 17.808 110.593 16.0251 110.684L15.9973 110.156C17.4971 110.079 18.508 109.086 19.1816 107.482L19.6685 107.688ZM15.7477 107.375C16.9664 107.762 18.2172 107.721 19.339 107.335L19.5111 107.835C18.2859 108.256 16.919 108.302 15.5886 107.879L15.7477 107.375ZM12.008 100.169C11.0543 103.19 12.7286 106.416 15.7477 107.375L15.5886 107.879C12.2913 106.832 10.4627 103.308 11.5044 100.009L12.008 100.169ZM14.8477 96.8009C13.5374 97.4752 12.487 98.6517 12.008 100.169L11.5044 100.009C12.0275 98.3521 13.1755 97.0666 14.6057 96.3306L14.8477 96.8009Z" fill="black" fill-opacity="0.2" style="fill:black;fill-opacity:0.2;"/>
<path fill-rule="evenodd" clip-rule="evenodd" d="M85.2406 187.607C84.5928 189.253 84.6725 191.167 85.6225 192.817C87.2763 195.688 90.9413 196.67 93.8084 195.008C95.5265 194.013 96.5682 192.294 96.7715 190.459C98.3755 191.039 100.215 190.931 101.808 190.008C104.676 188.347 105.659 184.672 104.005 181.801C103.011 180.075 101.291 179.032 99.4533 178.835C100.028 177.23 99.9218 175.392 99.0054 173.801C97.3516 170.929 93.6866 169.948 90.8195 171.609C90.0004 172.084 89.3351 172.723 88.841 173.461C87.562 172.378 85.8728 171.665 83.7471 172.021C82.968 172.151 82.4156 172.889 82.5133 173.668C82.611 174.448 83.3218 174.974 84.1009 174.844C85.2649 174.649 86.2579 175.031 87.1081 175.808C85.9958 175.753 84.8551 176.009 83.8186 176.609C80.9515 178.271 79.9679 181.945 81.6217 184.817C82.445 186.246 83.7669 187.207 85.2406 187.607Z" fill="white" style="fill:white;fill-opacity:1;"/>
<path d="M85.2406 187.607L85.4861 187.704L85.5943 187.429L85.3098 187.352L85.2406 187.607ZM96.7715 190.459L96.8613 190.21L96.5461 190.096L96.5091 190.43L96.7715 190.459ZM99.4533 178.835L99.2049 178.746L99.0916 179.062L99.425 179.098L99.4533 178.835ZM99.0054 173.801L99.234 173.668L99.0054 173.801ZM88.841 173.461L88.6705 173.663L88.8956 173.853L89.0601 173.608L88.841 173.461ZM83.7471 172.021L83.7902 172.281L83.7902 172.281L83.7471 172.021ZM82.5133 173.668L82.7751 173.635L82.7751 173.635L82.5133 173.668ZM84.1009 174.844L84.0577 174.583L84.0577 174.583L84.1009 174.844ZM87.1081 175.808L87.0949 176.072L87.8284 176.108L87.2861 175.612L87.1081 175.808ZM85.8512 192.685C84.943 191.108 84.8666 189.278 85.4861 187.704L84.9951 187.51C84.319 189.228 84.4019 191.227 85.3939 192.949L85.8512 192.685ZM93.6766 194.779C90.9357 196.367 87.4321 195.43 85.8512 192.685L85.3939 192.949C87.1205 195.947 90.9469 196.972 93.9403 195.237L93.6766 194.779ZM96.5091 190.43C96.3148 192.185 95.3188 193.828 93.6766 194.779L93.9403 195.237C95.7342 194.198 96.8217 192.403 97.0338 190.488L96.5091 190.43ZM101.677 189.779C100.153 190.662 98.3952 190.764 96.8613 190.21L96.6816 190.708C98.3557 191.313 100.277 191.201 101.94 190.237L101.677 189.779ZM103.777 181.933C105.358 184.678 104.417 188.191 101.677 189.779L101.94 190.237C104.934 188.503 105.961 184.666 104.234 181.668L103.777 181.933ZM99.425 179.098C101.182 179.286 102.827 180.283 103.777 181.933L104.234 181.668C103.196 179.866 101.399 178.777 99.4817 178.572L99.425 179.098ZM98.7768 173.933C99.6528 175.454 99.7549 177.211 99.2049 178.746L99.7017 178.924C100.302 177.249 100.191 175.33 99.234 173.668L98.7768 173.933ZM90.9513 171.838C93.6922 170.25 97.1958 171.188 98.7768 173.933L99.234 173.668C97.5074 170.67 93.681 169.646 90.6876 171.381L90.9513 171.838ZM89.0601 173.608C89.5321 172.903 90.1679 172.292 90.9513 171.838L90.6876 171.381C89.8329 171.876 89.138 172.543 88.6219 173.313L89.0601 173.608ZM83.7902 172.281C85.8253 171.941 87.4386 172.62 88.6705 173.663L89.0114 173.258C87.6854 172.136 85.9203 171.388 83.7039 171.76L83.7902 172.281ZM82.7751 173.635C82.6953 172.998 83.1493 172.389 83.7902 172.281L83.7039 171.76C82.7866 171.913 82.1358 172.779 82.2514 173.702L82.7751 173.635ZM84.0577 174.583C83.4246 174.689 82.8539 174.264 82.7751 173.635L82.2514 173.702C82.368 174.632 83.219 175.26 84.144 175.105L84.0577 174.583ZM87.2861 175.612C86.3872 174.791 85.3154 174.372 84.0577 174.583L84.144 175.105C85.2144 174.925 86.1285 175.271 86.9301 176.003L87.2861 175.612ZM83.9505 176.838C84.9417 176.264 86.0318 176.02 87.0949 176.072L87.1213 175.544C85.9599 175.487 84.7685 175.753 83.6868 176.38L83.9505 176.838ZM81.8503 184.684C80.2693 181.939 81.2096 178.426 83.9505 176.838L83.6868 176.38C80.6933 178.115 79.6664 181.951 81.3931 184.949L81.8503 184.684ZM85.3098 187.352C83.9006 186.97 82.6374 186.051 81.8503 184.684L81.3931 184.949C82.2526 186.442 83.6331 187.445 85.1713 187.862L85.3098 187.352Z" fill="black" fill-opacity="0.2" style="fill:black;fill-opacity:0.2;"/>
<path fill-rule="evenodd" clip-rule="evenodd" d="M52.2406 211.607C51.5928 213.253 51.6725 215.167 52.6225 216.817C54.2763 219.688 57.9413 220.67 60.8084 219.008C62.5265 218.013 63.5682 216.294 63.7715 214.459C65.3755 215.039 67.2151 214.931 68.8084 214.008C71.6756 212.347 72.6592 208.672 71.0054 205.801C70.0113 204.075 68.2906 203.032 66.4533 202.835C67.0284 201.23 66.9218 199.392 66.0054 197.801C64.3516 194.929 60.6866 193.948 57.8195 195.609C57.0002 196.084 56.3347 196.723 55.8405 197.461C54.5614 196.379 52.8721 195.665 50.7461 196.021C49.9669 196.152 49.4145 196.89 49.5122 197.669C49.6099 198.449 50.3207 198.975 51.0999 198.844C52.2638 198.65 53.2567 199.031 54.1068 199.808C52.9949 199.754 51.8547 200.009 50.8186 200.609C47.9515 202.271 46.9679 205.945 48.6217 208.817C49.445 210.246 50.7669 211.207 52.2406 211.607Z" fill="white" style="fill:white;fill-opacity:1;"/>
<path d="M52.2406 211.607L52.4861 211.704L52.5943 211.429L52.3098 211.352L52.2406 211.607ZM63.7715 214.459L63.8613 214.21L63.5461 214.096L63.5091 214.43L63.7715 214.459ZM66.4533 202.835L66.2049 202.746L66.0916 203.062L66.425 203.098L66.4533 202.835ZM66.0054 197.801L66.234 197.668L66.0054 197.801ZM55.8405 197.461L55.6701 197.663L55.8952 197.854L56.0596 197.608L55.8405 197.461ZM50.7461 196.021L50.7893 196.282L50.7893 196.282L50.7461 196.021ZM49.5122 197.669L49.7741 197.636L49.7741 197.636L49.5122 197.669ZM51.0999 198.844L51.0567 198.583L51.0567 198.583L51.0999 198.844ZM54.1068 199.808L54.0937 200.072L54.8272 200.108L54.2848 199.612L54.1068 199.808ZM52.8512 216.685C51.943 215.108 51.8666 213.278 52.4861 211.704L51.9951 211.51C51.319 213.228 51.4019 215.227 52.3939 216.949L52.8512 216.685ZM60.6766 218.779C57.9357 220.367 54.4321 219.43 52.8512 216.685L52.3939 216.949C54.1205 219.947 57.9469 220.972 60.9403 219.237L60.6766 218.779ZM63.5091 214.43C63.3148 216.185 62.3188 217.828 60.6766 218.779L60.9403 219.237C62.7342 218.198 63.8217 216.403 64.0338 214.488L63.5091 214.43ZM68.6766 213.779C67.1535 214.662 65.3952 214.764 63.8613 214.21L63.6816 214.708C65.3557 215.313 67.2768 215.201 68.9403 214.237L68.6766 213.779ZM70.7768 205.933C72.3577 208.678 71.4175 212.191 68.6766 213.779L68.9403 214.237C71.9337 212.503 72.9606 208.666 71.234 205.668L70.7768 205.933ZM66.425 203.098C68.1821 203.286 69.8266 204.283 70.7768 205.933L71.234 205.668C70.1961 203.866 68.3991 202.777 66.4817 202.572L66.425 203.098ZM65.7768 197.933C66.6528 199.454 66.7549 201.211 66.2049 202.746L66.7017 202.924C67.3019 201.249 67.1909 199.33 66.234 197.668L65.7768 197.933ZM57.9513 195.838C60.6922 194.25 64.1958 195.188 65.7768 197.933L66.234 197.668C64.5074 194.67 60.681 193.646 57.6876 195.381L57.9513 195.838ZM56.0596 197.608C56.5318 196.903 57.1677 196.293 57.9513 195.838L57.6876 195.381C56.8326 195.876 56.1375 196.543 55.6215 197.314L56.0596 197.608ZM50.7893 196.282C52.8246 195.942 54.4381 196.621 55.6701 197.663L56.011 197.259C54.6848 196.137 52.9196 195.389 50.703 195.761L50.7893 196.282ZM49.7741 197.636C49.6942 196.999 50.1482 196.39 50.7893 196.282L50.703 195.761C49.7857 195.914 49.1347 196.78 49.2503 197.702L49.7741 197.636ZM51.0567 198.583C50.4234 198.69 49.8528 198.264 49.7741 197.636L49.2503 197.702C49.3669 198.633 50.218 199.26 51.1431 199.105L51.0567 198.583ZM54.2848 199.612C53.386 198.791 52.3142 198.373 51.0567 198.583L51.1431 199.105C52.2133 198.926 53.1274 199.271 53.9289 200.003L54.2848 199.612ZM50.9505 200.838C51.9413 200.264 53.031 200.02 54.0937 200.072L54.12 199.544C52.9589 199.487 51.7681 199.754 50.6868 200.38L50.9505 200.838ZM48.8503 208.684C47.2693 205.939 48.2096 202.426 50.9505 200.838L50.6868 200.38C47.6933 202.115 46.6664 205.951 48.3931 208.949L48.8503 208.684ZM52.3098 211.352C50.9006 210.97 49.6374 210.051 48.8503 208.684L48.3931 208.949C49.2526 210.442 50.6331 211.445 52.1713 211.862L52.3098 211.352Z" fill="black" fill-opacity="0.2" style="fill:black;fill-opacity:0.2;"/>
<path fill-rule="evenodd" clip-rule="evenodd" d="M114.241 199.393C113.593 197.747 113.672 195.833 114.623 194.183C116.276 191.312 119.941 190.33 122.808 191.992C124.526 192.987 125.568 194.706 125.771 196.541C127.375 195.961 129.215 196.069 130.808 196.992C133.676 198.653 134.659 202.328 133.005 205.199C132.011 206.925 130.291 207.968 128.453 208.165C129.028 209.77 128.922 211.608 128.005 213.199C126.352 216.071 122.687 217.052 119.819 215.391C119 214.916 118.334 214.276 117.84 213.538C116.561 214.621 114.872 215.334 112.745 214.978C111.966 214.847 111.414 214.11 111.511 213.33C111.609 212.551 112.32 212.025 113.099 212.155C114.263 212.35 115.256 211.969 116.106 211.192C114.994 211.246 113.854 210.991 112.819 210.391C109.951 208.729 108.968 205.055 110.622 202.183C111.445 200.754 112.767 199.793 114.241 199.393Z" fill="white" style="fill:white;fill-opacity:1;"/>
<path d="M114.241 199.393L114.486 199.296L114.594 199.571L114.31 199.648L114.241 199.393ZM125.771 196.541L125.861 196.79L125.546 196.904L125.509 196.57L125.771 196.541ZM128.453 208.165L128.205 208.254L128.092 207.938L128.425 207.902L128.453 208.165ZM128.005 213.199L127.777 213.067L128.005 213.199ZM117.84 213.538L117.67 213.336L117.895 213.146L118.059 213.391L117.84 213.538ZM112.745 214.978L112.789 214.717L112.789 214.717L112.745 214.978ZM113.099 212.155L113.056 212.416L113.056 212.416L113.099 212.155ZM116.106 211.192L116.093 210.928L116.826 210.892L116.284 211.388L116.106 211.192ZM114.851 194.315C113.943 195.892 113.867 197.722 114.486 199.296L113.995 199.49C113.319 197.772 113.402 195.773 114.394 194.051L114.851 194.315ZM122.677 192.221C119.936 190.633 116.432 191.57 114.851 194.315L114.394 194.051C116.121 191.053 119.947 190.028 122.94 191.763L122.677 192.221ZM125.509 196.57C125.315 194.815 124.319 193.172 122.677 192.221L122.94 191.763C124.734 192.802 125.822 194.597 126.034 196.512L125.509 196.57ZM130.677 197.221C129.153 196.338 127.395 196.236 125.861 196.79L125.682 196.292C127.356 195.687 129.277 195.799 130.94 196.763L130.677 197.221ZM132.777 205.067C134.358 202.322 133.417 198.809 130.677 197.221L130.94 196.763C133.934 198.497 134.961 202.334 133.234 205.332L132.777 205.067ZM128.425 207.902C130.182 207.714 131.827 206.717 132.777 205.067L133.234 205.332C132.196 207.134 130.399 208.223 128.482 208.428L128.425 207.902ZM127.777 213.067C128.653 211.546 128.755 209.789 128.205 208.254L128.702 208.076C129.302 209.751 129.191 211.67 128.234 213.332L127.777 213.067ZM119.951 215.162C122.692 216.75 126.196 215.812 127.777 213.067L128.234 213.332C126.507 216.33 122.681 217.354 119.688 215.619L119.951 215.162ZM118.059 213.391C118.531 214.096 119.168 214.707 119.951 215.162L119.688 215.619C118.832 215.124 118.137 214.456 117.621 213.685L118.059 213.391ZM112.789 214.717C114.824 215.058 116.438 214.379 117.67 213.336L118.011 213.74C116.684 214.863 114.919 215.61 112.702 215.239L112.789 214.717ZM111.773 213.363C111.693 214 112.147 214.609 112.789 214.717L112.702 215.239C111.785 215.085 111.134 214.219 111.249 213.297L111.773 213.363ZM113.056 212.416C112.423 212.31 111.852 212.735 111.773 213.363L111.249 213.297C111.366 212.366 112.217 211.739 113.142 211.894L113.056 212.416ZM116.284 211.388C115.385 212.209 114.313 212.627 113.056 212.416L113.142 211.894C114.212 212.073 115.126 211.729 115.928 210.997L116.284 211.388ZM112.95 210.162C113.941 210.736 115.03 210.98 116.093 210.928L116.119 211.456C114.958 211.513 113.768 211.246 112.687 210.62L112.95 210.162ZM110.85 202.316C109.269 205.061 110.21 208.574 112.95 210.162L112.687 210.62C109.693 208.885 108.666 205.049 110.393 202.051L110.85 202.316ZM114.31 199.648C112.901 200.03 111.637 200.949 110.85 202.316L110.393 202.051C111.253 200.558 112.633 199.555 114.171 199.138L114.31 199.648Z" fill="black" fill-opacity="0.2" style="fill:black;fill-opacity:0.2;"/>
<path fill-rule="evenodd" clip-rule="evenodd" d="M18.5036 180.935C19.1378 180.124 19.9885 179.465 21.0131 179.058C24.0922 177.833 27.5759 179.339 28.7941 182.42C29.5466 184.324 29.2587 186.383 28.203 187.969C29.7861 188.523 31.1284 189.736 31.7941 191.42C33.0123 194.502 31.5038 197.993 28.4247 199.217C26.8314 199.851 25.1297 199.754 23.6897 199.085C23.0726 200.465 21.9383 201.615 20.4243 202.218C17.3452 203.442 13.8615 201.937 12.6433 198.855C12.059 197.377 12.102 195.805 12.6445 194.434C10.8852 193.956 9.3658 192.683 8.64328 190.855C7.42506 187.774 8.9336 184.283 12.0127 183.058C13.4505 182.486 14.9765 182.51 16.3189 183.011C16.3056 182.983 16.2921 182.956 16.2784 182.929C15.4678 181.305 14.3088 180.269 12.6512 180.301C11.8593 180.317 11.2312 179.694 11.2483 178.911C11.2654 178.127 11.9211 177.48 12.7129 177.464C15.5823 177.408 17.4122 179.101 18.5036 180.935Z" fill="white" style="fill:white;fill-opacity:1;"/>
<path d="M18.5036 180.935L18.2767 181.07L18.4737 181.401L18.7114 181.097L18.5036 180.935ZM28.203 187.969L27.9834 187.822L27.7945 188.106L28.1155 188.218L28.203 187.969ZM23.6897 199.085L23.8011 198.846L23.5583 198.733L23.4488 198.978L23.6897 199.085ZM20.4243 202.218L20.3272 201.972L20.4243 202.218ZM12.6445 194.434L12.8899 194.531L12.9987 194.256L12.714 194.179L12.6445 194.434ZM16.3189 183.011L16.2263 183.259L16.8453 183.49L16.5564 182.895L16.3189 183.011ZM16.2784 182.929L16.0422 183.047L16.0422 183.047L16.2784 182.929ZM12.6512 180.301L12.6559 180.566L12.6559 180.566L12.6512 180.301ZM11.2483 178.911L10.9843 178.905L10.9843 178.905L11.2483 178.911ZM12.7129 177.464L12.7177 177.728L12.7177 177.728L12.7129 177.464ZM20.9159 178.812C19.8466 179.237 18.9581 179.925 18.2958 180.772L18.7114 181.097C19.3174 180.323 20.1303 179.693 21.1102 179.304L20.9159 178.812ZM29.0396 182.323C27.7677 179.105 24.1307 177.534 20.9159 178.812L21.1102 179.304C24.0537 178.133 27.384 179.572 28.5486 182.518L29.0396 182.323ZM28.4226 188.115C29.5244 186.461 29.8253 184.31 29.0396 182.323L28.5486 182.518C29.2678 184.337 28.993 186.306 27.9834 187.822L28.4226 188.115ZM32.0396 191.323C31.3446 189.564 29.9427 188.297 28.2905 187.719L28.1155 188.218C29.6295 188.748 30.9122 189.908 31.5486 191.518L32.0396 191.323ZM28.5218 199.463C31.7365 198.185 33.3115 194.54 32.0396 191.323L31.5486 191.518C32.7131 194.464 31.271 197.801 28.3275 198.972L28.5218 199.463ZM23.5784 199.325C25.0814 200.023 26.8584 200.125 28.5218 199.463L28.3275 198.972C26.8044 199.578 25.1781 199.485 23.8011 198.846L23.5784 199.325ZM20.5214 202.463C22.102 201.835 23.2865 200.634 23.9307 199.193L23.4488 198.978C22.8587 200.297 21.7746 201.396 20.3272 201.972L20.5214 202.463ZM12.3978 198.953C13.6696 202.17 17.3067 203.742 20.5214 202.463L20.3272 201.972C17.3836 203.143 14.0534 201.704 12.8888 198.758L12.3978 198.953ZM12.399 194.337C11.8327 195.768 11.7878 197.41 12.3978 198.953L12.8888 198.758C12.3303 197.345 12.3712 195.842 12.8899 194.531L12.399 194.337ZM8.39776 190.953C9.15216 192.861 10.7389 194.191 12.575 194.689L12.714 194.179C11.0315 193.722 9.57944 192.505 8.88881 190.758L8.39776 190.953ZM11.9156 182.812C8.70086 184.091 7.12588 187.736 8.39776 190.953L8.88881 190.758C7.72423 187.812 9.16634 184.474 12.1099 183.304L11.9156 182.812ZM16.4115 182.763C15.0102 182.24 13.4165 182.215 11.9156 182.812L12.1099 183.304C13.4845 182.757 14.9428 182.779 16.2263 183.259L16.4115 182.763ZM16.5564 182.895C16.5426 182.867 16.5287 182.838 16.5146 182.81L16.0422 183.047C16.0554 183.074 16.0685 183.1 16.0814 183.127L16.5564 182.895ZM16.5146 182.81C15.6805 181.139 14.4471 180.002 12.6465 180.037L12.6559 180.566C14.1705 180.536 15.2552 181.471 16.0422 183.047L16.5146 182.81ZM12.6465 180.037C12.0013 180.049 11.4986 179.546 11.5123 178.916L10.9843 178.905C10.9639 179.842 11.7174 180.584 12.6559 180.566L12.6465 180.037ZM11.5123 178.916C11.5262 178.277 12.0647 177.741 12.7177 177.728L12.7082 177.2C11.7775 177.218 11.0045 177.977 10.9843 178.905L11.5123 178.916ZM12.7177 177.728C15.4593 177.675 17.2141 179.285 18.2767 181.07L18.7304 180.799C17.6103 178.917 15.7054 177.141 12.7082 177.2L12.7177 177.728Z" fill="black" fill-opacity="0.2" style="fill:black;fill-opacity:0.2;"/>
<path fill-rule="evenodd" clip-rule="evenodd" d="M52.5037 9.93451C53.1379 9.12374 53.9885 8.46532 55.0131 8.05783C58.0922 6.83318 61.5759 8.33859 62.7941 11.4202C63.5466 13.3237 63.2587 15.3833 62.203 16.9686C63.7861 17.5229 65.1284 18.7362 65.7941 20.4202C67.0123 23.5019 65.5038 26.9928 62.4247 28.2175C60.8314 28.8512 59.1297 28.7539 57.6897 28.0854C57.0726 29.4654 55.9383 30.6155 54.4243 31.2177C51.3452 32.4423 47.8615 30.9369 46.6433 27.8552C46.059 26.3773 46.102 24.8053 46.6445 23.4343C44.8852 22.9562 43.3658 21.6829 42.6433 19.8552C41.4251 16.7736 42.9336 13.2826 46.0127 12.058C47.4506 11.4861 48.9767 11.5096 50.3192 12.0109C50.3058 11.9834 50.2923 11.9559 50.2786 11.9285C49.468 10.305 48.309 9.26887 46.6515 9.30117C45.8596 9.31661 45.2315 8.69398 45.2486 7.91049C45.2657 7.12701 45.9214 6.47936 46.7132 6.46393C49.5825 6.40802 51.4123 8.10095 52.5037 9.93451Z" fill="white" style="fill:white;fill-opacity:1;"/>
<path d="M52.5037 9.93451L52.2768 10.0701L52.4738 10.4012L52.7114 10.0974L52.5037 9.93451ZM62.203 16.9686L61.9834 16.8221L61.7945 17.1058L62.1155 17.2182L62.203 16.9686ZM57.6897 28.0854L57.8011 27.8455L57.5583 27.7328L57.4488 27.9777L57.6897 28.0854ZM54.4243 31.2177L54.3272 30.9719L54.4243 31.2177ZM46.6445 23.4343L46.8899 23.5314L46.9987 23.2564L46.714 23.1791L46.6445 23.4343ZM50.3192 12.0109L50.2266 12.2587L50.8455 12.4898L50.5566 11.895L50.3192 12.0109ZM50.2786 11.9285L50.0424 12.047L50.0424 12.047L50.2786 11.9285ZM46.6515 9.30117L46.6467 9.0368L46.6467 9.0368L46.6515 9.30117ZM45.2486 7.91049L45.5126 7.91585L45.5126 7.91585L45.2486 7.91049ZM46.7132 6.46393L46.718 6.7283L46.718 6.7283L46.7132 6.46393ZM54.9159 7.8121C53.8467 8.23738 52.9582 8.92494 52.2959 9.77165L52.7114 10.0974C53.3175 9.32254 54.1304 8.69327 55.1102 8.30356L54.9159 7.8121ZM63.0396 11.3226C61.7677 8.10523 58.1307 6.53352 54.9159 7.8121L55.1102 8.30356C58.0537 7.13284 61.384 8.57195 62.5486 11.5179L63.0396 11.3226ZM62.4226 17.115C63.5244 15.4606 63.8253 13.3101 63.0396 11.3226L62.5486 11.5179C63.2678 13.3373 62.993 15.306 61.9834 16.8221L62.4226 17.115ZM66.0396 20.3226C65.3446 18.5643 63.9427 17.2975 62.2905 16.7189L62.1155 17.2182C63.6295 17.7483 64.9122 18.9081 65.5486 20.5179L66.0396 20.3226ZM62.5218 28.4632C65.7365 27.1846 67.3115 23.54 66.0396 20.3226L65.5486 20.5179C66.7131 23.4638 65.271 26.801 62.3275 27.9718L62.5218 28.4632ZM57.5784 28.3254C59.0814 29.023 60.8584 29.1248 62.5218 28.4632L62.3275 27.9718C60.8044 28.5776 59.1781 28.4847 57.8011 27.8455L57.5784 28.3254ZM54.5214 31.4634C56.102 30.8347 57.2865 29.6336 57.9307 28.1932L57.4488 27.9777C56.8587 29.2972 55.7746 30.3962 54.3272 30.9719L54.5214 31.4634ZM46.3978 27.9529C47.6696 31.1703 51.3067 32.742 54.5214 31.4634L54.3272 30.9719C51.3836 32.1426 48.0534 30.7035 46.8888 27.7576L46.3978 27.9529ZM46.399 23.3372C45.8327 24.7683 45.7878 26.41 46.3978 27.9529L46.8888 27.7576C46.3303 26.3447 46.3712 24.8423 46.8899 23.5314L46.399 23.3372ZM42.3978 19.9529C43.1522 21.8612 44.7389 23.1905 46.575 23.6895L46.714 23.1791C45.0315 22.7219 43.5794 21.5046 42.8888 19.7576L42.3978 19.9529ZM45.9156 11.8123C42.7009 13.0908 41.1259 16.7355 42.3978 19.9529L42.8888 19.7576C41.7242 16.8116 43.1663 13.4744 46.1099 12.3037L45.9156 11.8123ZM50.4117 11.7631C49.0104 11.2398 47.4166 11.2153 45.9156 11.8123L46.1099 12.3037C47.4846 11.757 48.943 11.7793 50.2266 12.2587L50.4117 11.7631ZM50.5566 11.895C50.5429 11.8666 50.5289 11.8382 50.5148 11.8099L50.0424 12.047C50.0556 12.0735 50.0687 12.1001 50.0817 12.1268L50.5566 11.895ZM50.5148 11.8099C49.6807 10.1393 48.4473 9.00171 46.6467 9.0368L46.6562 9.56554C48.1707 9.53603 49.2553 10.4707 50.0424 12.047L50.5148 11.8099ZM46.6467 9.0368C46.0016 9.04938 45.4989 8.54605 45.5126 7.91585L44.9846 7.90513C44.9642 8.8419 45.7176 9.58384 46.6562 9.56554L46.6467 9.0368ZM45.5126 7.91585C45.5265 7.2771 46.065 6.74103 46.718 6.7283L46.7085 6.19956C45.7777 6.2177 45.0048 6.97692 44.9846 7.90513L45.5126 7.91585ZM46.718 6.7283C49.4594 6.67488 51.2142 8.28494 52.2768 10.0701L52.7305 9.79887C51.6104 7.91696 49.7056 6.14115 46.7085 6.19956L46.718 6.7283Z" fill="black" fill-opacity="0.2" style="fill:black;fill-opacity:0.2;"/>
<path fill-rule="evenodd" clip-rule="evenodd" d="M136.496 155.935C135.862 155.124 135.012 154.465 133.987 154.058C130.908 152.833 127.424 154.339 126.206 157.42C125.453 159.324 125.741 161.383 126.797 162.969C125.214 163.523 123.872 164.736 123.206 166.42C121.988 169.502 123.496 172.993 126.575 174.217C128.169 174.851 129.87 174.754 131.31 174.085C131.927 175.465 133.062 176.615 134.576 177.218C137.655 178.442 141.138 176.937 142.357 173.855C142.941 172.377 142.898 170.805 142.356 169.434C144.115 168.956 145.634 167.683 146.357 165.855C147.575 162.774 146.066 159.283 142.987 158.058C141.549 157.486 140.023 157.51 138.681 158.011C138.694 157.983 138.708 157.956 138.722 157.929C139.532 156.305 140.691 155.269 142.349 155.301C143.141 155.317 143.769 154.694 143.752 153.911C143.735 153.127 143.079 152.48 142.287 152.464C139.418 152.408 137.588 154.101 136.496 155.935Z" fill="white" style="fill:white;fill-opacity:1;"/>
<path d="M136.496 155.935L136.723 156.07L136.526 156.401L136.289 156.097L136.496 155.935ZM126.797 162.969L127.017 162.822L127.206 163.106L126.884 163.218L126.797 162.969ZM131.31 174.085L131.199 173.846L131.442 173.733L131.551 173.978L131.31 174.085ZM134.576 177.218L134.673 176.972L134.576 177.218ZM142.356 169.434L142.11 169.531L142.001 169.256L142.286 169.179L142.356 169.434ZM138.681 158.011L138.774 158.259L138.155 158.49L138.444 157.895L138.681 158.011ZM138.722 157.929L138.485 157.81L138.485 157.81L138.722 157.929ZM142.349 155.301L142.344 155.566L142.344 155.566L142.349 155.301ZM142.287 152.464L142.282 152.728L142.282 152.728L142.287 152.464ZM134.084 153.812C135.153 154.237 136.042 154.925 136.704 155.772L136.289 156.097C135.683 155.323 134.87 154.693 133.89 154.304L134.084 153.812ZM125.96 157.323C127.232 154.105 130.869 152.534 134.084 153.812L133.89 154.304C130.946 153.133 127.616 154.572 126.451 157.518L125.96 157.323ZM126.577 163.115C125.476 161.461 125.175 159.31 125.96 157.323L126.451 157.518C125.732 159.337 126.007 161.306 127.017 162.822L126.577 163.115ZM122.96 166.323C123.655 164.564 125.057 163.297 126.71 162.719L126.884 163.218C125.371 163.748 124.088 164.908 123.451 166.518L122.96 166.323ZM126.478 174.463C123.263 173.185 121.689 169.54 122.96 166.323L123.451 166.518C122.287 169.464 123.729 172.801 126.672 173.972L126.478 174.463ZM131.422 174.325C129.919 175.023 128.142 175.125 126.478 174.463L126.672 173.972C128.196 174.578 129.822 174.485 131.199 173.846L131.422 174.325ZM134.479 177.463C132.898 176.835 131.713 175.634 131.069 174.193L131.551 173.978C132.141 175.297 133.225 176.396 134.673 176.972L134.479 177.463ZM142.602 173.953C141.33 177.17 137.693 178.742 134.479 177.463L134.673 176.972C137.616 178.143 140.947 176.704 142.111 173.758L142.602 173.953ZM142.601 169.337C143.167 170.768 143.212 172.41 142.602 173.953L142.111 173.758C142.67 172.345 142.629 170.842 142.11 169.531L142.601 169.337ZM146.602 165.953C145.848 167.861 144.261 169.191 142.425 169.689L142.286 169.179C143.969 168.722 145.421 167.505 146.111 165.758L146.602 165.953ZM143.084 157.812C146.299 159.091 147.874 162.736 146.602 165.953L146.111 165.758C147.276 162.812 145.834 159.474 142.89 158.304L143.084 157.812ZM138.588 157.763C139.99 157.24 141.583 157.215 143.084 157.812L142.89 158.304C141.515 157.757 140.057 157.779 138.774 158.259L138.588 157.763ZM138.444 157.895C138.457 157.867 138.471 157.838 138.485 157.81L138.958 158.047C138.945 158.074 138.931 158.1 138.919 158.127L138.444 157.895ZM138.485 157.81C139.319 156.139 140.553 155.002 142.353 155.037L142.344 155.566C140.829 155.536 139.745 156.471 138.958 158.047L138.485 157.81ZM142.353 155.037C142.999 155.049 143.501 154.546 143.488 153.916L144.016 153.905C144.036 154.842 143.283 155.584 142.344 155.566L142.353 155.037ZM143.488 153.916C143.474 153.277 142.935 152.741 142.282 152.728L142.292 152.2C143.222 152.218 143.995 152.977 144.016 153.905L143.488 153.916ZM142.282 152.728C139.541 152.675 137.786 154.285 136.723 156.07L136.27 155.799C137.39 153.917 139.295 152.141 142.292 152.2L142.282 152.728Z" fill="black" fill-opacity="0.2" style="fill:black;fill-opacity:0.2;"/>
<path fill-rule="evenodd" clip-rule="evenodd" d="M54.4861 174.079C53.853 174.883 53.006 175.537 51.9869 175.942C48.9078 177.167 45.4241 175.662 44.2059 172.58C43.4534 170.676 43.7413 168.617 44.797 167.032C43.2139 166.477 41.8716 165.264 41.2059 163.58C39.9877 160.498 41.4962 157.007 44.5753 155.783C46.1686 155.149 47.8703 155.246 49.3103 155.915C49.9274 154.535 51.0617 153.385 52.5757 152.782C55.6548 151.558 59.1385 153.063 60.3567 156.145C60.941 157.623 60.898 159.195 60.3555 160.566C62.1148 161.044 63.6342 162.317 64.3567 164.145C65.5749 167.227 64.0664 170.717 60.9873 171.942C59.5408 172.517 58.005 172.49 56.6567 171.98C56.6723 172.013 56.6881 172.045 56.7041 172.077C57.5125 173.705 58.6686 174.744 60.3218 174.711C61.1116 174.696 61.7381 175.32 61.7211 176.106C61.704 176.891 61.05 177.541 60.2602 177.556C57.3995 177.612 55.5747 175.916 54.4861 174.079Z" fill="white" style="fill:white;fill-opacity:1;"/>
<path d="M54.4861 174.079L54.7132 173.944L54.517 173.612L54.2787 173.915L54.4861 174.079ZM44.797 167.032L45.0166 167.178L45.2055 166.894L44.8845 166.782L44.797 167.032ZM49.3103 155.915L49.1989 156.155L49.4417 156.267L49.5512 156.022L49.3103 155.915ZM52.5757 152.782L52.6728 153.028L52.5757 152.782ZM60.3555 160.566L60.1101 160.469L60.0013 160.744L60.286 160.821L60.3555 160.566ZM56.6567 171.98L56.7503 171.733L56.1321 171.499L56.4188 172.095L56.6567 171.98ZM56.7041 172.077L56.4677 172.195L56.4677 172.195L56.7041 172.077ZM60.3218 174.711L60.3266 174.976L60.3266 174.976L60.3218 174.711ZM61.7211 176.106L61.9851 176.111L61.9851 176.111L61.7211 176.106ZM60.2602 177.556L60.2554 177.292L60.2554 177.292L60.2602 177.556ZM52.0841 176.188C53.1476 175.765 54.0322 175.083 54.6934 174.242L54.2787 173.915C53.6737 174.684 52.8643 175.309 51.8898 175.697L52.0841 176.188ZM43.9604 172.678C45.2323 175.895 48.8693 177.467 52.0841 176.188L51.8898 175.697C48.9463 176.867 45.616 175.428 44.4514 172.482L43.9604 172.678ZM44.5774 166.885C43.4756 168.539 43.1747 170.69 43.9604 172.678L44.4514 172.482C43.7322 170.663 44.007 168.694 45.0166 167.178L44.5774 166.885ZM40.9604 163.678C41.6554 165.436 43.0573 166.703 44.7095 167.281L44.8845 166.782C43.3705 166.252 42.0878 165.092 41.4514 163.482L40.9604 163.678ZM44.4782 155.537C41.2635 156.815 39.6885 160.46 40.9604 163.678L41.4514 163.482C40.2869 160.536 41.729 157.199 44.6725 156.028L44.4782 155.537ZM49.4216 155.675C47.9186 154.977 46.1416 154.875 44.4782 155.537L44.6725 156.028C46.1956 155.423 47.8219 155.515 49.1989 156.155L49.4216 155.675ZM52.4786 152.537C50.898 153.165 49.7135 154.367 49.0693 155.807L49.5512 156.022C50.1413 154.703 51.2254 153.604 52.6728 153.028L52.4786 152.537ZM60.6022 156.047C59.3304 152.83 55.6933 151.258 52.4786 152.537L52.6728 153.028C55.6164 151.857 58.9466 153.297 60.1112 156.243L60.6022 156.047ZM60.601 160.663C61.1673 159.232 61.2122 157.59 60.6022 156.047L60.1112 156.243C60.6697 157.655 60.6288 159.158 60.1101 160.469L60.601 160.663ZM64.6022 164.047C63.8478 162.139 62.2611 160.81 60.425 160.311L60.286 160.821C61.9685 161.278 63.4206 162.495 64.1112 164.243L64.6022 164.047ZM61.0844 172.188C64.2991 170.909 65.8741 167.265 64.6022 164.047L64.1112 164.243C65.2758 167.188 63.8337 170.526 60.8901 171.696L61.0844 172.188ZM56.5631 172.228C57.9704 172.76 59.5743 172.788 61.0844 172.188L60.8901 171.696C59.5072 172.246 58.0395 172.22 56.7503 171.733L56.5631 172.228ZM56.4188 172.095C56.4348 172.129 56.4511 172.162 56.4677 172.195L56.9406 171.959C56.9251 171.928 56.9098 171.897 56.8946 171.865L56.4188 172.095ZM56.4677 172.195C57.2993 173.87 58.5295 175.011 60.3266 174.976L60.3171 174.447C58.8076 174.477 57.7258 173.54 56.9406 171.959L56.4677 172.195ZM60.3266 174.976C60.9683 174.963 61.4708 175.467 61.4571 176.1L61.9851 176.111C62.0054 175.174 61.255 174.429 60.3171 174.447L60.3266 174.976ZM61.4571 176.1C61.4432 176.742 60.9051 177.279 60.2554 177.292L60.2649 177.82C61.1948 177.802 61.9649 177.04 61.9851 176.111L61.4571 176.1ZM60.2554 177.292C57.5232 177.345 55.7734 175.733 54.7132 173.944L54.2589 174.214C55.3761 176.099 57.2758 177.879 60.2649 177.82L60.2554 177.292Z" fill="black" fill-opacity="0.2" style="fill:black;fill-opacity:0.2;"/>
<path fill-rule="evenodd" clip-rule="evenodd" d="M17.4862 53.0785C16.8531 53.8834 16.006 54.537 14.9869 54.9423C11.9078 56.1669 8.42413 54.6615 7.2059 51.5799C6.45344 49.6764 6.74129 47.6168 7.797 46.0316C6.21392 45.4773 4.87164 44.2639 4.2059 42.5799C2.98768 39.4982 4.49622 36.0073 7.57533 34.7826C9.16864 34.1489 10.8703 34.2462 12.3103 34.9147C12.9274 33.5347 14.0617 32.3846 15.5757 31.7825C18.6548 30.5578 22.1385 32.0632 23.3567 35.1449C23.941 36.6228 23.898 38.1948 23.3555 39.5659C25.1148 40.0439 26.6342 41.3172 27.3567 43.1449C28.5749 46.2265 27.0664 49.7175 23.9873 50.9421C22.5409 51.5174 21.0052 51.4902 19.657 50.9803C19.6725 51.0126 19.6883 51.0449 19.7043 51.0771C20.5128 52.7048 21.6688 53.7437 23.3222 53.7113C24.112 53.6959 24.7385 54.3201 24.7214 55.1056C24.7044 55.8911 24.0503 56.5404 23.2605 56.5559C20.3997 56.6119 18.5749 54.916 17.4862 53.0785Z" fill="white" style="fill:white;fill-opacity:1;"/>
<path d="M17.4862 53.0785L17.7133 52.9434L17.5171 52.6122L17.2789 52.9151L17.4862 53.0785ZM7.797 46.0316L8.01661 46.178L8.20553 45.8944L7.88449 45.7819L7.797 46.0316ZM12.3103 34.9147L12.1989 35.1546L12.4417 35.2673L12.5512 35.0224L12.3103 34.9147ZM15.5757 31.7825L15.6728 32.0282L15.5757 31.7825ZM23.3555 39.5659L23.1101 39.4688L23.0013 39.7437L23.286 39.8211L23.3555 39.5659ZM19.657 50.9803L19.7506 50.7329L19.1324 50.499L19.419 51.0953L19.657 50.9803ZM19.7043 51.0771L19.9408 50.9591L19.9408 50.9591L19.7043 51.0771ZM23.3222 53.7113L23.3174 53.4469L23.3174 53.4469L23.3222 53.7113ZM24.7214 55.1056L24.4574 55.1003L24.4574 55.1003L24.7214 55.1056ZM23.2605 56.5559L23.2652 56.8203L23.2652 56.8203L23.2605 56.5559ZM15.0841 55.188C16.1476 54.765 17.0323 54.0825 17.6935 53.242L17.2789 52.9151C16.6738 53.6843 15.8644 54.3089 14.8898 54.6966L15.0841 55.188ZM6.96038 51.6775C8.23225 54.8949 11.8693 56.4666 15.0841 55.188L14.8898 54.6966C11.9463 55.8673 8.616 54.4282 7.45143 51.4822L6.96038 51.6775ZM7.5774 45.8851C6.47564 47.5395 6.17469 49.69 6.96038 51.6775L7.45143 51.4822C6.73218 49.6628 7.00695 47.6941 8.01661 46.178L7.5774 45.8851ZM3.96038 42.6775C4.65545 44.4358 6.05729 45.7027 7.70952 46.2812L7.88449 45.7819C6.37055 45.2519 5.08782 44.0921 4.45143 42.4822L3.96038 42.6775ZM7.47819 34.5369C4.26348 35.8155 2.6885 39.4602 3.96038 42.6775L4.45143 42.4822C3.28685 39.5363 4.72896 36.1991 7.67247 35.0284L7.47819 34.5369ZM12.4216 34.6747C10.9186 33.9771 9.14164 33.8753 7.47819 34.5369L7.67247 35.0284C9.19563 34.4226 10.8219 34.5154 12.1989 35.1546L12.4216 34.6747ZM15.4786 31.5367C13.898 32.1654 12.7135 33.3665 12.0693 34.8069L12.5512 35.0224C13.1413 33.7029 14.2254 32.6039 15.6728 32.0282L15.4786 31.5367ZM23.6022 35.0472C22.3304 31.8299 18.6933 30.2582 15.4786 31.5367L15.6728 32.0282C18.6164 30.8575 21.9466 32.2966 23.1112 35.2425L23.6022 35.0472ZM23.601 39.6629C24.1673 38.2318 24.2122 36.5901 23.6022 35.0472L23.1112 35.2425C23.6697 36.6555 23.6288 38.1578 23.1101 39.4688L23.601 39.6629ZM27.6022 43.0472C26.8478 41.1389 25.2611 39.8096 23.425 39.3107L23.286 39.8211C24.9685 40.2783 26.4206 41.4955 27.1112 43.2425L27.6022 43.0472ZM24.0844 51.1879C27.2991 49.9093 28.8741 46.2646 27.6022 43.0472L27.1112 43.2425C28.2758 46.1885 26.8337 49.5257 23.8902 50.6964L24.0844 51.1879ZM19.5633 51.2276C20.9707 51.76 22.5745 51.7884 24.0844 51.1879L23.8902 50.6964C22.5073 51.2464 21.0397 51.2205 19.7506 50.7329L19.5633 51.2276ZM19.419 51.0953C19.4351 51.1286 19.4514 51.162 19.4679 51.1952L19.9408 50.9591C19.9253 50.9279 19.91 50.8966 19.8949 50.8653L19.419 51.0953ZM19.4679 51.1952C20.2995 52.8696 21.5298 54.0108 23.3269 53.9757L23.3174 53.4469C21.8078 53.4765 20.726 52.5401 19.9408 50.9591L19.4679 51.1952ZM23.3269 53.9757C23.9686 53.9631 24.4712 54.4667 24.4574 55.1003L24.9854 55.111C25.0057 54.1735 24.2553 53.4286 23.3174 53.4469L23.3269 53.9757ZM24.4574 55.1003C24.4435 55.7422 23.9054 56.2788 23.2557 56.2915L23.2652 56.8203C24.1952 56.8021 24.9653 56.04 24.9854 55.111L24.4574 55.1003ZM23.2557 56.2915C20.5234 56.345 18.7735 54.7327 17.7133 52.9434L17.259 53.2137C18.3762 55.0992 20.276 56.8787 23.2652 56.8203L23.2557 56.2915Z" fill="black" fill-opacity="0.2" style="fill:black;fill-opacity:0.2;"/>
<path fill-rule="evenodd" clip-rule="evenodd" d="M125.052 20.1496C124.763 20.8897 124.322 21.5841 123.73 22.1848C121.402 24.5433 117.609 24.5625 115.257 22.2277C114.054 21.0333 113.462 19.4541 113.482 17.8807C111.642 18.1943 109.685 17.6443 108.258 16.2275C105.906 13.8926 105.887 10.0879 108.215 7.7294C109.388 6.54 110.935 5.94553 112.481 5.94788C112.484 4.42315 113.061 2.89858 114.215 1.7294C116.542 -0.629121 120.335 -0.648324 122.687 1.68651C123.89 2.88091 124.482 4.45998 124.463 6.03332C126.302 5.71959 128.26 6.26956 129.687 7.68651C132.038 10.0213 132.058 13.8261 129.73 16.1846C128.896 17.0291 127.875 17.5736 126.799 17.8176C127.944 18.527 129.135 18.7336 130.342 18.1764C131.059 17.8454 131.883 18.166 132.183 18.8926C132.482 19.6192 132.144 20.4766 131.427 20.8076C128.981 21.9372 126.752 21.273 125.052 20.1496Z" fill="white" style="fill:white;fill-opacity:1;"/>
<path d="M125.052 20.1496L125.197 19.9286L124.925 19.7488L124.806 20.0532L125.052 20.1496ZM113.482 17.8807L113.745 17.884L113.749 17.5666L113.437 17.6198L113.482 17.8807ZM112.481 5.94788L112.481 6.21251L112.745 6.21291L112.745 5.94827L112.481 5.94788ZM124.463 6.03332L124.199 6.02999L124.195 6.34743L124.507 6.29421L124.463 6.03332ZM126.799 17.8176L126.741 17.5595L126.111 17.7024L126.661 18.0428L126.799 17.8176ZM130.342 18.1764L130.231 17.936L130.231 17.936L130.342 18.1764ZM132.183 18.8926L131.939 18.9938L131.939 18.9938L132.183 18.8926ZM131.427 20.8076L131.317 20.5672L131.317 20.5672L131.427 20.8076ZM123.917 22.371C124.536 21.7442 124.996 21.019 125.297 20.246L124.806 20.0532C124.53 20.7603 124.109 21.4241 123.542 21.9986L123.917 22.371ZM115.072 22.4158C117.527 24.8534 121.487 24.8334 123.917 22.371L123.542 21.9986C121.317 24.2533 117.691 24.2717 115.443 22.0396L115.072 22.4158ZM113.218 17.8774C113.197 19.5196 113.816 21.1687 115.072 22.4158L115.443 22.0396C114.293 20.8978 113.727 19.3886 113.745 17.884L113.218 17.8774ZM108.072 16.4155C109.562 17.895 111.606 18.4689 113.526 18.1416L113.437 17.6198C111.679 17.9198 109.807 17.3937 108.443 16.0394L108.072 16.4155ZM108.027 7.54322C105.597 10.0056 105.617 13.9779 108.072 16.4155L108.443 16.0394C106.195 13.8074 106.177 10.1702 108.402 7.91558L108.027 7.54322ZM112.482 5.68324C110.868 5.68079 109.253 6.30148 108.027 7.54322L108.402 7.91558C109.524 6.77851 111.002 6.21026 112.481 6.21251L112.482 5.68324ZM114.027 1.54322C112.822 2.76383 112.22 4.356 112.218 5.94749L112.745 5.94827C112.747 4.4903 113.299 3.03333 114.402 1.91558L114.027 1.54322ZM122.872 1.49844C120.418 -0.939213 116.457 -0.919164 114.027 1.54322L114.402 1.91558C116.627 -0.339077 120.253 -0.357435 122.501 1.87457L122.872 1.49844ZM124.726 6.03665C124.747 4.39448 124.128 2.74542 122.872 1.49844L122.501 1.87457C123.651 3.01641 124.218 4.52547 124.199 6.02999L124.726 6.03665ZM129.872 7.49844C128.382 6.01895 126.338 5.44502 124.418 5.77243L124.507 6.29421C126.266 5.99417 128.137 6.52017 129.501 7.87457L129.872 7.49844ZM129.917 16.3707C132.348 13.9084 132.327 9.9361 129.872 7.49844L129.501 7.87457C131.749 10.1066 131.768 13.7437 129.542 15.9984L129.917 16.3707ZM126.858 18.0757C127.981 17.821 129.048 17.2522 129.917 16.3707L129.542 15.9984C128.745 16.806 127.769 17.3263 126.741 17.5595L126.858 18.0757ZM126.661 18.0428C127.86 18.786 129.145 19.0202 130.452 18.4167L130.231 17.936C129.125 18.447 128.028 18.268 126.938 17.5925L126.661 18.0428ZM130.452 18.4167C131.035 18.1478 131.697 18.4077 131.939 18.9938L132.426 18.7915C132.069 17.9244 131.083 17.5429 130.231 17.936L130.452 18.4167ZM131.939 18.9938C132.184 19.5876 131.907 20.295 131.317 20.5672L131.538 21.048C132.382 20.6582 132.781 19.6509 132.426 18.7915L131.939 18.9938ZM131.317 20.5672C128.979 21.6466 126.848 21.0198 125.197 19.9286L124.907 20.3706C126.655 21.5261 128.982 22.2278 131.538 21.048L131.317 20.5672Z" fill="black" fill-opacity="0.2" style="fill:black;fill-opacity:0.2;"/>
<path fill-rule="evenodd" clip-rule="evenodd" d="M89.5036 8.06549C90.1378 8.87632 90.9885 9.53478 92.0131 9.94229C95.0922 11.1669 98.5759 9.66153 99.7941 6.57988C100.547 4.67642 100.259 2.61681 99.203 1.03156C100.786 0.477261 102.128 -0.736066 102.794 -2.42012C104.012 -5.50178 102.504 -8.99272 99.4247 -10.2174C97.8314 -10.8511 96.1297 -10.7538 94.6897 -10.0853C94.0726 -11.4653 92.9383 -12.6154 91.4243 -13.2175C88.3452 -14.4422 84.8615 -12.9368 83.6433 -9.85512C83.059 -8.37722 83.102 -6.80519 83.6445 -5.43415C81.8852 -4.95607 80.3658 -3.68282 79.6433 -1.85512C78.4251 1.22653 79.9336 4.71748 83.0127 5.94212C84.4505 6.51398 85.9766 6.49055 87.3189 5.98931C87.3056 6.01681 87.2921 6.04423 87.2784 6.07158C86.4678 7.69503 85.3088 8.73114 83.6512 8.69883C82.8594 8.6834 82.2313 9.30602 82.2483 10.0895C82.2654 10.8729 82.9211 11.5206 83.713 11.536C86.5823 11.5919 88.4122 9.89902 89.5036 8.06549Z" fill="white" style="fill:white;fill-opacity:1;"/>
<path d="M89.5036 8.06549L89.2767 7.92985L89.4738 7.59885L89.7114 7.90264L89.5036 8.06549ZM99.203 1.03156L98.9834 1.17804L98.7945 0.894355L99.1155 0.781944L99.203 1.03156ZM94.6897 -10.0853L94.8011 -9.84539L94.5583 -9.73269L94.4488 -9.97755L94.6897 -10.0853ZM91.4243 -13.2175L91.3272 -12.9718L91.4243 -13.2175ZM83.6445 -5.43415L83.8899 -5.53124L83.9987 -5.25632L83.714 -5.17895L83.6445 -5.43415ZM87.3189 5.98931L87.2264 5.74154L87.8453 5.51043L87.5564 6.10526L87.3189 5.98931ZM87.2784 6.07158L87.0422 5.95304L87.0422 5.95304L87.2784 6.07158ZM83.6512 8.69883L83.656 8.43446L83.656 8.43446L83.6512 8.69883ZM82.2483 10.0895L82.5123 10.0841L82.5123 10.0841L82.2483 10.0895ZM83.713 11.536L83.7177 11.2716L83.7177 11.2716L83.713 11.536ZM91.9159 10.188C90.8466 9.76272 89.9581 9.07512 89.2958 8.22835L89.7114 7.90264C90.3174 8.67752 91.1303 9.30684 92.1102 9.69657L91.9159 10.188ZM100.04 6.67753C98.7677 9.8949 95.1307 11.4666 91.9159 10.188L92.1102 9.69657C95.0537 10.8673 98.384 9.42817 99.5486 6.48223L100.04 6.67753ZM99.4226 0.885082C100.524 2.53948 100.825 4.69003 100.04 6.67753L99.5486 6.48223C100.268 4.66281 99.993 2.69413 98.9834 1.17804L99.4226 0.885082ZM103.04 -2.32247C102.345 -0.564202 100.943 0.702669 99.2905 1.28118L99.1155 0.781944C100.629 0.251854 101.912 -0.90793 102.549 -2.51777L103.04 -2.32247ZM99.5218 -10.4631C102.737 -9.18452 104.311 -5.53984 103.04 -2.32247L102.549 -2.51777C103.713 -5.46372 102.271 -8.80092 99.3275 -9.97163L99.5218 -10.4631ZM94.5784 -10.3253C96.0814 -11.0229 97.8584 -11.1247 99.5218 -10.4631L99.3275 -9.97163C97.8044 -10.5774 96.1781 -10.4846 94.8011 -9.84539L94.5784 -10.3253ZM91.5214 -13.4633C93.102 -12.8346 94.2865 -11.6335 94.9307 -10.1931L94.4488 -9.97755C93.8587 -11.2971 92.7746 -12.3961 91.3272 -12.9718L91.5214 -13.4633ZM83.3978 -9.95277C84.6696 -13.1701 88.3067 -14.7418 91.5214 -13.4633L91.3272 -12.9718C88.3836 -14.1425 85.0534 -12.7034 83.8888 -9.75747L83.3978 -9.95277ZM83.399 -5.33706C82.8327 -6.76819 82.7878 -8.40991 83.3978 -9.95277L83.8888 -9.75747C83.3303 -8.34454 83.3712 -6.84219 83.8899 -5.53124L83.399 -5.33706ZM79.3978 -1.95277C80.1522 -3.86113 81.7389 -5.19041 83.575 -5.68935L83.714 -5.17895C82.0315 -4.72173 80.5794 -3.50452 79.8888 -1.75747L79.3978 -1.95277ZM82.9156 6.18785C79.7009 4.90928 78.1259 1.26459 79.3978 -1.95277L79.8888 -1.75747C78.7242 1.18847 80.1663 4.52568 83.1098 5.6964L82.9156 6.18785ZM87.4115 6.23709C86.0102 6.76031 84.4166 6.78483 82.9156 6.18785L83.1098 5.6964C84.4845 6.24313 85.9429 6.22079 87.2264 5.74154L87.4115 6.23709ZM87.5564 6.10526C87.5427 6.13359 87.5287 6.16188 87.5146 6.19013L87.0422 5.95304C87.0554 5.92657 87.0685 5.90002 87.0815 5.87337L87.5564 6.10526ZM87.5146 6.19013C86.6805 7.8607 85.4471 8.99829 83.6465 8.96321L83.656 8.43446C85.1705 8.46398 86.2552 7.52935 87.0422 5.95304L87.5146 6.19013ZM83.6465 8.96321C83.0014 8.95063 82.4986 9.45396 82.5123 10.0841L81.9843 10.0948C81.964 9.15808 82.7174 8.41617 83.656 8.43446L83.6465 8.96321ZM82.5123 10.0841C82.5262 10.7228 83.0648 11.2589 83.7177 11.2716L83.7082 11.8004C82.7775 11.7822 82.0045 11.023 81.9843 10.0948L82.5123 10.0841ZM83.7177 11.2716C86.4593 11.3251 88.2141 9.71503 89.2767 7.92985L89.7304 8.20114C88.6103 10.083 86.7054 11.8588 83.7082 11.8004L83.7177 11.2716Z" fill="black" fill-opacity="0.2" style="fill:black;fill-opacity:0.2;"/>
<path fill-rule="evenodd" clip-rule="evenodd" d="M70.5039 59.0659C71.138 59.8765 71.9886 60.5348 73.0131 60.9423C76.0922 62.1669 79.5759 60.6615 80.7941 57.5799C81.5466 55.6764 81.2587 53.6168 80.203 52.0316C81.7861 51.4773 83.1284 50.2639 83.7941 48.5799C85.0123 45.4982 83.5038 42.0073 80.4247 40.7826C78.8314 40.1489 77.1297 40.2462 75.6897 40.9147C75.0726 39.5347 73.9383 38.3846 72.4243 37.7825C69.3452 36.5578 65.8615 38.0632 64.6433 41.1449C64.059 42.6228 64.102 44.1948 64.6445 45.5659C62.8852 46.0439 61.3658 47.3172 60.6433 49.1449C59.4251 52.2265 60.9336 55.7175 64.0127 56.9421C65.4508 57.5141 66.9771 57.4905 68.3196 56.9891C68.3062 57.0167 68.2927 57.0442 68.2789 57.0717C67.4684 58.6953 66.3095 59.7315 64.652 59.6992C63.8602 59.6838 63.2322 60.3064 63.2492 61.09C63.2663 61.8735 63.922 62.5212 64.7138 62.5366C67.5829 62.5925 69.4126 60.8995 70.5039 59.0659Z" fill="white" style="fill:white;fill-opacity:1;"/>
<path d="M70.5039 59.0659L70.277 58.9302L70.474 58.5992L70.7116 58.903L70.5039 59.0659ZM80.203 52.0316L79.9834 52.178L79.7945 51.8944L80.1155 51.7819L80.203 52.0316ZM75.6897 40.9147L75.8011 41.1546L75.5583 41.2673L75.4488 41.0224L75.6897 40.9147ZM72.4243 37.7825L72.3272 38.0282L72.4243 37.7825ZM64.6445 45.5659L64.8899 45.4688L64.9987 45.7437L64.714 45.8211L64.6445 45.5659ZM68.3196 56.9891L68.227 56.7413L68.8459 56.5101L68.5571 57.105L68.3196 56.9891ZM68.2789 57.0717L68.5151 57.1903L68.5151 57.1903L68.2789 57.0717ZM64.652 59.6992L64.6473 59.9636L64.6473 59.9636L64.652 59.6992ZM63.2492 61.09L63.5132 61.0846L63.5132 61.0846L63.2492 61.09ZM64.7138 62.5366L64.7185 62.2722L64.7185 62.2722L64.7138 62.5366ZM72.9159 61.188C71.8468 60.7628 70.9584 60.0753 70.2961 59.2287L70.7116 58.903C71.3177 59.6777 72.1305 60.3069 73.1102 60.6966L72.9159 61.188ZM81.0396 57.6775C79.7677 60.8949 76.1307 62.4666 72.9159 61.188L73.1102 60.6966C76.0537 61.8673 79.384 60.4282 80.5486 57.4822L81.0396 57.6775ZM80.4226 51.8851C81.5244 53.5395 81.8253 55.69 81.0396 57.6775L80.5486 57.4822C81.2678 55.6628 80.993 53.6941 79.9834 52.178L80.4226 51.8851ZM84.0396 48.6775C83.3446 50.4358 81.9427 51.7027 80.2905 52.2812L80.1155 51.7819C81.6295 51.2519 82.9122 50.0921 83.5486 48.4822L84.0396 48.6775ZM80.5218 40.5369C83.7365 41.8155 85.3115 45.4602 84.0396 48.6775L83.5486 48.4822C84.7131 45.5363 83.271 42.1991 80.3275 41.0284L80.5218 40.5369ZM75.5784 40.6747C77.0814 39.9771 78.8584 39.8753 80.5218 40.5369L80.3275 41.0284C78.8044 40.4226 77.1781 40.5154 75.8011 41.1546L75.5784 40.6747ZM72.5214 37.5367C74.102 38.1654 75.2865 39.3665 75.9307 40.8069L75.4488 41.0224C74.8587 39.7029 73.7746 38.6039 72.3272 38.0282L72.5214 37.5367ZM64.3978 41.0472C65.6696 37.8299 69.3067 36.2582 72.5214 37.5367L72.3272 38.0282C69.3836 36.8575 66.0534 38.2966 64.8888 41.2425L64.3978 41.0472ZM64.399 45.6629C63.8327 44.2318 63.7878 42.5901 64.3978 41.0472L64.8888 41.2425C64.3303 42.6555 64.3712 44.1578 64.8899 45.4688L64.399 45.6629ZM60.3978 49.0472C61.1522 47.1389 62.7389 45.8096 64.575 45.3107L64.714 45.8211C63.0315 46.2783 61.5794 47.4955 60.8888 49.2425L60.3978 49.0472ZM63.9156 57.1878C60.7009 55.9093 59.1259 52.2646 60.3978 49.0472L60.8888 49.2425C59.7242 52.1885 61.1663 55.5257 64.1099 56.6964L63.9156 57.1878ZM68.4123 57.2368C67.0108 57.7603 65.4168 57.7849 63.9156 57.1878L64.1099 56.6964C65.4847 57.2432 66.9434 57.2208 68.227 56.7413L68.4123 57.2368ZM68.5571 57.105C68.5433 57.1335 68.5293 57.1619 68.5151 57.1903L68.0427 56.9532C68.056 56.9266 68.0691 56.8999 68.0821 56.8731L68.5571 57.105ZM68.5151 57.1903C67.6811 58.861 66.4478 59.9987 64.6473 59.9636L64.6567 59.4348C66.1712 59.4643 67.2557 58.5297 68.0427 56.9532L68.5151 57.1903ZM64.6473 59.9636C64.0022 59.951 63.4995 60.4543 63.5132 61.0846L62.9852 61.0953C62.9648 60.1585 63.7182 59.4165 64.6567 59.4348L64.6473 59.9636ZM63.5132 61.0846C63.5271 61.7234 64.0656 62.2595 64.7185 62.2722L64.709 62.801C63.7783 62.7828 63.0054 62.0235 62.9852 61.0953L63.5132 61.0846ZM64.7185 62.2722C67.4598 62.3256 69.2145 60.7155 70.277 58.9302L70.7308 59.2015C69.6107 61.0835 67.7059 62.8594 64.709 62.801L64.7185 62.2722Z" fill="black" fill-opacity="0.2" style="fill:black;fill-opacity:0.2;"/>
<path fill-rule="evenodd" clip-rule="evenodd" d="M113.515 54.0796C114.148 54.884 114.994 55.5372 116.013 55.9423C119.092 57.1669 122.576 55.6615 123.794 52.5799C124.547 50.6764 124.259 48.6168 123.203 47.0316C124.786 46.4773 126.128 45.2639 126.794 43.5799C128.012 40.4982 126.504 37.0073 123.425 35.7826C121.831 35.1489 120.13 35.2462 118.69 35.9147C118.073 34.5347 116.938 33.3846 115.424 32.7825C112.345 31.5578 108.862 33.0632 107.643 36.1449C107.059 37.6228 107.102 39.1948 107.644 40.5659C105.885 41.0439 104.366 42.3172 103.643 44.1449C102.425 47.2265 103.934 50.7175 107.013 51.9421C108.46 52.5177 109.996 52.4902 111.345 51.9795C111.329 52.0123 111.313 52.045 111.297 52.0776C110.489 53.7056 109.333 54.7447 107.68 54.7124C106.89 54.6969 106.264 55.3213 106.281 56.107C106.298 56.8926 106.952 57.5421 107.742 57.5576C110.602 57.6135 112.426 55.9174 113.515 54.0796Z" fill="white" style="fill:white;fill-opacity:1;"/>
<path d="M113.515 54.0796L113.288 53.9445L113.484 53.6134L113.722 53.9162L113.515 54.0796ZM123.203 47.0316L122.983 47.178L122.794 46.8944L123.116 46.7819L123.203 47.0316ZM126.794 43.5799L127.04 43.6775L126.794 43.5799ZM118.69 35.9147L118.801 36.1546L118.558 36.2673L118.449 36.0224L118.69 35.9147ZM115.424 32.7825L115.327 33.0282L115.424 32.7825ZM107.644 40.5659L107.89 40.4688L107.999 40.7437L107.714 40.8211L107.644 40.5659ZM111.345 51.9795L111.251 51.7321L111.87 51.498L111.583 52.0944L111.345 51.9795ZM111.297 52.0776L111.534 52.1956L111.534 52.1956L111.297 52.0776ZM107.68 54.7124L107.675 54.9767L107.675 54.9767L107.68 54.7124ZM106.281 56.107L106.545 56.1016L106.545 56.1016L106.281 56.107ZM107.742 57.5576L107.747 57.2932L107.747 57.2932L107.742 57.5576ZM115.916 56.188C114.853 55.7652 113.968 55.0831 113.307 54.2431L113.722 53.9162C114.327 54.6848 115.136 55.3091 116.11 55.6966L115.916 56.188ZM124.04 52.6775C122.768 55.8949 119.131 57.4666 115.916 56.188L116.11 55.6966C119.054 56.8673 122.384 55.4282 123.549 52.4822L124.04 52.6775ZM123.423 46.8851C124.524 48.5395 124.825 50.69 124.04 52.6775L123.549 52.4822C124.268 50.6628 123.993 48.6941 122.983 47.178L123.423 46.8851ZM127.04 43.6775C126.345 45.4358 124.943 46.7027 123.29 47.2812L123.116 46.7819C124.629 46.2519 125.912 45.0921 126.549 43.4822L127.04 43.6775ZM123.522 35.5369C126.737 36.8155 128.311 40.4602 127.04 43.6775L126.549 43.4822C127.713 40.5363 126.271 37.1991 123.328 36.0284L123.522 35.5369ZM118.578 35.6747C120.081 34.9771 121.858 34.8753 123.522 35.5369L123.328 36.0284C121.804 35.4226 120.178 35.5154 118.801 36.1546L118.578 35.6747ZM115.521 32.5367C117.102 33.1654 118.287 34.3665 118.931 35.8069L118.449 36.0224C117.859 34.7029 116.775 33.6039 115.327 33.0282L115.521 32.5367ZM107.398 36.0472C108.67 32.8299 112.307 31.2582 115.521 32.5367L115.327 33.0282C112.384 31.8575 109.053 33.2966 107.889 36.2425L107.398 36.0472ZM107.399 40.6629C106.833 39.2318 106.788 37.5901 107.398 36.0472L107.889 36.2425C107.33 37.6555 107.371 39.1578 107.89 40.4688L107.399 40.6629ZM103.398 44.0472C104.152 42.1389 105.739 40.8096 107.575 40.3107L107.714 40.8211C106.031 41.2783 104.579 42.4955 103.889 44.2425L103.398 44.0472ZM106.916 52.1879C103.701 50.9093 102.126 47.2646 103.398 44.0472L103.889 44.2425C102.724 47.1885 104.166 50.5257 107.11 51.6964L106.916 52.1879ZM111.439 52.2268C110.031 52.76 108.426 52.7887 106.916 52.1879L107.11 51.6964C108.493 52.2467 109.962 52.2205 111.251 51.7321L111.439 52.2268ZM111.583 52.0944C111.567 52.1282 111.55 52.162 111.534 52.1956L111.061 51.9596C111.076 51.928 111.092 51.8963 111.107 51.8646L111.583 52.0944ZM111.534 52.1956C110.702 53.8703 109.472 55.0119 107.675 54.9767L107.685 54.448C109.194 54.4775 110.276 53.541 111.061 51.9596L111.534 52.1956ZM107.675 54.9767C107.034 54.9642 106.531 55.4678 106.545 56.1016L106.017 56.1123C105.997 55.1748 106.747 54.4296 107.685 54.448L107.675 54.9767ZM106.545 56.1016C106.559 56.7439 107.097 57.2805 107.747 57.2932L107.737 57.8219C106.807 57.8037 106.037 57.0414 106.017 56.1123L106.545 56.1016ZM107.747 57.2932C110.478 57.3466 112.228 55.7342 113.288 53.9445L113.742 54.2148C112.625 56.1006 110.726 57.8804 107.737 57.8219L107.747 57.2932Z" fill="black" fill-opacity="0.2" style="fill:black;fill-opacity:0.2;"/>
<path fill-rule="evenodd" clip-rule="evenodd" d="M138.514 81.0786C139.147 81.8834 139.994 82.537 141.013 82.9423C144.092 84.1669 147.576 82.6615 148.794 79.5799C149.547 77.6764 149.259 75.6168 148.203 74.0316C149.786 73.4773 151.128 72.2639 151.794 70.5799C153.012 67.4982 151.504 64.0073 148.425 62.7826C146.831 62.1489 145.13 62.2462 143.69 62.9147C143.073 61.5347 141.938 60.3846 140.424 59.7825C137.345 58.5578 133.862 60.0632 132.643 63.1449C132.059 64.6228 132.102 66.1948 132.644 67.5659C130.885 68.0439 129.366 69.3172 128.643 71.1449C127.425 74.2265 128.934 77.7175 132.013 78.9421C133.459 79.5174 134.995 79.4902 136.343 78.9802C136.328 79.0126 136.312 79.0449 136.296 79.0772C135.487 80.7049 134.331 81.7437 132.678 81.7114C131.888 81.6959 131.262 82.3202 131.279 83.1057C131.296 83.8912 131.95 84.5405 132.74 84.556C135.6 84.612 137.425 82.9161 138.514 81.0786Z" fill="white" style="fill:white;fill-opacity:1;"/>
<path d="M138.514 81.0786L138.287 80.9434L138.483 80.6123L138.721 80.9152L138.514 81.0786ZM148.203 74.0316L147.983 74.178L147.794 73.8944L148.116 73.7819L148.203 74.0316ZM143.69 62.9147L143.801 63.1546L143.558 63.2673L143.449 63.0224L143.69 62.9147ZM140.424 59.7825L140.327 60.0282L140.424 59.7825ZM132.644 67.5659L132.89 67.4688L132.999 67.7437L132.714 67.8211L132.644 67.5659ZM136.343 78.9802L136.25 78.7328L136.868 78.499L136.581 79.0952L136.343 78.9802ZM136.296 79.0772L136.059 78.9591L136.059 78.9591L136.296 79.0772ZM132.678 81.7114L132.683 81.447L132.683 81.447L132.678 81.7114ZM131.279 83.1057L131.543 83.1004L131.543 83.1004L131.279 83.1057ZM132.74 84.556L132.744 84.2916L132.744 84.2916L132.74 84.556ZM140.916 83.188C139.852 82.765 138.968 82.0825 138.307 81.242L138.721 80.9152C139.326 81.6843 140.136 82.3089 141.11 82.6966L140.916 83.188ZM149.04 79.6775C147.768 82.8949 144.131 84.4666 140.916 83.188L141.11 82.6966C144.054 83.8673 147.384 82.4282 148.549 79.4822L149.04 79.6775ZM148.423 73.8851C149.524 75.5395 149.825 77.69 149.04 79.6775L148.549 79.4822C149.268 77.6628 148.993 75.6941 147.983 74.178L148.423 73.8851ZM152.04 70.6775C151.345 72.4358 149.943 73.7027 148.29 74.2812L148.116 73.7819C149.629 73.2519 150.912 72.0921 151.549 70.4822L152.04 70.6775ZM148.522 62.5369C151.737 63.8155 153.311 67.4602 152.04 70.6775L151.549 70.4822C152.713 67.5363 151.271 64.1991 148.328 63.0284L148.522 62.5369ZM143.578 62.6747C145.081 61.9771 146.858 61.8753 148.522 62.5369L148.328 63.0284C146.804 62.4226 145.178 62.5154 143.801 63.1546L143.578 62.6747ZM140.521 59.5367C142.102 60.1654 143.287 61.3665 143.931 62.8069L143.449 63.0224C142.859 61.7029 141.775 60.6039 140.327 60.0282L140.521 59.5367ZM132.398 63.0472C133.67 59.8299 137.307 58.2582 140.521 59.5367L140.327 60.0282C137.384 58.8575 134.053 60.2966 132.889 63.2425L132.398 63.0472ZM132.399 67.6629C131.833 66.2318 131.788 64.5901 132.398 63.0472L132.889 63.2425C132.33 64.6555 132.371 66.1578 132.89 67.4688L132.399 67.6629ZM128.398 71.0472C129.152 69.1389 130.739 67.8096 132.575 67.3107L132.714 67.8211C131.031 68.2783 129.579 69.4955 128.889 71.2425L128.398 71.0472ZM131.916 79.1878C128.701 77.9093 127.126 74.2646 128.398 71.0472L128.889 71.2425C127.724 74.1885 129.166 77.5257 132.11 78.6964L131.916 79.1878ZM136.437 79.2276C135.029 79.76 133.426 79.7884 131.916 79.1878L132.11 78.6964C133.493 79.2464 134.96 79.2205 136.25 78.7328L136.437 79.2276ZM136.581 79.0952C136.565 79.1286 136.549 79.162 136.532 79.1952L136.059 78.9591C136.075 78.9279 136.09 78.8966 136.105 78.8652L136.581 79.0952ZM136.532 79.1952C135.701 80.8696 134.47 82.0109 132.673 81.9757L132.683 81.447C134.192 81.4765 135.274 80.5401 136.059 78.9591L136.532 79.1952ZM132.673 81.9757C132.032 81.9632 131.529 82.4668 131.543 83.1004L131.015 83.111C130.994 82.1736 131.745 81.4287 132.683 81.447L132.673 81.9757ZM131.543 83.1004C131.557 83.7423 132.095 84.2789 132.744 84.2916L132.735 84.8203C131.805 84.8022 131.035 84.0401 131.015 83.111L131.543 83.1004ZM132.744 84.2916C135.477 84.3451 137.227 82.7328 138.287 80.9434L138.741 81.2138C137.624 83.0993 135.724 84.8788 132.735 84.8203L132.744 84.2916Z" fill="black" fill-opacity="0.2" style="fill:black;fill-opacity:0.2;"/>
<path fill-rule="evenodd" clip-rule="evenodd" d="M117.654 116.167C117.829 114.576 118.633 113.058 120.008 112.019C122.653 110.022 126.409 110.551 128.398 113.201C129.441 114.591 129.792 116.288 129.507 117.876C131.004 118.102 132.416 118.893 133.398 120.201C135.388 122.852 134.857 126.619 132.212 128.616C130.841 129.652 129.17 130.008 127.602 129.741C127.622 131.587 126.797 133.419 125.212 134.616C122.568 136.613 118.812 136.083 116.822 133.433C116.009 132.35 115.617 131.079 115.618 129.82C113.67 131.024 110.972 131.808 108.309 130.111C107.643 129.686 107.423 128.791 107.818 128.111C108.213 127.432 109.073 127.225 109.739 127.649C111.002 128.455 112.376 128.296 113.768 127.536C112.632 127.17 111.594 126.461 110.823 125.433C108.833 122.783 109.364 119.016 112.009 117.019C113.688 115.75 115.816 115.501 117.654 116.167Z" fill="white" style="fill:white;fill-opacity:1;"/>
<path d="M117.654 116.167L117.917 116.195L117.88 116.53L117.565 116.416L117.654 116.167ZM129.507 117.876L129.468 118.138L129.2 118.097L129.248 117.829L129.507 117.876ZM127.602 129.741L127.338 129.744L127.334 129.427L127.646 129.48L127.602 129.741ZM115.618 129.82L115.48 129.594L115.883 129.346L115.882 129.82L115.618 129.82ZM108.309 130.111L108.45 129.887L108.45 129.887L108.309 130.111ZM107.818 128.111L108.046 128.245L108.046 128.245L107.818 128.111ZM109.739 127.649L109.597 127.873L109.597 127.873L109.739 127.649ZM113.768 127.536L113.849 127.285L114.435 127.474L113.894 127.769L113.768 127.536ZM120.167 112.23C118.852 113.223 118.083 114.674 117.917 116.195L117.392 116.138C117.574 114.478 118.413 112.892 119.85 111.807L120.167 112.23ZM128.187 113.361C126.286 110.827 122.695 110.321 120.167 112.23L119.85 111.807C122.611 109.722 126.532 110.275 128.609 113.042L128.187 113.361ZM129.248 117.829C129.519 116.311 129.185 114.689 128.187 113.361L128.609 113.042C129.698 114.493 130.064 116.265 129.767 117.922L129.248 117.829ZM133.187 120.361C132.249 119.11 130.899 118.354 129.468 118.138L129.547 117.614C131.109 117.85 132.584 118.677 133.609 120.042L133.187 120.361ZM132.054 128.405C134.581 126.496 135.089 122.894 133.187 120.361L133.609 120.042C135.686 122.809 135.132 126.742 132.371 128.827L132.054 128.405ZM127.646 129.48C129.146 129.735 130.742 129.395 132.054 128.405L132.371 128.827C130.939 129.909 129.194 130.28 127.557 130.002L127.646 129.48ZM125.054 134.405C126.568 133.261 127.358 131.51 127.338 129.744L127.866 129.738C127.887 131.665 127.025 133.578 125.371 134.827L125.054 134.405ZM117.033 133.274C118.935 135.807 122.526 136.314 125.054 134.405L125.371 134.827C122.61 136.912 118.688 136.359 116.611 133.592L117.033 133.274ZM115.882 129.82C115.881 131.024 116.255 132.238 117.033 133.274L116.611 133.592C115.762 132.461 115.353 131.135 115.355 129.82L115.882 129.82ZM108.45 129.887C110.992 131.508 113.574 130.773 115.48 129.594L115.757 130.045C113.766 131.275 110.951 132.109 108.167 130.334L108.45 129.887ZM108.046 128.245C107.723 128.8 107.903 129.538 108.45 129.887L108.167 130.334C107.383 129.834 107.123 128.782 107.59 127.978L108.046 128.245ZM109.597 127.873C109.056 127.528 108.365 127.696 108.046 128.245L107.59 127.978C108.061 127.167 109.09 126.922 109.88 127.426L109.597 127.873ZM113.894 127.769C112.45 128.556 110.968 128.747 109.597 127.873L109.88 127.426C111.036 128.163 112.302 128.035 113.642 127.304L113.894 127.769ZM111.033 125.274C111.771 126.257 112.763 126.935 113.849 127.285L113.687 127.788C112.501 127.406 111.417 126.666 110.612 125.592L111.033 125.274ZM112.167 117.23C109.639 119.139 109.132 122.74 111.033 125.274L110.612 125.592C108.535 122.825 109.089 118.892 111.85 116.807L112.167 117.23ZM117.565 116.416C115.806 115.779 113.772 116.018 112.167 117.23L111.85 116.807C113.603 115.483 115.825 115.223 117.744 115.918L117.565 116.416Z" fill="black" fill-opacity="0.2" style="fill:black;fill-opacity:0.2;"/>
<path fill-rule="evenodd" clip-rule="evenodd" d="M91.514 159.079C92.1471 159.883 92.9941 160.537 94.0131 160.942C97.0922 162.167 100.576 160.662 101.794 157.58C102.547 155.676 102.259 153.617 101.203 152.032C102.786 151.477 104.128 150.264 104.794 148.58C106.012 145.498 104.504 142.007 101.425 140.783C99.8314 140.149 98.1297 140.246 96.6897 140.915C96.0726 139.535 94.9383 138.385 93.4243 137.782C90.3452 136.558 86.8615 138.063 85.6433 141.145C85.059 142.623 85.102 144.195 85.6445 145.566C83.8852 146.044 82.3658 147.317 81.6433 149.145C80.4251 152.227 81.9336 155.717 85.0127 156.942C86.4593 157.517 87.9951 157.49 89.3434 156.98C89.3278 157.013 89.312 157.045 89.296 157.077C88.4875 158.705 87.3315 159.744 85.6783 159.712C84.8885 159.696 84.262 160.32 84.2791 161.106C84.2961 161.891 84.9502 162.541 85.74 162.556C88.6006 162.612 90.4253 160.916 91.514 159.079Z" fill="white" style="fill:white;fill-opacity:1;"/>
<path d="M91.514 159.079L91.2869 158.944L91.483 158.612L91.7213 158.915L91.514 159.079ZM101.203 152.032L100.983 152.178L100.794 151.894L101.116 151.782L101.203 152.032ZM96.6897 140.915L96.8011 141.155L96.5583 141.267L96.4488 141.022L96.6897 140.915ZM93.4243 137.782L93.3272 138.028L93.4243 137.782ZM85.6445 145.566L85.8899 145.469L85.9987 145.744L85.714 145.821L85.6445 145.566ZM89.3434 156.98L89.2498 156.733L89.868 156.499L89.5814 157.095L89.3434 156.98ZM89.296 157.077L89.5324 157.195L89.5324 157.195L89.296 157.077ZM85.6783 159.712L85.6735 159.976L85.6735 159.976L85.6783 159.712ZM84.2791 161.106L84.5431 161.101L84.5431 161.101L84.2791 161.106ZM85.74 162.556L85.7352 162.821L85.7352 162.821L85.74 162.556ZM93.9159 161.188C92.8525 160.765 91.9678 160.083 91.3067 159.242L91.7213 158.915C92.3263 159.684 93.1357 160.309 94.1102 160.697L93.9159 161.188ZM102.04 157.678C100.768 160.895 97.1307 162.467 93.9159 161.188L94.1102 160.697C97.0537 161.867 100.384 160.428 101.549 157.482L102.04 157.678ZM101.423 151.885C102.524 153.539 102.825 155.69 102.04 157.678L101.549 157.482C102.268 155.663 101.993 153.694 100.983 152.178L101.423 151.885ZM105.04 148.678C104.345 150.436 102.943 151.703 101.29 152.281L101.116 151.782C102.629 151.252 103.912 150.092 104.549 148.482L105.04 148.678ZM101.522 140.537C104.737 141.815 106.311 145.46 105.04 148.678L104.549 148.482C105.713 145.536 104.271 142.199 101.328 141.028L101.522 140.537ZM96.5784 140.675C98.0814 139.977 99.8584 139.875 101.522 140.537L101.328 141.028C99.8044 140.423 98.1781 140.515 96.8011 141.155L96.5784 140.675ZM93.5214 137.537C95.102 138.165 96.2865 139.367 96.9307 140.807L96.4488 141.022C95.8587 139.703 94.7746 138.604 93.3272 138.028L93.5214 137.537ZM85.3978 141.047C86.6696 137.83 90.3067 136.258 93.5214 137.537L93.3272 138.028C90.3836 136.857 87.0534 138.297 85.8888 141.243L85.3978 141.047ZM85.399 145.663C84.8327 144.232 84.7878 142.59 85.3978 141.047L85.8888 141.243C85.3303 142.655 85.3712 144.158 85.8899 145.469L85.399 145.663ZM81.3978 149.047C82.1522 147.139 83.7389 145.81 85.575 145.311L85.714 145.821C84.0315 146.278 82.5794 147.495 81.8888 149.243L81.3978 149.047ZM84.9156 157.188C81.7009 155.909 80.1259 152.265 81.3978 149.047L81.8888 149.243C80.7242 152.188 82.1663 155.526 85.1099 156.696L84.9156 157.188ZM89.4371 157.227C88.0296 157.76 86.4257 157.788 84.9156 157.188L85.1099 156.696C86.4928 157.246 87.9606 157.22 89.2498 156.733L89.4371 157.227ZM89.5814 157.095C89.5653 157.129 89.549 157.162 89.5324 157.195L89.0595 156.959C89.075 156.928 89.0904 156.897 89.1055 156.865L89.5814 157.095ZM89.5324 157.195C88.7008 158.87 87.4706 160.011 85.6735 159.976L85.683 159.447C87.1925 159.477 88.2743 158.54 89.0595 156.959L89.5324 157.195ZM85.6735 159.976C85.0318 159.963 84.5293 160.467 84.5431 161.101L84.0151 161.111C83.9948 160.174 84.7451 159.429 85.683 159.447L85.6735 159.976ZM84.5431 161.101C84.557 161.743 85.0951 162.279 85.7447 162.292L85.7352 162.821C84.8053 162.802 84.0352 162.04 84.0151 161.111L84.5431 161.101ZM85.7447 162.292C88.4769 162.345 90.2267 160.733 91.2869 158.944L91.7411 159.214C90.624 161.099 88.7243 162.879 85.7352 162.821L85.7447 162.292Z" fill="black" fill-opacity="0.2" style="fill:black;fill-opacity:0.2;"/>
</g>
<mask id="path-39-outside-1_2536_8329" maskUnits="userSpaceOnUse" x="14" y="39" width="115" height="116" fill="black">
<rect fill="white" x="14" y="39" width="115" height="116"/>
<path fill-rule="evenodd" clip-rule="evenodd" d="M48 152C56.5129 152 64.2243 148.569 69.8266 143.014C70.7444 142.104 72.2556 142.104 73.1734 143.014C78.7757 148.569 86.4871 152 95 152C112.121 152 126 138.121 126 121C126 112.253 122.378 104.353 116.551 98.7166C115.591 97.7883 115.591 96.2117 116.551 95.2834C122.378 89.6472 126 81.7466 126 73C126 55.8792 112.121 42 95 42C86.4871 42 78.7757 45.4314 73.1734 50.9864C72.2556 51.8964 70.7444 51.8964 69.8266 50.9864C64.2243 45.4314 56.5129 42 48 42C30.8792 42 17 55.8792 17 73C17 81.7466 20.6224 89.6472 26.4489 95.2834C27.4085 96.2117 27.4085 97.7883 26.4489 98.7166C20.6224 104.353 17 112.253 17 121C17 138.121 30.8792 152 48 152Z"/>
</mask>
<path d="M116.551 98.7166L118.021 97.1973L116.551 98.7166ZM116.551 95.2834L115.081 93.7641L116.551 95.2834ZM26.4489 98.7166L24.9791 97.1973L26.4489 98.7166ZM69.8266 143.014L71.315 144.515L69.8266 143.014ZM73.1734 143.014L71.685 144.515L73.1734 143.014ZM68.3383 141.513C63.1157 146.691 55.933 149.886 48 149.886V154.114C57.0927 154.114 65.3329 150.446 71.315 144.515L68.3383 141.513ZM95 149.886C87.067 149.886 79.8843 146.691 74.6617 141.513L71.685 144.515C77.6671 150.446 85.9073 154.114 95 154.114V149.886ZM123.886 121C123.886 136.953 110.953 149.886 95 149.886V154.114C113.288 154.114 128.114 139.288 128.114 121H123.886ZM115.081 100.236C120.513 105.49 123.886 112.849 123.886 121H128.114C128.114 111.657 124.242 103.215 118.021 97.1973L115.081 100.236ZM123.886 73C123.886 81.1506 120.513 88.5097 115.081 93.7641L118.021 96.8027C124.242 90.7848 128.114 82.3427 128.114 73H123.886ZM95 44.1139C110.953 44.1139 123.886 57.0466 123.886 73H128.114C128.114 54.7117 113.288 39.8861 95 39.8861V44.1139ZM74.6617 52.4875C79.8843 47.309 87.067 44.1139 95 44.1139V39.8861C85.9073 39.8861 77.6671 43.5538 71.685 49.4854L74.6617 52.4875ZM48 44.1139C55.933 44.1139 63.1157 47.309 68.3383 52.4875L71.315 49.4854C65.3329 43.5538 57.0927 39.8861 48 39.8861V44.1139ZM19.1139 73C19.1139 57.0466 32.0466 44.1139 48 44.1139V39.8861C29.7117 39.8861 14.8861 54.7117 14.8861 73H19.1139ZM27.9186 93.7641C22.4868 88.5097 19.1139 81.1506 19.1139 73H14.8861C14.8861 82.3427 18.758 90.7848 24.9791 96.8027L27.9186 93.7641ZM19.1139 121C19.1139 112.849 22.4868 105.49 27.9186 100.236L24.9791 97.1973C18.758 103.215 14.8861 111.657 14.8861 121H19.1139ZM48 149.886C32.0466 149.886 19.1139 136.953 19.1139 121H14.8861C14.8861 139.288 29.7117 154.114 48 154.114V149.886ZM71.685 49.4854C71.6454 49.5247 71.5835 49.555 71.5 49.555C71.4165 49.555 71.3546 49.5247 71.315 49.4854L68.3383 52.4875C70.08 54.2145 72.92 54.2145 74.6617 52.4875L71.685 49.4854ZM118.021 97.1973C117.979 97.157 117.945 97.0914 117.945 97C117.945 96.9086 117.979 96.843 118.021 96.8027L115.081 93.7641C113.263 95.5232 113.263 98.4768 115.081 100.236L118.021 97.1973ZM24.9791 96.8027C25.0208 96.843 25.0547 96.9086 25.0547 97C25.0547 97.0914 25.0208 97.157 24.9791 97.1973L27.9186 100.236C29.7371 98.4768 29.7371 95.5232 27.9186 93.7641L24.9791 96.8027ZM71.315 144.515C71.3546 144.475 71.4165 144.445 71.5 144.445C71.5835 144.445 71.6454 144.475 71.685 144.515L74.6617 141.513C72.92 139.785 70.08 139.785 68.3383 141.513L71.315 144.515Z" fill="url(#paint0_radial_2536_8329)" fill-opacity="0.5" style="" mask="url(#path-39-outside-1_2536_8329)"/>
</g>
<g filter="url(#filter0_b_2536_8329)">
<rect x="3" y="165" width="138" height="41" rx="4.22771" fill="white" fill-opacity="0.5" style="fill:white;fill-opacity:0.5;"/>
<rect x="3.26423" y="165.264" width="137.472" height="40.4715" rx="3.96348" stroke="white" style="stroke:white;stroke-opacity:1;" stroke-width="0.528464"/>
</g>
<path fill-rule="evenodd" clip-rule="evenodd" d="M17 8.5C17 13.1944 13.1944 17 8.50001 17C7.62995 17 6.79043 16.8693 6.00001 16.6264L6 194.374C6.79042 194.131 7.62995 194 8.50001 194C13.1944 194 17 197.806 17 202.5C17 203.37 16.8693 204.21 16.6264 205H126.374C126.131 204.21 126 203.37 126 202.5C126 197.806 129.806 194 134.5 194C135.37 194 136.21 194.131 137 194.374L137 16.6264C136.21 16.8693 135.37 17 134.5 17C129.806 17 126 13.1944 126 8.5C126 7.62995 126.131 6.79042 126.374 6H16.6264C16.8693 6.79042 17 7.62995 17 8.5ZM0.0144703 203C0.273279 207.462 3.97344 211 8.50001 211C8.66786 211 8.83457 210.995 9.00001 210.986V211H134V210.986C134.165 210.995 134.332 211 134.5 211C139.027 211 142.727 207.462 142.986 203H143V202.516L143 202.5L143 202.484L143 8.50082V8.5V8.49918V8H142.986C142.736 3.70375 139.296 0.263674 135 0.0144617V0H134.5H8.50001H8.00001V0.0144618C3.70376 0.263674 0.263683 3.70375 0.0144703 8H8.52623e-06V8.5V202.5L0 203H0.0144703Z" fill="#2C94CC" style="fill:#2C94CC;fill:color(display-p3 0.1725 0.5804 0.8000);fill-opacity:1;"/>
<path fill-rule="evenodd" clip-rule="evenodd" d="M7.5 6C7.88418 6 8.23462 6.14443 8.5 6.38195C8.76538 6.14443 9.11582 6 9.5 6C10.3284 6 11 6.67157 11 7.5C11 7.88418 10.8556 8.23462 10.6181 8.5C10.8556 8.76538 11 9.11582 11 9.5C11 10.3284 10.3284 11 9.5 11C9.48738 11 9.47479 10.9998 9.46225 10.9995C9.45773 11.0469 9.43949 11.0972 9.40628 11.1476C9.28275 11.3348 8.99887 11.4523 8.77222 11.4099C8.35369 11.3316 8.08044 11.1599 7.90892 10.9436C7.77893 10.9803 7.64176 11 7.5 11C6.67157 11 6 10.3284 6 9.5C6 9.11582 6.14443 8.76538 6.38195 8.5C6.14443 8.23462 6 7.88418 6 7.5C6 6.67157 6.67157 6 7.5 6Z" fill="white" style="fill:white;fill-opacity:1;"/>
<path fill-rule="evenodd" clip-rule="evenodd" d="M7.5 205C7.88418 205 8.23462 204.856 8.5 204.618C8.76538 204.856 9.11582 205 9.5 205C10.3284 205 11 204.328 11 203.5C11 203.116 10.8556 202.765 10.6181 202.5C10.8556 202.235 11 201.884 11 201.5C11 200.672 10.3284 200 9.5 200C9.48701 200 9.47405 200 9.46113 200C9.45661 199.953 9.43836 199.903 9.40515 199.852C9.2816 199.665 8.99776 199.548 8.77117 199.59C8.35271 199.668 8.07955 199.84 7.90814 200.056C7.77838 200.02 7.64148 200 7.5 200C6.67157 200 6 200.672 6 201.5C6 201.884 6.14443 202.235 6.38195 202.5C6.14443 202.765 6 203.116 6 203.5C6 204.328 6.67157 205 7.5 205Z" fill="white" style="fill:white;fill-opacity:1;"/>
<path fill-rule="evenodd" clip-rule="evenodd" d="M135.5 6C135.116 6 134.765 6.14443 134.5 6.38195C134.235 6.14443 133.884 6 133.5 6C132.672 6 132 6.67157 132 7.5C132 7.88418 132.144 8.23462 132.382 8.5C132.144 8.76538 132 9.11582 132 9.5C132 10.3284 132.672 11 133.5 11C133.513 11 133.525 10.9998 133.538 10.9995C133.542 11.0469 133.561 11.0972 133.594 11.1476C133.717 11.3348 134.001 11.4523 134.228 11.4099C134.646 11.3316 134.92 11.1599 135.091 10.9436C135.221 10.9803 135.358 11 135.5 11C136.328 11 137 10.3284 137 9.5C137 9.11582 136.856 8.76538 136.618 8.5C136.856 8.23462 137 7.88418 137 7.5C137 6.67157 136.328 6 135.5 6Z" fill="white" style="fill:white;fill-opacity:1;"/>
<path fill-rule="evenodd" clip-rule="evenodd" d="M135.5 205C135.116 205 134.765 204.856 134.5 204.618C134.235 204.856 133.884 205 133.5 205C132.672 205 132 204.328 132 203.5C132 203.116 132.144 202.765 132.382 202.5C132.144 202.235 132 201.884 132 201.5C132 200.672 132.672 200 133.5 200C133.513 200 133.526 200 133.539 200C133.543 199.953 133.562 199.903 133.595 199.852C133.718 199.665 134.002 199.548 134.229 199.59C134.647 199.668 134.92 199.84 135.092 200.056C135.222 200.02 135.359 200 135.5 200C136.328 200 137 200.672 137 201.5C137 201.884 136.856 202.235 136.618 202.5C136.856 202.765 137 203.116 137 203.5C137 204.328 136.328 205 135.5 205Z" fill="white" style="fill:white;fill-opacity:1;"/>
<defs>
<filter id="filter0_b_2536_8329" x="-18.1386" y="143.861" width="180.277" height="83.2771" filterUnits="userSpaceOnUse" color-interpolation-filters="sRGB">
<feFlood flood-opacity="0" result="BackgroundImageFix"/>
<feGaussianBlur in="BackgroundImageFix" stdDeviation="10.5693"/>
<feComposite in2="SourceAlpha" operator="in" result="effect1_backgroundBlur_2536_8329"/>
<feBlend mode="normal" in="SourceGraphic" in2="effect1_backgroundBlur_2536_8329" result="shape"/>
</filter>
<radialGradient id="paint0_radial_2536_8329" cx="0" cy="0" r="1" gradientUnits="userSpaceOnUse" gradientTransform="translate(70.1488 94.9539) rotate(90) scale(66.59 65.9849)">
<stop stop-color="white" style="stop-color:white;stop-opacity:1;"/>
<stop offset="1" stop-color="white" stop-opacity="0.5" style="stop-color:white;stop-opacity:0.5;"/>
</radialGradient>
</defs>
</svg>
